<?xml version="1.0" encoding="UTF-8" standalone="no"?>
<!-- Created with Inkscape (http://www.inkscape.org/) -->

<svg
   xmlns:dc="http://purl.org/dc/elements/1.1/"
   xmlns:cc="http://creativecommons.org/ns#"
   xmlns:rdf="http://www.w3.org/1999/02/22-rdf-syntax-ns#"
   xmlns:svg="http://www.w3.org/2000/svg"
   xmlns="http://www.w3.org/2000/svg"
   xmlns:sodipodi="http://sodipodi.sourceforge.net/DTD/sodipodi-0.dtd"
   xmlns:inkscape="http://www.inkscape.org/namespaces/inkscape"
   id="svg2626"
   sodipodi:version="0.32"
   inkscape:version="0.48.2 r9819"
   width="359.950389147"
   height="277.816063033" viewBox="0 0 1261.4054 973.57495"
   version="1.0"
   sodipodi:docname="Hong_Kong_Civic_Party_Logo.svg"
   inkscape:output_extension="org.inkscape.output.svg.inkscape">
  <metadata
     id="metadata2631">
    <rdf:RDF>
      <cc:Work
         rdf:about="">
        <dc:format>image/svg+xml</dc:format>
        <dc:type
           rdf:resource="http://purl.org/dc/dcmitype/StillImage" />
      </cc:Work>
    </rdf:RDF>
  </metadata>
  <defs
     id="defs2629">
    <inkscape:perspective
       sodipodi:type="inkscape:persp3d"
       inkscape:vp_x="0 : 526.18109 : 1"
       inkscape:vp_y="0 : 1000 : 0"
       inkscape:vp_z="744.09448 : 526.18109 : 1"
       inkscape:persp3d-origin="372.04724 : 350.78739 : 1"
       id="perspective2633" />
    <inkscape:perspective
       id="perspective2730"
       inkscape:persp3d-origin="372.04724 : 350.78739 : 1"
       inkscape:vp_z="744.09448 : 526.18109 : 1"
       inkscape:vp_y="0 : 1000 : 0"
       inkscape:vp_x="0 : 526.18109 : 1"
       sodipodi:type="inkscape:persp3d" />
    <inkscape:perspective
       id="perspective2747"
       inkscape:persp3d-origin="372.04724 : 350.78739 : 1"
       inkscape:vp_z="744.09448 : 526.18109 : 1"
       inkscape:vp_y="0 : 1000 : 0"
       inkscape:vp_x="0 : 526.18109 : 1"
       sodipodi:type="inkscape:persp3d" />
    <inkscape:perspective
       id="perspective3462"
       inkscape:persp3d-origin="265.53 : 136.62743 : 1"
       inkscape:vp_z="531.06 : 204.94115 : 1"
       inkscape:vp_y="0 : 1000 : 0"
       inkscape:vp_x="0 : 204.94115 : 1"
       sodipodi:type="inkscape:persp3d" />
  </defs>
  <sodipodi:namedview
     inkscape:window-height="756"
     inkscape:window-width="1280"
     inkscape:pageshadow="2"
     inkscape:pageopacity="0.0"
     guidetolerance="10.0"
     gridtolerance="10.0"
     objecttolerance="10.0"
     borderopacity="1.0"
     bordercolor="#666666"
     pagecolor="#ffffff"
     id="base"
     showgrid="false"
     showguides="true"
     inkscape:guide-bbox="true"
     inkscape:zoom="0.35355339"
     inkscape:cx="645.05428"
     inkscape:cy="594.79534"
     inkscape:window-x="0"
     inkscape:window-y="22"
     inkscape:current-layer="svg2626"
     fit-margin-top="0"
     fit-margin-left="0"
     fit-margin-right="0"
     fit-margin-bottom="0"
     inkscape:window-maximized="0" />
  <g
     id="g2671"
     transform="translate(-185.37191,-179.86521)" />
  <g
     id="layer1"
     inkscape:label="Layer 1"
     transform="matrix(2.3752595,0,0,2.3752595,5.5706951e-5,-9.2590131e-4)">
    <g
       id="g2166">
      <path
         sodipodi:type="arc"
         style="fill:#ffffff;fill-opacity:1;fill-rule:nonzero;stroke:none"
         id="path2162"
         sodipodi:cx="208.37379"
         sodipodi:cy="152.78429"
         sodipodi:rx="202.15367"
         sodipodi:ry="78.788101"
         d="m 410.52747,152.78429 c 0,43.51346 -90.50729,78.7881 -202.15368,78.7881 -111.646385,0 -202.1536667,-35.27464 -202.1536667,-78.7881 0,-43.51347 90.5072817,-78.788105 202.1536667,-78.788105 111.64639,0 202.15368,35.274635 202.15368,78.788105 z"
         transform="matrix(0.9698667,-0.3639258,0.3513145,0.9362575,7.5479749,135.33236)" />
      <g
         id="g3212"
         transform="matrix(0.4207126,0,0,0.4207126,51.174186,21.846396)">
        <path
           id="path2239"
           d="m 136.85714,732.0469 c -83.314697,-3.34121 -153.103597,-22.91184 -199.833897,-56.03863 -10.7061,-7.58953 -30.874,-27.82279 -37.168503,-37.28893 -14.642,-22.01998 -21.5047,-44.33425 -21.4917,-69.88099 0.0446,-87.93444 82.670803,-198.97243 230.4941,-309.75177 133.9853,-100.4091 313.00755,-192.289774 496.5,-254.8217453 79.9456,-27.2444837 162.10022,-46.7869637 230.6799,-54.8728637 l 11.1799,-1.31817 -1.8647,3.57277 c -7.141,13.68239 -112.09618,195.701549 -113.15867,196.246109 -0.73504,0.37673 -9.43643,2.09255 -19.33643,3.81293 -31.96653,5.555 -73.5357,15.44155 -106,25.21036 l -11,3.31 -25.70872,48.49669 -25.70871,48.49668 -41.79129,14.07933 c -44.33375,14.93587 -62.2934,21.51005 -95.29128,34.88163 -163.6463,66.31362 -293.646,150.3632 -335.326397,216.80078 -28.9214,46.10006 -13.3578,80.14138 43.058997,94.18026 70.5305,17.55099 196.37307,3.64179 338.25028,-37.38632 11.26559,-3.25779 20.54911,-5.84054 20.63004,-5.73946 0.0809,0.10108 -11.36444,21.85382 -25.43417,48.33943 l -25.58132,48.15565 -21.54872,6.06261 c -94.50723,26.58911 -184.58231,38.66057 -264.54871,35.45365 z"
           style="fill:#7d4199;fill-opacity:1;stroke:none"
           inkscape:connector-curvature="0" />
        <path
           style="fill:#d5e14d;fill-opacity:1;stroke:none"
           d="m 882.1558,138.35604 c 83.3147,3.34121 153.1037,22.91184 199.834,56.03863 10.7061,7.58953 30.874,27.82279 37.1685,37.28893 14.642,22.01998 21.5047,44.33425 21.4917,69.88099 -0.045,87.93444 -82.6708,198.97243 -230.4942,309.75177 -133.9853,100.4091 -313.00755,192.28978 -496.5,254.82175 -79.9456,27.24447 -162.10022,46.78697 -230.6799,54.87287 l -11.1799,1.3182 1.8647,-3.5728 c 7.141,-13.6824 112.09618,-195.70156 113.15867,-196.24612 0.73504,-0.37673 9.43643,-2.09255 19.33643,-3.81293 31.96653,-5.555 73.5357,-15.44155 106,-25.21036 l 11,-3.31 25.70872,-48.49669 25.70871,-48.49668 41.79129,-14.07933 c 44.33375,-14.93587 62.2934,-21.51005 95.29128,-34.88163 163.6463,-66.31362 293.646,-150.3632 335.3264,-216.80078 28.9214,-46.10006 13.3578,-80.14138 -43.059,-94.18026 -70.5305,-17.55099 -196.37307,-3.64179 -338.25028,37.38632 -11.26559,3.25779 -20.54911,5.84054 -20.63004,5.73946 -0.0809,-0.10108 11.36444,-21.85382 25.43417,-48.33943 l 25.58132,-48.15565 21.54872,-6.06261 C 712.11432,147.22058 802.1894,135.14912 882.1558,138.35604 z"
           id="path3210"
           inkscape:connector-curvature="0" />
      </g>
    </g>
  </g>
</svg>
