<?xml version="1.0" encoding="UTF-8" standalone="no"?>
<!-- Created with Inkscape (http://www.inkscape.org/) -->

<svg
   xmlns:dc="http://purl.org/dc/elements/1.1/"
   xmlns:cc="http://creativecommons.org/ns#"
   xmlns:rdf="http://www.w3.org/1999/02/22-rdf-syntax-ns#"
   xmlns:svg="http://www.w3.org/2000/svg"
   xmlns="http://www.w3.org/2000/svg"
   xmlns:sodipodi="http://sodipodi.sourceforge.net/DTD/sodipodi-0.dtd"
   xmlns:inkscape="http://www.inkscape.org/namespaces/inkscape"
   width="316"
   height="316"
   viewBox="0 0 443.41357 431.89838"
   id="svg2"
   version="1.1"
   inkscape:version="0.48.2 r9819"
   sodipodi:docname="LABOUR LOGO.svg">
  <defs
     id="defs4" />
  <sodipodi:namedview
     id="base"
     pagecolor="#ffffff"
     bordercolor="#666666"
     borderopacity="1.0"
     inkscape:pageopacity="0.0"
     inkscape:pageshadow="2"
     inkscape:zoom="0.6"
     inkscape:cx="175.39185"
     inkscape:cy="76.310387"
     inkscape:document-units="px"
     inkscape:current-layer="layer1"
     showgrid="false"
     fit-margin-top="0"
     fit-margin-left="0"
     fit-margin-right="0"
     fit-margin-bottom="0"
     inkscape:window-width="1049"
     inkscape:window-height="699"
     inkscape:window-x="0"
     inkscape:window-y="0"
     inkscape:window-maximized="0" />
  <metadata
     id="metadata7">
    <rdf:RDF>
      <cc:Work
         rdf:about="">
        <dc:format>image/svg+xml</dc:format>
        <dc:type
           rdf:resource="http://purl.org/dc/dcmitype/StillImage" />
        <dc:title></dc:title>
      </cc:Work>
    </rdf:RDF>
  </metadata>
  <g
     inkscape:label="Layer 1"
     inkscape:groupmode="layer"
     id="layer1"
     transform="translate(36.010893,-241.15517)">
    <g
       id="g3171"
       transform="matrix(1.8657659,0,0,1.8657659,-847.11298,-925.89259)">
      <path
         style="fill:#f6931d"
         d="m 574.24049,815.05789 c 14.30234,-4.88361 30.16699,-12.38919 39.14928,-18.52156 8.33604,-5.69117 14.77839,-12.4717 21.37514,-22.4972 11.21417,-17.0429 16.58761,-31.30507 17.53561,-46.54295 l 0.58713,-9.4374 1.36466,4.4374 c 9.21233,29.95535 9.72724,48.65169 1.83159,66.50515 -3.45835,7.81994 -7.03731,12.04649 -14.84197,17.52748 -13.61531,9.56166 -23.78025,11.80697 -56.67049,12.51782 l -23.5,0.50791 z m -54.44421,-3.07663 c -17.00942,-3.88245 -33.3604,-16.63448 -40.52921,-31.60849 -9.15758,-19.12812 -8.45128,-40.91807 1.93434,-59.67593 4.49699,-8.12217 13.95093,-19.97125 19.33942,-24.23901 l 4.26479,-3.37777 -1.50666,2.92676 c -2.51263,4.88091 -7.75967,20.49445 -9.38499,27.92677 -2.25837,10.32716 -1.98594,24.5939 0.61106,32 5.73582,16.35732 19.80665,28.01233 38.63397,32.00088 8.75825,1.85543 25.39238,1.9006 36.48987,0.0991 9.37044,-1.52115 25.55383,-5.71231 31.2549,-8.09437 6.59364,-2.755 6.35327,-1.54644 -1.24079,6.23854 -11.07713,11.35561 -25.64987,19.46195 -42.97266,23.90428 -12.12699,3.10989 -28.00829,3.92744 -36.89404,1.89924 z m 28.1512,-34.03865 c -7.99116,-1.73811 -19.93678,-7.30643 -27.96632,-13.03619 -3.52534,-2.51563 -6.40972,-4.70562 -6.40972,-4.86663 0,-0.16101 3.0375,0.29162 6.75,1.00584 22.48331,4.32541 37.25531,3.81366 48.87657,-1.69323 12.60725,-5.97412 20.37343,-19.86756 20.37343,-36.44741 0,-15.01047 -9.36945,-31.81238 -24.33784,-43.64421 l -4.84176,-3.82719 3.00071,0 c 4.67848,0 14.67096,3.46557 20.17347,6.99652 6.2606,4.01742 17.43354,15.95645 21.8826,23.38303 7.148,11.93177 10.13453,24.69596 8.21183,35.09677 -1.61383,8.72999 -4.70304,14.26897 -12.02494,21.56078 -14.21129,14.15289 -33.79928,19.79779 -53.68803,15.47192 z m 75.02718,-11.50902 c 4.02774,-16.4244 4.43864,-34.75793 1.06461,-47.5 -5.93931,-22.4299 -23.53525,-41.17971 -48.00948,-51.15775 -18.98399,-7.73969 -37.15099,-6.35015 -59.45835,4.5478 l -6.5,3.17549 4.40355,-3.94229 c 10.26149,-9.18661 31.02564,-18.10912 46.565,-20.00932 18.18358,-2.22355 38.24381,3.17058 55.62952,14.95859 22.61326,15.33244 31.55519,47.11935 21.4385,76.20988 -2.49457,7.17313 -8.69604,18.14114 -13.12756,23.2176 -2.56256,2.9355 -2.60568,2.94625 -2.00579,0.5 z m -94.20674,-20.05968 c -6.09974,-3.04808 -10.14018,-7.12793 -13.80566,-13.94032 -1.44711,-2.6895 -1.88196,-5.58415 -1.87781,-12.5 0.005,-7.83152 0.3551,-9.66517 2.69886,-14.12335 3.44497,-6.55282 10.55509,-12.80637 16.99098,-14.94403 7.48233,-2.48523 19.08757,-1.62455 25.0268,1.85607 9.81678,5.75302 14.99257,14.78512 14.99257,26.16304 0,9.65513 -2.79048,16.03906 -9.81851,22.46228 -6.37761,5.82877 -12.35763,8.08599 -21.42213,8.08599 -5.43046,0 -7.79412,-0.56566 -12.7851,-3.05968 z m -69.52536,-8.48249 c -3.09,-32.72887 4.91615,-65.44485 20.69748,-84.5773 21.34557,-25.87822 59.85786,-34.91728 93.36663,-21.91369 6.4529,2.50415 22.26477,11.46976 22.26477,12.62452 0,0.24711 -1.69295,-0.41439 -3.7621,-1.46999 -8.71281,-4.44495 -18.27869,-6.55587 -29.7379,-6.56232 -12.57375,-0.007 -20.11123,1.65804 -31.19109,6.89045 -30.14599,14.23632 -58.88258,49.52021 -67.18382,82.49089 -1.1688,4.64222 -2.15672,10.04222 -2.19538,12 -0.14499,7.34308 -1.58306,7.67254 -2.25859,0.51744 z"
         id="path3179"
         inkscape:connector-curvature="0"
         sodipodi:nodetypes="sssscsssscssssscsssssssssssssssscsssssssssscsssssssscsssssssssssssssss" />
      <path
         style="fill:#0c6935"
         d="m 505.07144,856.40284 c -25.31115,-2.25682 -39.42857,-7.60263 -50.73686,-19.21243 -6.02722,-6.18791 -13.19441,-18.25921 -15.77644,-26.57139 -6.37089,-20.50935 -4.76773,-55.75765 4.62482,-101.68543 3.4602,-16.9197 11.39068,-48.83113 11.98708,-48.23473 0.17211,0.1721 -0.31177,3.89533 -1.07529,8.27382 -4.32528,24.80384 -5.30916,60.88531 -2.20965,81.0335 5.84145,37.97201 19.86093,58.98744 46.84456,70.22075 20.23525,8.42395 36.14713,11.28125 66.34178,11.91301 31.76956,0.66471 61.51519,-2.67563 95,-10.66819 6.6,-1.57537 12.13689,-2.72903 12.3042,-2.5637 0.16731,0.16533 -1.63269,0.99036 -4,1.8334 -2.36731,0.84304 -13.29753,4.75595 -24.28937,8.69535 -32.41389,11.61691 -66.87722,21.45767 -89.47216,25.54814 -10.45336,1.89243 -36.01564,2.62401 -49.54267,1.4179 z"
         id="path3173"
         inkscape:connector-curvature="0"
         sodipodi:nodetypes="sssscssssssssss" />
    </g>
  </g>
</svg>
