<?xml version="1.0" encoding="UTF-8" standalone="no"?>
<!-- Created with Inkscape (http://www.inkscape.org/) -->

<svg
   xmlns:dc="http://purl.org/dc/elements/1.1/"
   xmlns:cc="http://creativecommons.org/ns#"
   xmlns:rdf="http://www.w3.org/1999/02/22-rdf-syntax-ns#"
   xmlns:svg="http://www.w3.org/2000/svg"
   xmlns="http://www.w3.org/2000/svg"
   xmlns:xlink="http://www.w3.org/1999/xlink"
   xmlns:sodipodi="http://sodipodi.sourceforge.net/DTD/sodipodi-0.dtd"
   xmlns:inkscape="http://www.inkscape.org/namespaces/inkscape"
   id="svg7595"
   version="1.1"
   inkscape:version="0.91 r13725"
   width="125.91046"
   height="137.4178"
   viewBox="0 0 125.91046 137.4178"
   sodipodi:docname="Neo Democrats SVG.svg">
  <metadata
     id="metadata7601">
    <rdf:RDF>
      <cc:Work
         rdf:about="">
        <dc:format>image/svg+xml</dc:format>
        <dc:type
           rdf:resource="http://purl.org/dc/dcmitype/StillImage" />
        <dc:title></dc:title>
      </cc:Work>
    </rdf:RDF>
  </metadata>
  <defs
     id="defs7599">
    <linearGradient
       inkscape:collect="always"
       id="linearGradient4160">
      <stop
         style="stop-color:#e10313;stop-opacity:1;"
         offset="0"
         id="stop4162" />
      <stop
         style="stop-color:#f6c00e;stop-opacity:0.741"
         offset="1"
         id="stop4164" />
    </linearGradient>
    <linearGradient
       inkscape:collect="always"
       id="linearGradient8187">
      <stop
         style="stop-color:#e50114;stop-opacity:1;"
         offset="0"
         id="stop8189" />
      <stop
         style="stop-color:#fcc30c;stop-opacity:1"
         offset="1"
         id="stop8191" />
    </linearGradient>
    <linearGradient
       inkscape:collect="always"
       id="linearGradient8177">
      <stop
         style="stop-color:#e40913;stop-opacity:1;"
         offset="0"
         id="stop8179" />
      <stop
         style="stop-color:#f0c116;stop-opacity:1"
         offset="1"
         id="stop8181" />
    </linearGradient>
    <linearGradient
       inkscape:collect="always"
       id="linearGradient8167">
      <stop
         style="stop-color:#df0112;stop-opacity:1;"
         offset="0"
         id="stop8169" />
      <stop
         style="stop-color:#fbc201;stop-opacity:1"
         offset="1"
         id="stop8171" />
    </linearGradient>
    <linearGradient
       inkscape:collect="always"
       id="linearGradient8157">
      <stop
         style="stop-color:#e20316;stop-opacity:1;"
         offset="0"
         id="stop8159" />
      <stop
         style="stop-color:#fdc008;stop-opacity:1"
         offset="1"
         id="stop8161" />
    </linearGradient>
    <linearGradient
       inkscape:collect="always"
       id="linearGradient8147">
      <stop
         style="stop-color:#e15805;stop-opacity:1;"
         offset="0"
         id="stop8149" />
      <stop
         style="stop-color:#fbc201;stop-opacity:1"
         offset="1"
         id="stop8151" />
    </linearGradient>
    <linearGradient
       inkscape:collect="always"
       xlink:href="#linearGradient8147"
       id="linearGradient8153"
       x1="69.634453"
       y1="104.19353"
       x2="90.435028"
       y2="75.820656"
       gradientUnits="userSpaceOnUse" />
    <linearGradient
       inkscape:collect="always"
       xlink:href="#linearGradient8157"
       id="linearGradient8163"
       x1="59.850018"
       y1="129.95374"
       x2="89.96701"
       y2="92.578949"
       gradientUnits="userSpaceOnUse" />
    <linearGradient
       inkscape:collect="always"
       xlink:href="#linearGradient8167"
       id="linearGradient8173"
       x1="84.567482"
       y1="123.40586"
       x2="66.094757"
       y2="139.82811"
       gradientUnits="userSpaceOnUse" />
    <linearGradient
       inkscape:collect="always"
       xlink:href="#linearGradient8177"
       id="linearGradient8183"
       x1="87.065437"
       y1="120.6982"
       x2="105.51301"
       y2="107.83545"
       gradientUnits="userSpaceOnUse" />
    <linearGradient
       inkscape:collect="always"
       xlink:href="#linearGradient8187"
       id="linearGradient8193"
       x1="59.465042"
       y1="135.35355"
       x2="67.379128"
       y2="97.331566"
       gradientUnits="userSpaceOnUse" />
    <linearGradient
       inkscape:collect="always"
       xlink:href="#linearGradient4160"
       id="linearGradient4166"
       x1="97.238327"
       y1="124.57201"
       x2="91.689018"
       y2="87.96183"
       gradientUnits="userSpaceOnUse" />
    <linearGradient
       gradientTransform="translate(-3.5653283e-6,-1.0163019e-7)"
       inkscape:collect="always"
       xlink:href="#linearGradient6015"
       id="linearGradient6005"
       x1="130.24249"
       y1="110.5466"
       x2="162.83316"
       y2="79.612747"
       gradientUnits="userSpaceOnUse"
       spreadMethod="pad" />
    <linearGradient
       inkscape:collect="always"
       id="linearGradient6015">
      <stop
         style="stop-color:#eb6900;stop-opacity:1"
         offset="0"
         id="stop6001" />
      <stop
         style="stop-color:#fac917;stop-opacity:1"
         offset="1"
         id="stop6003" />
    </linearGradient>
    <linearGradient
       gradientTransform="translate(-3.5653283e-6,-1.0163019e-7)"
       inkscape:collect="always"
       xlink:href="#linearGradient7541"
       id="linearGradient7547"
       x1="133.12625"
       y1="58.851414"
       x2="142.29912"
       y2="49.470058"
       gradientUnits="userSpaceOnUse" />
    <linearGradient
       inkscape:collect="always"
       id="linearGradient7541">
      <stop
         style="stop-color:#eeb804;stop-opacity:1;"
         offset="0"
         id="stop7543" />
      <stop
         style="stop-color:#facd00;stop-opacity:1"
         offset="1"
         id="stop7545" />
    </linearGradient>
    <linearGradient
       gradientTransform="translate(-3.5653283e-6,-1.0163019e-7)"
       inkscape:collect="always"
       xlink:href="#linearGradient7551"
       id="linearGradient7557"
       x1="121.91445"
       y1="98.153923"
       x2="150.28601"
       y2="75.041771"
       gradientUnits="userSpaceOnUse" />
    <linearGradient
       inkscape:collect="always"
       id="linearGradient7551">
      <stop
         style="stop-color:#eb530c;stop-opacity:1;"
         offset="0"
         id="stop7553" />
      <stop
         style="stop-color:#fece08;stop-opacity:1"
         offset="1"
         id="stop7555" />
    </linearGradient>
    <linearGradient
       gradientTransform="translate(-3.5653283e-6,-1.0163019e-7)"
       inkscape:collect="always"
       xlink:href="#linearGradient7577"
       id="linearGradient7583"
       x1="130.52513"
       y1="103.10421"
       x2="154.85428"
       y2="92.922005"
       gradientUnits="userSpaceOnUse" />
    <linearGradient
       inkscape:collect="always"
       id="linearGradient7577">
      <stop
         style="stop-color:#e15805;stop-opacity:1;"
         offset="0"
         id="stop7579" />
      <stop
         style="stop-color:#facc0e;stop-opacity:1"
         offset="1"
         id="stop7581" />
    </linearGradient>
    <linearGradient
       gradientTransform="translate(-3.5653283e-6,-1.0163019e-7)"
       inkscape:collect="always"
       xlink:href="#linearGradient7587"
       id="linearGradient7593"
       x1="163.50345"
       y1="61.790295"
       x2="153.47179"
       y2="102.97674"
       gradientUnits="userSpaceOnUse" />
    <linearGradient
       inkscape:collect="always"
       id="linearGradient7587">
      <stop
         style="stop-color:#ffd548;stop-opacity:1;"
         offset="0"
         id="stop7589" />
      <stop
         style="stop-color:#e85d02;stop-opacity:1"
         offset="1"
         id="stop7591" />
    </linearGradient>
  </defs>
  <sodipodi:namedview
     pagecolor="#ffffff"
     bordercolor="#666666"
     borderopacity="1"
     objecttolerance="10"
     gridtolerance="10"
     guidetolerance="10"
     inkscape:pageopacity="0"
     inkscape:pageshadow="2"
     inkscape:window-width="1920"
     inkscape:window-height="1018"
     id="namedview7597"
     showgrid="false"
     inkscape:zoom="3.0903185"
     inkscape:cx="-53.667983"
     inkscape:cy="43.650434"
     inkscape:window-x="-8"
     inkscape:window-y="-8"
     inkscape:window-maximized="1"
     inkscape:current-layer="svg7595"
     fit-margin-top="0"
     fit-margin-left="0"
     fit-margin-right="0"
     fit-margin-bottom="0" />
  <g
     id="g4964"
     transform="translate(-48.675068,-7.8775106)">
    <g
       id="g4737">
      <path
         style="fill:url(#linearGradient8153);fill-opacity:1;fill-rule:evenodd;stroke:none;stroke-width:0.1;stroke-linecap:butt;stroke-linejoin:miter;stroke-miterlimit:4;stroke-dasharray:none;stroke-opacity:1"
         d="m 50.12405,97.044709 c 0,0 -5.16739,-14.091366 5.91059,-28.743936 14.71016,-19.456744 34.90814,-16.684292 36.40604,-34.32196 0,0 17.29721,21.460496 -7.35206,45.506795 -3.89004,3.794891 -14.14919,8.033251 -19.65872,14.405959 -8.26773,9.563043 -9.36772,18.963723 -9.36772,18.963723 0,0 -9.02445,-12.08624 6.67831,-31.034698 5.09801,-6.151752 12.78052,-8.175954 18.72689,-14.691026 4.27727,-4.686337 8.41243,-10.628932 8.97637,-13.734164 0,0 -6.82179,8.751856 -17.74285,14.494128 -10.69251,5.622099 -19.54974,16.924571 -22.57685,29.155179 z"
         id="path8145"
         inkscape:connector-curvature="0"
         sodipodi:nodetypes="cscsscsscsc" />
      <path
         style="fill:url(#linearGradient8163);fill-opacity:1;fill-rule:evenodd;stroke:none;stroke-width:0.1;stroke-linecap:butt;stroke-linejoin:miter;stroke-miterlimit:4;stroke-dasharray:none;stroke-opacity:1"
         d="m 58.11864,129.85169 c 0,0 -9.23493,-14.51078 12.59298,-32.793671 5.51146,-4.616357 14.4157,-9.459105 23.55037,-15.166537 9.0684,-5.666022 8.81852,-17.137245 8.81852,-17.137245 0,0 8.21337,13.836561 -5.4374,26.644295 -3.24984,3.049142 -6.01716,5.187567 -10.663,7.946446 -3.20364,1.902452 -8.10671,4.312082 -11.40126,6.656722 -14.01899,9.97692 -17.46021,23.84999 -17.46021,23.84999 z"
         id="path8155"
         inkscape:connector-curvature="0"
         sodipodi:nodetypes="csscsssc" />
      <path
         style="fill:url(#linearGradient8173);fill-opacity:1;fill-rule:evenodd;stroke:none;stroke-width:0.1;stroke-linecap:butt;stroke-linejoin:miter;stroke-miterlimit:4;stroke-dasharray:none;stroke-opacity:1"
         d="m 77.98549,109.70028 c 0,0 -2.4507,12.01282 -13.63472,18.01189 -9.19742,4.93346 -8.85487,15.72249 -8.85487,15.72249 0,0 1.82808,-2.93148 6.05212,-4.31489 7.02485,-2.30071 12.26268,-6.06991 15.224,-9.84222 5.81637,-7.40924 1.21347,-19.57727 1.21347,-19.57727 z"
         id="path8165"
         inkscape:connector-curvature="0"
         sodipodi:nodetypes="cscssc" />
      <path
         style="opacity:0.931;fill:url(#linearGradient8183);fill-opacity:1;fill-rule:evenodd;stroke:none;stroke-width:0.1;stroke-linecap:butt;stroke-linejoin:miter;stroke-miterlimit:4;stroke-dasharray:none;stroke-opacity:1"
         d="m 83.81013,125.79894 c 0,0 -2.25298,-9.4856 6.6198,-17.03122 2.57086,-2.18633 8.94467,-5.89066 11.36307,-9.679277 4.07604,-6.38545 3.61685,-13.010326 3.61685,-13.010326 0,0 8.3195,13.075579 -4.12579,26.696283 -2.704,2.95937 -6.45248,5.83955 -9.9086,7.71129 -4.98848,2.70163 -7.56533,5.31325 -7.56533,5.31325 z"
         id="path8175"
         inkscape:connector-curvature="0"
         sodipodi:nodetypes="csscssc" />
      <path
         style="opacity:0.74100001;fill:url(#linearGradient8193);fill-opacity:1;fill-rule:evenodd;stroke:none;stroke-width:0.1;stroke-linecap:butt;stroke-linejoin:miter;stroke-miterlimit:4;stroke-dasharray:none;stroke-opacity:1"
         d="m 55.738591,68.523293 c 0,0 -10.250299,13.205265 -6.055039,27.428089 3.346184,11.344278 6.171653,15.833428 6.489223,25.965688 0.50389,16.07693 -3.508301,23.37824 -3.508301,23.37824 0,0 18.253834,-10.21756 14.900692,-35.99778 -1.119637,-8.6082 -4.585041,-16.33778 -9.156948,-24.028391 -4.724753,-7.947721 -2.669627,-16.745846 -2.669627,-16.745846 z"
         id="path8185"
         inkscape:connector-curvature="0"
         sodipodi:nodetypes="csscssc" />
      <path
         style="opacity:1;fill:url(#linearGradient4166);fill-opacity:1;fill-rule:evenodd;stroke:none;stroke-width:0.1;stroke-linecap:butt;stroke-linejoin:miter;stroke-miterlimit:4;stroke-dasharray:none;stroke-opacity:1"
         d="m 79.84614,69.089578 c 0,0 -5.824234,6.481862 -6.657149,13.617341 -0.311668,2.670024 -1.053494,10.006142 2.816584,16.796107 2.773765,4.866514 5.507995,10.518714 6.176765,13.718394 2.63763,12.61965 -0.23286,14.19548 -0.23286,14.19548 0,0 8.80289,-7.14863 9.3899,-15.08091 0.27714,-3.745 -0.26845,-7.95196 -1.47943,-11.63706 C 87.45122,93.369014 82.91726,86.919949 80.54028,81.990777 78.0268,76.778543 79.84614,69.089578 79.84614,69.089578 Z"
         id="path4158"
         inkscape:connector-curvature="0"
         sodipodi:nodetypes="cssscsssc" />
    </g>
    <path
       sodipodi:nodetypes="csscssc"
       inkscape:connector-curvature="0"
       id="path5979"
       d="m 113.46855,95.284286 c 0,0 -11.41729,-12.200078 9.55625,-37.210774 7.45743,-8.892902 16.08674,-12.376433 22.07898,-17.749232 10.84849,-9.727043 7.83511,-19.518803 7.83511,-19.518803 6.98364,8.201272 4.24188,19.532078 -0.77013,27.019629 -5.63355,8.416067 -12.04685,13.005874 -20.49804,18.734135 -17.02588,11.540235 -18.20217,28.725045 -18.20217,28.725045 z"
       style="fill:url(#linearGradient6005);fill-opacity:1;fill-rule:evenodd;stroke:none;stroke-width:0.1;stroke-linecap:butt;stroke-linejoin:miter;stroke-miterlimit:4;stroke-dasharray:none;stroke-opacity:1" />
    <path
       sodipodi:nodetypes="cscsc"
       inkscape:connector-curvature="0"
       id="path6041"
       d="m 123.19313,56.385985 c 0,0 -6.96439,-5.807926 0.58186,-20.393382 5.34975,-10.340029 22.08214,-16.777177 18.18085,-28.1150924 0,0 11.72069,13.8038984 -6.98062,29.1674024 -13.21656,10.857673 -11.78209,19.341072 -11.78209,19.341072 z"
       style="fill:url(#linearGradient7547);fill-opacity:1;fill-rule:evenodd;stroke:none;stroke-width:0.1;stroke-linecap:butt;stroke-linejoin:miter;stroke-miterlimit:4;stroke-dasharray:none;stroke-opacity:1" />
    <path
       sodipodi:nodetypes="csscssc"
       inkscape:connector-curvature="0"
       id="path7549"
       d="m 115.75668,111.18108 c 0,0 -10.74896,-16.494604 17.57748,-39.163286 10.38495,-8.310721 18.36106,-8.468124 24.77216,-15.277522 6.53501,-6.941015 6.15884,-14.998354 6.15884,-14.998354 0,0 6.46897,10.518335 -1.72683,23.42469 -4.11675,6.482859 -14.05766,13.872327 -24.41408,19.001008 -18.58214,9.20218 -22.36757,27.013464 -22.36757,27.013464 z"
       style="fill:url(#linearGradient7557);fill-opacity:1;fill-rule:evenodd;stroke:none;stroke-width:0.1;stroke-linecap:butt;stroke-linejoin:miter;stroke-miterlimit:4;stroke-dasharray:none;stroke-opacity:1" />
    <path
       sodipodi:nodetypes="csscsssc"
       inkscape:connector-curvature="0"
       id="path7559"
       d="m 116.86725,126.1071 c 0,0 -7.48263,-11.06493 9.7215,-27.855484 6.0537,-5.90817 13.4484,-9.66839 30.9216,-16.372585 14.59528,-5.599977 15.56413,-18.514232 15.56413,-18.514232 0,0 7.56002,15.968257 -11.14008,29.096197 -4.45328,3.12631 -9.38262,5.40788 -14.53445,7.553594 -5.67711,2.36449 -11.58974,4.59869 -16.64196,8.40779 -11.13345,8.39402 -13.89074,17.68472 -13.89074,17.68472 z"
       style="fill:url(#linearGradient7583);fill-opacity:1;fill-rule:evenodd;stroke:none;stroke-width:0.1;stroke-linecap:butt;stroke-linejoin:miter;stroke-miterlimit:4;stroke-dasharray:none;stroke-opacity:1" />
    <path
       inkscape:connector-curvature="0"
       id="path7585"
       d="m 133.71855,64.966494 9.72458,-7.779661 c 0,0 14.41525,37.182203 -11.44068,49.652537 6.97882,-16.360174 1.7161,-41.872876 1.7161,-41.872876 z"
       style="opacity:0.83600003;fill:url(#linearGradient7593);fill-opacity:1;fill-rule:evenodd;stroke:none;stroke-width:0.1;stroke-linecap:butt;stroke-linejoin:miter;stroke-miterlimit:4;stroke-dasharray:none;stroke-opacity:1" />
  </g>
</svg>
