<?xml version="1.0" encoding="UTF-8" standalone="no"?>
<!-- Created with Inkscape (http://www.inkscape.org/) -->

<svg
   xmlns:dc="http://purl.org/dc/elements/1.1/"
   xmlns:cc="http://creativecommons.org/ns#"
   xmlns:rdf="http://www.w3.org/1999/02/22-rdf-syntax-ns#"
   xmlns:svg="http://www.w3.org/2000/svg"
   xmlns="http://www.w3.org/2000/svg"
   xmlns:xlink="http://www.w3.org/1999/xlink"
   xmlns:sodipodi="http://sodipodi.sourceforge.net/DTD/sodipodi-0.dtd"
   xmlns:inkscape="http://www.inkscape.org/namespaces/inkscape"
   id="svg4136"
   version="1.1"
   inkscape:version="0.91 r13725"
   xml:space="preserve"
   width="500"
   height="153"
   viewBox="0 0 500 152.99999"
   sodipodi:docname="NPP2.svg"><metadata
     id="metadata4142"><rdf:RDF><cc:Work
         rdf:about=""><dc:format>image/svg+xml</dc:format><dc:type
           rdf:resource="http://purl.org/dc/dcmitype/StillImage" /><dc:title></dc:title></cc:Work></rdf:RDF></metadata><defs
     id="defs4140"><linearGradient
       inkscape:collect="always"
       id="linearGradient6631"><stop
         style="stop-color:#208ccd;stop-opacity:1;"
         offset="0"
         id="stop6633" /><stop
         style="stop-color:#208ccd;stop-opacity:0;"
         offset="1"
         id="stop6635" /></linearGradient><linearGradient
       id="linearGradient6611-8"
       inkscape:collect="always"><stop
         style="stop-color:#f01847;stop-opacity:0;"
         offset="0"
         id="stop6623" /><stop
         style="stop-color:#f01847;stop-opacity:1;"
         offset="1"
         id="stop6621" /></linearGradient><clipPath
       clipPathUnits="userSpaceOnUse"
       id="clipPath4166"><path
         d="m 0,841.89 595.28,0 L 595.28,0 0,0 0,841.89 Z"
         id="path4168"
         inkscape:connector-curvature="0" /></clipPath><clipPath
       clipPathUnits="userSpaceOnUse"
       id="clipPath4370"><path
         d="m 0,841.89 595.28,0 L 595.28,0 0,0 0,841.89 Z"
         id="path4372"
         inkscape:connector-curvature="0" /></clipPath><clipPath
       clipPathUnits="userSpaceOnUse"
       id="clipPath4394"><path
         d="m 0,841.89 595.28,0 L 595.28,0 0,0 0,841.89 Z"
         id="path4396"
         inkscape:connector-curvature="0" /></clipPath><clipPath
       clipPathUnits="userSpaceOnUse"
       id="clipPath4470"><path
         d="m 0,841.89 595.28,0 L 595.28,0 0,0 0,841.89 Z"
         id="path4472"
         inkscape:connector-curvature="0" /></clipPath><clipPath
       clipPathUnits="userSpaceOnUse"
       id="clipPath4494"><path
         d="m 0,841.89 595.28,0 L 595.28,0 0,0 0,841.89 Z"
         id="path4496"
         inkscape:connector-curvature="0" /></clipPath><clipPath
       clipPathUnits="userSpaceOnUse"
       id="clipPath4518"><path
         d="m 0,841.89 595.28,0 L 595.28,0 0,0 0,841.89 Z"
         id="path4520"
         inkscape:connector-curvature="0" /></clipPath><clipPath
       clipPathUnits="userSpaceOnUse"
       id="clipPath4542"><path
         d="m 0,841.89 595.28,0 L 595.28,0 0,0 0,841.89 Z"
         id="path4544"
         inkscape:connector-curvature="0" /></clipPath><clipPath
       clipPathUnits="userSpaceOnUse"
       id="clipPath4582"><path
         d="m 0,841.89 595.28,0 L 595.28,0 0,0 0,841.89 Z"
         id="path4584"
         inkscape:connector-curvature="0" /></clipPath><clipPath
       clipPathUnits="userSpaceOnUse"
       id="clipPath4600"><path
         d="m 0,841.89 595.28,0 L 595.28,0 0,0 0,841.89 Z"
         id="path4602"
         inkscape:connector-curvature="0" /></clipPath><clipPath
       clipPathUnits="userSpaceOnUse"
       id="clipPath4618"><path
         d="m 0,841.89 595.28,0 L 595.28,0 0,0 0,841.89 Z"
         id="path4620"
         inkscape:connector-curvature="0" /></clipPath><clipPath
       clipPathUnits="userSpaceOnUse"
       id="clipPath4636"><path
         d="m 0,841.89 595.28,0 L 595.28,0 0,0 0,841.89 Z"
         id="path4638"
         inkscape:connector-curvature="0" /></clipPath><clipPath
       clipPathUnits="userSpaceOnUse"
       id="clipPath4654"><path
         d="m 0,841.89 595.28,0 L 595.28,0 0,0 0,841.89 Z"
         id="path4656"
         inkscape:connector-curvature="0" /></clipPath><clipPath
       clipPathUnits="userSpaceOnUse"
       id="clipPath4672"><path
         d="m 0,841.89 595.28,0 L 595.28,0 0,0 0,841.89 Z"
         id="path4674"
         inkscape:connector-curvature="0" /></clipPath><clipPath
       clipPathUnits="userSpaceOnUse"
       id="clipPath4690"><path
         d="m 0,841.89 595.28,0 L 595.28,0 0,0 0,841.89 Z"
         id="path4692"
         inkscape:connector-curvature="0" /></clipPath><clipPath
       clipPathUnits="userSpaceOnUse"
       id="clipPath4708"><path
         d="m 0,841.89 595.28,0 L 595.28,0 0,0 0,841.89 Z"
         id="path4710"
         inkscape:connector-curvature="0" /></clipPath><clipPath
       clipPathUnits="userSpaceOnUse"
       id="clipPath4728"><path
         d="m 0,841.89 595.28,0 L 595.28,0 0,0 0,841.89 Z"
         id="path4730"
         inkscape:connector-curvature="0" /></clipPath><clipPath
       clipPathUnits="userSpaceOnUse"
       id="clipPath4742"><path
         d="m 0,841.89 595.28,0 L 595.28,0 0,0 0,841.89 Z"
         id="path4744"
         inkscape:connector-curvature="0" /></clipPath><clipPath
       clipPathUnits="userSpaceOnUse"
       id="clipPath4774"><path
         d="m 0,841.89 595.28,0 L 595.28,0 0,0 0,841.89 Z"
         id="path4776"
         inkscape:connector-curvature="0" /></clipPath><clipPath
       clipPathUnits="userSpaceOnUse"
       id="clipPath4792"><path
         d="m 0,841.89 595.28,0 L 595.28,0 0,0 0,841.89 Z"
         id="path4794"
         inkscape:connector-curvature="0" /></clipPath><clipPath
       clipPathUnits="userSpaceOnUse"
       id="clipPath4810"><path
         d="m 0,841.89 595.28,0 L 595.28,0 0,0 0,841.89 Z"
         id="path4812"
         inkscape:connector-curvature="0" /></clipPath><clipPath
       clipPathUnits="userSpaceOnUse"
       id="clipPath4828"><path
         d="m 0,841.89 595.28,0 L 595.28,0 0,0 0,841.89 Z"
         id="path4830"
         inkscape:connector-curvature="0" /></clipPath><clipPath
       clipPathUnits="userSpaceOnUse"
       id="clipPath4860"><path
         d="m 93.5923,784.926 105.2187,0 0,-1.644 -105.2187,0 0,1.644 z"
         id="path4862"
         inkscape:connector-curvature="0" /></clipPath><clipPath
       clipPathUnits="userSpaceOnUse"
       id="clipPath4864"><path
         d="m 93.5923,784.926 105.2187,0 0,-1.644 -105.2187,0 0,1.644 z"
         id="path4866"
         inkscape:connector-curvature="0" /></clipPath><linearGradient
       x1="0"
       y1="0"
       x2="1"
       y2="0"
       gradientUnits="userSpaceOnUse"
       gradientTransform="matrix(105.08449,0,0,-105.08449,93.393066,784.104)"
       spreadMethod="pad"
       id="linearGradient4872"><stop
         style="stop-opacity:1;stop-color:#231f20"
         offset="0"
         id="stop4874" /><stop
         style="stop-opacity:1;stop-color:#ffffff"
         offset="0.35022099"
         id="stop4876" /><stop
         style="stop-opacity:1;stop-color:#ffffff"
         offset="0.5"
         id="stop4878" /><stop
         style="stop-opacity:1;stop-color:#ffffff"
         offset="0.74610268"
         id="stop4880" /><stop
         style="stop-opacity:1;stop-color:#231f20"
         offset="1"
         id="stop4882" /></linearGradient><mask
       maskUnits="userSpaceOnUse"
       x="0"
       y="0"
       width="1"
       height="1"
       id="mask4884"><g
         id="g4886"><g
           clip-path="url(#clipPath4860)"
           id="g4888"><path
             d="m 93.592,784.926 105.219,0 0,-1.645 -105.219,0 0,1.645 z"
             style="fill:#000000;fill-opacity:1;fill-rule:nonzero;stroke:none"
             id="path4890"
             inkscape:connector-curvature="0" /><g
             id="g4892"><g
               id="g4894" /><g
               id="g4896"><g
                 clip-path="url(#clipPath4864)"
                 id="g4898"><g
                   id="g4900"><g
                     id="g4902"><g
                       id="g4904"><g
                         id="g4906"><path
                           d="m 93.592,784.926 105.219,0 0,-1.645 -105.219,0 0,1.645 z"
                           style="fill:url(#linearGradient4872);stroke:none"
                           id="path4908"
                           inkscape:connector-curvature="0" /></g></g></g></g></g></g></g></g></g></mask><clipPath
       clipPathUnits="userSpaceOnUse"
       id="clipPath4914"><path
         d="m 93.5923,784.926 105.2187,0 0,-1.644 -105.2187,0 0,1.644 z"
         id="path4916"
         inkscape:connector-curvature="0" /></clipPath><clipPath
       clipPathUnits="userSpaceOnUse"
       id="clipPath4996"><path
         d="m 28.3467,60.6602 538.5823,0 0,-0.92 -538.5823,0 0,0.92 z"
         id="path4998"
         inkscape:connector-curvature="0" /></clipPath><clipPath
       clipPathUnits="userSpaceOnUse"
       id="clipPath5000"><path
         d="m 28.3467,60.6602 538.5823,0 0,-0.92 -538.5823,0 0,0.92 z"
         id="path5002"
         inkscape:connector-curvature="0" /></clipPath><linearGradient
       x1="0"
       y1="0"
       x2="1"
       y2="0"
       gradientUnits="userSpaceOnUse"
       gradientTransform="matrix(537.89478,0,0,-537.89478,27.32666,60.200195)"
       spreadMethod="pad"
       id="linearGradient5008"><stop
         style="stop-opacity:1;stop-color:#231f20"
         offset="0"
         id="stop5010" /><stop
         style="stop-opacity:1;stop-color:#ffffff"
         offset="0.35022099"
         id="stop5012" /><stop
         style="stop-opacity:1;stop-color:#ffffff"
         offset="0.5"
         id="stop5014" /><stop
         style="stop-opacity:1;stop-color:#ffffff"
         offset="0.74610268"
         id="stop5016" /><stop
         style="stop-opacity:1;stop-color:#231f20"
         offset="1"
         id="stop5018" /></linearGradient><mask
       maskUnits="userSpaceOnUse"
       x="0"
       y="0"
       width="1"
       height="1"
       id="mask5020"><g
         id="g5022"><g
           clip-path="url(#clipPath4996)"
           id="g5024"><path
             d="m 28.347,60.66 538.582,0 0,-0.92 -538.582,0 0,0.92 z"
             style="fill:#000000;fill-opacity:1;fill-rule:nonzero;stroke:none"
             id="path5026"
             inkscape:connector-curvature="0" /><g
             id="g5028"><g
               id="g5030" /><g
               id="g5032"><g
                 clip-path="url(#clipPath5000)"
                 id="g5034"><g
                   id="g5036"><g
                     id="g5038"><g
                       id="g5040"><g
                         id="g5042"><path
                           d="m 28.347,60.66 538.582,0 0,-0.92 -538.582,0 0,0.92 z"
                           style="fill:url(#linearGradient5008);stroke:none"
                           id="path5044"
                           inkscape:connector-curvature="0" /></g></g></g></g></g></g></g></g></g></mask><clipPath
       clipPathUnits="userSpaceOnUse"
       id="clipPath5050"><path
         d="m 28.3467,60.6602 538.5823,0 0,-0.92 -538.5823,0 0,0.92 z"
         id="path5052"
         inkscape:connector-curvature="0" /></clipPath><clipPath
       clipPathUnits="userSpaceOnUse"
       id="clipPath5078"><path
         d="m 0,841.89 595.28,0 L 595.28,0 0,0 0,841.89 Z"
         id="path5080"
         inkscape:connector-curvature="0" /></clipPath><clipPath
       clipPathUnits="userSpaceOnUse"
       id="clipPath5104"><path
         d="m 0,841.89 595.28,0 L 595.28,0 0,0 0,841.89 Z"
         id="path5106"
         inkscape:connector-curvature="0" /></clipPath><clipPath
       clipPathUnits="userSpaceOnUse"
       id="clipPath5122"><path
         d="m 0,841.89 595.28,0 L 595.28,0 0,0 0,841.89 Z"
         id="path5124"
         inkscape:connector-curvature="0" /></clipPath><clipPath
       clipPathUnits="userSpaceOnUse"
       id="clipPath5150"><path
         d="m 0,841.89 595.28,0 L 595.28,0 0,0 0,841.89 Z"
         id="path5152"
         inkscape:connector-curvature="0" /></clipPath><clipPath
       clipPathUnits="userSpaceOnUse"
       id="clipPath5220"><path
         d="m 0,841.89 595.28,0 L 595.28,0 0,0 0,841.89 Z"
         id="path5222"
         inkscape:connector-curvature="0" /></clipPath><clipPath
       clipPathUnits="userSpaceOnUse"
       id="clipPath5238"><path
         d="m 0,841.89 595.28,0 L 595.28,0 0,0 0,841.89 Z"
         id="path5240"
         inkscape:connector-curvature="0" /></clipPath><clipPath
       clipPathUnits="userSpaceOnUse"
       id="clipPath5256"><path
         d="m 0,841.89 595.28,0 L 595.28,0 0,0 0,841.89 Z"
         id="path5258"
         inkscape:connector-curvature="0" /></clipPath><clipPath
       clipPathUnits="userSpaceOnUse"
       id="clipPath5274"><path
         d="m 0,841.89 595.28,0 L 595.28,0 0,0 0,841.89 Z"
         id="path5276"
         inkscape:connector-curvature="0" /></clipPath><clipPath
       clipPathUnits="userSpaceOnUse"
       id="clipPath5292"><path
         d="m 0,841.89 595.28,0 L 595.28,0 0,0 0,841.89 Z"
         id="path5294"
         inkscape:connector-curvature="0" /></clipPath><clipPath
       clipPathUnits="userSpaceOnUse"
       id="clipPath5310"><path
         d="m 0,841.89 595.28,0 L 595.28,0 0,0 0,841.89 Z"
         id="path5312"
         inkscape:connector-curvature="0" /></clipPath><clipPath
       clipPathUnits="userSpaceOnUse"
       id="clipPath5328"><path
         d="m 0,841.89 595.28,0 L 595.28,0 0,0 0,841.89 Z"
         id="path5330"
         inkscape:connector-curvature="0" /></clipPath><clipPath
       clipPathUnits="userSpaceOnUse"
       id="clipPath5346"><path
         d="m 0,841.89 595.28,0 L 595.28,0 0,0 0,841.89 Z"
         id="path5348"
         inkscape:connector-curvature="0" /></clipPath><clipPath
       clipPathUnits="userSpaceOnUse"
       id="clipPath5372"><path
         d="m 0,841.89 595.28,0 L 595.28,0 0,0 0,841.89 Z"
         id="path5374"
         inkscape:connector-curvature="0" /></clipPath><clipPath
       clipPathUnits="userSpaceOnUse"
       id="clipPath5396"><path
         d="m 0,841.89 595.28,0 L 595.28,0 0,0 0,841.89 Z"
         id="path5398"
         inkscape:connector-curvature="0" /></clipPath><clipPath
       clipPathUnits="userSpaceOnUse"
       id="clipPath5430"><path
         d="m 0,841.89 595.28,0 L 595.28,0 0,0 0,841.89 Z"
         id="path5432"
         inkscape:connector-curvature="0" /></clipPath><clipPath
       clipPathUnits="userSpaceOnUse"
       id="clipPath5476"><path
         d="m 0,841.89 595.28,0 L 595.28,0 0,0 0,841.89 Z"
         id="path5478"
         inkscape:connector-curvature="0" /></clipPath><clipPath
       clipPathUnits="userSpaceOnUse"
       id="clipPath5494"><path
         d="m 0,841.89 595.28,0 L 595.28,0 0,0 0,841.89 Z"
         id="path5496"
         inkscape:connector-curvature="0" /></clipPath><clipPath
       clipPathUnits="userSpaceOnUse"
       id="clipPath5512"><path
         d="m 0,841.89 595.28,0 L 595.28,0 0,0 0,841.89 Z"
         id="path5514"
         inkscape:connector-curvature="0" /></clipPath><clipPath
       clipPathUnits="userSpaceOnUse"
       id="clipPath5530"><path
         d="m 0,841.89 595.28,0 L 595.28,0 0,0 0,841.89 Z"
         id="path5532"
         inkscape:connector-curvature="0" /></clipPath><clipPath
       clipPathUnits="userSpaceOnUse"
       id="clipPath5548"><path
         d="m 0,841.89 595.28,0 L 595.28,0 0,0 0,841.89 Z"
         id="path5550"
         inkscape:connector-curvature="0" /></clipPath><clipPath
       clipPathUnits="userSpaceOnUse"
       id="clipPath5566"><path
         d="m 0,841.89 595.28,0 L 595.28,0 0,0 0,841.89 Z"
         id="path5568"
         inkscape:connector-curvature="0" /></clipPath><clipPath
       clipPathUnits="userSpaceOnUse"
       id="clipPath5584"><path
         d="m 0,841.89 595.28,0 L 595.28,0 0,0 0,841.89 Z"
         id="path5586"
         inkscape:connector-curvature="0" /></clipPath><clipPath
       clipPathUnits="userSpaceOnUse"
       id="clipPath5602"><path
         d="m 0,841.89 595.28,0 L 595.28,0 0,0 0,841.89 Z"
         id="path5604"
         inkscape:connector-curvature="0" /></clipPath><clipPath
       clipPathUnits="userSpaceOnUse"
       id="clipPath5620"><path
         d="m 0,841.89 595.28,0 L 595.28,0 0,0 0,841.89 Z"
         id="path5622"
         inkscape:connector-curvature="0" /></clipPath><clipPath
       clipPathUnits="userSpaceOnUse"
       id="clipPath5634"><path
         d="m 0,841.89 595.28,0 L 595.28,0 0,0 0,841.89 Z"
         id="path5636"
         inkscape:connector-curvature="0" /></clipPath><clipPath
       clipPathUnits="userSpaceOnUse"
       id="clipPath5901"><path
         style="fill:#000000;fill-opacity:1;fill-rule:evenodd;stroke:none;stroke-width:0.01;stroke-linecap:butt;stroke-linejoin:miter;stroke-miterlimit:4;stroke-dasharray:none;stroke-opacity:1"
         d="m 146.2024,783.28156 1.7416,1.6448 50.8672,0 0,-1.6448 z"
         id="path5903"
         inkscape:connector-curvature="0"
         sodipodi:nodetypes="ccccc" /></clipPath><linearGradient
       inkscape:collect="always"
       xlink:href="#linearGradient6611-8"
       id="linearGradient6617"
       x1="93.592003"
       y1="784.10394"
       x2="147.944"
       y2="784.10394"
       gradientUnits="userSpaceOnUse" /><linearGradient
       inkscape:collect="always"
       xlink:href="#linearGradient6631"
       id="linearGradient6637"
       x1="146.392"
       y1="784.10394"
       x2="200.744"
       y2="784.10394"
       gradientUnits="userSpaceOnUse"
       gradientTransform="translate(-0.1904,0)" /></defs><sodipodi:namedview
     pagecolor="#ffffff"
     bordercolor="#666666"
     borderopacity="1"
     objecttolerance="10"
     gridtolerance="10"
     guidetolerance="10"
     inkscape:pageopacity="0"
     inkscape:pageshadow="2"
     inkscape:window-width="1920"
     inkscape:window-height="1017"
     id="namedview4138"
     showgrid="false"
     inkscape:zoom="1"
     inkscape:cx="66.080315"
     inkscape:cy="42.771541"
     inkscape:window-x="-8"
     inkscape:window-y="-8"
     inkscape:window-maximized="1"
     inkscape:current-layer="g4144"
     fit-margin-top="0"
     fit-margin-left="0"
     fit-margin-right="0"
     fit-margin-bottom="0" /><g
     id="g4144"
     inkscape:groupmode="layer"
     inkscape:label="Application_MembershipApplicationForm_v3_3"
     transform="matrix(1.25,0,0,-1.25,-53.196502,1112.8642)"
     style="display:inline"><g
       id="g6639"
       transform="matrix(2.5317033,0,0,2.5317033,-65.185002,-1176.1816)"><g
         style="fill:#f01847;fill-opacity:1"
         transform="translate(74.4976,798.3735)"
         id="g4832"><path
           inkscape:connector-curvature="0"
           id="path4834"
           style="fill:#f01847;fill-opacity:1;fill-rule:nonzero;stroke:none"
           d="m 0,0 c -0.408,1.757 -1.138,3.353 -2.038,4.597 -0.066,0.089 -0.139,0.189 -0.199,0.265 -2.417,3.16 -6.3,4.917 -10.142,4.913 -1.154,0.004 -2.298,-0.157 -3.396,-0.477 0.615,-0.34 1.118,-0.711 1.519,-1.182 0.647,-0.761 0.922,-1.75 0.916,-3.011 0,-0.837 -0.111,-1.816 -0.306,-3.014 -0.051,-0.319 -0.076,-0.628 -0.076,-0.919 0.003,-1.182 0.386,-2.136 0.989,-2.955 1.261,-1.709 3.605,-2.682 4.995,-2.884 l 0.048,-0.009 c 0,0 0.015,0 0.031,-0.004 1.769,-0.343 3.788,-1.825 4.636,-4.53 0.11,0.669 0.154,1.298 0.154,1.883 0,1.98 -0.537,3.466 -1.151,4.531 -0.584,1.042 -1.251,1.674 -1.55,1.927 -0.114,0.094 -0.13,0.108 -0.194,0.161 -0.022,0.025 -0.003,-0.028 -0.122,0.145 -0.112,0.193 -0.105,0.436 0.021,0.623 l 0.282,0.417 c 0.104,0.158 0.281,0.249 0.468,0.247 0.119,-0.007 0.233,-0.051 0.318,-0.12 l 0.004,0 c 0.01,-0.007 0.025,-0.016 0.043,-0.032 0.036,-0.029 0.085,-0.069 0.152,-0.124 0.13,-0.107 0.307,-0.264 0.515,-0.476 0.418,-0.421 0.949,-1.054 1.436,-1.909 0.738,-1.286 1.379,-3.071 1.379,-5.381 0,-0.676 -0.056,-1.393 -0.176,-2.155 -0.051,-0.319 -0.114,-0.647 -0.184,-0.98 0.187,0.313 0.36,0.632 0.523,0.95 0.274,0.554 0.511,1.114 0.704,1.68 0.53,1.542 0.767,3.094 0.767,4.594 C 0.366,-2.113 0.236,-1.027 0,0 m -3.593,-18.569 c -0.641,0.758 -0.916,1.747 -0.909,2.988 0,0.851 0.116,1.84 0.318,3.052 0.058,0.33 0.08,0.649 0.08,0.949 0,1.169 -0.379,2.121 -0.977,2.935 -1.251,1.709 -3.593,2.698 -4.982,2.904 l -0.057,0.012 c 0,0 -0.007,0 -0.023,0.004 -1.765,0.35 -3.778,1.842 -4.619,4.549 -0.114,-0.688 -0.161,-1.33 -0.161,-1.927 0.003,-1.959 0.527,-3.428 1.134,-4.493 0.581,-1.042 1.245,-1.677 1.542,-1.934 0.111,-0.094 0.133,-0.107 0.19,-0.151 0.016,-0.028 0,0.019 0.11,-0.126 0.127,-0.196 0.124,-0.455 -0.009,-0.652 l -0.284,-0.416 c -0.108,-0.159 -0.281,-0.25 -0.468,-0.24 -0.12,0.003 -0.237,0.046 -0.333,0.123 -0.005,0.006 -0.018,0.015 -0.031,0.029 -0.04,0.027 -0.091,0.068 -0.155,0.122 -0.129,0.108 -0.306,0.269 -0.512,0.48 -0.413,0.421 -0.944,1.056 -1.427,1.915 -0.73,1.277 -1.359,3.052 -1.359,5.334 0,0.692 0.06,1.427 0.187,2.205 0.053,0.322 0.113,0.651 0.189,0.982 -0.189,-0.313 -0.363,-0.628 -0.525,-0.944 -0.278,-0.559 -0.514,-1.115 -0.71,-1.684 -0.55,-1.555 -0.79,-3.128 -0.79,-4.648 0,-1.093 0.127,-2.161 0.354,-3.173 0.401,-1.752 1.121,-3.358 2.019,-4.602 0.069,-0.092 0.139,-0.194 0.196,-0.269 2.417,-3.188 6.318,-4.958 10.183,-4.958 1.128,0 2.253,0.152 3.336,0.459 -0.61,0.344 -1.105,0.714 -1.507,1.175" /></g><g
         style="fill:#208ccd;fill-opacity:1"
         transform="translate(59.4072,805.7319)"
         id="g4836"><path
           inkscape:connector-curvature="0"
           id="path4838"
           style="fill:#208ccd;fill-opacity:1;fill-rule:evenodd;stroke:none"
           d="m 0,0 c -0.436,0.528 -1.198,0.979 -2.379,1.491 -0.206,0.092 -0.338,0.301 -0.335,0.534 0,0.231 0.136,0.439 0.34,0.528 0.667,0.284 1.353,0.499 2.052,0.663 -0.613,0.68 -1.226,1.356 -1.833,2.035 -0.487,0.541 -0.979,1.052 -1.381,1.593 0.108,0.678 -0.179,1.14 -0.493,1.475 0.136,0.18 0.566,0.348 0.633,0.585 l 0,1.52 -13.454,0 0,-1.52 c 0.092,-0.298 0.54,-0.366 0.632,-0.61 -0.996,-0.876 -0.297,-2.354 0.492,-3.065 0.708,-0.641 1.549,-1.191 1.378,-2.291 0.187,0.017 0.351,0.178 0.471,0.184 0.639,-2.184 0.442,-4.971 0.442,-7.679 l 0,-16.387 c 0,-2.728 0.161,-5.451 -0.464,-7.675 -0.167,0.053 -0.266,0.177 -0.471,0.186 0.156,-0.98 -0.546,-1.565 -1.169,-2.082 -0.613,-0.512 -1.254,-1.251 -1.147,-2.228 0.048,-0.426 0.285,-0.666 0.493,-0.957 -0.142,-0.209 -0.534,-0.284 -0.613,-0.585 l 0,-1.311 13.154,0 0,1.336 c -0.098,0.301 -0.494,0.349 -0.611,0.585 0.924,0.755 0.38,2.171 -0.328,2.879 -0.698,0.697 -1.646,1.133 -1.497,2.363 -0.2,0.003 -0.32,-0.189 -0.468,-0.164 -0.395,1.14 -0.325,2.571 -0.325,4.101 l 0,17.646 c 1.083,-1.197 2.167,-2.392 3.254,-3.586 0.088,0.306 0.18,0.613 0.288,0.919 0.214,0.616 0.473,1.216 0.77,1.82 0.654,1.29 1.526,2.556 2.639,3.744 0.122,0.131 0.296,0.187 0.464,0.164 0.069,0.592 0.108,1.1 0.108,1.536 C 0.638,-1.138 0.43,-0.518 0,0" /></g><g
         style="fill:#208ccd;fill-opacity:1"
         transform="translate(71.7798,780.6128)"
         id="g4840"><path
           inkscape:connector-curvature="0"
           id="path4842"
           style="fill:#208ccd;fill-opacity:1;fill-rule:evenodd;stroke:none"
           d="M 0,0 C 0.439,-0.526 1.201,-0.979 2.38,-1.49 2.585,-1.579 2.718,-1.791 2.715,-2.021 2.715,-2.255 2.579,-2.464 2.373,-2.552 1.707,-2.833 1.021,-3.052 0.322,-3.216 0.936,-3.893 1.549,-4.572 2.154,-5.25 2.642,-5.792 3.135,-6.302 3.536,-6.84 3.425,-7.523 3.717,-7.98 4.028,-8.319 3.893,-8.5 3.463,-8.664 3.396,-8.9 l 0,-1.523 13.455,0 0,1.523 c -0.092,0.297 -0.54,0.36 -0.632,0.607 0.994,0.878 0.296,2.354 -0.493,3.064 -0.708,0.645 -1.548,1.191 -1.381,2.294 -0.184,-0.019 -0.347,-0.18 -0.468,-0.186 -0.638,2.179 -0.441,4.974 -0.441,7.678 l 0,16.385 c 0,2.727 -0.165,5.454 0.462,7.678 0.169,-0.054 0.266,-0.173 0.471,-0.19 -0.153,0.986 0.545,1.567 1.17,2.09 0.613,0.508 1.254,1.247 1.15,2.22 -0.05,0.429 -0.287,0.67 -0.493,0.961 0.14,0.208 0.532,0.287 0.607,0.584 l 0,1.312 -13.15,0 0,-1.337 c 0.095,-0.298 0.49,-0.351 0.61,-0.584 -0.92,-0.756 -0.379,-2.171 0.328,-2.876 0.698,-0.701 1.646,-1.134 1.498,-2.37 0.198,0 0.319,0.197 0.468,0.169 0.394,-1.142 0.325,-2.573 0.325,-4.099 l 0,-17.649 C 5.802,8.045 4.714,9.242 3.628,10.437 3.54,10.13 3.447,9.827 3.34,9.518 3.128,8.901 2.862,8.301 2.569,7.698 1.915,6.409 1.043,5.142 -0.069,3.954 -0.192,3.821 -0.366,3.767 -0.534,3.789 -0.606,3.198 -0.642,2.689 -0.642,2.25 -0.635,1.138 -0.43,0.518 0,0" /></g><g
         style="fill:#000000;fill-opacity:1"
         transform="translate(115.5972,789.8569)"
         id="g4844"><path
           inkscape:connector-curvature="0"
           id="path4846"
           style="fill:#000000;fill-opacity:1;fill-rule:nonzero;stroke:none"
           d="m 0,0 -2.299,0 0,12.716 -2.809,0 0,-0.438 c 0,-5.609 -1.024,-9.66 -3.063,-12.155 l -1.761,1.735 c 0.833,0.994 1.47,2.214 1.911,3.669 0.438,1.452 0.66,4.119 0.66,7.998 l 0,7.335 c 3.377,0.135 6.309,0.597 8.804,1.394 L 2.445,20.15 C 0.278,19.417 -2.243,18.97 -5.108,18.81 l 0,-3.964 7.676,0 0,-2.13 L 0,12.716 0,0 Z m -8.658,21.301 0,-2.053 -11.399,0 0,2.053 4.55,0 c -0.554,0.719 -0.93,1.199 -1.125,1.444 l 2.447,0.271 c 0.31,-0.377 0.701,-0.946 1.172,-1.715 l 4.355,0 z M -8.781,5.869 -10.124,4.28 c -1.015,1.142 -2.03,2.144 -3.06,3.009 l 0,-7.289 -2.201,0 0,6.603 C -16.51,4.73 -17.813,3.211 -19.297,2.054 l -1.147,1.981 c 2.231,1.715 3.792,3.514 4.67,5.407 l -4.67,0 0,2.003 5.059,0 0,1.954 -4.768,0 0,1.984 2.714,0 c -0.306,1.209 -0.66,2.241 -1.052,3.105 l 1.882,0.614 c 0.607,-1.37 1.063,-2.612 1.373,-3.719 l 1.908,0 c 0.437,0.783 0.879,2.024 1.319,3.719 l 1.981,-0.614 c -0.341,-1.334 -0.701,-2.372 -1.075,-3.105 l 2.541,0 0,-1.984 -4.622,0 0,-1.954 4.84,0 0,-2.003 -4.763,0 c 1.481,-0.95 2.926,-2.138 4.326,-3.573" /></g><g
         style="fill:#000000;fill-opacity:1"
         transform="translate(132.6323,804.3262)"
         id="g4848"><path
           inkscape:connector-curvature="0"
           id="path4850"
           style="fill:#000000;fill-opacity:1;fill-rule:nonzero;stroke:none"
           d="m 0,0 0,-2.886 6.734,0 C 6.559,-2.24 6.405,-1.276 6.275,0 L 0,0 Z M 14.347,5.158 0,5.158 0,2.133 l 14.347,0 0,3.025 z M 8.627,0 c 0.1,-1.164 0.232,-2.127 0.411,-2.886 l 9.039,0 0,-2.202 -8.431,0 c 0.484,-1.633 1.259,-3.134 2.325,-4.509 1.065,-1.372 1.93,-2.062 2.593,-2.062 0.419,0 0.726,0.397 0.92,1.187 0.208,0.794 0.38,1.699 0.512,2.716 l 2.226,-1.237 c -0.546,-3.537 -1.6,-5.304 -3.149,-5.304 -1.551,0 -3.079,0.902 -4.582,2.714 -1.516,1.791 -2.606,3.939 -3.269,6.446 l -7.248,0 0,-5.988 c 3.233,0.775 5.632,1.415 7.202,1.916 l 0,-2.279 c -3.297,-1.195 -6.95,-2.19 -10.955,-2.981 l -0.825,2.495 c 0.841,0.081 1.574,0.212 2.205,0.391 l 0,18.851 19.096,0 0,-7.316 L 8.627,0 Z" /></g><g
         style="fill:#000000;fill-opacity:1"
         transform="translate(182.396,789.7036)"
         id="g4852"><path
           inkscape:connector-curvature="0"
           id="path4854"
           style="fill:#000000;fill-opacity:1;fill-rule:nonzero;stroke:none"
           d="m 0,0 c -0.985,0.903 -2.095,1.697 -3.322,2.385 l 1.673,1.428 C -0.829,3.469 0.262,2.782 1.622,1.747 L 0,0 Z m -4.971,10.484 2.484,0 0,1.726 -1.844,0 c -0.1,-0.33 -0.203,-0.627 -0.32,-0.888 -0.133,-0.294 -0.242,-0.576 -0.32,-0.838 M -8.146,0.198 c 0,1.001 -0.11,1.967 -0.325,2.904 l 2.318,0.217 c 0.244,-0.572 0.425,-1.54 0.541,-2.901 l -2.534,-0.22 z m 1.969,12.012 -2.635,0 0,-1.726 1.868,0 c 0.379,0.738 0.634,1.314 0.767,1.726 m -6.944,-0.815 c 0.115,-0.262 0.229,-0.567 0.347,-0.911 l 1.82,0 0,1.726 -2.535,0 c 0.13,-0.315 0.254,-0.585 0.368,-0.815 m -0.886,-11.197 0,0.293 c 0,1.279 -0.058,2.182 -0.173,2.708 l 2.318,0.12 c 0.193,-0.655 0.325,-1.622 0.389,-2.901 l -2.534,-0.22 z m 9.109,16.685 -9.896,0 0,-1.031 9.896,0 0,1.031 z m 2.163,-2.336 -14.223,0 0,3.619 14.223,0 0,-3.619 z m -14.546,-2.337 0,-1.726 2.634,0 c -0.097,0.28 -0.229,0.564 -0.39,0.861 -0.166,0.28 -0.316,0.568 -0.445,0.865 l -1.799,0 z m 18.312,8.564 0,-5.022 -2.213,0 0,3.249 -17.475,0 0,-3.249 -2.24,0 0,5.022 3.99,0 c -0.151,0.426 -0.563,1.091 -1.233,1.993 l 2.288,0.394 c 0.543,-0.624 1.04,-1.42 1.502,-2.387 l 3.222,0 0,2.434 2.34,0 0,-2.434 3.151,0 c 0.295,0.361 0.744,1.164 1.353,2.414 l 2.363,-0.325 c -0.475,-0.948 -0.887,-1.645 -1.231,-2.089 l 4.183,0 z m -1.449,-7.091 0,-4.652 -8.394,0 0,-0.934 9.008,0 0,-1.5 -9.008,0 0,-1.011 10.311,0 0,-1.626 -22.841,0 0,1.626 10.388,0 0,1.011 -9.058,0 0,1.5 9.058,0 0,0.934 -8.395,0 0,4.652 18.931,0 z M -16.393,2.608 c -0.166,-0.261 -0.615,-0.714 -1.355,-1.356 -0.739,-0.637 -1.326,-1.049 -1.773,-1.228 l -1.87,1.573 c 1.428,0.64 2.454,1.364 3.078,2.167 l 1.92,-1.156 z" /></g><g
         style="fill:#000000;fill-opacity:1"
         transform="translate(101.1646,770.1104)"
         id="g4930"><path
           inkscape:connector-curvature="0"
           id="path4932"
           style="fill:#000000;fill-opacity:1;fill-rule:nonzero;stroke:none"
           d="M 0,0 -1.198,0 -4.709,5.408 C -4.757,5.484 -4.813,5.599 -4.876,5.751 L -4.958,5.668 C -4.931,5.411 -4.917,5.22 -4.917,5.095 l 0,-5.095 -1.093,0 0,7.646 1.206,0 3.231,-5.042 c 0.138,-0.222 0.292,-0.493 0.458,-0.812 l 0.052,0.115 c -0.013,0.124 -0.02,0.424 -0.02,0.896 l 0,4.843 L 0,7.646 0,0 Z" /></g><g
         style="fill:#000000;fill-opacity:1"
         transform="translate(106.7095,773.3716)"
         id="g4934"><path
           inkscape:connector-curvature="0"
           id="path4936"
           style="fill:#000000;fill-opacity:1;fill-rule:nonzero;stroke:none"
           d="m 0,0 c -0.056,1.034 -0.518,1.553 -1.385,1.553 -0.528,0 -0.921,-0.22 -1.178,-0.657 C -2.721,0.625 -2.813,0.326 -2.833,0 L 0,0 Z m 1.146,-0.781 -3.979,0 c 0.02,-0.528 0.166,-0.952 0.437,-1.271 0.265,-0.313 0.628,-0.469 1.094,-0.469 0.59,0 1.011,0.323 1.26,0.968 l 1.125,-0.155 c -0.354,-1.111 -1.159,-1.668 -2.417,-1.668 -0.966,0 -1.677,0.334 -2.136,1 -0.333,0.501 -0.499,1.122 -0.499,1.865 0,0.792 0.195,1.456 0.582,1.99 0.459,0.619 1.113,0.928 1.959,0.928 0.875,0 1.535,-0.303 1.982,-0.907 C 0.962,0.938 1.16,0.177 1.146,-0.781" /></g><g
         style="fill:#000000;fill-opacity:1"
         transform="translate(116.5894,775.6426)"
         id="g4938"><path
           inkscape:connector-curvature="0"
           id="path4940"
           style="fill:#000000;fill-opacity:1;fill-rule:nonzero;stroke:none"
           d="m 0,0 -1.74,-5.532 -1.136,0 -1.062,4.011 -0.084,0 c -0.02,-0.098 -0.062,-0.289 -0.125,-0.573 l -0.886,-3.438 -1.146,0 -1.718,5.532 1.115,0 0.948,-3.417 c 0.055,-0.188 0.115,-0.41 0.176,-0.666 l 0.083,0 c 0.022,0.118 0.076,0.333 0.169,0.645 L -4.501,0 l 1.126,0 0.873,-3.427 c 0.064,-0.264 0.119,-0.484 0.167,-0.656 l 0.084,0 c 0.063,0.291 0.114,0.513 0.158,0.666 L -1.085,0 0,0 Z" /></g><g
         style="fill:#000000;fill-opacity:1"
         transform="translate(125.5317,775.4761)"
         id="g4942"><path
           inkscape:connector-curvature="0"
           id="path4944"
           style="fill:#000000;fill-opacity:1;fill-rule:nonzero;stroke:none"
           d="m 0,0 c 0,0.535 -0.189,0.9 -0.571,1.094 -0.242,0.118 -0.702,0.177 -1.376,0.177 l -1.459,0 0,-2.604 1.51,0 C -0.632,-1.333 0,-0.889 0,0 m 1.241,0.01 c 0,-1.049 -0.441,-1.75 -1.324,-2.104 -0.382,-0.16 -0.962,-0.24 -1.738,-0.24 l -1.585,0 0,-3.032 -1.188,0 0,7.647 2.688,0 c 1.057,0 1.771,-0.107 2.147,-0.322 0.667,-0.382 1,-1.031 1,-1.949" /></g><g
         style="fill:#000000;fill-opacity:1"
         transform="translate(131.9634,773.3716)"
         id="g4946"><path
           inkscape:connector-curvature="0"
           id="path4948"
           style="fill:#000000;fill-opacity:1;fill-rule:nonzero;stroke:none"
           d="m 0,0 c -0.056,1.034 -0.517,1.553 -1.387,1.553 -0.526,0 -0.918,-0.22 -1.176,-0.657 C -2.724,0.625 -2.813,0.326 -2.835,0 L 0,0 Z m 1.146,-0.781 -3.981,0 c 0.022,-0.528 0.168,-0.952 0.439,-1.271 0.264,-0.313 0.629,-0.469 1.092,-0.469 0.592,0 1.012,0.323 1.263,0.968 l 1.124,-0.155 c -0.353,-1.111 -1.159,-1.668 -2.417,-1.668 -0.965,0 -1.677,0.334 -2.136,1 -0.333,0.501 -0.5,1.122 -0.5,1.865 0,0.792 0.195,1.456 0.582,1.99 0.458,0.619 1.113,0.928 1.96,0.928 0.874,0 1.535,-0.303 1.98,-0.907 C 0.963,0.938 1.16,0.177 1.146,-0.781" /></g><g
         style="fill:#000000;fill-opacity:1"
         transform="translate(138.5815,772.9238)"
         id="g4950"><path
           inkscape:connector-curvature="0"
           id="path4952"
           style="fill:#000000;fill-opacity:1;fill-rule:nonzero;stroke:none"
           d="m 0,0 c 0,0.632 -0.159,1.125 -0.48,1.479 -0.284,0.319 -0.646,0.479 -1.083,0.479 -0.417,0 -0.768,-0.142 -1.052,-0.427 -0.354,-0.347 -0.531,-0.868 -0.531,-1.563 0,-0.695 0.179,-1.218 0.542,-1.572 0.291,-0.286 0.638,-0.427 1.041,-0.427 0.382,0 0.708,0.124 0.979,0.373 C -0.195,-1.303 0,-0.75 0,0 m 1.145,-0.021 c 0,-0.875 -0.255,-1.58 -0.771,-2.115 -0.5,-0.529 -1.149,-0.792 -1.948,-0.792 -0.74,0 -1.358,0.223 -1.844,0.667 -0.576,0.507 -0.866,1.226 -0.866,2.157 0,0.971 0.28,1.725 0.836,2.261 0.485,0.464 1.114,0.697 1.885,0.697 0.813,0 1.465,-0.267 1.959,-0.802 0.5,-0.521 0.749,-1.212 0.749,-2.073" /></g><g
         style="fill:#000000;fill-opacity:1"
         transform="translate(145.1675,772.9336)"
         id="g4954"><path
           inkscape:connector-curvature="0"
           id="path4956"
           style="fill:#000000;fill-opacity:1;fill-rule:nonzero;stroke:none"
           d="m 0,0 c 0,0.667 -0.141,1.178 -0.427,1.532 -0.257,0.305 -0.586,0.459 -0.988,0.459 -0.418,0 -0.757,-0.168 -1.023,-0.501 -0.291,-0.368 -0.437,-0.892 -0.437,-1.573 0,-0.66 0.156,-1.16 0.469,-1.5 0.264,-0.292 0.589,-0.438 0.968,-0.438 0.571,0 0.977,0.271 1.221,0.813 C -0.072,-0.875 0,-0.473 0,0 m 1.157,0.011 c 0,-0.91 -0.242,-1.636 -0.729,-2.178 -0.438,-0.5 -0.981,-0.75 -1.626,-0.75 -0.667,0 -1.181,0.254 -1.54,0.76 l -0.075,0.011 0,-2.761 -1.115,0 0,7.627 1.022,0 0,-0.782 0.071,0.021 c 0.371,0.59 0.925,0.886 1.669,0.886 0.716,0 1.284,-0.267 1.708,-0.803 0.41,-0.521 0.615,-1.197 0.615,-2.031" /></g><path
         inkscape:connector-curvature="0"
         id="path4958"
         style="fill:#000000;fill-opacity:1;fill-rule:nonzero;stroke:none"
         d="m 149.335,770.11 -1.177,0 0,7.646 1.177,0 0,-7.646 z" /><g
         style="fill:#000000;fill-opacity:1"
         transform="translate(154.9614,773.3716)"
         id="g4960"><path
           inkscape:connector-curvature="0"
           id="path4962"
           style="fill:#000000;fill-opacity:1;fill-rule:nonzero;stroke:none"
           d="m 0,0 c -0.054,1.034 -0.517,1.553 -1.385,1.553 -0.526,0 -0.921,-0.22 -1.178,-0.657 C -2.723,0.625 -2.812,0.326 -2.834,0 L 0,0 Z m 1.147,-0.781 -3.981,0 c 0.022,-0.528 0.168,-0.952 0.439,-1.271 0.264,-0.313 0.628,-0.469 1.093,-0.469 0.59,0 1.011,0.323 1.26,0.968 l 1.126,-0.155 c -0.354,-1.111 -1.159,-1.668 -2.417,-1.668 -0.963,0 -1.677,0.334 -2.136,1 -0.334,0.501 -0.501,1.122 -0.501,1.865 0,0.792 0.196,1.456 0.584,1.99 0.46,0.619 1.113,0.928 1.959,0.928 0.875,0 1.537,-0.303 1.98,-0.907 0.411,-0.562 0.609,-1.323 0.594,-2.281" /></g><g
         style="fill:#000000;fill-opacity:1"
         transform="translate(158.1577,777.8408)"
         id="g4964"><path
           inkscape:connector-curvature="0"
           id="path4966"
           style="fill:#000000;fill-opacity:1;fill-rule:nonzero;stroke:none"
           d="m 0,0 1.406,0 -1.343,-1.511 -0.803,0 L 0,0 Z" /></g><g
         style="fill:#000000;fill-opacity:1"
         transform="translate(165.272,771.8086)"
         id="g4968"><path
           inkscape:connector-curvature="0"
           id="path4970"
           style="fill:#000000;fill-opacity:1;fill-rule:nonzero;stroke:none"
           d="m 0,0 c 0,-0.479 -0.179,-0.889 -0.542,-1.229 -0.437,-0.389 -1.056,-0.584 -1.854,-0.584 -0.743,0 -1.336,0.181 -1.782,0.542 -0.361,0.298 -0.59,0.684 -0.689,1.156 l 1.106,0.157 c 0.132,-0.681 0.583,-1.021 1.354,-1.021 0.257,0 0.49,0.038 0.698,0.114 0.369,0.139 0.554,0.371 0.554,0.698 0,0.313 -0.272,0.532 -0.813,0.656 -1.009,0.237 -1.678,0.449 -2.011,0.636 -0.487,0.278 -0.729,0.681 -0.729,1.209 0,0.514 0.211,0.92 0.635,1.219 0.383,0.278 0.863,0.417 1.449,0.417 1.402,0 2.2,-0.486 2.395,-1.459 L -1.292,2.334 c -0.11,0.535 -0.516,0.803 -1.219,0.803 -0.277,0 -0.516,-0.043 -0.718,-0.125 C -3.506,2.901 -3.646,2.726 -3.646,2.49 -3.646,2.303 -3.554,2.157 -3.365,2.052 -3.17,1.941 -2.81,1.827 -2.281,1.708 -1.495,1.528 -0.953,1.347 -0.658,1.167 -0.219,0.896 0,0.507 0,0" /></g><g
         style="fill:#000000;fill-opacity:1"
         transform="translate(175.145,775.4761)"
         id="g4972"><path
           inkscape:connector-curvature="0"
           id="path4974"
           style="fill:#000000;fill-opacity:1;fill-rule:nonzero;stroke:none"
           d="m 0,0 c 0,0.535 -0.191,0.9 -0.574,1.094 -0.242,0.118 -0.699,0.177 -1.373,0.177 l -1.461,0 0,-2.604 1.511,0 C -0.63,-1.333 0,-0.889 0,0 m 1.239,0.01 c 0,-1.049 -0.441,-1.75 -1.322,-2.104 -0.382,-0.16 -0.963,-0.24 -1.741,-0.24 l -1.584,0 0,-3.032 -1.188,0 0,7.647 2.69,0 c 1.056,0 1.771,-0.107 2.145,-0.322 0.666,-0.382 1,-1.031 1,-1.949" /></g><g
         style="fill:#000000;fill-opacity:1"
         transform="translate(181.3462,772.9131)"
         id="g4976"><path
           inkscape:connector-curvature="0"
           id="path4978"
           style="fill:#000000;fill-opacity:1;fill-rule:nonzero;stroke:none"
           d="m 0,0 c -0.318,-0.125 -0.786,-0.24 -1.396,-0.343 -0.792,-0.146 -1.188,-0.446 -1.188,-0.896 0,-0.216 0.076,-0.401 0.228,-0.553 0.196,-0.215 0.481,-0.323 0.856,-0.323 0.59,0 1.025,0.23 1.302,0.688 C -0.064,-1.205 0,-0.729 0,0 m 1.407,-2.792 -1.115,0 c -0.09,0.222 -0.158,0.461 -0.209,0.718 -0.583,-0.562 -1.225,-0.843 -1.928,-0.843 -0.583,0 -1.045,0.146 -1.385,0.438 -0.333,0.291 -0.499,0.676 -0.499,1.156 0,0.597 0.277,1.046 0.833,1.344 0.291,0.153 0.718,0.277 1.281,0.375 0.758,0.118 1.297,0.236 1.615,0.355 0.015,0.222 0.011,0.409 -0.01,0.562 -0.036,0.271 -0.205,0.465 -0.511,0.583 -0.194,0.077 -0.399,0.115 -0.614,0.115 -0.46,0 -0.792,-0.08 -1.002,-0.24 C -2.287,1.646 -2.409,1.427 -2.5,1.116 l -1.063,0.197 c 0.174,0.465 0.401,0.812 0.676,1.041 0.417,0.341 1.02,0.511 1.803,0.511 0.821,0 1.418,-0.18 1.791,-0.542 C 0.862,2.17 0.968,1.993 1.032,1.792 1.093,1.563 1.125,1.222 1.125,0.771 l -0.011,-2 c 0,-0.632 0.098,-1.153 0.293,-1.563" /></g><g
         style="fill:#000000;fill-opacity:1"
         transform="translate(187.4644,775.5181)"
         id="g4980"><path
           inkscape:connector-curvature="0"
           id="path4982"
           style="fill:#000000;fill-opacity:1;fill-rule:nonzero;stroke:none"
           d="m 0,0 -0.364,-1.012 c -0.25,0.148 -0.493,0.22 -0.731,0.22 -0.708,0 -1.062,-0.76 -1.062,-2.282 l 0,-2.334 -1.136,0 0,5.533 1.043,0 0,-0.823 0.093,0 C -1.824,-0.067 -1.429,0.25 -0.969,0.25 -0.663,0.25 -0.341,0.167 0,0" /></g><g
         style="fill:#000000;fill-opacity:1"
         transform="translate(190.8521,770.1626)"
         id="g4984"><path
           inkscape:connector-curvature="0"
           id="path4986"
           style="fill:#000000;fill-opacity:1;fill-rule:nonzero;stroke:none"
           d="m 0,0 c -0.275,-0.09 -0.568,-0.135 -0.875,-0.135 -0.625,0 -1.031,0.184 -1.219,0.552 -0.11,0.222 -0.166,0.66 -0.166,1.312 l 0,2.907 -0.699,0 0,0.855 0.699,0 0,1.292 1.134,0.655 0,-1.947 1.002,0 0,-0.855 -1.002,0 0,-2.834 c 0,-0.382 0.026,-0.628 0.073,-0.739 0.066,-0.167 0.203,-0.25 0.418,-0.25 0.196,0 0.364,0.027 0.511,0.083 L 0,0 Z" /></g><g
         style="fill:#000000;fill-opacity:1"
         transform="translate(196.9282,775.6533)"
         id="g4988"><path
           inkscape:connector-curvature="0"
           id="path4990"
           style="fill:#000000;fill-opacity:1;fill-rule:nonzero;stroke:none"
           d="m 0,0 -2.052,-5.501 c -0.334,-0.882 -0.594,-1.441 -0.782,-1.678 -0.298,-0.388 -0.73,-0.583 -1.303,-0.583 -0.283,0 -0.531,0.032 -0.74,0.094 l -0.113,0.916 c 0.187,-0.047 0.372,-0.072 0.551,-0.072 0.313,0 0.553,0.09 0.719,0.27 0.167,0.175 0.331,0.504 0.491,0.991 L -5.356,0 l 1.199,0 1.459,-4.178 0.105,0 L -1.134,0 0,0 Z" /></g><path
         sodipodi:nodetypes="ccccc"
         inkscape:connector-curvature="0"
         id="path5905"
         d="m 93.592,784.92636 0,-1.6448 52.6096,0 1.7424,1.6448 z"
         style="fill:url(#linearGradient6617);fill-opacity:1;fill-rule:evenodd;stroke:none;stroke-width:0.008;stroke-linecap:butt;stroke-linejoin:miter;stroke-miterlimit:4;stroke-dasharray:none;stroke-opacity:1" /><path
         style="fill:url(#linearGradient6637);fill-opacity:1;fill-rule:evenodd;stroke:none;stroke-width:0.008;stroke-linecap:butt;stroke-linejoin:miter;stroke-miterlimit:4;stroke-dasharray:none;stroke-opacity:1"
         d="m 200.5536,783.28156 0,1.6448 -52.6096,0 -1.7424,-1.6448 z"
         id="path6627"
         inkscape:connector-curvature="0"
         sodipodi:nodetypes="ccccc" /></g></g></svg>