<?xml version="1.0" encoding="UTF-8" standalone="no"?>
<!-- Created with Inkscape (http://www.inkscape.org/) -->

<svg
   xmlns:dc="http://purl.org/dc/elements/1.1/"
   xmlns:cc="http://creativecommons.org/ns#"
   xmlns:rdf="http://www.w3.org/1999/02/22-rdf-syntax-ns#"
   xmlns:svg="http://www.w3.org/2000/svg"
   xmlns="http://www.w3.org/2000/svg"
   version="1.1"
   width="150"
   height="150"
   id="svg13998">
  <defs
     id="defs14000">
    <clipPath
       id="clipPath11701">
      <path
         d="m 451.436,746.907 110.13,0 0,-107.876 -110.13,0 0,107.876 z"
         id="path11703" />
    </clipPath>
    <clipPath
       id="clipPath11705">
      <path
         d="m 451.436,639.031 110.13,0 0,107.876 -110.13,0 0,-107.876 z"
         id="path11707" />
    </clipPath>
  </defs>
  <metadata
     id="metadata14003">
    <rdf:RDF>
      <cc:Work
         rdf:about="">
        <dc:format>image/svg+xml</dc:format>
        <dc:type
           rdf:resource="http://purl.org/dc/dcmitype/StillImage" />
        <dc:title></dc:title>
      </cc:Work>
    </rdf:RDF>
  </metadata>
  <g
     transform="translate(-247.59601,-304.65889)"
     id="layer1">
    <g
       transform="matrix(1.25,0,0,-1.25,-337.41451,1253.9241)"
       id="g11697">
      <g
         id="g11699" />
      <g
         id="g11709" />
    </g>
    <g
       transform="matrix(1.0407913,0,0,1.0407913,-46.141468,-22.760878)"
       id="g15097">
      <g
         transform="matrix(1.25,0,0,-1.25,367.57135,348.05703)"
         id="g11917">
        <path
           d="m 0,0 c -22.197,9.01 -47.486,-1.677 -56.493,-23.866 -9.02,-22.189 1.679,-47.477 23.869,-56.488 22.189,-9.015 47.478,1.675 56.482,23.866 C 32.869,-34.298 22.189,-9.003 0,0"
           id="path11919"
           style="fill:#ffffff;fill-opacity:1;fill-rule:nonzero;stroke:none" />
      </g>
      <g
         transform="matrix(1.25,0,0,-1.25,396.73636,416.2149)"
         id="g11921">
        <path
           d="m 0,0 c -8.421,-20.734 -32.048,-30.718 -52.785,-22.302 -20.735,8.421 -30.715,32.048 -22.296,52.783 8.419,20.732 32.046,30.715 52.78,22.298 C -1.569,44.365 8.418,20.733 0,0 m -23.332,54.526 c -22.197,9.01 -47.486,-1.676 -56.493,-23.865 -9.02,-22.19 1.679,-47.478 23.869,-56.489 22.189,-9.015 47.477,1.676 56.482,23.866 9.011,22.19 -1.669,47.485 -23.858,56.488"
           id="path11923"
           style="fill:#007f46;fill-opacity:1;fill-rule:nonzero;stroke:none" />
      </g>
      <g
         transform="matrix(1.25,0,0,-1.25,370.24835,356.38953)"
         id="g11925">
        <path
           d="m 0,0 c -16.975,9.509 -38.028,4.866 -49.571,-10.086 -1.159,-1.5 -2.228,-3.098 -3.173,-4.797 -10.458,-18.68 -3.792,-42.296 14.883,-52.752 18.681,-10.457 42.297,-3.791 52.755,14.889 0.953,1.697 1.762,3.443 2.428,5.207 C 24.035,-29.876 16.98,-9.499 0,0"
           id="path11927"
           style="fill:#52b12f;fill-opacity:1;fill-rule:nonzero;stroke:none" />
      </g>
      <g
         transform="matrix(1.25,0,0,-1.25,379.67947,400.42152)"
         id="g11929">
        <path
           d="m 0,0 c 0,0 17.365,0.911 26.418,9.438 0,0 2.588,-14.986 -10.6,-15.256 0,0 5.805,-6.334 -6.38,-8.527 0,0 1.22,-4.087 -7.964,-5.079 -9.189,-0.988 -10.372,1.261 -10.372,1.261 0,0 -2.632,-1.872 -11.027,-2.923 -10.033,-1.254 -17.057,-2.862 -20.612,-7.995 -3.543,-5.135 -3.234,-6.843 -9.657,-6.867 -6.431,-0.026 -11.468,2.34 -11.611,9.467 0,0 -5.008,2.512 -5.39,5.093 -0.373,2.588 2.325,5.46 5.019,4.789 0,0 -7.391,1.517 -7.199,3.365 0.184,1.855 1.163,0.158 1.163,0.158 0,0 -2.371,3.722 -0.517,3.675 5.813,-0.13 6.712,-3.858 14.2,-6.241 5.252,-1.676 11.668,-3.336 17.903,-0.128 0,0 2.394,2.299 -1.336,2.848 -3.739,0.558 -10.506,2.82 -11.005,7.294 -0.665,5.941 1.315,8.976 -1.068,10.452 -2.381,1.478 -9.153,2.259 -9.809,4.588 -0.653,2.324 2.966,5.296 2.168,6.859 -0.806,1.57 -11.13,5.853 -14.151,10.199 -3.02,4.35 -3.416,7.647 0.999,7.82 4.41,0.174 5.816,0.93 2.554,4.851 -3.252,3.921 -3.115,7.853 1.148,5.898 2.959,-1.359 2.266,0.166 0.866,3.337 -1.768,3.999 -1.807,5.921 -1.926,8.217 -0.111,2.301 2.293,5.584 3.708,1.855 1.418,-3.729 3.814,-13.179 11.247,-18.606 7.439,-5.43 15.518,-8.886 24.93,-17.544 4.188,-3.844 7.519,-7.651 6.669,-12.819 -0.548,-3.354 2.501,-5.036 6,-2.25 3.499,2.789 5.504,4.699 7.874,6.901 3.726,3.467 11.168,4.503 12.863,-1.477 0,0 -0.256,-1.412 -0.156,-1.742 C 5.042,10.582 -3.535,8.684 0,0"
           id="path11931"
           style="fill:#007f46;fill-opacity:1;fill-rule:nonzero;stroke:none" />
      </g>
      <g
         transform="matrix(1.25,0,0,-1.25,383.1206,400.10528)"
         id="g11933">
        <path
           d="m 0,0 c 0,0 12.163,-0.117 21.935,6.934 0,0 1.8,-6.978 -9.195,-12.235 0,0 3.427,-5.809 -6.664,-7.955 0,0 3.459,-4.018 -5.721,-5.01 -9.165,-0.995 -10.979,0.99 -10.979,0.99 0,0 -0.908,-2.65 -9.292,-3.712 -10.015,-1.249 -17.03,-2.862 -20.573,-7.966 -3.547,-5.116 -3.246,-6.806 -9.657,-6.842 -6.414,-0.034 -12.229,3.493 -13.538,9.364 0,0 -3.028,2.526 -3.405,5.099 -0.375,2.566 -0.152,4.942 2.531,4.282 0,0 -4.894,1.983 -4.695,3.821 0.19,1.841 1.161,0.158 1.161,0.158 0,0 -2.369,3.696 -0.515,3.652 5.797,-0.124 6.689,-3.826 14.166,-6.19 5.237,-1.655 11.639,-3.298 17.867,-0.1 0,0 2.386,2.279 -1.333,2.822 -3.725,0.552 -10.478,2.791 -10.979,7.235 -0.658,5.917 -0.731,8.89 -3.107,10.357 -2.38,1.472 -7.071,2.278 -7.726,4.589 -0.654,2.313 0.128,5.21 -0.667,6.77 -0.802,1.554 -8.264,5.862 -11.275,10.181 -3.006,4.323 -3.402,7.602 1.015,7.779 4.4,0.177 5.79,0.932 2.549,4.829 -3.246,3.893 -4.657,7.595 -0.982,4.717 3.673,-2.886 5.375,-0.443 3.039,2.104 -2.328,2.554 -3.041,8.596 -3.155,10.882 -0.113,2.286 0.86,3.274 2.261,-0.432 1.41,-3.704 6.293,-12.133 13.709,-17.512 7.413,-5.391 15.615,-7.864 25.001,-16.46 4.175,-3.822 7.501,-7.603 6.646,-12.746 -0.55,-3.339 2.489,-5.004 5.983,-2.224 3.494,2.773 5.432,4.747 7.868,6.867 2.428,2.113 8.535,3.846 10.218,-2.098 0,0 2.36,-0.759 2.454,-1.09 C 5.043,10.531 -3.518,8.645 0,0"
           id="path11935"
           style="fill:#ffffff;fill-opacity:1;fill-rule:nonzero;stroke:none" />
      </g>
      <g
         transform="matrix(1.25,0,0,-1.25,378.39773,384.2424)"
         id="g11937">
        <path
           d="M 0,0 C -0.145,0.654 0.267,1.319 0.922,1.461 1.598,1.615 2.252,1.196 2.403,0.532 2.548,-0.125 2.122,-0.786 1.466,-0.922 0.806,-1.077 0.157,-0.653 0,0"
           id="path11939"
           style="fill:#007f46;fill-opacity:1;fill-rule:nonzero;stroke:none" />
      </g>
      <g
         transform="matrix(1.25,0,0,-1.25,316.78273,334.7299)"
         id="g11941">
        <path
           d="m 0,0 0.634,-1.636 2.939,1.137 C 3.282,0.1 3.029,0.637 2.841,1.104 L 0,0 z M 5.068,5.82 -1.299,3.356 -0.688,1.796 5.676,4.266 5.068,5.82 z M 4.595,1.784 C 4.856,1.18 5.101,0.65 5.345,0.186 l 4.141,1.61 0.732,-1.887 -3.902,-1.519 c 0.486,-0.828 1.059,-1.523 1.712,-2.061 0.659,-0.537 1.166,-0.733 1.546,-0.583 0.287,0.11 0.16,0.902 -0.386,2.369 l 2.006,-0.094 C 11.946,-4.405 11.771,-5.834 10.668,-6.262 9.74,-6.627 8.725,-6.45 7.607,-5.748 6.483,-5.042 5.472,-3.895 4.57,-2.309 L 1.379,-3.54 2.493,-6.425 c 1.209,0.737 2.157,1.39 2.841,1.955 L 6.087,-6.404 C 4.442,-7.663 2.68,-8.839 0.787,-9.946 l -1.143,1.985 c 0.5,0.232 0.908,0.439 1.206,0.618 L -3.722,4.454 6.023,8.238 8.022,3.092 4.595,1.784 z"
           id="path11943"
           style="fill:#007f46;fill-opacity:1;fill-rule:nonzero;stroke:none" />
      </g>
      <g
         transform="matrix(1.25,0,0,-1.25,346.5386,324.69453)"
         id="g11945">
        <path
           d="m 0,0 c -0.626,0.733 -1.251,1.361 -1.87,1.875 l 1.445,1.243 C 0.529,2.458 1.42,1.695 2.261,0.831 L 1.363,-0.02 6.133,-0.091 6.104,-2.217 1.603,-2.152 1.571,-4.811 5.339,-4.869 5.305,-6.962 l -3.771,0.057 -0.039,-3.236 5.062,-0.074 -0.035,-2.123 -12.293,0.18 0.035,2.128 5.236,-0.074 0.051,3.231 -3.804,0.056 0.031,2.088 3.801,-0.053 0.04,2.66 -4.67,0.068 0.038,2.13 L 0,0 z"
           id="path11947"
           style="fill:#007f46;fill-opacity:1;fill-rule:nonzero;stroke:none" />
      </g>
      <g
         transform="matrix(1.25,0,0,-1.25,375.11398,338.71427)"
         id="g11949">
        <path
           d="M 0,0 1.211,-0.511 1.727,0.692 0.691,1.134 1.065,0.692 C 0.713,0.357 0.356,0.127 0,0 m 0.462,-5.324 c 0.276,-0.5 0.595,-1.188 0.942,-2.082 l -2.009,0.28 c -0.129,0.578 -0.354,1.341 -0.679,2.281 l 1.746,-0.479 z m -0.934,5.532 -0.477,0.709 c 0.427,0.092 0.757,0.255 1.017,0.481 L -0.993,1.856 -1.509,0.65 -0.472,0.208 z m 2.279,4.006 -4.389,1.877 -0.206,-0.48 4.389,-1.877 0.206,0.48 z m -4.13,-8.463 c 0.137,-0.686 0.247,-1.313 0.32,-1.872 l -1.89,0.535 c 0.046,0.427 0.036,1.052 -0.047,1.858 l 1.617,-0.521 z m -0.549,5.484 0.514,1.207 -1.09,0.468 c 0.114,-0.337 0.199,-0.678 0.257,-1.013 l -0.881,-0.153 1.2,-0.509 z M 3.812,4.556 2.736,2.051 -4.802,5.269 -3.724,7.78 3.812,4.556 z M -4.529,1.937 c 0.013,0.36 -0.067,0.76 -0.238,1.2 L -4.013,3.151 -5.09,3.614 -5.605,2.401 -4.529,1.937 z M 6.703,5.556 5.211,2.08 3.56,2.786 4.402,4.757 -4,8.354 -4.85,6.383 l -1.629,0.701 1.484,3.478 1.878,-0.801 c -0.008,0.365 -0.057,0.757 -0.127,1.158 l 1.684,-0.412 c 0.091,-0.432 0.136,-0.921 0.136,-1.476 L 0.013,8.425 0.534,9.647 2.219,8.923 1.691,7.699 3.11,7.096 C 3.32,7.258 3.672,7.583 4.167,8.072 L 5.666,7.184 C 5.272,6.79 4.983,6.521 4.793,6.377 L 6.703,5.556 z M -4.964,-3.119 c 0.075,-0.71 0.093,-1.319 0.041,-1.824 l -1.903,0.588 c 0.157,0.545 0.239,1.154 0.253,1.817 l 1.609,-0.581 z m 7.278,0.797 -4.231,1.811 -0.149,-0.369 4.482,-1.916 -0.486,-1.129 -4.483,1.916 -0.157,-0.363 5.052,-2.162 -0.541,-1.273 -11.646,4.979 0.538,1.278 5.072,-2.172 0.157,0.366 -4.5,1.923 0.481,1.131 4.505,-1.924 0.153,0.361 -4.245,1.816 1.487,3.468 L 3.804,1.14 2.314,-2.322 z M -8.511,-1.47 -6.986,-2.441 C -7.648,-2.989 -8.364,-3.34 -9.135,-3.497 l -1.568,1.422 c 0.967,0.048 1.702,0.254 2.192,0.605"
           id="path11951"
           style="fill:#007f46;fill-opacity:1;fill-rule:nonzero;stroke:none" />
      </g>
      <g
         transform="matrix(1.25,0,0,-1.25,383.15723,351.23015)"
         id="g11953">
        <path
           d="M 0,0 -0.509,0.398 2.969,4.777 3.892,4.048 C 4.653,3.432 4.802,2.646 4.127,1.801 3.548,1.058 2.48,0.805 1.668,1.457 L 1.502,1.585 1.827,1.986 1.993,1.86 C 2.513,1.501 3.066,1.569 3.582,2.219 3.964,2.701 4.021,3.23 3.481,3.658 L 3.133,3.936 0,0 z"
           id="path11955"
           style="fill:#007f46;fill-opacity:1;fill-rule:nonzero;stroke:none" />
      </g>
      <g
         transform="matrix(1.25,0,0,-1.25,389.32061,352.86727)"
         id="g11957">
        <path
           d="M 0,0 C 0.349,0.729 0.704,1.451 1.205,2.354 L 1.197,2.367 C 0.345,1.781 -0.358,1.375 -1.063,0.97 L 0,0 z m 2.008,2.744 -2.475,-5.299 -0.549,0.503 0.755,1.535 L -1.573,0.684 -3.049,-0.201 -3.512,0.22 1.65,3.073 2.008,2.744 z"
           id="path11959"
           style="fill:#007f46;fill-opacity:1;fill-rule:nonzero;stroke:none" />
      </g>
      <g
         transform="matrix(1.25,0,0,-1.25,392.26373,354.59015)"
         id="g11961">
        <path
           d="m 0,0 0.245,-0.265 c 0.563,-0.603 1.207,-0.21 1.547,0.114 0.498,0.469 0.451,0.909 0.154,1.227 L 1.566,1.477 0,0 z M 1.535,2.325 2.445,1.36 C 2.961,0.805 3.022,0.053 2.326,-0.604 1.72,-1.171 1.157,-1.243 0.604,-1.157 l -0.941,-2.471 -0.619,0.312 1.008,2.436 -0.463,0.502 -1.684,-1.589 -0.444,0.47 4.074,3.822 z"
           id="path11963"
           style="fill:#007f46;fill-opacity:1;fill-rule:nonzero;stroke:none" />
      </g>
      <g
         transform="matrix(1.25,0,0,-1.25,392.89361,360.7009)"
         id="g11965">
        <path
           d="M 0,0 3.913,3.162 2.964,4.319 3.402,4.674 5.69,1.841 5.248,1.499 4.314,2.659 0.401,-0.501 0,0 z"
           id="path11967"
           style="fill:#007f46;fill-opacity:1;fill-rule:nonzero;stroke:none" />
      </g>
      <g
         transform="matrix(1.25,0,0,-1.25,395.86236,364.63477)"
         id="g11969">
        <path
           d="M 0,0 1.991,1.361 3.761,4.259 4.28,3.774 2.728,1.352 5.603,1.83 5.847,1.305 2.36,0.827 0.359,-0.535 0,0 z"
           id="path11971"
           style="fill:#007f46;fill-opacity:1;fill-rule:nonzero;stroke:none" />
      </g>
      <g
         transform="matrix(1.25,0,0,-1.25,389.75636,342.01515)"
         id="g11973">
        <path
           d="M 0,0 0.548,-0.436 C 1.55,-1.24 2.514,-1.026 3.515,0.225 4.274,1.174 4.321,2.146 3.388,2.897 L 2.734,3.426 0,0 z M 3.715,3.333 C 5.155,2.182 4.867,0.807 4.044,-0.223 2.911,-1.643 1.487,-1.884 0.216,-0.878 l -1.055,0.851 3.418,4.27 1.136,-0.91 z"
           id="path11975"
           style="fill:#007f46;fill-opacity:1;fill-rule:nonzero;stroke:none" />
      </g>
      <g
         transform="matrix(1.25,0,0,-1.25,399.48786,343.14902)"
         id="g11977">
        <path
           d="m 0,0 -1.195,1.096 -1.191,-1.302 1.163,-1.072 -0.372,-0.403 -1.162,1.073 -1.398,-1.521 1.398,-1.284 -0.369,-0.399 -1.865,1.704 L -1.29,1.927 0.368,0.405 0,0 z"
           id="path11979"
           style="fill:#007f46;fill-opacity:1;fill-rule:nonzero;stroke:none" />
      </g>
      <g
         transform="matrix(1.25,0,0,-1.25,400.36186,352.9624)"
         id="g11981">
        <path
           d="M 0,0 -0.431,0.466 2.839,3.5 2.825,3.509 C 2.232,3.206 -0.246,2.322 -1.685,1.82 l -0.17,0.186 c 0.635,1.369 1.709,3.651 2.116,4.266 L 0.253,6.286 -3.021,3.25 -3.369,3.635 0.641,7.36 1.104,6.863 C 0.431,5.447 -0.239,4.018 -0.975,2.543 0.597,3.122 2.111,3.642 3.609,4.161 L 4.01,3.729 0,0 z"
           id="path11983"
           style="fill:#007f46;fill-opacity:1;fill-rule:nonzero;stroke:none" />
      </g>
      <g
         transform="matrix(1.25,0,0,-1.25,406.67773,355.3549)"
         id="g11985">
        <path
           d="M 0,0 C 0.821,0.622 1.47,1.691 0.784,2.589 0.103,3.486 -1.1,3.144 -1.91,2.519 -2.771,1.869 -3.563,0.752 -2.844,-0.184 -2.129,-1.121 -0.849,-0.65 0,0 m -2.343,3.074 c 1.223,0.927 2.76,0.894 3.56,-0.15 0.804,-1.048 0.424,-2.549 -0.787,-3.48 -1.298,-0.988 -2.856,-1.082 -3.71,0.037 -0.859,1.124 -0.36,2.601 0.937,3.593"
           id="path11987"
           style="fill:#007f46;fill-opacity:1;fill-rule:nonzero;stroke:none" />
      </g>
      <g
         transform="matrix(1.25,0,0,-1.25,412.01586,359.54865)"
         id="g11989">
        <path
           d="m 0,0 c 0.061,0.295 0.021,0.85 -0.245,1.26 -0.602,0.954 -1.778,0.988 -2.856,0.298 -1.17,-0.747 -1.527,-1.915 -0.988,-2.757 0.27,-0.416 0.64,-0.643 0.966,-0.748 l -0.251,-0.455 c -0.372,0.119 -0.873,0.448 -1.195,0.94 -0.878,1.369 -0.189,2.79 1.081,3.597 C -2.329,2.876 -0.639,2.896 0.237,1.52 0.598,0.966 0.611,0.438 0.538,0.035 L 0,0 z"
           id="path11991"
           style="fill:#007f46;fill-opacity:1;fill-rule:nonzero;stroke:none" />
      </g>
      <g
         transform="matrix(1.25,0,0,-1.25,411.26511,362.6139)"
         id="g11993">
        <path
           d="m 0,0 0.167,-0.312 c 0.395,-0.712 1.09,-0.496 1.491,-0.283 0.597,0.327 0.656,0.761 0.459,1.136 L 1.85,1.011 0,0 z M 2.03,1.828 2.656,0.686 C 3.009,0.033 2.883,-0.7 2.052,-1.146 1.343,-1.539 0.791,-1.464 0.286,-1.247 l -1.502,-2.11 -0.513,0.451 1.57,2.054 -0.32,0.59 -1.991,-1.085 -0.307,0.557 4.807,2.618 z"
           id="path11995"
           style="fill:#007f46;fill-opacity:1;fill-rule:nonzero;stroke:none" />
      </g>
      <g
         transform="matrix(1.25,0,0,-1.25,413.43186,368.77053)"
         id="g11997">
        <path
           d="M 0,0 C 0.597,0.528 1.193,1.05 1.994,1.668 L 1.988,1.678 C 1.001,1.481 0.205,1.379 -0.584,1.285 L 0,0 z M 2.868,1.712 -1.385,-2.13 -1.689,-1.466 -0.427,-0.362 -1.158,1.216 -2.822,0.98 -3.083,1.537 2.662,2.153 2.868,1.712 z"
           id="path11999"
           style="fill:#007f46;fill-opacity:1;fill-rule:nonzero;stroke:none" />
      </g>
      <g
         transform="matrix(1.25,0,0,-1.25,412.14286,372.63703)"
         id="g12001">
        <path
           d="M 0,0 4.588,1.796 4.053,3.157 4.568,3.355 5.867,0.044 5.353,-0.151 4.818,1.208 0.231,-0.591 0,0 z"
           id="path12003"
           style="fill:#007f46;fill-opacity:1;fill-rule:nonzero;stroke:none" />
      </g>
      <g
         transform="matrix(1.25,0,0,-1.25,413.29149,375.70227)"
         id="g12005">
        <path
           d="M 0,0 5.183,1.763 5.382,1.162 0.197,-0.596 0,0 z"
           id="path12007"
           style="fill:#007f46;fill-opacity:1;fill-rule:nonzero;stroke:none" />
      </g>
      <g
         transform="matrix(1.25,0,0,-1.25,420.59261,380.2664)"
         id="g12009">
        <path
           d="M 0,0 C 0.148,0.268 0.275,0.806 0.141,1.273 -0.164,2.363 -1.281,2.733 -2.515,2.391 -3.843,2.02 -4.527,1 -4.254,0.04 c 0.131,-0.479 0.418,-0.805 0.695,-0.998 l -0.363,-0.365 c -0.321,0.231 -0.714,0.68 -0.873,1.245 -0.437,1.567 0.628,2.726 2.077,3.135 C -1.395,3.431 0.239,2.952 0.683,1.377 0.854,0.752 0.711,0.239 0.528,-0.125 L 0,0 z"
           id="path12011"
           style="fill:#007f46;fill-opacity:1;fill-rule:nonzero;stroke:none" />
      </g>
    </g>
  </g>
</svg>
