<?xml version="1.0" encoding="UTF-8" standalone="no"?>
<!-- Created with Inkscape (http://www.inkscape.org/) -->

<svg
   xmlns:dc="http://purl.org/dc/elements/1.1/"
   xmlns:cc="http://creativecommons.org/ns#"
   xmlns:rdf="http://www.w3.org/1999/02/22-rdf-syntax-ns#"
   xmlns:svg="http://www.w3.org/2000/svg"
   xmlns="http://www.w3.org/2000/svg"
   version="1.1"
   width="250"
   height="77.233902"
   id="svg11600">
  <defs
     id="defs11602" />
  <metadata
     id="metadata11605">
    <rdf:RDF>
      <cc:Work
         rdf:about="">
        <dc:format>image/svg+xml</dc:format>
        <dc:type
           rdf:resource="http://purl.org/dc/dcmitype/StillImage" />
        <dc:title></dc:title>
      </cc:Work>
    </rdf:RDF>
  </metadata>
  <g
     transform="translate(-353.79263,-300.62286)"
     id="layer1">
    <g
       transform="matrix(2.2819043,0,0,2.2819043,-453.52827,-484.37616)"
       id="g11629">
      <g
         transform="matrix(1.25,0,0,-1.25,400.45274,344.59011)"
         id="g8547">
        <path
           d="m 0,0 -8.601,0 0,-15.224 c 0.024,-0.699 0.188,-1.255 0.535,-1.649 0.35,-0.398 0.792,-0.605 1.326,-0.605 l 5.624,0 0,2.51 -3.069,0 c -0.253,0.024 -0.441,0.094 -0.581,0.277 -0.116,0.164 -0.185,0.375 -0.185,0.63 l 0,2.232 4.951,0 0,2.557 -5.09,0 0,2.205 4.509,0 0.581,-2.09 0,4.693 -5.09,0 0,2.07 5.09,0 L 0,0 z m 25.124,-0.278 0,-2.116 -0.857,0 0,-0.978 0.857,0 0,-2.113 -0.857,0 0,-0.93 0.857,0 0,-1.976 -0.857,0 0,-0.907 0.857,0 0,-1.672 -0.857,0 0,-0.814 0.857,0 0,-1.931 -0.857,0 0,-1.067 0.857,0 0,-2.347 -7.041,0 c -0.651,0.024 -1.257,0.116 -1.791,0.302 -0.511,0.184 -0.93,0.441 -1.255,0.744 -0.115,-0.418 -0.394,-0.744 -0.836,-0.978 -0.466,-0.23 -1.023,-0.371 -1.721,-0.393 l -0.883,0 0,2.836 c 0.256,-0.025 0.443,0.047 0.603,0.207 0.164,0.141 0.235,0.374 0.235,0.696 l 0,4.417 -0.838,0 0,2.512 0.767,0 0,4.484 -0.883,0 0,2.347 2.605,0 c 0.465,0 0.81,-0.161 1.043,-0.464 0.233,-0.325 0.35,-0.744 0.35,-1.301 l 0,-4.996 c 0,-0.303 -0.07,-0.583 -0.232,-0.814 -0.141,-0.209 -0.351,-0.372 -0.604,-0.442 0.301,-0.023 0.536,-0.185 0.696,-0.488 0.164,-0.302 0.256,-0.743 0.256,-1.278 l 0,-3.3 c 0,-0.56 0.186,-0.978 0.536,-1.278 0.348,-0.282 0.79,-0.443 1.347,-0.466 l 2.742,0 0,1.022 -3.416,0 0,1.976 3.416,0 0,0.814 -3.416,0 0,1.672 3.416,0 0,0.907 -3.416,0 0,1.976 3.416,0 0,0.93 -4.138,0 0,2.113 4.138,0 0,0.978 -3.555,0 0,2.023 3.555,0 0,0.744 4.047,0 0,-0.651 0.857,0 z M 6.972,-7.067 c 0.512,0 0.906,0.118 1.21,0.326 0.301,0.211 0.489,0.489 0.579,0.812 L 8.761,0 0,0 l 0,-2.394 5.09,0 0,-2.07 -5.09,0 0,-4.693 0.023,-0.115 -0.023,0 0,-2.557 0.858,0 1.164,-3.695 c 0.186,-0.581 0.487,-1.024 0.861,-1.325 0.394,-0.328 0.835,-0.49 1.323,-0.49 l 4.719,0 0,2.648 -2.045,0 c -0.372,0 -0.699,0.093 -0.977,0.28 -0.279,0.185 -0.466,0.441 -0.558,0.769 l -0.558,1.813 3.974,0 0,2.557 -4.671,0 -0.697,2.205 3.579,0 z m 18.152,-1.324 0,1.976 0.93,0 0,0.93 -0.93,0 0,2.113 0.884,0 0,0.978 -0.884,0 0,2.116 3.859,0 0,-3.094 0.557,0 0,-2.113 -0.557,0 0,-1.185 c 0,-0.559 -0.234,-0.978 -0.697,-1.279 -0.466,-0.302 -1.117,-0.442 -1.954,-0.442 l -1.208,0 z m 0,-0.907 3.743,0 0,-1.672 -3.743,0 0,1.672 z m 0,-2.486 3.743,0 0,-1.931 -3.743,0 0,1.931 z m 0,-2.998 4.51,0 0,-2.347 -4.51,0 0,2.347 z m 10.715,14.804 0,-2.904 -0.582,0 0,-1.858 0.582,0 0,-2.536 -0.582,0 0,-1.951 0.582,0 0,-2.557 -0.582,0 0,-1.882 0.582,0 0,-2.72 -3.903,0 0,2.72 0.556,0 0,10.784 -0.556,0 0,2.904 3.903,0 z m 7.019,-9.691 -0.976,0 0,-3.277 -0.604,0 0,2.976 -1.511,0 0,-5.554 2.115,0 0,-0.631 -2.045,0 0,-1.743 2.835,0 c 0.071,0.024 0.139,0.024 0.186,0.024 l 0,8.205 z m 0,9.809 0,-6.622 -0.326,-0.492 0.14,0 0.186,0 0,-2.183 -3.137,0 0,2.996 0,0.117 0.976,1.232 -0.86,0 0,1.93 -0.742,0 0,-15.016 -2.698,0 0,1.512 -0.558,0 0,2.72 0.558,0 0,1.882 -0.558,0 0,2.557 0.558,0 0,1.951 -0.558,0 0,2.536 0.558,0 0,1.858 -0.558,0 0,2.904 4.043,0 0,-2.58 1.862,2.698 1.114,0 z m 0,-18.014 0,8.205 1.813,0 0,-6.137 c 0,-0.349 -0.045,-0.673 -0.115,-0.929 -0.072,-0.278 -0.165,-0.489 -0.257,-0.627 -0.14,-0.162 -0.371,-0.278 -0.651,-0.37 -0.232,-0.073 -0.489,-0.119 -0.79,-0.142 m 2.372,15.572 -0.071,-0.092 0,-2.346 0.071,0 0,2.438 z m 0,2.442 0,-0.095 -1.673,-2.51 1.161,0 0,-1.579 -1.256,-1.559 1.256,0 0,-1.974 c 0,-0.256 -0.024,-0.487 -0.071,-0.698 -0.068,-0.185 -0.138,-0.324 -0.209,-0.418 -0.162,-0.163 -0.37,-0.254 -0.626,-0.349 -0.281,-0.07 -0.559,-0.115 -0.837,-0.115 l -0.117,0 0,2.183 0.35,0 0,1 -0.35,-0.508 0,6.622 2.372,0 z m 0,-0.095 0.045,0.095 -0.045,0 0,-0.095 z m 3.137,-13.294 0,-2.417 -0.139,0 0,-2.161 -2.907,0 0,8.158 2.907,0 0,-3.58 0.139,0 z m 0,13.341 0,-6.598 -0.395,-0.513 0.141,0 0.254,0 0,-2.208 -3.092,0 0,3.253 0.978,1.234 -1.023,0 0,2.438 1.72,2.394 1.417,0 z m 0,-9.319 0,2.208 0.395,0 0,1.045 -0.395,-0.532 0,6.598 1.766,0 -1.649,-2.486 1.813,0 0,-1.3 -1.302,-1.839 1.302,0 0,-2.232 c 0,-0.207 -0.047,-0.392 -0.093,-0.557 -0.048,-0.159 -0.117,-0.277 -0.21,-0.371 -0.162,-0.163 -0.371,-0.302 -0.604,-0.394 -0.256,-0.094 -0.513,-0.14 -0.79,-0.14 l -0.233,0 z m 0,-6.439 0,2.417 0.163,0 c 0.07,0.069 0.138,0.163 0.163,0.281 0.045,0.114 0.069,0.232 0.069,0.396 l 0,2.671 1.556,0 0,-4.022 c 0,-0.323 -0.021,-0.604 -0.068,-0.859 -0.046,-0.256 -0.141,-0.442 -0.28,-0.581 -0.115,-0.116 -0.301,-0.186 -0.532,-0.233 -0.211,-0.045 -0.491,-0.07 -0.77,-0.07 l -0.301,0 z"
           id="path8549"
           style="fill:#0068b7;fill-opacity:1;fill-rule:nonzero;stroke:none" />
      </g>
      <g
         transform="matrix(1.25,0,0,-1.25,353.79262,377.85674)"
         id="g8551">
        <path
           d="m 0,0 5.299,0 0,22.614 c 2.487,0.026 4.72,0 7.206,0.026 C 25.962,21.614 22.638,3.579 12.04,4.509 l -0.023,12.715 0.929,0 c 1.208,0 2.487,0.277 1.836,-3.881 0,-0.584 -1.975,-1.187 -1.045,-1.653 0,0 0.882,-0.487 0.882,-0.717 0.604,0 0.024,-4.605 0.443,-4.396 7.856,4.022 4.88,14.157 -2.419,14.248 l -5.414,-0.022 0,-20.756 c 5.717,0.023 9.622,-0.419 14.063,3.462 8.482,7.438 3.973,21.593 -6.835,23.568 L 0,27.077 0,0 z"
           id="path8553"
           style="fill:#0068b7;fill-opacity:1;fill-rule:evenodd;stroke:none" />
      </g>
      <g
         transform="matrix(1.25,0,0,-1.25,425.58274,369.71836)"
         id="g8555">
        <path
           d="m 0,0 3.905,0 0,-1.513 C 3.72,-1.488 3.509,-1.466 3.278,-1.466 l -0.651,0 0,-3.533 0.651,0 c 0.231,0 0.442,0 0.627,0.023 l 0,-1.488 L 0,-6.464 0,0 z m 14.642,0 0,-1.677 -0.929,-2.323 0.929,0 0,-1.396 -1.509,0 -0.395,-1.068 -2.696,0 L 13.249,0 14.642,0 z M 3.905,0 C 4.672,0 5.299,-0.073 5.763,-0.234 6.252,-0.398 6.648,-0.629 6.948,-0.934 7.253,-1.212 7.484,-1.559 7.625,-1.953 7.763,-2.35 7.833,-2.769 7.833,-3.21 7.833,-3.906 7.741,-4.441 7.53,-4.813 7.321,-5.209 7.021,-5.511 6.648,-5.765 6.299,-6.021 5.904,-6.207 5.485,-6.303 4.904,-6.416 4.369,-6.464 3.905,-6.464 l 0,1.488 c 0.233,0.023 0.417,0.07 0.534,0.114 0.233,0.094 0.418,0.258 0.558,0.492 0.117,0.231 0.187,0.603 0.187,1.115 0,0.696 -0.141,1.161 -0.444,1.414 -0.184,0.164 -0.463,0.282 -0.835,0.328 l 0,1.513 z m 10.737,-5.396 0,1.396 0.954,0 -0.954,2.323 0,1.677 1.465,0 3.207,-6.464 -2.765,0 -0.418,1.068 -1.489,0 z M 26.125,0 l 0,-1.306 -1.117,0 0,-1.23 1.117,0 0,-1.231 -1.117,0 0,-1.303 1.117,0 0,-1.394 -3.766,0 0,6.464 3.766,0 z m 0,-6.464 0,1.394 0.234,0 c 0.439,0 0.766,0.048 0.952,0.187 0.185,0.115 0.278,0.279 0.278,0.487 0,0.186 -0.093,0.348 -0.278,0.466 -0.186,0.117 -0.513,0.163 -0.978,0.163 l -0.208,0 0,1.231 0.024,0 c 0.417,0 0.697,0.048 0.858,0.163 0.162,0.116 0.233,0.256 0.233,0.465 0,0.187 -0.071,0.325 -0.233,0.442 -0.161,0.091 -0.441,0.16 -0.837,0.16 l -0.045,0 0,1.306 1.162,0 c 0.815,0 1.44,-0.165 1.881,-0.466 0.442,-0.305 0.652,-0.699 0.652,-1.14 0,-0.396 -0.14,-0.719 -0.464,-0.975 -0.21,-0.188 -0.513,-0.351 -0.907,-0.443 0.605,-0.118 1.046,-0.302 1.348,-0.581 0.278,-0.279 0.417,-0.605 0.417,-1.023 0,-0.325 -0.091,-0.628 -0.302,-0.907 -0.208,-0.255 -0.488,-0.463 -0.835,-0.627 -0.234,-0.094 -0.558,-0.163 -1,-0.209 -0.603,-0.069 -0.999,-0.093 -1.186,-0.093 l -0.766,0 z"
           id="path8557"
           style="fill:#d80c18;fill-opacity:1;fill-rule:nonzero;stroke:none" />
      </g>
      <g
         transform="matrix(1.25,0,0,-1.25,422.06712,369.17024)"
         id="g8559">
        <path
           d="m 0,0 -27.495,0 c -0.884,-1.976 -2.185,-3.671 -3.767,-4.995 L 0,-4.995 0,0 z m 0,-5.902 -32.47,0 c -0.581,-0.396 -1.208,-0.724 -1.858,-1 l 34.328,0 0,1 z"
           id="path8561"
           style="fill:#d80c18;fill-opacity:1;fill-rule:evenodd;stroke:none" />
      </g>
    </g>
  </g>
</svg>
