<?xml version="1.0" encoding="UTF-8" standalone="no"?>
<!-- Created with Inkscape (http://www.inkscape.org/) -->
<svg
   xmlns:dc="http://purl.org/dc/elements/1.1/"
   xmlns:cc="http://creativecommons.org/ns#"
   xmlns:rdf="http://www.w3.org/1999/02/22-rdf-syntax-ns#"
   xmlns:svg="http://www.w3.org/2000/svg"
   xmlns="http://www.w3.org/2000/svg"
   xmlns:sodipodi="http://sodipodi.sourceforge.net/DTD/sodipodi-0.dtd"
   xmlns:inkscape="http://www.inkscape.org/namespaces/inkscape"
   id="svg2478"
   sodipodi:version="0.32"
   inkscape:version="0.46"
   width="246.9082"
   height="400.28778"
   version="1.0"
   sodipodi:docname="Hong Kong ADPL Logo.svg"
   inkscape:output_extension="org.inkscape.output.svg.inkscape">
  <sodipodi:namedview
     inkscape:window-height="994"
     inkscape:window-width="1680"
     inkscape:pageshadow="2"
     inkscape:pageopacity="0.0"
     guidetolerance="10.0"
     gridtolerance="10.0"
     objecttolerance="10.0"
     borderopacity="1.0"
     bordercolor="#666666"
     pagecolor="#ffffff"
     id="base"
     showgrid="false"
     inkscape:zoom="1.1666667"
     inkscape:cx="51.536777"
     inkscape:cy="348.21228"
     inkscape:window-x="-4"
     inkscape:window-y="-4"
     inkscape:current-layer="svg2478" />
  <metadata
     id="metadata2483">
    <rdf:RDF>
      <cc:Work
         rdf:about="">
        <dc:format>image/svg+xml</dc:format>
        <dc:type
           rdf:resource="http://purl.org/dc/dcmitype/StillImage" />
      </cc:Work>
    </rdf:RDF>
  </metadata>
  <defs
     id="defs2481">
    <inkscape:perspective
       id="perspective2485"
       inkscape:persp3d-origin="372.04724 : 350.78739 : 1"
       inkscape:vp_z="744.09448 : 526.18109 : 1"
       inkscape:vp_y="0 : 1000 : 0"
       inkscape:vp_x="0 : 526.18109 : 1"
       sodipodi:type="inkscape:persp3d" />
  </defs>
  <g
     transform="matrix(4.8280238,0,0,4.8280238,-42.974909,-34.222291)"
     id="g2535">
    <path
       style="fill:#ffef1d;fill-opacity:1;stroke:none;stroke-opacity:1"
       d="M 32.271964,82.909643 C 25.410487,82.162681 19.682938,77.926059 16.551243,71.281154 C 15.288199,68.601184 14.693006,66.624916 14.607995,64.828795 C 14.418295,60.820889 16.373056,50.320108 20.090081,35.379585 L 20.444903,33.953399 L 23.464232,40.33941 C 27.616855,49.12238 30.109816,54.183769 32.391251,58.463683 C 33.457628,60.464147 34.38087,62.157624 34.442907,62.226964 C 34.587594,62.388664 40.066107,51.173297 44.478307,41.682934 C 46.359537,37.636541 47.953653,34.267732 48.020799,34.196691 C 48.161704,34.047644 49.343035,38.489373 50.86354,44.885008 C 53.229583,54.837143 54.352596,61.082803 54.390122,64.49814 C 54.404592,65.814735 54.335005,66.282661 53.959859,67.391373 C 51.260464,75.369216 45.352819,80.946068 37.930766,82.522941 C 36.46263,82.834855 33.466052,83.039632 32.271964,82.90964 L 32.271964,82.909643 z"
       id="path2527" />
    <path
       style="fill:#ffef1d;fill-opacity:1;stroke:none;stroke-opacity:1"
       d="M 30.020048,38.918984 L 25.344432,29.072775 L 26.362457,25.192427 C 26.922387,23.058233 27.574226,20.647065 27.810978,19.834271 L 28.241457,18.356465 L 30.104963,21.959675 C 32.1265,25.868393 33.786026,28.843006 34.375779,29.614823 L 34.74872,30.102889 L 37.802302,24.166431 C 40.682169,18.567719 40.866458,18.257186 41.041549,18.708322 C 41.143675,18.971417 41.785753,21.498049 42.468397,24.323063 L 43.709595,29.459453 L 41.153009,34.950075 C 39.746886,37.969918 37.718763,42.313709 36.646052,44.602944 L 34.69568,48.765191 L 30.020048,38.918984 z"
       id="path2529" />
    <path
       style="fill:#ffef1d;fill-opacity:1;stroke:none;stroke-opacity:1"
       d="M 32.035273,17.972058 L 29.845252,13.252515 L 30.314245,11.159352 C 30.572202,10.008116 30.850942,9.0661968 30.933626,9.0661968 C 31.016353,9.0661968 31.784507,10.759385 32.640699,12.828839 C 33.496889,14.898292 34.257165,16.591481 34.330176,16.591481 C 34.403188,16.591481 35.125716,14.898292 35.935778,12.828839 C 36.745859,10.759385 37.464933,9.066293 37.533704,9.0664094 C 37.602494,9.0665258 37.845766,9.9924906 38.074315,11.124105 L 38.489829,13.181586 L 36.460838,17.94368 C 35.344894,20.562831 34.385375,22.702585 34.328562,22.698687 C 34.271746,22.69479 33.239781,20.567805 32.035273,17.972055 L 32.035273,17.972058 z"
       id="path2531" />
    <path
       style="fill:#007719;fill-opacity:1"
       d="M 36.922393,11.48674 C 35.839423,14.014147 35.953659,13.795161 34.413672,16.856886 C 33.716456,15.642845 32.609138,13.264163 31.830001,11.680531 C 31.433756,12.933166 31.200201,14.021191 30.945925,14.993086 C 31.873068,16.792538 33.732461,19.714226 34.472845,21.131517 C 35.446427,19.191002 36.985741,16.410873 37.835256,14.692638 M 11.904632,75.964161 C 7.6054507,67.539239 7.7152047,65.290292 13.578118,41.673028 C 17.288515,26.726633 18.788849,19.733788 19.475226,16.901665 C 21.350574,20.833447 22.507582,23.204824 22.995445,24.046577 C 24.810832,19.4459 24.515591,20.169492 27.998729,10.31238 C 29.604134,12.640955 29.110734,11.858691 29.672075,12.703227 C 30.565054,9.9394646 30.947161,8.6923226 31.511788,7.1183596 C 33.396756,11.316703 33.388427,11.251829 34.413338,13.217022 C 35.275742,11.390178 36.233929,8.7333176 36.891793,7.0882606 C 37.321694,8.4450386 38.213865,10.64871 38.881236,12.418512 C 39.174064,11.968815 39.151287,11.968573 40.080913,10.249898 C 45.30264,22.670117 44.553026,20.940213 45.888324,23.984598 C 46.865595,21.637211 47.996878,18.871976 48.912528,16.799584 C 51.233014,24.894997 51.492997,26.065283 55.367572,41.673028 C 61.244071,65.345016 61.345244,67.503002 56.982239,76.11298 C 46.408051,95.615103 21.165573,93.656028 11.904632,75.964161 z M 53.213789,66.7375 C 53.794323,61.587016 48.128023,40.296252 47.232898,37.31998 C 42.993203,46.185717 38.800188,55.201601 34.472845,63.464893 C 29.550192,54.851276 25.025998,45.094917 21.293566,37.344389 C 20.249153,41.192344 15.115264,61.266711 15.718597,66.61947 C 21.163619,88.820852 47.947603,86.798996 53.213789,66.7375 z M 34.472845,30.938601 C 32.961068,28.746012 31.175269,25.525214 28.666237,20.753236 C 28.081297,22.530209 26.945586,26.85094 26.048054,30.135958 C 27.559309,33.339587 31.529691,41.162933 34.472845,47.131517 C 37.388951,41.077124 39.585337,36.756124 42.599187,30.418718 C 41.258043,25.371573 40.909358,23.734689 40.052073,20.55595"
       id="path2503"
       sodipodi:nodetypes="cccccccscccccccccccscccccccccccccs" />
  </g>
</svg>
