<?xml version="1.0" encoding="UTF-8"?>
<svg xmlns="http://www.w3.org/2000/svg" xmlns:xlink="http://www.w3.org/1999/xlink" width="412pt" height="155pt" viewBox="0 0 412 155" version="1.1">
<g id="surface1">
<path style=" stroke:none;fill-rule:nonzero;fill:rgb(99.607843%,88.235294%,0.392157%);fill-opacity:1;" d="M 0 0 L 411.941406 0 L 411.941406 154.902344 L 0 154.902344 Z "/>
<path style=" stroke:none;fill-rule:nonzero;fill:rgb(0%,0%,0%);fill-opacity:1;" d="M 372.527344 142.527344 C 373.246094 141.382812 372.058594 140.121094 368.355469 138.09375 C 366.570312 137.113281 364.375 135.5625 363.480469 134.640625 C 361.539062 132.640625 359.621094 131.582031 357.945312 131.582031 C 356.953125 131.582031 356.429688 131.273438 355.261719 130.007812 C 353.359375 127.945312 353.078125 127.027344 354.058594 126.113281 C 354.472656 125.726562 354.8125 125.257812 354.8125 125.078125 C 354.8125 124.484375 353.945312 122.753906 352.925781 121.316406 C 352.375 120.539062 351.925781 119.609375 351.925781 119.25 C 351.925781 118.558594 351.0625 117.960938 349.359375 117.472656 C 348.511719 117.230469 348.304688 117.304688 348.109375 117.917969 C 347.882812 118.628906 347.855469 118.621094 347.28125 117.765625 C 346.953125 117.277344 346.078125 116.347656 345.332031 115.695312 C 344.589844 115.046875 343.980469 114.199219 343.980469 113.808594 C 343.980469 112.914062 343.402344 111.78125 342.355469 110.617188 C 341.4375 109.59375 338.050781 103.898438 337.699219 102.785156 C 337.570312 102.382812 336.496094 100.929688 335.308594 99.558594 C 334.121094 98.183594 332.652344 96.125 332.042969 94.980469 C 330.792969 92.636719 330.394531 92.613281 328.734375 94.785156 C 328.230469 95.441406 324.558594 99.054688 320.574219 102.816406 C 311.601562 111.289062 308.945312 114.234375 308.945312 115.726562 C 308.945312 117.105469 308.476562 117.984375 306.625 120.054688 C 305.804688 120.972656 303.925781 123.496094 302.449219 125.660156 C 299.40625 130.121094 293.316406 136.496094 290.019531 138.667969 C 288.148438 139.902344 287.527344 140.109375 284.964844 140.339844 C 283.355469 140.484375 281.230469 140.699219 280.234375 140.816406 C 278.726562 140.996094 278.132812 140.871094 276.625 140.074219 C 273.402344 138.371094 272.15625 137.324219 271.347656 135.652344 C 270.613281 134.140625 270.574219 133.679688 270.785156 129.273438 C 270.910156 126.660156 271.246094 123.792969 271.53125 122.898438 C 271.820312 122.007812 272.136719 119.328125 272.238281 116.941406 C 272.53125 110.066406 273.796875 102.265625 275.902344 94.351562 C 277.691406 87.621094 280.703125 74.542969 280.933594 72.480469 C 281.609375 66.542969 281.496094 66.886719 283.035156 65.917969 C 284.375 65.070312 284.449219 64.933594 284.238281 63.6875 C 283.882812 61.558594 283.964844 60.894531 284.925781 58.144531 C 285.425781 56.714844 285.832031 55.242188 285.832031 54.871094 C 285.832031 54.5 286.179688 53.726562 286.605469 53.152344 C 287.285156 52.230469 287.332031 51.925781 286.996094 50.59375 C 286.367188 48.125 286.527344 47.988281 290.527344 47.542969 C 291.621094 47.421875 293.054688 47.132812 293.714844 46.898438 C 294.765625 46.523438 295.09375 46.570312 296.316406 47.277344 C 297.085938 47.71875 298.015625 48.082031 298.382812 48.082031 C 299.4375 48.082031 302.5625 49.773438 303.695312 50.953125 L 304.71875 52.027344 L 306.398438 50.324219 C 307.324219 49.390625 309 48.0625 310.128906 47.382812 C 313.320312 45.449219 314.234375 42.816406 311.925781 42.21875 C 310.15625 41.761719 310.511719 41.292969 312.828125 41.03125 C 313.972656 40.90625 315.394531 40.574219 315.988281 40.296875 C 318.4375 39.15625 322.164062 38.964844 323.671875 39.894531 C 324.25 40.253906 324.425781 38.875 323.921875 37.933594 C 323.371094 36.90625 323.617188 33.550781 324.347656 32.105469 C 325.367188 30.078125 325.253906 30.023438 320.503906 30.261719 C 317.328125 30.421875 316.171875 30.367188 316.171875 30.058594 C 316.171875 29.761719 315.5625 29.707031 314.09375 29.871094 C 311.734375 30.136719 310.96875 30.460938 309.886719 31.644531 C 309.46875 32.105469 307.746094 33.078125 306.0625 33.804688 C 304.375 34.535156 301.042969 36.132812 298.65625 37.363281 C 289.882812 41.878906 286.957031 42.996094 283.847656 43.007812 C 281.328125 43.023438 279.683594 42.328125 277.632812 40.386719 C 275.992188 38.832031 275.703125 38.371094 275.792969 37.4375 C 275.902344 36.34375 275.921875 36.332031 278.242188 36.234375 C 280.21875 36.148438 281.886719 35.613281 288.847656 32.839844 C 293.390625 31.03125 298.664062 29.042969 300.5625 28.425781 C 304.226562 27.226562 305.242188 26.394531 303.039062 26.394531 C 301.664062 26.394531 301.011719 25.882812 301.9375 25.527344 C 302.25 25.40625 303.117188 25.308594 303.863281 25.308594 C 305.183594 25.308594 306.132812 24.671875 306.472656 23.566406 C 306.582031 23.207031 306.855469 23.277344 307.566406 23.835938 C 308.089844 24.25 308.820312 24.582031 309.183594 24.578125 C 310.175781 24.566406 312.644531 23.347656 313.402344 22.496094 C 313.765625 22.085938 314.847656 21.5625 315.808594 21.332031 C 316.769531 21.101562 317.835938 20.601562 318.183594 20.21875 C 318.527344 19.835938 319.191406 19.523438 319.65625 19.523438 C 320.515625 19.523438 320.835938 18.6875 320.144531 18.257812 C 319.320312 17.75 319.894531 17.386719 321.679688 17.285156 L 323.574219 17.175781 L 323.589844 15.007812 C 323.601562 13.054688 323.675781 12.851562 324.3125 12.960938 C 324.699219 13.03125 325.148438 13.316406 325.308594 13.59375 C 325.714844 14.308594 326.792969 14.226562 328.519531 13.34375 C 329.46875 12.859375 330.765625 12.566406 332.101562 12.535156 C 333.988281 12.492188 334.320312 12.601562 335.386719 13.613281 C 336.039062 14.234375 337.1875 15.023438 337.933594 15.367188 C 338.796875 15.765625 339.375 16.320312 339.515625 16.890625 C 339.640625 17.378906 339.664062 20.289062 339.570312 23.347656 L 339.402344 28.914062 L 337.445312 30.996094 C 335.800781 32.75 335.320312 33.59375 334.410156 36.332031 C 333.402344 39.351562 333.117188 39.800781 330.476562 42.570312 C 328.910156 44.207031 327.40625 45.550781 327.136719 45.550781 C 326.5 45.550781 326.515625 46.519531 327.199219 50.453125 C 327.957031 54.796875 329.648438 58.203125 331.046875 58.203125 C 331.320312 58.203125 332.394531 57.652344 333.4375 56.980469 C 334.476562 56.308594 336.058594 55.558594 336.945312 55.308594 C 337.835938 55.058594 338.5625 54.71875 338.5625 54.546875 C 338.5625 54.175781 336.230469 52.972656 334.878906 52.648438 C 333.714844 52.367188 331.800781 50.8125 332.273438 50.527344 C 332.453125 50.421875 333.742188 50.640625 335.128906 51.015625 C 338.257812 51.863281 343.730469 51.640625 346.972656 50.535156 C 349.421875 49.699219 349.871094 49.804688 350.695312 51.40625 C 351.03125 52.0625 351.609375 52.8125 351.976562 53.070312 C 352.34375 53.332031 352.648438 53.757812 352.648438 54.019531 C 352.648438 54.503906 354.441406 54.9375 356.480469 54.945312 C 357.972656 54.949219 359.289062 56.042969 360.023438 57.882812 C 360.597656 59.320312 360.59375 59.417969 359.921875 60.148438 C 359.535156 60.570312 359.160156 61.234375 359.089844 61.625 C 358.863281 62.882812 356.355469 64.019531 354.058594 63.90625 C 352.214844 63.816406 351.917969 63.914062 350.65625 65.023438 L 349.273438 66.238281 L 346.175781 66.066406 C 343.496094 65.921875 342.9375 65.996094 342.050781 66.617188 C 340.546875 67.667969 338.382812 67.777344 335.941406 66.921875 C 334.800781 66.523438 333.867188 66.265625 333.867188 66.355469 C 333.867188 66.441406 334.515625 67.960938 335.3125 69.726562 C 336.378906 72.105469 336.757812 73.410156 336.757812 74.757812 C 336.757812 75.757812 336.847656 76.816406 336.960938 77.109375 C 337.171875 77.667969 337.214844 77.660156 340.921875 76.40625 C 341.722656 76.136719 342.828125 75.914062 343.378906 75.914062 C 343.929688 75.914062 345.109375 75.730469 346 75.507812 C 346.890625 75.28125 347.699219 75.179688 347.800781 75.28125 C 347.902344 75.382812 347.613281 76.582031 347.15625 77.945312 C 346.363281 80.316406 346.253906 80.449219 344.707031 81.015625 C 343.371094 81.507812 343.046875 81.808594 342.855469 82.738281 C 342.601562 83.992188 341.9375 84.949219 341.316406 84.957031 C 341.09375 84.960938 340.679688 85.109375 340.394531 85.289062 C 339.984375 85.546875 340.332031 86.3125 342.164062 89.167969 C 343.421875 91.125 345.667969 94.675781 347.15625 97.0625 C 348.644531 99.445312 350.40625 101.976562 351.074219 102.679688 C 351.738281 103.382812 352.285156 104.210938 352.285156 104.519531 C 352.285156 105.664062 354.546875 109.558594 355.875 110.699219 C 357.40625 112.015625 358.785156 114.332031 358.785156 115.582031 C 358.785156 116.550781 358.148438 116.667969 357.78125 115.765625 C 357.214844 114.386719 354.71875 111.355469 353.609375 110.699219 C 352.765625 110.199219 352.300781 109.554688 351.957031 108.414062 C 351.414062 106.601562 350.210938 104.734375 349.761719 105.011719 C 349.597656 105.113281 349.664062 106.074219 349.914062 107.144531 C 350.265625 108.652344 350.917969 109.777344 352.804688 112.113281 C 355.6875 115.6875 356.242188 116.6875 355.570312 117.101562 C 354.605469 117.699219 356.234375 119.789062 359.796875 122.523438 C 361.5625 123.882812 362.113281 123.742188 361.183594 122.171875 C 360.53125 121.0625 360.882812 120.683594 361.675781 121.640625 C 361.925781 121.941406 362.628906 122.316406 363.238281 122.472656 C 364.097656 122.699219 364.691406 123.324219 365.875 125.269531 C 366.714844 126.648438 367.859375 128.152344 368.417969 128.613281 C 371.453125 131.101562 375.144531 133.75 375.585938 133.75 C 376.886719 133.75 380.101562 126.945312 380.636719 123.054688 C 380.769531 122.078125 381.496094 118.839844 382.246094 115.859375 C 384.738281 105.945312 387.382812 89.917969 386.703125 88.8125 C 386.421875 88.355469 386.945312 86.035156 387.332031 86.035156 C 387.523438 86.035156 387.679688 86.363281 387.679688 86.761719 C 387.679688 87.757812 389 90.144531 389.289062 89.671875 C 389.761719 88.90625 390.285156 89.289062 390.050781 90.226562 C 389.917969 90.742188 389.984375 91.371094 390.191406 91.621094 C 390.757812 92.300781 390.730469 93.5 390.078125 96.828125 C 389.257812 101.011719 389.316406 101.867188 390.566406 103.75 C 391.667969 105.40625 391.933594 106.484375 391.296875 106.699219 C 391.101562 106.765625 390.800781 107.863281 390.625 109.136719 C 390.449219 110.429688 390.074219 111.628906 389.78125 111.847656 C 388.375 112.894531 387.296875 116.390625 386.257812 123.269531 C 386.121094 124.164062 385.816406 125.25 385.582031 125.683594 C 385.089844 126.582031 385 128.328125 385.441406 128.328125 C 385.886719 128.328125 387.316406 126.265625 387.316406 125.628906 C 387.316406 125.066406 387.410156 124.835938 388.476562 122.679688 C 388.785156 122.054688 388.960938 121.136719 388.863281 120.632812 C 388.769531 120.128906 388.847656 119.433594 389.042969 119.082031 C 389.332031 118.570312 389.476562 118.808594 389.800781 120.335938 C 390.308594 122.695312 390.308594 123.382812 389.808594 123.882812 C 389.546875 124.144531 389.527344 124.492188 389.75 124.890625 C 390.042969 125.417969 390.15625 125.347656 390.542969 124.410156 C 391.140625 122.972656 392.011719 122.621094 392.011719 123.820312 C 392.011719 124.769531 392.351562 124.953125 392.96875 124.335938 C 393.230469 124.070312 393.824219 124.121094 394.917969 124.5 C 396.003906 124.871094 396.632812 124.925781 396.9375 124.671875 C 397.425781 124.265625 397.882812 124.910156 398.28125 126.578125 C 398.46875 127.367188 398.398438 127.511719 397.878906 127.386719 C 397.457031 127.28125 396.914062 127.710938 396.230469 128.683594 C 395.671875 129.484375 395.0625 130.136719 394.878906 130.136719 C 394.691406 130.136719 394.539062 131.0625 394.539062 132.191406 C 394.539062 133.730469 394.335938 134.550781 393.726562 135.441406 C 393.28125 136.101562 392.792969 136.636719 392.644531 136.640625 C 392.496094 136.640625 392.375 137.019531 392.375 137.480469 C 392.375 137.941406 391.96875 138.671875 391.46875 139.105469 C 390.972656 139.535156 390.566406 140.035156 390.566406 140.214844 C 390.566406 140.984375 379.824219 142.664062 377.992188 142.1875 C 377.34375 142.015625 373.808594 142.589844 372.574219 143.0625 C 372.164062 143.21875 372.15625 143.125 372.53125 142.527344 Z M 360.230469 124.171875 C 359.984375 123.875 359.617188 123.628906 359.417969 123.628906 C 359.21875 123.628906 359.257812 123.867188 359.507812 124.171875 C 359.753906 124.46875 360.121094 124.714844 360.320312 124.714844 C 360.519531 124.714844 360.480469 124.472656 360.230469 124.171875 Z M 285.832031 123.269531 C 286.734375 122 287.472656 121.875 287.753906 122.9375 C 288.015625 123.9375 289.105469 123.714844 289.691406 122.542969 C 289.9375 122.046875 290.234375 121.03125 290.351562 120.289062 C 290.511719 119.253906 290.871094 118.722656 291.878906 118.035156 C 293.097656 117.210938 293.25 117.183594 293.835938 117.71875 C 294.808594 118.597656 295.324219 118.140625 296.292969 115.515625 C 297.171875 113.148438 297.191406 113.125 297.78125 113.910156 L 298.382812 114.707031 L 298.886719 113.835938 C 299.164062 113.355469 299.570312 112.640625 299.78125 112.242188 C 299.996094 111.84375 300.519531 111.46875 300.941406 111.40625 C 301.363281 111.34375 302.046875 110.859375 302.460938 110.332031 L 303.214844 109.375 L 301.339844 108.738281 C 300.308594 108.386719 299.246094 107.917969 298.976562 107.691406 C 298.257812 107.097656 299.007812 105.917969 300.101562 105.917969 C 300.585938 105.917969 301.722656 105.558594 302.625 105.117188 C 304.097656 104.402344 304.390625 104.367188 305.433594 104.800781 C 307.566406 105.683594 308.347656 105.523438 308.804688 104.109375 C 309.246094 102.75 310.371094 101.953125 311.871094 101.945312 C 312.386719 101.941406 313.097656 101.617188 313.453125 101.226562 C 314.03125 100.585938 314.050781 100.335938 313.640625 98.855469 C 313.28125 97.578125 313.273438 97.105469 313.605469 96.773438 C 314.164062 96.214844 314.644531 96.925781 314.953125 98.777344 C 315.078125 99.523438 315.300781 100.132812 315.449219 100.132812 C 315.597656 100.132812 316.398438 99.394531 317.230469 98.492188 C 318.367188 97.253906 318.714844 96.605469 318.628906 95.871094 C 318.527344 94.988281 318.375 94.890625 317.074219 94.890625 C 315.863281 94.890625 315.609375 94.761719 315.515625 94.105469 C 315.289062 92.507812 317.734375 88.980469 318.789062 89.386719 C 319.453125 89.640625 319.167969 92.464844 318.464844 92.613281 C 318.011719 92.707031 318.007812 92.816406 318.449219 93.414062 C 319.164062 94.390625 319.96875 93.945312 320.785156 92.113281 C 321.167969 91.253906 322.546875 88.777344 323.851562 86.609375 C 325.964844 83.085938 326.167969 82.578125 325.757812 81.910156 C 325.503906 81.496094 325.089844 80.382812 324.839844 79.4375 C 324.589844 78.496094 324.347656 77.722656 324.304688 77.722656 C 323.515625 77.722656 321.917969 78.695312 321.734375 79.289062 C 321.308594 80.652344 320.144531 81.082031 320.144531 79.875 C 320.144531 79.246094 319.921875 79.144531 318.609375 79.171875 C 317.765625 79.191406 316.546875 79.097656 315.902344 78.964844 C 314.898438 78.757812 314.582031 78.886719 313.679688 79.851562 C 312.777344 80.816406 312.378906 80.976562 310.84375 80.976562 C 309.597656 80.976562 308.890625 81.167969 308.496094 81.609375 C 307.71875 82.484375 307.210938 84.558594 307.417969 85.992188 C 307.566406 87.007812 307.492188 87.171875 306.9375 87.0625 C 306.429688 86.964844 306.265625 86.582031 306.238281 85.414062 C 306.21875 84.574219 306.09375 83.785156 305.96875 83.65625 C 305.609375 83.300781 302.480469 84.933594 302.078125 85.6875 C 301.5625 86.652344 301.613281 86.757812 302.808594 87.175781 C 304.320312 87.703125 304.171875 88.539062 302.289062 90.117188 C 301.160156 91.0625 300.335938 91.457031 299.507812 91.457031 L 298.332031 91.457031 L 300.027344 90.382812 C 300.960938 89.789062 301.722656 89.078125 301.722656 88.800781 C 301.722656 87.84375 300.738281 87.402344 299.191406 87.664062 C 298.019531 87.863281 297.546875 88.183594 296.878906 89.234375 C 296.417969 89.960938 295.734375 90.824219 295.359375 91.160156 C 294.265625 92.132812 290.820312 93.34375 289.753906 93.128906 C 289.160156 93.007812 288.625 93.128906 288.371094 93.4375 C 287.238281 94.800781 284.203125 107.539062 282.769531 116.941406 C 282.253906 120.320312 281.746094 123.371094 281.640625 123.71875 C 281.476562 124.261719 281.707031 124.351562 283.257812 124.351562 C 284.851562 124.351562 285.152344 124.226562 285.832031 123.269531 Z M 356.742188 122.382812 C 356.851562 122.09375 356.628906 121.484375 356.246094 121.027344 C 355.675781 120.347656 355.488281 120.289062 355.214844 120.703125 C 354.808594 121.320312 355.445312 122.90625 356.097656 122.90625 C 356.339844 122.90625 356.632812 122.671875 356.742188 122.382812 Z M 296.847656 80.222656 C 298.238281 79.511719 299.945312 78.710938 300.640625 78.445312 C 301.335938 78.175781 302.382812 77.621094 302.964844 77.207031 C 304.351562 76.230469 308.957031 73.675781 311.476562 72.488281 C 312.566406 71.972656 314.519531 71.011719 315.808594 70.347656 C 317.101562 69.683594 318.5625 69.039062 319.058594 68.914062 C 320.953125 68.445312 321.035156 68.191406 319.917969 66.195312 L 318.878906 64.347656 L 316.855469 64.347656 C 313.875 64.347656 307.789062 65.984375 303.996094 67.808594 C 302.167969 68.6875 300.382812 69.410156 300.023438 69.414062 C 299.667969 69.417969 298.738281 69.785156 297.957031 70.226562 C 296.789062 70.890625 296.457031 71.335938 296.109375 72.699219 C 295.875 73.617188 295.226562 75.214844 294.660156 76.25 C 293.796875 77.839844 293.707031 78.246094 294.082031 78.847656 C 294.441406 79.425781 294.421875 79.660156 293.972656 80.113281 C 293.667969 80.417969 293.417969 80.789062 293.417969 80.941406 C 293.417969 81.308594 293.863281 81.738281 294.117188 81.613281 C 294.230469 81.558594 295.457031 80.929688 296.847656 80.222656 Z M 314.53125 58.542969 L 316.941406 57.796875 L 316.65625 56.644531 C 316.503906 56.011719 316.371094 54.871094 316.363281 54.109375 C 316.355469 53.179688 316.144531 52.613281 315.71875 52.375 C 315.371094 52.179688 315.085938 51.699219 315.085938 51.304688 C 315.085938 49.355469 312.558594 50.527344 309.800781 53.761719 C 308.394531 55.40625 308.039062 56.089844 308.023438 57.183594 C 308.003906 58.328125 308.148438 58.605469 308.925781 58.890625 C 310.40625 59.433594 311.953125 59.339844 314.53125 58.542969 Z M 16.839844 140.507812 C 16.644531 140.269531 16.378906 139.101562 16.246094 137.90625 C 16.101562 136.589844 15.488281 134.605469 14.679688 132.847656 C 13.542969 130.382812 13.347656 129.578125 13.347656 127.425781 C 13.347656 126.03125 13.539062 124.40625 13.769531 123.808594 C 14 123.214844 14.28125 122.300781 14.394531 121.78125 C 14.636719 120.664062 18.292969 115.691406 20.261719 113.800781 C 21.027344 113.070312 22.277344 111.867188 23.039062 111.136719 C 24.390625 109.835938 24.484375 109.808594 26.433594 110.039062 C 29.214844 110.363281 30.542969 109.453125 31.628906 106.460938 C 32.066406 105.265625 32.746094 103.925781 33.148438 103.476562 C 34.160156 102.347656 35.683594 102.398438 36.222656 103.585938 C 36.816406 104.894531 36.738281 107.421875 36.074219 108.371094 C 35.394531 109.34375 35.523438 111.125 36.277344 111.222656 C 36.578125 111.261719 37.597656 111.394531 38.542969 111.519531 C 40.582031 111.789062 41.875 112.972656 42.238281 114.894531 C 42.542969 116.53125 44.496094 119.402344 45.132812 119.15625 C 46.476562 118.640625 48.53125 117.058594 48.75 116.367188 C 49.046875 115.429688 48.550781 115.042969 46.65625 114.726562 C 44.691406 114.398438 42.4375 111.394531 41.867188 108.34375 L 41.617188 107 L 44.855469 107 C 47.65625 107 48.265625 106.886719 49.339844 106.15625 C 50.023438 105.691406 51.097656 105.210938 51.726562 105.082031 C 52.355469 104.957031 54.460938 104.136719 56.402344 103.261719 C 58.34375 102.386719 60.222656 101.574219 60.570312 101.453125 C 61.246094 101.222656 61.667969 100.347656 62.039062 98.417969 C 62.324219 96.933594 61.789062 96.890625 59.042969 98.167969 C 57.75 98.769531 56.761719 99.011719 56.175781 98.863281 C 54.632812 98.476562 50.949219 96.511719 49.867188 95.5 C 49.015625 94.703125 47.835938 92.699219 47.835938 92.046875 C 47.835938 91.960938 48.851562 91.773438 50.09375 91.632812 C 52.625 91.339844 56.390625 90.261719 58.335938 89.273438 C 59.042969 88.914062 60.484375 87.9375 61.539062 87.101562 L 63.453125 85.585938 L 63.28125 81.746094 C 63.113281 78.015625 62.234375 74.59375 61.554688 75.015625 C 61.394531 75.113281 61.074219 76.292969 60.84375 77.632812 C 60.613281 78.972656 60.152344 80.589844 59.820312 81.222656 C 59.105469 82.574219 55.820312 85.296875 51.265625 88.300781 C 48.476562 90.144531 43.515625 92.902344 42.992188 92.902344 C 42.898438 92.902344 42.71875 92.207031 42.589844 91.355469 C 42.417969 90.179688 42.59375 89.101562 43.316406 86.925781 C 44.164062 84.375 44.4375 83.945312 45.734375 83.144531 C 47.882812 81.8125 50.398438 78.894531 51.960938 75.917969 C 53.09375 73.761719 53.304688 73.046875 53.144531 71.867188 C 53.039062 71.078125 52.863281 70.34375 52.757812 70.238281 C 52.402344 69.882812 49.546875 71.230469 44.445312 74.164062 C 39.878906 76.785156 39.300781 77.023438 38.046875 76.8125 C 34.589844 76.226562 31.585938 72.433594 31.585938 68.65625 C 31.585938 66.445312 32.160156 65.320312 33.191406 65.515625 C 34.601562 65.785156 35.171875 65.179688 33.945312 64.714844 L 32.898438 64.316406 L 33.863281 63.347656 C 34.390625 62.816406 35.207031 62.367188 35.667969 62.347656 C 36.609375 62.304688 38.199219 61.328125 37.867188 60.996094 C 37.746094 60.878906 37.765625 60.597656 37.902344 60.371094 C 38.082031 60.085938 38.359375 60.148438 38.835938 60.578125 C 39.464844 61.148438 39.53125 61.148438 39.746094 60.59375 C 39.921875 60.125 40.085938 60.085938 40.472656 60.40625 C 40.75 60.632812 40.972656 61.046875 40.972656 61.320312 C 40.972656 61.59375 41.257812 61.824219 41.605469 61.828125 C 41.953125 61.835938 43.535156 61.878906 45.121094 61.921875 L 48.003906 61.996094 L 48.195312 60.921875 C 48.425781 59.582031 49.984375 58.875 51.125 59.589844 C 52.003906 60.136719 53.253906 59.816406 53.253906 59.039062 C 53.253906 58.621094 53.507812 58.527344 54.246094 58.671875 C 55.242188 58.867188 57.855469 58.398438 59.210938 57.785156 C 59.636719 57.59375 59.671875 57.53125 59.300781 57.636719 C 58.859375 57.765625 58.671875 57.613281 58.671875 57.132812 C 58.671875 56.730469 58.375 56.398438 57.964844 56.328125 C 57.367188 56.230469 57.488281 56.019531 58.734375 54.976562 C 60.074219 53.855469 60.253906 53.796875 60.65625 54.34375 C 60.898438 54.675781 61.390625 54.949219 61.75 54.949219 C 62.109375 54.949219 62.707031 55.222656 63.078125 55.558594 C 63.660156 56.085938 63.816406 56.097656 64.253906 55.648438 C 64.535156 55.363281 64.871094 54.683594 65.003906 54.136719 L 65.25 53.140625 L 59.523438 53.074219 C 56.371094 53.035156 53.386719 53.035156 52.890625 53.074219 C 50.9375 53.222656 50.601562 53.152344 49.824219 52.421875 C 49.117188 51.757812 48.738281 51.691406 46.710938 51.890625 C 43.582031 52.199219 43.039062 51.773438 42.945312 48.945312 C 42.867188 46.683594 43.203125 45.664062 44.28125 44.898438 C 44.648438 44.636719 44.945312 44.183594 44.945312 43.890625 C 44.945312 43.597656 45.164062 43.277344 45.429688 43.175781 C 46.296875 42.839844 45.933594 41.921875 44.691406 41.335938 C 43.328125 40.6875 42.675781 39.742188 43 38.890625 C 43.25 38.242188 43.972656 38.160156 44.933594 38.675781 C 45.46875 38.960938 45.765625 38.804688 46.492188 37.851562 C 46.988281 37.203125 48.332031 36.210938 49.484375 35.648438 C 51.640625 34.589844 52.324219 34.554688 56.140625 35.304688 C 57.847656 35.640625 58.640625 35.636719 62.644531 35.257812 C 64.53125 35.078125 66.1875 34.921875 66.328125 34.910156 C 67.050781 34.84375 67.371094 33.777344 67.726562 30.253906 L 68.113281 26.378906 L 67.003906 24.574219 C 66.394531 23.582031 65.894531 22.539062 65.894531 22.257812 C 65.894531 21.980469 65.441406 21.652344 64.886719 21.53125 C 62.878906 21.089844 60.601562 17.542969 61.078125 15.601562 C 61.359375 14.449219 62.859375 12.398438 63.777344 11.90625 C 64.40625 11.570312 65.90625 11.820312 70.769531 13.078125 C 71.5625 13.285156 72.910156 13.480469 73.761719 13.515625 C 74.984375 13.566406 75.476562 13.792969 76.125 14.605469 C 76.816406 15.472656 77.199219 15.628906 78.550781 15.601562 C 81.175781 15.542969 82.03125 16.070312 82.308594 17.90625 C 82.625 20.03125 81.972656 22.34375 80.921875 22.824219 C 80.117188 23.191406 78.894531 24.871094 78.894531 25.605469 C 78.894531 26.039062 80.984375 28.199219 81.402344 28.199219 C 81.558594 28.199219 82.09375 28.519531 82.59375 28.914062 C 83.089844 29.304688 84.199219 29.996094 85.050781 30.449219 C 85.90625 30.902344 86.660156 31.433594 86.722656 31.632812 C 86.789062 31.832031 86.195312 32.703125 85.402344 33.570312 L 83.964844 35.140625 L 85.0625 36.734375 C 86.648438 39.042969 86.984375 40.21875 86.492188 41.71875 C 86.175781 42.675781 85.820312 43.027344 84.988281 43.210938 C 84.390625 43.34375 82.382812 44.085938 80.527344 44.863281 C 78.667969 45.636719 76.898438 46.273438 76.585938 46.273438 C 75.71875 46.273438 74.914062 48.105469 75.417969 48.929688 C 75.753906 49.476562 75.679688 49.691406 75.011719 50.148438 C 74.042969 50.808594 73.957031 51.585938 74.832031 51.789062 C 75.199219 51.875 76.011719 51.421875 76.769531 50.703125 C 78.324219 49.238281 80.046875 48.726562 83.226562 48.78125 C 86.289062 48.832031 89.101562 49.660156 90.519531 50.929688 C 91.628906 51.921875 91.648438 51.988281 91.324219 53.886719 C 91.027344 55.644531 90.851562 55.910156 89.558594 56.636719 C 88.769531 57.078125 86.980469 57.632812 85.585938 57.867188 C 84.191406 58.101562 82.679688 58.433594 82.234375 58.601562 L 81.417969 58.910156 L 82.078125 60.632812 C 83.421875 64.15625 83.59375 64.347656 86.214844 65.222656 C 90.242188 66.558594 91.988281 68.910156 91.183594 71.90625 L 90.789062 73.371094 L 87.097656 74.480469 C 77.777344 77.28125 76.339844 77.796875 74.695312 78.898438 C 73.730469 79.542969 72.886719 80.355469 72.824219 80.703125 C 72.71875 81.257812 73.050781 81.34375 75.527344 81.398438 C 79.476562 81.484375 79.324219 81.457031 80.742188 82.335938 C 82.046875 83.140625 82.867188 84.433594 82.867188 85.679688 C 82.867188 86.894531 80.785156 88.84375 78.625 89.652344 C 77.507812 90.070312 76.425781 90.519531 76.214844 90.648438 C 76.007812 90.777344 75.566406 90.902344 75.230469 90.925781 C 74.898438 90.949219 74.1875 91.257812 73.65625 91.605469 C 72.652344 92.265625 72.644531 92.425781 73.523438 94.617188 C 73.90625 95.570312 73.90625 95.871094 73.527344 96.242188 C 73.152344 96.613281 72.9375 96.542969 72.402344 95.886719 L 71.742188 95.078125 L 71.34375 96.214844 C 70.820312 97.71875 70.824219 97.726562 71.761719 97.4375 C 73.070312 97.03125 79.445312 97.191406 80.570312 97.65625 C 81.140625 97.890625 81.703125 98.0625 81.820312 98.039062 C 81.941406 98.019531 82.242188 98.675781 82.492188 99.507812 C 82.921875 100.945312 82.96875 100.980469 83.488281 100.300781 C 84.625 98.8125 87.222656 92.996094 87.636719 91.011719 L 88.070312 88.941406 L 86.0625 87.035156 C 83.773438 84.863281 81.636719 81.875 81.894531 81.203125 C 82.113281 80.636719 84.535156 79.890625 86.160156 79.890625 C 88.039062 79.886719 90.042969 79.210938 90.453125 78.441406 C 90.65625 78.058594 91.0625 76.398438 91.351562 74.753906 C 91.640625 73.105469 92.269531 70.414062 92.746094 68.777344 C 93.320312 66.816406 93.476562 65.789062 93.207031 65.785156 C 91.410156 65.746094 83.585938 61.191406 84.40625 60.664062 C 84.652344 60.503906 86.382812 59.777344 88.246094 59.050781 C 90.113281 58.320312 92.144531 57.285156 92.761719 56.746094 C 93.378906 56.210938 94.246094 55.65625 94.695312 55.515625 C 95.140625 55.375 95.90625 54.582031 96.390625 53.746094 C 97.429688 51.972656 99.566406 44.765625 100.230469 40.800781 C 100.640625 38.347656 100.625 37.972656 100.113281 37.457031 C 99.792969 37.136719 99.230469 36.875 98.863281 36.875 C 97.972656 36.875 97.054688 35.75 97.097656 34.714844 C 97.117188 34.253906 96.914062 33.800781 96.644531 33.707031 C 96.289062 33.582031 96.222656 33.746094 96.398438 34.300781 C 96.824219 35.652344 95.582031 35.1875 94.820312 33.710938 C 93.957031 32.039062 90.65625 28.753906 90.148438 29.066406 C 89.945312 29.191406 89.6875 29.144531 89.574219 28.960938 C 89.460938 28.78125 89.066406 28.707031 88.695312 28.804688 C 87.773438 29.046875 86.386719 27.269531 86.695312 26.246094 C 87.039062 25.101562 87.539062 24.6875 87.894531 25.257812 C 88.089844 25.574219 88.277344 25.613281 88.425781 25.371094 C 88.765625 24.820312 93.296875 25 93.085938 25.554688 C 92.835938 26.207031 95.109375 26.503906 97.558594 26.132812 C 98.734375 25.953125 100.136719 25.925781 100.675781 26.070312 C 101.425781 26.269531 101.734375 26.179688 102.003906 25.679688 C 102.398438 24.941406 104.695312 24.527344 105.257812 25.089844 C 105.949219 25.78125 105.636719 24.179688 104.898438 23.238281 C 103.386719 21.316406 104.476562 21.097656 106.34375 22.949219 C 107.039062 23.640625 107.890625 24.535156 108.238281 24.9375 C 108.585938 25.339844 109.285156 25.667969 109.796875 25.667969 C 111.082031 25.667969 112.167969 26.320312 112.097656 27.046875 C 111.976562 28.28125 112.140625 28.5625 112.980469 28.5625 C 113.453125 28.5625 114.003906 28.765625 114.207031 29.011719 C 114.855469 29.808594 115.71875 33.226562 115.332031 33.464844 C 115.109375 33.605469 115.152344 33.898438 115.445312 34.253906 C 115.816406 34.707031 115.820312 34.855469 115.460938 34.976562 C 115.210938 35.058594 115.007812 35.511719 115.007812 35.980469 C 115.007812 36.449219 114.832031 36.941406 114.617188 37.074219 C 114.402344 37.210938 114.300781 37.613281 114.398438 37.976562 C 114.585938 38.695312 114.007812 39.042969 112.640625 39.042969 C 112.085938 39.042969 111.558594 39.402344 111.167969 40.039062 C 110.832031 40.585938 109.769531 42.246094 108.8125 43.726562 C 106.949219 46.605469 105.71875 49.382812 106.125 49.792969 C 106.261719 49.929688 106.984375 49.332031 107.730469 48.464844 L 109.085938 46.886719 L 112.136719 47.332031 C 113.816406 47.578125 115.875 47.949219 116.710938 48.152344 C 117.546875 48.359375 118.632812 48.425781 119.125 48.304688 C 119.804688 48.132812 120.304688 48.339844 121.207031 49.164062 C 122.214844 50.085938 122.683594 50.25 124.324219 50.25 C 126.925781 50.25 127.519531 50.632812 127.792969 52.5 C 128.132812 54.808594 127.527344 56.3125 125.484375 58.234375 L 123.667969 59.941406 L 125.136719 61.105469 C 126.289062 62.019531 126.582031 62.476562 126.496094 63.21875 C 126.40625 64 126.226562 64.144531 125.484375 64.042969 C 124.988281 63.972656 124.324219 63.691406 124.011719 63.410156 C 123.128906 62.625 122.59375 62.804688 122.582031 63.894531 C 122.574219 64.441406 122.347656 65.285156 122.082031 65.769531 C 121.601562 66.636719 121.59375 66.628906 121.339844 65.132812 C 121.199219 64.300781 120.933594 63.714844 120.75 63.828125 C 120.566406 63.941406 120.515625 64.199219 120.636719 64.394531 C 120.761719 64.59375 120.617188 64.949219 120.324219 65.183594 C 120.027344 65.421875 119.582031 66.261719 119.335938 67.058594 C 119.089844 67.855469 118.75 68.679688 118.585938 68.890625 C 118.417969 69.101562 118.035156 70.339844 117.734375 71.636719 C 116.984375 74.863281 116.195312 76.636719 115.507812 76.636719 C 115.0625 76.636719 114.984375 76.410156 115.160156 75.644531 C 115.324219 74.941406 115.289062 74.804688 115.042969 75.175781 C 114.851562 75.464844 114.589844 76.480469 114.457031 77.433594 C 114.328125 78.386719 114.0625 79.167969 113.871094 79.167969 C 113.679688 79.167969 113.636719 78.980469 113.78125 78.75 C 113.941406 78.492188 113.878906 78.429688 113.621094 78.589844 C 113.390625 78.734375 113.203125 79.0625 113.203125 79.320312 C 113.203125 79.582031 112.902344 80.179688 112.53125 80.65625 C 111.59375 81.855469 110.875 88.023438 111.207031 92.011719 C 111.347656 93.695312 111.609375 94.984375 111.792969 94.871094 C 111.972656 94.761719 112.121094 95.148438 112.121094 95.734375 C 112.121094 96.640625 112.335938 96.886719 113.554688 97.375 C 114.9375 97.929688 115.683594 99.125 115.433594 100.386719 C 115.386719 100.625 115.644531 100.976562 116.007812 101.171875 C 116.671875 101.527344 121.375 102.757812 123.609375 103.160156 C 124.722656 103.363281 124.789062 103.320312 124.550781 102.570312 C 124.410156 102.125 123.605469 100.945312 122.765625 99.953125 C 121.351562 98.289062 116.597656 91.269531 116.027344 90.011719 C 115.855469 89.632812 115.773438 89.609375 115.757812 89.941406 C 115.742188 90.203125 115.570312 90.316406 115.371094 90.191406 C 115.171875 90.070312 115.007812 90.222656 115.007812 90.53125 C 115.007812 90.84375 114.875 91.097656 114.707031 91.097656 C 114.542969 91.097656 114.449219 90.730469 114.5 90.28125 C 114.546875 89.835938 114.601562 89.339844 114.617188 89.175781 C 114.636719 89.015625 114.8125 88.984375 115.007812 89.109375 C 115.207031 89.230469 115.371094 89.222656 115.371094 89.089844 C 115.371094 88.613281 113.789062 86.035156 113.5 86.035156 C 113.335938 86.035156 113.203125 85.785156 113.203125 85.480469 C 113.203125 85.179688 112.960938 84.835938 112.664062 84.71875 C 112.363281 84.605469 112.121094 84.265625 112.121094 83.964844 C 112.121094 83.511719 112.214844 83.496094 112.683594 83.882812 C 113.140625 84.265625 113.222656 84.265625 113.132812 83.882812 C 113.074219 83.625 113.238281 83.335938 113.503906 83.238281 C 113.832031 83.121094 113.949219 83.324219 113.867188 83.886719 C 113.765625 84.582031 114.660156 85.359375 119.703125 88.96875 C 122.980469 91.316406 127.199219 94.152344 129.070312 95.277344 C 133.164062 97.734375 137.128906 100.714844 137.464844 101.582031 C 137.734375 102.289062 138.753906 102.542969 143.179688 103.003906 C 144.867188 103.179688 146.640625 103.445312 147.121094 103.59375 C 147.882812 103.828125 147.960938 103.773438 147.710938 103.171875 C 147.558594 102.792969 147.222656 100.257812 146.96875 97.539062 C 146.5625 93.148438 146.367188 92.292969 145.238281 89.914062 C 143.117188 85.433594 142.742188 84.03125 143.230469 82.390625 C 143.464844 81.613281 143.777344 80.976562 143.929688 80.976562 C 144.082031 80.976562 144.667969 81.355469 145.226562 81.820312 C 145.789062 82.285156 146.625 82.761719 147.082031 82.878906 C 147.808594 83.058594 147.902344 82.96875 147.804688 82.152344 C 147.726562 81.488281 147.375 81.101562 146.605469 80.824219 C 144.769531 80.164062 142.457031 78.699219 142.457031 78.199219 C 142.457031 77.484375 143.308594 77.617188 145.199219 78.625 C 146.132812 79.121094 147.101562 79.527344 147.347656 79.527344 C 147.59375 79.527344 148.15625 78.761719 148.597656 77.824219 C 149.035156 76.886719 149.625 75.949219 149.90625 75.742188 C 150.347656 75.421875 150.335938 75.125 149.832031 73.644531 C 149.171875 71.710938 149.382812 69.792969 150.179688 70.457031 C 150.761719 70.941406 151.125 70.613281 151.125 69.609375 C 151.125 69.1875 151.375 68.488281 151.679688 68.054688 C 152.109375 67.4375 152.464844 67.308594 153.289062 67.472656 C 154.847656 67.785156 156.179688 67.351562 156.179688 66.535156 C 156.179688 66.160156 156.566406 65.390625 157.035156 64.828125 C 157.503906 64.265625 158.003906 63.4375 158.140625 62.992188 C 158.28125 62.542969 158.546875 62.179688 158.734375 62.179688 C 159.144531 62.179688 160.039062 61.277344 161.238281 59.652344 C 161.734375 58.980469 162.914062 57.539062 163.859375 56.449219 C 164.804688 55.359375 165.761719 53.847656 165.988281 53.09375 C 166.214844 52.335938 166.519531 51.792969 166.667969 51.882812 C 166.8125 51.976562 167.125 51.816406 167.363281 51.53125 C 167.597656 51.25 168.015625 51.101562 168.289062 51.207031 C 168.578125 51.316406 169.660156 50.546875 170.855469 49.375 C 172.808594 47.464844 172.886719 47.324219 172.242188 46.851562 C 171.65625 46.425781 171.621094 46.21875 171.988281 45.410156 C 172.484375 44.324219 173.15625 44.160156 173.15625 45.125 C 173.15625 45.488281 173.425781 46.574219 173.753906 47.539062 L 174.351562 49.296875 L 173 50.429688 C 171.191406 51.953125 171.292969 53.242188 173.335938 54.652344 C 174.875 55.714844 176.007812 55.925781 176.664062 55.269531 C 177.238281 54.695312 177.851562 55.199219 177.851562 56.25 C 177.851562 56.742188 178.078125 57.503906 178.355469 57.945312 C 178.636719 58.382812 178.972656 59.578125 179.109375 60.601562 C 179.304688 62.097656 179.207031 62.742188 178.597656 63.933594 C 177.933594 65.238281 177.726562 65.390625 176.855469 65.214844 C 175.996094 65.042969 175.628906 65.289062 174.128906 67.03125 C 173.171875 68.140625 172.226562 69.046875 172.027344 69.046875 C 171.828125 69.046875 170.441406 69.609375 168.953125 70.300781 C 166.664062 71.359375 166.257812 71.675781 166.355469 72.34375 C 166.550781 73.648438 167.507812 73.988281 168.996094 73.28125 C 170.949219 72.347656 172.476562 72.488281 174.058594 73.746094 C 176.21875 75.464844 176.773438 75.242188 178.703125 71.855469 C 179.820312 69.894531 180.539062 69.40625 182.320312 69.40625 C 183.015625 69.40625 183.664062 69.28125 183.757812 69.128906 C 183.855469 68.972656 183.753906 68.171875 183.53125 67.351562 C 183.070312 65.617188 183.671875 62.902344 184.519531 62.902344 C 185.210938 62.902344 186.085938 63.839844 186.652344 65.195312 C 186.914062 65.824219 187.574219 66.863281 188.121094 67.511719 C 188.992188 68.542969 189.324219 68.683594 190.894531 68.683594 C 192.828125 68.683594 193.367188 69.042969 197.046875 72.773438 C 198.722656 74.476562 200.210938 77.480469 200.265625 79.273438 L 200.285156 80.070312 L 200.601562 79.296875 C 201.085938 78.085938 201.6875 77.910156 201.6875 78.976562 C 201.6875 79.53125 201.425781 80.019531 201.054688 80.171875 C 200.707031 80.316406 200.410156 80.757812 200.398438 81.15625 C 200.386719 81.554688 200.273438 82.488281 200.148438 83.234375 C 199.976562 84.277344 200.046875 84.589844 200.445312 84.589844 C 201.113281 84.589844 201.128906 86.171875 200.464844 86.722656 C 200.191406 86.949219 199.871094 87.621094 199.75 88.210938 C 199.589844 89.015625 199.328125 89.296875 198.714844 89.320312 C 197.746094 89.355469 195.101562 92.207031 195.816406 92.449219 C 196.527344 92.691406 196.347656 93.503906 195.421875 94.230469 C 194.957031 94.59375 194.140625 95.664062 193.601562 96.609375 L 192.625 98.324219 L 193.511719 98.324219 C 194.789062 98.324219 194.375 99.492188 192.605469 100.898438 C 190.953125 102.207031 189.613281 104.625 190.257812 105.132812 C 190.484375 105.3125 191.316406 105.578125 192.101562 105.71875 C 192.914062 105.867188 193.898438 106.371094 194.375 106.886719 C 194.878906 107.429688 195.433594 107.707031 195.773438 107.574219 C 197.15625 107.042969 198.175781 106.90625 197.941406 107.285156 C 197.59375 107.851562 198.882812 108.152344 202.039062 108.25 C 205.15625 108.347656 206.300781 108.734375 204.945312 109.238281 C 203.675781 109.707031 204.347656 110.023438 207.160156 110.28125 C 209.761719 110.523438 210.664062 111.070312 209.925781 111.960938 C 209.644531 112.300781 209.6875 112.421875 210.09375 112.421875 C 210.46875 112.421875 210.585938 112.65625 210.457031 113.144531 C 210.300781 113.742188 209.964844 113.871094 208.550781 113.871094 C 206.484375 113.871094 205.335938 114.765625 206.996094 115.082031 C 211.046875 115.859375 211.679688 115.800781 213.953125 114.417969 C 215.175781 113.675781 217.039062 112.039062 218.207031 110.6875 C 219.351562 109.359375 221.296875 107.300781 222.535156 106.101562 C 225.175781 103.550781 230.015625 96.019531 231.480469 92.183594 C 232.011719 90.789062 232.484375 89.652344 232.53125 89.652344 C 232.578125 89.652344 232.585938 90.957031 232.546875 92.550781 C 232.503906 94.535156 232.308594 95.644531 231.9375 96.074219 C 230.925781 97.238281 228.773438 102.558594 228.773438 103.898438 C 228.773438 104.625 228.554688 105.578125 228.289062 106.019531 C 227.867188 106.726562 227.820312 107.035156 228.003906 107.945312 C 228.03125 108.070312 228.441406 107.914062 228.917969 107.597656 C 229.742188 107.058594 229.820312 107.074219 230.371094 107.917969 C 231.03125 108.921875 231.871094 109.035156 232.902344 108.253906 C 233.289062 107.964844 234.324219 107.722656 235.203125 107.722656 C 236.289062 107.722656 237.859375 107.253906 240.097656 106.257812 C 242.296875 105.28125 244.152344 104.71875 245.65625 104.578125 C 246.960938 104.457031 247.914062 104.195312 247.914062 103.960938 C 247.914062 103.445312 246.292969 100.988281 245.0625 99.644531 C 244.546875 99.074219 243.152344 97.949219 241.96875 97.136719 C 240.785156 96.328125 240.023438 95.597656 240.28125 95.511719 C 240.535156 95.425781 242.195312 95.636719 243.96875 95.980469 C 246.414062 96.457031 247.308594 96.507812 247.691406 96.191406 C 248.074219 95.875 248.234375 95.894531 248.382812 96.285156 C 248.492188 96.5625 249.933594 97.453125 251.585938 98.261719 C 254.929688 99.894531 259.300781 103.535156 262.402344 107.273438 C 263.433594 108.515625 264.398438 109.53125 264.542969 109.53125 C 264.691406 109.53125 264.933594 109.246094 265.085938 108.898438 C 265.292969 108.417969 265.425781 108.613281 265.644531 109.710938 C 265.800781 110.507812 265.9375 111.757812 265.949219 112.492188 C 265.964844 113.511719 266.3125 114.21875 267.414062 115.496094 C 268.210938 116.414062 268.859375 117.324219 268.859375 117.515625 C 268.859375 117.707031 268.453125 118.019531 267.957031 118.207031 C 266.9375 118.59375 266.847656 119.066406 267.535156 120.386719 C 268.472656 122.1875 268.484375 122.960938 267.582031 124.738281 C 267.101562 125.691406 266.363281 126.578125 265.941406 126.710938 C 265.382812 126.886719 265.285156 127.0625 265.574219 127.351562 C 266.179688 127.960938 266.050781 128.328125 265.222656 128.328125 C 264.8125 128.328125 263.734375 128.761719 262.832031 129.292969 L 261.1875 130.253906 L 260.582031 129.453125 C 260.070312 128.769531 259.835938 128.707031 259.003906 129.023438 C 258.078125 129.375 257.988281 129.308594 257.214844 127.6875 C 256.578125 126.351562 256.203125 125.96875 255.496094 125.941406 C 255 125.917969 254.328125 125.878906 254.007812 125.847656 C 253.390625 125.796875 252.71875 124.449219 252.535156 122.90625 C 252.4375 122.082031 252.289062 122.011719 250.890625 122.097656 C 249.570312 122.183594 249.359375 122.097656 249.359375 121.476562 C 249.359375 120.976562 249 120.65625 248.183594 120.417969 C 247.242188 120.148438 247.175781 120.074219 247.847656 120.046875 C 249.769531 119.972656 250.664062 118.78125 249.511719 117.824219 C 249.203125 117.566406 249.027344 117.050781 249.125 116.675781 C 249.25 116.195312 249.035156 115.898438 248.402344 115.65625 C 247.199219 115.199219 247.191406 115.203125 247.191406 116.082031 C 247.191406 116.710938 247.046875 116.800781 246.378906 116.585938 C 245.304688 116.246094 245.054688 116.253906 241.050781 116.769531 C 238.523438 117.09375 236.429688 117.679688 233.105469 118.988281 C 227.519531 121.1875 227.566406 121.160156 227.324219 122.21875 C 227.214844 122.695312 226.644531 123.332031 226.054688 123.628906 C 225.460938 123.929688 224.410156 124.597656 223.714844 125.113281 C 221.390625 126.839844 221.832031 126.957031 215.046875 122.777344 C 211.761719 120.75 210.351562 119.363281 210.351562 118.15625 C 210.351562 117.613281 210.515625 117.066406 210.714844 116.941406 C 211.648438 116.367188 210.800781 116.238281 207.554688 116.46875 C 203.75 116.742188 195.410156 117.410156 195.296875 117.457031 C 195.261719 117.472656 195.25 117.851562 195.273438 118.296875 C 195.296875 118.746094 195.289062 119.574219 195.25 120.144531 C 195.195312 121.042969 195.070312 121.148438 194.324219 120.960938 C 193.359375 120.71875 191.222656 121.347656 190.671875 122.039062 C 190.382812 122.398438 189.46875 122.386719 186.15625 121.988281 C 183.871094 121.710938 180.773438 121.480469 179.273438 121.472656 C 176.90625 121.460938 176.378906 121.582031 175.300781 122.378906 C 174.617188 122.882812 173.976562 123.519531 173.878906 123.792969 C 173.734375 124.1875 173.242188 124.089844 171.53125 123.328125 L 169.363281 122.363281 L 159.351562 122.394531 C 153.847656 122.410156 148.242188 122.605469 146.894531 122.828125 C 145.546875 123.050781 142.785156 123.507812 140.757812 123.847656 C 137.820312 124.339844 136.960938 124.375 136.535156 124.023438 C 136.242188 123.777344 136.082031 123.359375 136.183594 123.09375 C 136.328125 122.714844 135.835938 122.625 133.90625 122.6875 C 131.457031 122.765625 131.4375 122.773438 130.820312 124.074219 C 130.476562 124.792969 130.007812 125.5 129.773438 125.644531 C 129.058594 126.085938 127.25 125.875 126.582031 125.269531 C 125.59375 124.375 125.066406 125.292969 125.355469 127.402344 C 125.53125 128.679688 125.792969 129.207031 126.382812 129.476562 C 127.140625 129.824219 127.148438 129.886719 126.613281 131.070312 C 126.234375 131.910156 125.808594 132.304688 125.289062 132.304688 C 124.871094 132.304688 124.144531 132.710938 123.675781 133.207031 C 122.714844 134.230469 121.808594 134.359375 121.03125 133.578125 C 120.5625 133.109375 120.378906 133.140625 119.5 133.835938 L 118.496094 134.621094 L 118.699219 133.851562 C 118.839844 133.316406 118.621094 132.816406 118 132.238281 L 117.097656 131.402344 L 116.515625 132.269531 C 116.195312 132.746094 115.132812 133.945312 114.148438 134.941406 C 112.484375 136.625 112.332031 136.699219 111.882812 136.082031 C 111.617188 135.71875 111.398438 135.308594 111.398438 135.175781 C 111.398438 134.742188 106.714844 133.335938 106.015625 133.558594 C 105.421875 133.746094 105.339844 133.597656 105.394531 132.40625 C 105.449219 131.296875 105.238281 130.816406 104.269531 129.847656 C 102.9375 128.511719 102.195312 128.632812 102.496094 130.132812 C 102.644531 130.878906 102.476562 131.332031 101.828125 131.941406 C 101.351562 132.390625 100.914062 133.089844 100.855469 133.496094 C 100.75 134.195312 99.347656 135.300781 97.945312 135.785156 C 97.597656 135.90625 97.3125 136.140625 97.3125 136.308594 C 97.3125 137.078125 91.453125 137.808594 90.425781 137.164062 C 90.140625 136.988281 89.625 136.886719 89.277344 136.945312 C 88.925781 137.003906 88.644531 136.824219 88.644531 136.535156 C 88.644531 136.253906 88.125 135.875 87.484375 135.691406 C 86.78125 135.488281 86.25 135.0625 86.132812 134.601562 C 86.023438 134.183594 85.429688 133.417969 84.808594 132.898438 C 84.191406 132.382812 83.589844 131.488281 83.472656 130.914062 C 83.347656 130.269531 82.980469 129.792969 82.523438 129.675781 C 81.753906 129.472656 81.519531 128.535156 82.144531 128.148438 C 82.34375 128.023438 82.507812 128.085938 82.507812 128.28125 C 82.507812 128.800781 83.5625 129.773438 84.128906 129.773438 C 84.5625 129.773438 86.019531 126.28125 85.703125 125.996094 C 85.632812 125.933594 84.519531 126.234375 83.226562 126.667969 C 81.03125 127.402344 80.878906 127.527344 80.84375 128.574219 C 80.824219 129.1875 80.707031 129.957031 80.585938 130.277344 C 80.296875 131.027344 78.535156 131.0625 78.535156 130.316406 C 78.535156 130.019531 78.308594 129.773438 78.035156 129.773438 C 77.179688 129.773438 76.648438 130.761719 76.898438 131.894531 C 77.03125 132.507812 76.96875 133.058594 76.75 133.195312 C 76.539062 133.324219 76.367188 133.742188 76.367188 134.121094 C 76.367188 134.972656 75.109375 135.691406 74.085938 135.421875 C 73.667969 135.3125 73.074219 135.445312 72.769531 135.71875 C 72.464844 135.992188 71.832031 136.269531 71.363281 136.339844 C 70.714844 136.433594 70.378906 136.855469 69.964844 138.089844 C 69.203125 140.363281 68.058594 140.917969 68.058594 139.015625 C 68.058594 138.554688 67.816406 137.972656 67.519531 137.726562 C 67.21875 137.480469 66.976562 137.074219 66.976562 136.828125 C 66.976562 136.578125 66.164062 136.039062 65.167969 135.625 C 64.171875 135.210938 63.253906 134.605469 63.132812 134.28125 C 63.007812 133.960938 62.5625 133.546875 62.140625 133.363281 C 61.722656 133.179688 61.136719 132.886719 60.835938 132.710938 C 59.414062 131.875 57.445312 131.21875 56.355469 131.21875 C 55.691406 131.21875 54.5625 130.976562 53.847656 130.675781 C 53.132812 130.378906 51.609375 130.132812 50.460938 130.132812 C 49.316406 130.132812 47.515625 130.09375 46.464844 130.046875 C 45.328125 129.996094 44.453125 130.128906 44.296875 130.378906 C 44.15625 130.605469 43.355469 131.066406 42.515625 131.402344 C 41.054688 131.988281 40.945312 131.984375 39.808594 131.300781 C 37.742188 130.058594 36.886719 130.03125 35.707031 131.175781 C 35.128906 131.738281 34.050781 132.394531 33.3125 132.636719 C 32.253906 132.980469 31.691406 133.53125 30.679688 135.199219 C 29.96875 136.371094 29.070312 137.425781 28.679688 137.550781 C 28.289062 137.675781 26.792969 137.734375 25.355469 137.6875 C 22.15625 137.578125 21.289062 137.832031 19.667969 139.339844 C 18.15625 140.742188 17.316406 141.089844 16.839844 140.507812 Z M 83.902344 124.128906 C 85.28125 123.441406 85.742188 123.027344 85.585938 122.621094 C 85.074219 121.289062 84.714844 118.976562 84.75 117.285156 C 84.785156 115.863281 84.53125 114.96875 83.605469 113.234375 L 82.421875 111.007812 L 80.984375 111.738281 C 80.195312 112.144531 79.441406 112.367188 79.3125 112.238281 C 79.179688 112.109375 79.058594 110.828125 79.035156 109.390625 C 79.015625 107.957031 78.8125 106.433594 78.585938 106.011719 C 78.359375 105.589844 78.171875 104.824219 78.171875 104.3125 C 78.171875 103.558594 78 103.386719 77.246094 103.386719 C 76.039062 103.386719 71.671875 105.414062 68.542969 107.429688 C 65.882812 109.140625 62.539062 110.699219 61.820312 110.554688 C 61.125 110.417969 56.65625 112.03125 55.328125 112.898438 C 54.664062 113.332031 53.523438 114 52.785156 114.378906 C 51.242188 115.171875 51.117188 115.527344 52.261719 115.875 C 52.707031 116.011719 53.339844 116.359375 53.667969 116.648438 C 54.03125 116.964844 54.808594 117.125 55.652344 117.054688 C 56.761719 116.964844 57.179688 116.710938 57.761719 115.769531 C 59.199219 113.453125 61.691406 115.160156 61.722656 118.480469 C 61.738281 120.054688 61.816406 120.203125 62.683594 120.304688 C 63.285156 120.375 64.019531 120.082031 64.71875 119.492188 C 65.71875 118.648438 66.003906 118.589844 68.042969 118.804688 C 70.199219 119.03125 70.308594 119 71.277344 117.941406 C 72.265625 116.859375 72.300781 116.851562 74.023438 117.285156 C 75.203125 117.585938 75.855469 117.96875 76.042969 118.472656 C 76.199219 118.902344 76.902344 119.40625 77.695312 119.664062 C 79.65625 120.292969 80.339844 121.011719 80.339844 122.445312 C 80.339844 123.875 80.886719 125.074219 81.546875 125.074219 C 81.796875 125.074219 82.859375 124.648438 83.902344 124.128906 Z M 103.121094 121.925781 C 103.441406 121.085938 103.585938 121.035156 105.085938 121.261719 C 106.347656 121.453125 106.753906 121.386719 106.914062 120.96875 C 107.207031 120.207031 106.355469 118.683594 105.980469 119.296875 C 105.820312 119.550781 105.421875 119.65625 105.085938 119.527344 C 104.300781 119.222656 104.542969 117.992188 105.363281 118.132812 C 106.191406 118.273438 106.140625 117.695312 105.167969 115.910156 C 104.019531 113.800781 103.835938 113.648438 102.578125 113.796875 C 101.082031 113.972656 100.066406 112.910156 100.410156 111.53125 C 100.546875 110.996094 100.890625 110.46875 101.179688 110.355469 C 101.46875 110.246094 101.847656 109.773438 102.027344 109.300781 C 102.554688 107.910156 103.367188 108.308594 104.804688 110.667969 C 105.550781 111.890625 106.507812 113.308594 106.933594 113.820312 C 107.601562 114.625 107.785156 114.683594 108.292969 114.257812 C 108.726562 113.898438 108.824219 113.445312 108.65625 112.550781 C 108.398438 111.167969 109.230469 109.53125 110.191406 109.53125 C 110.558594 109.53125 110.175781 109 109.175781 108.121094 C 107.695312 106.816406 104.535156 102.648438 104.535156 101.996094 C 104.535156 101.84375 104.222656 101.0625 103.835938 100.265625 C 103.453125 99.472656 103.03125 98.390625 102.898438 97.867188 C 102.691406 97.039062 102.574219 96.972656 101.972656 97.347656 C 100.460938 98.292969 99.003906 95.496094 100.402344 94.332031 C 100.921875 93.902344 101.078125 93.929688 101.550781 94.542969 C 102.054688 95.203125 102.078125 95.152344 101.875 93.808594 C 101.753906 93.011719 101.652344 91.925781 101.652344 91.398438 C 101.648438 90.484375 101.585938 90.449219 100.472656 90.753906 C 99.828125 90.933594 98.519531 91.128906 97.570312 91.191406 L 95.839844 91.300781 L 94.589844 94.179688 C 93.902344 95.757812 93.339844 97.097656 93.339844 97.148438 C 93.339844 97.199219 93.585938 97.242188 93.882812 97.242188 C 94.609375 97.242188 94.578125 98.652344 93.847656 98.933594 C 93.527344 99.054688 93.148438 98.960938 93 98.722656 C 92.835938 98.453125 92.113281 99.363281 91.085938 101.136719 C 90.175781 102.699219 88.605469 104.886719 87.59375 105.992188 C 86.585938 107.101562 85.757812 108.195312 85.757812 108.421875 C 85.757812 109.1875 87.171875 111.625 88.007812 112.300781 C 88.464844 112.664062 89.550781 113.820312 90.425781 114.867188 C 91.875 116.601562 92.121094 116.75 93.164062 116.554688 C 94.199219 116.363281 94.449219 116.511719 95.804688 118.132812 C 96.804688 119.324219 97.679688 119.996094 98.425781 120.148438 C 99.046875 120.269531 100.144531 120.988281 100.871094 121.742188 C 102.320312 123.246094 102.609375 123.269531 103.121094 121.925781 Z M 132.21875 120.921875 C 131.992188 120.425781 131.515625 120.019531 131.164062 120.015625 C 130.808594 120.015625 130.367188 119.609375 130.179688 119.109375 C 129.9375 118.476562 129.5625 118.207031 128.921875 118.207031 C 128.421875 118.207031 128.011719 118.042969 128.011719 117.84375 C 128.011719 117.648438 128.246094 117.484375 128.53125 117.484375 C 129.257812 117.484375 129.617188 116.777344 129.136719 116.296875 C 128.457031 115.617188 128.675781 115.015625 130.136719 113.507812 C 131.019531 112.597656 131.863281 112.0625 132.421875 112.0625 C 133.472656 112.0625 133.804688 111.800781 133.5625 111.164062 C 133.417969 110.792969 133.042969 110.8125 131.691406 111.265625 C 130.429688 111.683594 128.433594 111.832031 123.859375 111.839844 C 118.429688 111.851562 117.5 111.765625 115.820312 111.089844 C 114.78125 110.667969 113.925781 110.425781 113.925781 110.550781 C 113.925781 111.054688 116.558594 113.082031 116.996094 112.914062 C 117.730469 112.632812 118.621094 114.25 118.621094 115.867188 C 118.621094 117.304688 119.101562 118.207031 119.871094 118.207031 C 120.648438 118.207031 121.253906 116.578125 121.191406 114.660156 C 121.148438 113.28125 121.253906 112.761719 121.566406 112.863281 C 122.105469 113.042969 122.339844 113.496094 123.300781 116.21875 C 123.722656 117.410156 124.351562 118.757812 124.695312 119.214844 C 125.300781 120.007812 125.367188 120.015625 126.488281 119.457031 C 128.074219 118.664062 129.714844 119.054688 130.488281 120.402344 C 131.003906 121.308594 131.417969 121.605469 132.402344 121.78125 C 132.53125 121.804688 132.449219 121.417969 132.21875 120.921875 Z M 176.355469 104.066406 C 176.679688 103.792969 177.40625 103.273438 177.964844 102.910156 C 178.738281 102.410156 178.886719 102.140625 178.589844 101.78125 C 178.042969 101.121094 178.507812 100.140625 179.5625 99.738281 C 180.136719 99.519531 180.378906 99.210938 180.246094 98.863281 C 180.132812 98.566406 180.1875 98.324219 180.371094 98.324219 C 180.742188 98.324219 182.902344 96.113281 182.902344 95.730469 C 182.90625 95.59375 182.511719 95.554688 182.035156 95.640625 C 181.238281 95.785156 181.183594 95.710938 181.429688 94.804688 C 181.574219 94.253906 181.925781 93.785156 182.210938 93.753906 C 184.019531 93.570312 184.351562 93.1875 185.253906 90.222656 C 185.75 88.59375 186.15625 87.039062 186.15625 86.769531 C 186.15625 86.050781 185.0625 84.953125 184.351562 84.953125 C 184.015625 84.953125 183.441406 84.621094 183.074219 84.214844 C 182.359375 83.425781 181.128906 83.398438 179.785156 84.144531 C 179.027344 84.566406 179.023438 84.621094 179.566406 86.480469 C 180.636719 90.117188 179.222656 94.480469 174.800781 101.191406 C 173.695312 102.867188 172.792969 104.371094 172.792969 104.535156 C 172.792969 105 175.699219 104.617188 176.355469 104.066406 Z M 155.007812 104.242188 C 155.507812 104.109375 155.820312 103.746094 155.820312 103.296875 C 155.820312 102.636719 155.980469 102.59375 157.566406 102.800781 L 159.308594 103.035156 L 158.945312 101.015625 C 158.679688 99.5625 158.707031 97.9375 159.042969 95.199219 C 159.5 91.441406 159.5 91.394531 158.683594 90.527344 C 157.730469 89.511719 157.265625 89.414062 157.265625 90.222656 C 157.265625 91.277344 156.363281 90.515625 156.027344 89.171875 C 155.84375 88.441406 155.578125 87.84375 155.4375 87.84375 C 154.789062 87.84375 154.230469 90.359375 154.304688 92.949219 C 154.347656 94.480469 154.144531 97.328125 153.851562 99.277344 C 153.441406 102.03125 153.417969 102.882812 153.757812 103.097656 C 154.09375 103.3125 154.089844 103.375 153.742188 103.382812 C 153.496094 103.382812 153.292969 103.628906 153.292969 103.929688 C 153.292969 104.511719 153.71875 104.589844 155.007812 104.242188 Z M 169.273438 97.433594 C 170.925781 94.617188 172.050781 91.378906 172.136719 89.1875 C 172.183594 87.96875 172.003906 87.5625 171.039062 86.699219 C 169.835938 85.625 169.246094 85.589844 166.925781 86.46875 C 165.703125 86.933594 165.679688 87.472656 166.808594 89.207031 C 168.03125 91.078125 168.308594 92.953125 167.636719 94.816406 C 166.15625 98.945312 165.886719 100.183594 166.347656 100.738281 C 166.886719 101.394531 167.054688 101.207031 169.273438 97.433594 Z M 106.390625 71.667969 C 110.105469 61.066406 111.222656 57.542969 110.953125 57.277344 C 110.539062 56.859375 109.195312 57.535156 107.414062 59.046875 C 106.441406 59.875 105.148438 60.933594 104.535156 61.402344 C 102.917969 62.644531 101.703125 65.347656 100.710938 69.910156 C 100.230469 72.117188 99.566406 74.875 99.230469 76.035156 C 98.5625 78.363281 98.75 78.765625 100.5625 78.828125 C 101.058594 78.84375 101.792969 78.996094 102.1875 79.167969 C 102.585938 79.339844 103.074219 79.488281 103.273438 79.503906 C 103.476562 79.519531 104.878906 75.992188 106.390625 71.667969 Z M 163.214844 75.371094 C 163.320312 74.875 163.492188 74.042969 163.601562 73.519531 C 163.765625 72.746094 163.691406 72.613281 163.210938 72.796875 C 162.882812 72.921875 161.976562 73.128906 161.191406 73.253906 C 159.625 73.503906 158.417969 74.832031 159.757812 74.832031 C 160.152344 74.832031 160.578125 75.003906 160.710938 75.21875 C 160.933594 75.578125 162.167969 76.203125 162.765625 76.253906 C 162.910156 76.265625 163.113281 75.871094 163.214844 75.371094 Z M 78.535156 70.257812 C 78.535156 70.019531 78.148438 69.363281 77.675781 68.804688 C 77.082031 68.097656 76.808594 67.3125 76.792969 66.269531 C 76.777344 64.957031 75.988281 61.941406 75.421875 61.023438 C 75.316406 60.855469 73.714844 61.761719 71.867188 63.042969 C 66.644531 66.664062 65.925781 66.960938 63.070312 66.679688 C 60.875 66.460938 57.585938 66.929688 57.585938 67.460938 C 57.585938 67.566406 58.238281 68.421875 59.03125 69.367188 C 59.824219 70.308594 60.476562 71.273438 60.476562 71.511719 C 60.476562 72.097656 60.882812 72.050781 62.941406 71.242188 C 64.691406 70.550781 64.75 70.550781 67.921875 71.242188 C 71.378906 71.996094 72.65625 72.699219 73.425781 74.269531 L 73.917969 75.273438 L 76.226562 72.984375 C 77.496094 71.722656 78.535156 70.5 78.535156 70.257812 Z M 214.769531 98.605469 C 213.621094 98.050781 213.417969 96.792969 214.152344 94.796875 C 214.496094 93.855469 214.800781 92.433594 214.824219 91.640625 C 214.867188 90.242188 214.824219 90.1875 213.605469 90.074219 C 212.910156 90.007812 212.121094 89.769531 211.847656 89.542969 C 211.578125 89.316406 210.609375 89.046875 209.695312 88.941406 C 208.253906 88.773438 207.886719 88.542969 206.9375 87.234375 C 206.332031 86.398438 205.71875 85.707031 205.566406 85.695312 C 205.417969 85.683594 205.296875 86.414062 205.296875 87.324219 C 205.296875 88.328125 205.15625 88.882812 204.9375 88.746094 C 204.738281 88.625 204.574219 87.8125 204.574219 86.941406 C 204.574219 86.070312 204.414062 85.253906 204.214844 85.132812 C 204.015625 85.007812 203.851562 84.558594 203.851562 84.128906 C 203.851562 83.703125 203.417969 83.003906 202.882812 82.578125 L 201.917969 81.804688 L 204.058594 79.765625 C 205.386719 78.496094 206.632812 77.640625 207.339844 77.507812 C 208.851562 77.222656 210.546875 75.09375 210.890625 73.042969 C 211.203125 71.191406 212.386719 69.851562 213.992188 69.527344 C 214.804688 69.367188 215.222656 69.015625 215.476562 68.285156 C 215.878906 67.132812 219.859375 63.984375 220.917969 63.984375 C 221.765625 63.984375 222.816406 63.433594 224.441406 62.128906 C 226.617188 60.382812 228.578125 60.460938 231.203125 62.390625 C 231.972656 62.957031 232.023438 62.941406 232.355469 62.074219 C 232.789062 60.933594 233.277344 60.625 234.191406 60.914062 C 235.738281 61.40625 234.394531 63.984375 232.589844 63.984375 C 231.785156 63.984375 231.738281 64.074219 232.027344 65.082031 C 232.210938 65.726562 232.195312 67.085938 231.984375 68.390625 C 231.605469 70.742188 231.949219 71.792969 232.816406 70.925781 C 233.054688 70.6875 233.488281 70.492188 233.78125 70.492188 C 234.164062 70.492188 234.074219 70.75 233.457031 71.40625 C 232.984375 71.910156 232.378906 72.234375 232.105469 72.132812 C 231.570312 71.925781 229.496094 73.988281 229.496094 74.730469 C 229.496094 75.609375 230.914062 75.230469 231.152344 74.289062 C 231.273438 73.792969 231.523438 73.480469 231.699219 73.589844 C 232.21875 73.910156 232.070312 75.097656 231.480469 75.324219 C 230.757812 75.601562 230.789062 76.863281 231.527344 77.148438 C 232.203125 77.40625 233.105469 76.78125 233.105469 76.054688 C 233.105469 75.78125 233.644531 74.851562 234.300781 73.992188 L 235.5 72.421875 L 236.890625 73.625 C 238.007812 74.59375 238.140625 74.832031 237.570312 74.832031 C 237.179688 74.832031 236.644531 74.625 236.375 74.378906 C 235.976562 74.007812 235.929688 74.046875 236.125 74.597656 C 236.292969 75.070312 235.851562 75.917969 234.609375 77.5 C 233.308594 79.160156 232.558594 80.628906 231.695312 83.222656 C 230.152344 87.859375 229.050781 89.320312 225.894531 90.910156 C 222.953125 92.390625 222.847656 92.414062 223.097656 91.457031 C 223.417969 90.242188 222.59375 90.214844 221.660156 91.410156 C 221.144531 92.070312 220.441406 92.542969 219.976562 92.542969 C 219.054688 92.542969 217.214844 94.476562 217.214844 95.445312 C 217.214844 96.164062 216.308594 97.242188 215.707031 97.242188 C 215.488281 97.242188 215.425781 97.617188 215.558594 98.144531 C 215.683594 98.640625 215.742188 99.039062 215.6875 99.023438 C 215.632812 99.011719 215.222656 98.820312 214.769531 98.605469 Z M 256.828125 91.367188 C 258.203125 89.914062 258.746094 88.878906 258.746094 87.714844 C 258.746094 86.144531 258.335938 85.644531 256.3125 84.746094 C 253.523438 83.511719 249.722656 80.03125 248.367188 77.464844 C 247.757812 76.3125 246.332031 73.09375 245.203125 70.3125 C 244.070312 67.527344 242.675781 64.167969 242.097656 62.839844 C 241.003906 60.320312 240.804688 59.453125 241.414062 59.828125 C 241.992188 60.1875 241.804688 58.925781 240.871094 56.214844 C 240.394531 54.824219 240.15625 53.628906 240.34375 53.566406 C 240.925781 53.359375 243.042969 54.199219 244.3125 55.136719 C 244.980469 55.628906 245.789062 56.035156 246.109375 56.035156 C 246.90625 56.035156 248.601562 57.867188 248.984375 59.144531 L 249.296875 60.191406 L 249.328125 59.007812 C 249.375 57.164062 250.574219 56.804688 252.824219 57.957031 C 259.582031 61.410156 267.640625 69.398438 269.164062 74.148438 C 270.046875 76.90625 271.097656 90.375 270.425781 90.375 C 270.234375 90.375 269.609375 89.886719 269.039062 89.289062 C 268.429688 88.652344 267.621094 88.199219 267.078125 88.191406 C 266.566406 88.183594 265.746094 87.945312 265.25 87.664062 C 264.207031 87.066406 263.671875 86.976562 263.960938 87.445312 C 264.308594 88.011719 261.738281 89.941406 258.875 91.265625 C 257.359375 91.96875 256.027344 92.542969 255.917969 92.542969 C 255.808594 92.542969 256.214844 92.015625 256.828125 91.367188 Z M 112.1875 90.492188 C 112.25 89.960938 112.476562 89.46875 112.691406 89.398438 C 112.933594 89.316406 113.019531 89.679688 112.921875 90.363281 C 112.722656 91.710938 112.027344 91.832031 112.1875 90.492188 Z M 201.9375 85.765625 C 201.832031 85.417969 201.574219 84.5625 201.363281 83.867188 L 200.984375 82.601562 L 202.058594 83.78125 C 203.179688 85.019531 203.484375 86.398438 202.628906 86.398438 C 202.355469 86.398438 202.042969 86.113281 201.9375 85.765625 Z M 112.84375 81.359375 C 112.84375 81.171875 113.003906 80.917969 113.203125 80.792969 C 113.402344 80.671875 113.566406 80.824219 113.566406 81.132812 C 113.566406 81.445312 113.402344 81.699219 113.203125 81.699219 C 113.003906 81.699219 112.84375 81.546875 112.84375 81.359375 Z M 236.085938 67.519531 C 235.125 67.058594 235.078125 66.765625 235.839844 66 C 236.722656 65.117188 237.082031 65.324219 236.832031 66.574219 C 236.667969 67.386719 236.722656 67.640625 237.023438 67.453125 C 237.25 67.3125 237.441406 66.878906 237.441406 66.496094 C 237.441406 66.109375 237.589844 65.792969 237.777344 65.792969 C 237.960938 65.792969 238.234375 65.425781 238.382812 64.980469 C 238.621094 64.261719 238.6875 64.328125 238.953125 65.570312 C 239.421875 67.746094 238.230469 68.554688 236.085938 67.519531 Z "/>
</g>
</svg>
