<?xml version="1.0" encoding="UTF-8"?>
<svg xmlns="http://www.w3.org/2000/svg" xmlns:xlink="http://www.w3.org/1999/xlink" width="156pt" height="406pt" viewBox="0 0 156 406" version="1.1">
<g id="surface1">
<path style=" stroke:none;fill-rule:nonzero;fill:rgb(87.843137%,1.960784%,5.098039%);fill-opacity:1;" d="M 12.664062 38.835938 C 23.652344 55.0625 81.140625 144.894531 81.140625 144.894531 L 151.742188 105.355469 C 151.742188 105.355469 135.597656 155.195312 78.191406 156.644531 C 38.976562 157.632812 0.941406 121.582031 0.015625 78.351562 C -0.480469 55.222656 11.613281 37.410156 11.613281 37.410156 M 43.125 46.070312 C 44.464844 54.0625 57.050781 75.542969 93.664062 58.890625 C 106.738281 52.953125 127.894531 47.980469 137.921875 58.59375 C 164.492188 96.34375 92.351562 123.199219 72.390625 122.832031 L 16.316406 30.238281 C 23.429688 21.371094 33.800781 12.015625 52.09375 4.949219 C 43.027344 17.164062 39.941406 27.078125 43.125 46.070312 Z M 100.816406 32.074219 C 96.257812 38.828125 77.140625 51.398438 70.765625 42.769531 C 61.5 30.226562 75.445312 15.015625 89.359375 13.128906 C 91.289062 16.199219 97.488281 25.855469 100.816406 32.074219 Z M 154.488281 94.917969 C 144.066406 102.851562 93.082031 130.5 82.03125 137.5625 C 77.609375 131.230469 78.058594 131.875 76.140625 128.46875 C 88.222656 125.101562 156.03125 109.335938 148.65625 67.835938 C 144.652344 45.207031 122.386719 44.980469 109.589844 47.59375 C 86.621094 52.28125 57.523438 74.054688 47.980469 45.371094 C 46.816406 41.875 42.285156 15.433594 64.023438 1.28125 C 69.125 0.394531 73.867188 -0.0859375 81.503906 0.0117188 C 83.144531 2.929688 84.40625 4.746094 85.859375 7.511719 C 84.261719 8.574219 60.460938 15.15625 63.101562 38.113281 C 63.996094 45.910156 75.007812 62.714844 103.746094 37.804688 C 105.167969 39.988281 104.738281 39.277344 105.757812 40.808594 C 110.132812 38.445312 105.839844 40.839844 110.140625 38.3125 C 100.824219 22.476562 92.597656 9.414062 87.371094 0.664062 C 136.0625 9.832031 161.585938 44.777344 154.488281 94.917969 Z M 154.488281 94.917969 "/>
<path style=" stroke:none;fill-rule:evenodd;fill:rgb(30.588235%,66.666667%,17.647059%);fill-opacity:1;" d="M 75.800781 156.289062 L 80.011719 156.289062 L 80.011719 214.824219 C 84.808594 213.703125 89.007812 194.007812 104.4375 187.007812 C 115.3125 182.070312 126.738281 187.605469 149.296875 204.476562 C 147.519531 204.648438 143.65625 204.996094 141.933594 205.171875 C 133.988281 207.613281 116.484375 217.195312 104.140625 219.335938 C 74.765625 224.4375 80.011719 242.882812 80.011719 242.882812 L 88.109375 239.929688 L 80.011719 249.683594 L 80.011719 271.460938 L 87.539062 269.796875 L 80.011719 278.125 L 80.011719 406.132812 L 75.800781 406.132812 L 75.800781 261.347656 L 65.351562 253.972656 L 75.800781 253.84375 L 75.800781 233.160156 C 75.800781 233.160156 48.898438 213.9375 0.539062 205.644531 C 10.664062 197.132812 29.761719 185.097656 48.828125 190.84375 C 67.683594 196.546875 75.800781 218.253906 75.800781 218.253906 Z M 75.800781 156.289062 "/>
</g>
</svg>
