<?xml version="1.0" encoding="UTF-8"?>
<svg xmlns="http://www.w3.org/2000/svg" xmlns:xlink="http://www.w3.org/1999/xlink" width="252pt" height="252pt" viewBox="0 0 252 252" version="1.1">
<g id="surface1">
<path style=" stroke:none;fill-rule:nonzero;fill:rgb(100%,100%,100%);fill-opacity:1;" d="M 0 0.09375 L 251.90625 0.09375 L 251.90625 252.753906 L 0 252.753906 Z M 0 0.09375 "/>
<path style=" stroke:none;fill-rule:nonzero;fill:rgb(46.27451%,74.117647%,11.372549%);fill-opacity:1;" d="M 167 0 L 167 2.472656 C 167.011719 2.472656 167.015625 2.472656 167.027344 2.472656 C 212.597656 2.472656 249.554688 39.410156 249.554688 85 L 252 85 L 252 0 Z M 167 0 "/>
<path style=" stroke:none;fill-rule:nonzero;fill:rgb(2.352941%,65.490196%,88.627451%);fill-opacity:1;" d="M 247.617188 119.550781 L 247.269531 119.960938 C 240.828125 170.605469 197.472656 209.890625 145.105469 209.890625 C 88.308594 209.890625 42.109375 163.6875 42.109375 106.894531 C 42.109375 54.34375 81.667969 10.871094 132.570312 4.667969 L 132.890625 4.394531 C 130.585938 4.265625 128.269531 4.183594 125.941406 4.183594 C 58.757812 4.183594 4.101562 58.839844 4.101562 126.027344 C 4.101562 193.210938 58.757812 247.871094 125.941406 247.871094 C 193.128906 247.871094 247.796875 193.210938 247.796875 126.027344 C 247.796875 123.859375 247.726562 121.699219 247.617188 119.550781 "/>
<path style=" stroke:none;fill-rule:nonzero;fill:rgb(2.352941%,65.490196%,88.627451%);fill-opacity:1;" d="M 247.332031 171.765625 C 232.605469 210.726562 199.648438 240.777344 158.910156 251.488281 L 158.285156 252 L 247.84375 252 L 247.84375 171.222656 Z M 247.332031 171.765625 "/>
<path style=" stroke:none;fill-rule:nonzero;fill:rgb(2.352941%,65.490196%,88.627451%);fill-opacity:1;" d="M 93.351562 251.597656 C 47.761719 239.757812 11.835938 203.671875 0.21875 157.992188 L 0 157.8125 L 0 252 L 93.851562 252 Z M 93.351562 251.597656 "/>
<path style=" stroke:none;fill-rule:nonzero;fill:rgb(2.352941%,65.490196%,88.627451%);fill-opacity:1;" d="M 81.167969 4.15625 L 0 4.15625 L 0 93.9375 L 0.332031 93.664062 C 10.976562 52.375 41.46875 18.980469 81.003906 4.335938 Z M 81.167969 4.15625 "/>
<path style=" stroke:none;fill-rule:nonzero;fill:rgb(2.352941%,65.490196%,88.627451%);fill-opacity:1;" d="M 237.542969 127.867188 C 223.054688 151.648438 196.902344 167.53125 167.027344 167.53125 C 121.441406 167.53125 84.492188 130.582031 84.484375 85.003906 C 84.484375 55.21875 100.269531 29.136719 123.917969 14.628906 L 124.34375 14.023438 C 81.820312 23.515625 49.933594 61.546875 49.933594 106.894531 C 49.933594 159.367188 92.628906 202.0625 145.101562 202.0625 C 190.492188 202.0625 228.546875 170.117188 238.003906 127.535156 Z M 237.542969 127.867188 "/>
</g>
</svg>
