<?xml version="1.0" encoding="UTF-8" standalone="no"?>
<!-- Created with Inkscape (http://www.inkscape.org/) -->

<svg
   xmlns:dc="http://purl.org/dc/elements/1.1/"
   xmlns:cc="http://creativecommons.org/ns#"
   xmlns:rdf="http://www.w3.org/1999/02/22-rdf-syntax-ns#"
   xmlns:svg="http://www.w3.org/2000/svg"
   xmlns="http://www.w3.org/2000/svg"
   xmlns:sodipodi="http://sodipodi.sourceforge.net/DTD/sodipodi-0.dtd"
   xmlns:inkscape="http://www.inkscape.org/namespaces/inkscape"
   id="svg4136"
   version="1.1"
   inkscape:version="0.91 r13725"
   width="365.65396"
   height="302.05325"
   viewBox="0 0 365.65396 302.05325"
   sodipodi:docname="HKCTU Logo.svg">
  <metadata
     id="metadata4142">
    <rdf:RDF>
      <cc:Work
         rdf:about="">
        <dc:format>image/svg+xml</dc:format>
        <dc:type
           rdf:resource="http://purl.org/dc/dcmitype/StillImage" />
        <dc:title></dc:title>
      </cc:Work>
    </rdf:RDF>
  </metadata>
  <defs
     id="defs4140" />
  <sodipodi:namedview
     pagecolor="#ffffff"
     bordercolor="#666666"
     borderopacity="1"
     objecttolerance="10"
     gridtolerance="10"
     guidetolerance="10"
     inkscape:pageopacity="0"
     inkscape:pageshadow="2"
     inkscape:window-width="1920"
     inkscape:window-height="1018"
     id="namedview4138"
     showgrid="false"
     fit-margin-top="0"
     fit-margin-left="0"
     fit-margin-right="0"
     fit-margin-bottom="0"
     inkscape:zoom="1.3640404"
     inkscape:cx="375.42315"
     inkscape:cy="224.07125"
     inkscape:window-x="-8"
     inkscape:window-y="-8"
     inkscape:window-maximized="1"
     inkscape:current-layer="svg4136" />
  <g
     id="g4298"
     transform="translate(-2.9223819,-2.474185)">
    <path
       sodipodi:nodetypes="ccccccc"
       inkscape:connector-curvature="0"
       id="path4291"
       d="m 329.43772,2.4873057 -280.060941,0 c 0,0 -48.3622317,-2.2227014 -46.3960286,51.1911483 l 0,209.876786 c 0,0 -1.4228787,38.85516 43.3888436,40.96287 l 282.249706,0 c 0,0 38.0304,1.74114 39.95483,-42.33746 l 0,-218.83516 c 0,0 0.99536,-40.0203895 -39.13641,-40.8581843 z"
       style="opacity:1;fill:#1a8e41;fill-opacity:1;fill-rule:evenodd;stroke:none;stroke-width:1px;stroke-linecap:butt;stroke-linejoin:miter;stroke-opacity:1" />
    <path
       inkscape:connector-curvature="0"
       id="path4146"
       d="m 71.845379,54.61715 80.826051,0"
       style="opacity:1;fill:#ffffff;fill-opacity:1;fill-rule:evenodd;stroke:#ffffff;stroke-width:8;stroke-linecap:round;stroke-linejoin:round;stroke-miterlimit:4;stroke-dasharray:none;stroke-opacity:1" />
    <path
       inkscape:connector-curvature="0"
       id="path4146-8"
       d="m 61.328318,139.47532 99.844082,0"
       style="opacity:1;fill:#ffffff;fill-opacity:1;fill-rule:evenodd;stroke:#ffffff;stroke-width:8;stroke-linecap:round;stroke-linejoin:round;stroke-miterlimit:4;stroke-dasharray:none;stroke-opacity:1" />
    <rect
       y="56.44994"
       x="109.78413"
       height="81.192612"
       width="7.8809986"
       id="rect4178"
       style="opacity:1;fill:#ffffff;fill-opacity:1;fill-rule:evenodd;stroke:none;stroke-width:1px;stroke-linecap:butt;stroke-linejoin:miter;stroke-opacity:1" />
    <path
       id="path4182"
       d="m 217.46484,47.003906 c 0,0 -6.99804,0.324308 -6.99804,8.359375 l 0,34.53711 c 0,0 0.3891,7.646484 8.35937,7.646484 l 20.47656,0 c 0,0 10.69141,0.649162 10.69141,-7.904297 l 0,-33.890625 c 0,0 0.32369,-8.55365 -8.35937,-8.748047 l -24.16993,0 z m 3.56446,7.775391 17.7539,0 c 3.30475,-0.0324 2.94922,3.533203 2.94922,3.533203 l 0,27.863281 c 0,3.499142 -4.73047,3.142578 -4.73047,3.142578 l -15.32422,0 c -3.30474,0 -3.17578,-2.591797 -3.17578,-2.591797 l 0,-29.095703 c 0.0648,-3.110348 2.52735,-2.851562 2.52735,-2.851562 z"
       style="opacity:1;fill:#ffffff;fill-opacity:1;fill-rule:evenodd;stroke:none;stroke-width:1px;stroke-linecap:butt;stroke-linejoin:miter;stroke-opacity:1"
       inkscape:connector-curvature="0" />
    <rect
       y="68.638"
       x="216.3609"
       height="7.9726377"
       width="26.850378"
       id="rect4187"
       style="opacity:1;fill:#ffffff;fill-opacity:1;fill-rule:evenodd;stroke:none;stroke-width:1px;stroke-linecap:butt;stroke-linejoin:miter;stroke-opacity:1" />
    <path
       sodipodi:nodetypes="cccccsssccccccsssssccc"
       inkscape:connector-curvature="0"
       id="path4189"
       d="m 266.84196,47.004165 34.66742,0 c 0,0 8.81266,-0.388794 8.94226,9.266246 l 0,38.555358 c 0,0 0.77758,10.367831 -16.84772,10.043831 0,0 -20.24469,-0.84624 -19.18048,-7.646271 0.34652,-2.214193 2.96945,-5.215997 7.26404,-2.994757 2.94238,1.521849 12.45438,3.006902 17.3142,1.721697 3.24224,-0.857427 2.8317,-4.494044 2.8317,-4.494044 l 0,-34.537825 c 0,0 0.1296,-2.591957 -3.56394,-2.332761 l -29.15952,0 c 0,0 -2.98075,-0.323995 -2.85115,2.786353 l 0,26.761955 c 0,0 -2.1022,7.281844 -7.49417,14.330165 -1.20076,1.569618 -2.92572,3.645988 -4.37976,5.095138 -1.65472,1.64915 -3.83412,4.18769 -7.08736,1.72661 -4.63475,-3.50619 -0.89293,-5.663601 0.75279,-7.349743 0.91378,-0.936226 1.15865,-0.97808 2.70685,-2.841948 2.99534,-3.606084 7.44883,-10.527835 7.79058,-20.09687 l 0,-19.310079 c 0,0 -0.58319,-9.007049 8.29426,-8.683055 z"
       style="opacity:1;fill:#ffffff;fill-opacity:1;fill-rule:evenodd;stroke:none;stroke-width:0.2;stroke-linecap:butt;stroke-linejoin:miter;stroke-miterlimit:4;stroke-dasharray:none;stroke-opacity:1" />
    <rect
       y="63.093803"
       x="262.22647"
       height="7.9726377"
       width="41.970898"
       id="rect4187-4"
       style="opacity:1;fill:#ffffff;fill-opacity:1;fill-rule:evenodd;stroke:none;stroke-width:1px;stroke-linecap:butt;stroke-linejoin:miter;stroke-opacity:1" />
    <rect
       y="77.756126"
       x="260.89771"
       height="7.9726377"
       width="41.970898"
       id="rect4187-4-0"
       style="opacity:1;fill:#ffffff;fill-opacity:1;fill-rule:evenodd;stroke:none;stroke-width:1px;stroke-linecap:butt;stroke-linejoin:miter;stroke-opacity:1" />
    <path
       id="path4221"
       d="m 223.41797,107.12695 c -8.06427,0.18328 -7.69922,7.69727 -7.69922,7.69727 l 0,26.9414 87.88281,-1.2832 0,-22.8164 c -0.0916,-10.90511 -9.34765,-10.53907 -9.34765,-10.53907 l -70.83594,0 z m 0.54883,7.78907 71.38672,0 0,24.74218 -71.38672,0 0,-24.74218 z"
       style="opacity:1;fill:#ffffff;fill-opacity:1;fill-rule:evenodd;stroke:none;stroke-width:1px;stroke-linecap:butt;stroke-linejoin:miter;stroke-opacity:1"
       inkscape:connector-curvature="0" />
    <path
       sodipodi:nodetypes="cc"
       inkscape:connector-curvature="0"
       id="path4223"
       d="m 208.66317,143.41584 101.53659,0"
       style="opacity:1;fill:#ffffff;fill-opacity:1;fill-rule:evenodd;stroke:#ffffff;stroke-width:8;stroke-linecap:round;stroke-linejoin:miter;stroke-miterlimit:4;stroke-dasharray:none;stroke-opacity:1" />
    <rect
       y="113.12898"
       x="242.3407"
       height="29.691202"
       width="8.2475567"
       id="rect4187-0"
       style="opacity:1;fill:#ffffff;fill-opacity:1;fill-rule:evenodd;stroke:none;stroke-width:1px;stroke-linecap:butt;stroke-linejoin:miter;stroke-opacity:1" />
    <rect
       y="112.80825"
       x="268.3205"
       height="29.691202"
       width="8.2475567"
       id="rect4187-0-0"
       style="opacity:1;fill:#ffffff;fill-opacity:1;fill-rule:evenodd;stroke:none;stroke-width:1px;stroke-linecap:butt;stroke-linejoin:miter;stroke-opacity:1" />
    <g
       id="text4274"
       style="font-style:normal;font-weight:normal;font-size:85.7710495px;line-height:125%;font-family:sans-serif;letter-spacing:0px;word-spacing:0px;fill:#ffffff;fill-opacity:1;stroke:none;stroke-width:1px;stroke-linecap:butt;stroke-linejoin:miter;stroke-opacity:1"
       transform="scale(0.99413721,1.0058974)">
      <path
         id="path4279"
         style="font-style:normal;font-variant:normal;font-weight:normal;font-stretch:normal;font-family:arial;-inkscape-font-specification:arial;fill:#ffffff;fill-opacity:1"
         d="m 45.554706,242.65623 0,-61.39665 8.124797,0 0,25.21199 31.912861,0 0,-25.21199 8.124797,0 0,61.39665 -8.124797,0 0,-28.93935 -31.912861,0 0,28.93935 -8.124797,0 z"
         inkscape:connector-curvature="0" />
      <path
         id="path4281"
         style="font-style:normal;font-variant:normal;font-weight:normal;font-stretch:normal;font-family:arial;-inkscape-font-specification:arial;fill:#ffffff;fill-opacity:1"
         d="m 106.95137,242.65623 0,-61.39665 8.12479,0 0,30.44704 30.48893,-30.44704 11.01455,0 -25.75645,24.87695 26.88722,36.5197 -10.72139,0 -21.86156,-31.07525 -10.0513,9.80001 0,21.27524 -8.12479,0 z"
         inkscape:connector-curvature="0" />
      <path
         id="path4283"
         style="font-style:normal;font-variant:normal;font-weight:normal;font-stretch:normal;font-family:arial;-inkscape-font-specification:arial;fill:#ffffff;fill-opacity:1"
         d="m 208.38568,221.12971 8.1248,2.05214 q -2.5547,10.00942 -9.21369,15.28635 -6.6171,5.23504 -16.20771,5.23504 -9.92565,0 -16.16583,-4.02051 -6.1983,-4.0624 -9.46497,-11.72651 -3.22479,-7.66412 -3.22479,-16.459 0,-9.59061 3.64359,-16.71028 3.68548,-7.16154 10.42822,-10.84702 6.78463,-3.72735 14.90942,-3.72735 9.21369,0 15.49575,4.6906 6.28206,4.6906 8.753,13.19232 l -7.99915,1.88462 q -2.1359,-6.70086 -6.1983,-9.75813 -4.0624,-3.05727 -10.21882,-3.05727 -7.07779,0 -11.85215,3.39231 -4.73249,3.39232 -6.65898,9.12993 -1.9265,5.69573 -1.9265,11.76839 0,7.83163 2.26154,13.69489 2.30342,5.82137 7.11967,8.71112 4.81624,2.88975 10.42822,2.88975 6.8265,0 11.55898,-3.93676 4.73249,-3.93676 6.4077,-11.68463 z"
         inkscape:connector-curvature="0" />
      <path
         id="path4285"
         style="font-style:normal;font-variant:normal;font-weight:normal;font-stretch:normal;font-family:arial;-inkscape-font-specification:arial;fill:#ffffff;fill-opacity:1"
         d="m 242.18317,242.65623 0,-54.15135 -20.22823,0 0,-7.2453 48.66502,0 0,7.2453 -20.31199,0 0,54.15135 -8.1248,0 z"
         inkscape:connector-curvature="0" />
      <path
         id="path4287"
         style="font-style:normal;font-variant:normal;font-weight:normal;font-stretch:normal;font-family:arial;-inkscape-font-specification:arial;fill:#ffffff;fill-opacity:1"
         d="m 319.62001,181.25958 8.1248,0 0,35.47269 q 0,9.25557 -2.09402,14.70002 -2.09402,5.44445 -7.58035,8.87864 -5.44445,3.39231 -14.3231,3.39231 -8.62736,0 -14.11369,-2.9735 -5.48633,-2.97351 -7.83163,-8.58548 -2.34531,-5.65386 -2.34531,-15.41199 l 0,-35.47269 8.1248,0 0,35.43081 q 0,7.99916 1.46581,11.81027 1.5077,3.76924 5.10941,5.82138 3.6436,2.05214 8.87865,2.05214 8.9624,0 12.77352,-4.0624 3.81111,-4.0624 3.81111,-15.62139 l 0,-35.43081 z"
         inkscape:connector-curvature="0" />
    </g>
    <path
       id="path4293"
       d="m 321.14648,12.080078 c -0.61454,-0.006 -1.23925,-0.0016 -1.875,0.01563 l -265.937496,0 c 0,0 -39.953819,-1.649021 -39.220703,46.919922 l 0,198.49218 c 0,0 -1.833059,38.67188 48.751953,38.67188 l 252.007816,0 c 0,0 41.78742,2.19765 41.9707,-43.07227 l 0,-195.007806 c 0,0 3.01872,-45.642139 -35.69727,-46.019531 z M 63.333984,22.171875 c 1.099317,-0.02935 1.730469,0.0059 1.730469,0.0059 l 242.111327,0 c 40.13811,0.916395 37.02149,41.603516 37.02149,41.603516 l 0,184.195309 c -0.36656,38.67187 -38.67188,37.93946 -38.67188,37.93946 l -226.166015,0 C 25.65862,287.0157 26.392578,249.25977 26.392578,249.25977 l 0,-183.462895 c -1.443322,-40.092287 29.246193,-43.419527 36.941406,-43.625 z"
       style="opacity:1;fill:#ffffff;fill-opacity:1;fill-rule:evenodd;stroke:none;stroke-width:1px;stroke-linecap:butt;stroke-linejoin:miter;stroke-opacity:1"
       inkscape:connector-curvature="0" />
  </g>
</svg>
