<?xml version="1.0" encoding="UTF-8" standalone="no"?>
<!-- Created with Inkscape (http://www.inkscape.org/) -->

<svg
   xmlns:dc="http://purl.org/dc/elements/1.1/"
   xmlns:cc="http://creativecommons.org/ns#"
   xmlns:rdf="http://www.w3.org/1999/02/22-rdf-syntax-ns#"
   xmlns:svg="http://www.w3.org/2000/svg"
   xmlns="http://www.w3.org/2000/svg"
   xmlns:sodipodi="http://sodipodi.sourceforge.net/DTD/sodipodi-0.dtd"
   xmlns:inkscape="http://www.inkscape.org/namespaces/inkscape"
   width="21.129009mm"
   height="35.904579mm"
   viewBox="0 0 21.129009 35.904579"
   version="1.1"
   id="svg3755"
   inkscape:version="0.92.3 (2405546, 2018-03-11)"
   sodipodi:docname="Logo of Liberal Party of Hong Kong.svg">
  <defs
     id="defs3749" />
  <sodipodi:namedview
     id="base"
     pagecolor="#ffffff"
     bordercolor="#666666"
     borderopacity="1.0"
     inkscape:pageopacity="0.0"
     inkscape:pageshadow="2"
     inkscape:zoom="1.979899"
     inkscape:cx="-14.935834"
     inkscape:cy="111.29973"
     inkscape:document-units="mm"
     inkscape:current-layer="layer1"
     showgrid="false"
     fit-margin-top="0"
     fit-margin-left="0"
     fit-margin-right="0"
     fit-margin-bottom="0"
     inkscape:window-width="1920"
     inkscape:window-height="1018"
     inkscape:window-x="-8"
     inkscape:window-y="-8"
     inkscape:window-maximized="1" />
  <metadata
     id="metadata3752">
    <rdf:RDF>
      <cc:Work
         rdf:about="">
        <dc:format>image/svg+xml</dc:format>
        <dc:type
           rdf:resource="http://purl.org/dc/dcmitype/StillImage" />
        <dc:title></dc:title>
      </cc:Work>
    </rdf:RDF>
  </metadata>
  <g
     inkscape:label="Layer 1"
     inkscape:groupmode="layer"
     id="layer1"
     transform="translate(-134.29515,-80.733852)">
    <path
       inkscape:connector-curvature="0"
       style="fill:#008cd2;fill-opacity:1;fill-rule:nonzero;stroke:none;stroke-width:0.35277775"
       d="m 136.24799,106.57576 -0.003,0.062 c -0.0229,0.42475 -0.0954,0.76411 -0.24392,1.21285 h -0.56017 c -0.44556,-0.23354 -0.593,-0.30123 -1.05161,-0.4868 l -0.0786,-0.0326 0.005,0.0858 c 0.031,0.52635 0.0393,0.96488 0.0393,2.52698 0,1.64112 -0.008,2.38507 -0.0393,3.30264 -10e-4,0.0744 0.0114,0.14897 0.078,0.18707 0.061,0.0335 0.13458,0.0351 0.25734,0.0362 0.26847,-10e-4 0.43142,-0.008 0.53796,-0.0424 0.10936,-0.0272 0.16553,-0.11918 0.15813,-0.21549 v -0.32091 h 3.2892 v 0.37207 c -0.002,0.0656 0.0132,0.14066 0.0816,0.17312 0.0617,0.0307 0.13871,0.0325 0.26923,0.0336 0.26459,-0.001 0.42298,-0.008 0.52917,-0.0424 0.10725,-0.0282 0.16039,-0.11839 0.15968,-0.21188 v -0.005 -0.001 c -0.0317,-0.90231 -0.047,-1.89924 -0.047,-3.77848 v -1.16531 c 0.0938,-0.0441 0.15795,-0.0784 0.20205,-0.11265 0.0497,-0.0374 0.0819,-0.0866 0.0801,-0.13953 0,-0.0804 -0.0541,-0.13321 -0.14159,-0.18965 -0.27447,-0.18803 -0.36077,-0.24674 -0.66663,-0.44958 l -0.0346,-0.0222 -0.03,0.0284 c -0.22189,0.20355 -0.28918,0.27288 -0.47439,0.46973 h -1.99367 c 0.19332,-0.15663 0.27927,-0.23762 0.72553,-0.66766 0.14923,-0.0314 0.24447,-0.0566 0.30903,-0.0837 0.0639,-0.0243 0.11287,-0.0721 0.1111,-0.13384 0.001,-0.0367 -0.0213,-0.076 -0.0537,-0.0982 -0.0903,-0.0646 -0.27325,-0.0994 -0.70435,-0.17208 -0.14182,-0.0212 -0.36838,-0.0573 -0.65061,-0.10956 z m 14.86731,0.0104 0.009,0.0687 c 0.0226,0.18768 0.03,0.27708 0.03,0.39067 v 0.56741 h -0.61289 c 0.0624,-0.0822 0.0935,-0.17994 0.0935,-0.28577 0.002,-0.21555 -0.14245,-0.35257 -0.41444,-0.43512 -0.23671,-0.0801 -0.45989,-0.13903 -0.80667,-0.19688 l -0.0289,-0.005 -0.0956,0.10542 0.0403,0.0367 c 0.18203,0.16862 0.33525,0.37987 0.45837,0.64233 0.0374,0.0691 0.058,0.10675 0.0749,0.1385 h -0.60823 c -0.0219,-0.11148 -0.0473,-0.18494 -0.12454,-0.32711 l -0.0155,-0.0279 h -0.1571 l -0.005,0.0486 c -0.025,0.21166 -0.0378,0.27489 -0.0935,0.34933 l -5.3e-4,0.003 -0.003,0.003 c -0.0854,0.15169 -0.24783,0.28381 -0.47749,0.38964 -0.11641,0.0561 -0.19616,0.10505 -0.24908,0.17208 -0.0547,0.0688 -0.0727,0.15054 -0.0724,0.2465 0,0.1277 0.0433,0.26047 0.11989,0.37723 0.0748,0.10443 0.1683,0.16335 0.28577,0.16124 0.2092,2.6e-4 0.40462,-0.11277 0.56689,-0.30645 0.16757,-0.20849 0.2403,-0.47143 0.2403,-0.82527 v -0.003 h 0.41651 l 0.002,0.0367 c 0.0159,0.23777 0.0243,0.38095 0.0243,0.53123 0,0.31821 6e-5,0.40805 -0.0243,0.71779 v 0.002 0.031 c -0.005,0.0589 0.0449,0.12011 0.108,0.13281 0.0639,0.018 0.15195,0.0229 0.29094,0.0243 0.10054,0 0.1951,-0.008 0.2713,-0.0202 0.0759,-0.013 0.13133,-0.0259 0.1726,-0.0537 0.0441,-0.0261 0.0588,-0.0815 0.0563,-0.13333 v -0.032 h 2.17506 v 0.0532 c -0.002,0.0441 0.0184,0.0989 0.0625,0.12144 0.042,0.0233 0.0892,0.0279 0.15555,0.0279 0.13864,0 0.39506,-0.0212 0.49454,-0.0367 0.0557,-0.0124 0.10045,-0.0252 0.13643,-0.0584 0.0367,-0.0324 0.0509,-0.0829 0.0491,-0.13332 0,-0.0522 -0.008,-0.33529 -0.008,-0.35398 v -0.18242 c 0.055,-0.0257 0.0974,-0.0488 0.13229,-0.0703 -0.005,0.008 -0.009,0.0169 -0.0139,0.0243 l -0.0176,0.0388 0.10904,0.10025 0.0315,-0.0114 c 0.47201,-0.18592 0.64438,-0.26895 1.04231,-0.50178 0.0522,0.006 0.1027,0.006 0.13798,0.006 0.0914,0 0.17029,-0.012 0.23202,-0.0357 0.0572,-0.0229 0.1134,-0.053 0.11834,-0.12712 0,-0.0547 -0.0335,-0.0924 -0.0801,-0.13436 -0.33267,-0.25683 -0.4346,-0.33653 -0.77256,-0.58911 l -0.0336,-0.0259 -0.032,0.0284 c -0.18274,0.16122 -0.247,0.213 -0.42375,0.36328 h -0.87074 c 0.19332,-0.10195 0.38608,-0.20385 0.58187,-0.31109 0.0755,-2.6e-4 0.14292,-0.007 0.17467,-0.007 0.078,0 0.13287,-0.0163 0.17415,-0.0326 0.0533,-0.0257 0.0809,-0.0685 0.0827,-0.11576 0.003,-0.0138 -0.003,-0.0613 -0.0341,-0.0842 -0.0399,-0.0342 -0.10028,-0.0591 -0.25373,-0.1173 -0.1524,-0.0568 -0.39449,-0.14135 -0.7829,-0.27647 l -0.0475,-0.0176 -0.0191,0.0475 c -0.1608,0.39413 -0.24399,0.55722 -0.45107,0.91423 h -0.52813 v -0.56585 c 0.0871,-0.019 0.14915,-0.0371 0.1943,-0.0615 0.0522,-0.0226 0.091,-0.0758 0.0878,-0.12868 7.2e-4,-0.0191 3.7e-4,-0.0677 -0.0377,-0.0987 -0.0519,-0.0384 -0.12071,-0.0485 -0.29145,-0.0729 -0.17286,-0.0222 -0.44491,-0.0486 -0.87953,-0.092 z m -7.52771,0.0584 0.009,0.0682 c 0.0385,0.30868 0.046,0.51316 0.046,1.02681 v 0.67593 h -1.47019 c -0.43004,-0.23389 -0.56959,-0.30209 -1.02784,-0.49506 l -0.0816,-0.0351 0.009,0.091 c 0.0381,0.45085 0.0537,1.10877 0.0537,2.36678 0,0.29457 -0.016,1.24225 -0.047,2.85409 -7.2e-4,0.0825 0.007,0.16003 0.077,0.20412 0.0674,0.0374 0.14826,0.0375 0.29043,0.0393 0.24518,0 0.39939,-0.009 0.50487,-0.045 0.1069,-0.031 0.1653,-0.12207 0.16072,-0.22014 v -0.19017 h 4.18941 v 0.26355 c -0.002,0.0617 0.0198,0.1253 0.0724,0.15916 0.0529,0.0328 0.11459,0.0392 0.20102,0.0403 0.15416,0 0.29742,-0.008 0.41031,-0.0207 0.11571,-0.0141 0.1941,-0.0283 0.24701,-0.0615 0.0642,-0.0473 0.0883,-0.12141 0.0858,-0.21807 -0.0314,-1.37019 -0.0315,-1.3736 -0.0315,-4.31188 0.0924,-0.0476 0.15633,-0.0852 0.20361,-0.11834 0.0483,-0.0388 0.0849,-0.0751 0.0863,-0.13333 -0.007,-0.0737 -0.0515,-0.0958 -0.11111,-0.15503 -0.27834,-0.21308 -0.37559,-0.28051 -0.68109,-0.48265 l -0.0357,-0.0248 -0.0305,0.031 c -0.19897,0.1979 -0.26407,0.26565 -0.45527,0.4625 h -1.61799 v -1.22835 c 0.10372,-0.0353 0.18059,-0.0665 0.23668,-0.10077 0.0617,-0.036 0.10676,-0.0821 0.10852,-0.14883 0.003,-0.0353 -0.0209,-0.0867 -0.0625,-0.10645 -0.11571,-0.0639 -0.38696,-0.0899 -1.27279,-0.17984 z m 6.22339,1.22887 h 3.32952 l -0.005,0.004 c -0.15911,0.13264 -0.21724,0.17875 -0.36329,0.31316 h -2.18126 c -0.33549,-0.14217 -0.46105,-0.19523 -0.78032,-0.3173 z m 3.38688,0 h 0.86248 c -0.0871,0.21272 -0.12728,0.30356 -0.19431,0.4408 -0.0152,-0.0413 -0.0508,-0.0699 -0.0966,-0.10026 -0.24165,-0.15134 -0.32283,-0.20367 -0.57154,-0.34054 z m -17.85059,0.23874 h 3.28197 v 1.2361 h -3.28197 z m 15.24041,0.34003 h 2.17506 v 0.39688 h -2.17506 z m -8.47597,0.22428 h 1.53117 v 1.74769 h -1.53117 z m 2.53266,0 h 1.65675 v 1.74769 h -1.65675 z m 4.30982,0.35708 0.006,0.0837 c 0.0317,0.48965 0.0388,0.82819 0.0388,1.21801 0,0.24554 2.1e-4,0.34325 -0.016,0.66921 v 0.0248 c -0.003,0.0543 0.0332,0.11357 0.0868,0.13333 0.0543,0.0233 0.1209,0.0294 0.21756,0.0294 0.13652,0 0.26321,-0.009 0.36587,-0.0253 0.10406,-0.0201 0.17899,-0.0373 0.22944,-0.0853 l 0.005,-0.005 0.003,-0.007 c 0.012,-0.0212 0.0222,-0.0556 0.0222,-0.10645 v -0.0238 h 1.27382 v 0.32401 h -1.61701 c -0.2233,0 -0.4394,-0.0214 -0.72657,-0.0775 l -0.0811,-0.0171 0.0915,0.41289 0.0491,-0.007 c 0.26635,-0.036 0.41032,-0.0501 0.66715,-0.0501 h 1.61695 v 0.35295 h -2.22829 c -0.31185,0 -0.51822,-0.0214 -0.75706,-0.0775 l -0.0827,-0.0202 0.0925,0.42375 0.0491,-0.008 c 0.27411,-0.0434 0.4258,-0.0574 0.7059,-0.0574 h 0.35244 c -0.14076,0.25047 -0.32819,0.37448 -0.70849,0.45527 -0.13264,0.0275 -0.22926,0.0626 -0.29559,0.12712 -0.0681,0.0646 -0.0928,0.155 -0.0925,0.25942 0,0.29986 0.20743,0.54622 0.47801,0.54622 0.14535,-8e-4 0.3358,-0.0848 0.48679,-0.19844 0.27905,-0.21202 0.44371,-0.54592 0.44442,-0.88212 0,-0.11042 -0.0132,-0.19493 -0.0537,-0.30747 h 0.70848 l 0.0114,0.0253 c 0.0903,0.20955 0.15283,0.48782 0.15142,0.70125 0,0.0289 -2e-5,0.0611 -0.007,0.10697 v 0.004 0.004 c 0,0.0773 -0.008,0.15335 -0.008,0.20309 0,0.0889 0.023,0.1683 0.0703,0.22686 0.0455,0.0596 0.11704,0.0951 0.1943,0.0951 0.29351,-0.007 0.60237,-0.30087 0.60978,-0.59014 -0.007,-0.25365 -0.26766,-0.51 -0.71675,-0.7767 h 1.2485 l -0.014,0.008 0.0367,0.0491 c 0.14217,0.19191 0.28263,0.55085 0.3359,0.84542 0.0198,0.12242 0.0285,0.1826 0.0388,0.22635 0.01,0.0413 0.0226,0.0657 0.0367,0.0935 l 0.002,0.003 0.001,0.002 c 0.0487,0.0713 0.12603,0.11711 0.20929,0.11782 0.2794,-0.006 0.55711,-0.28427 0.56276,-0.56896 0,-0.1658 -0.091,-0.31384 -0.26459,-0.44648 -0.14675,-0.11077 -0.35415,-0.21768 -0.63355,-0.33021 h 1.26659 l -0.0388,0.0284 0.0537,0.047 c 0.2674,0.22366 0.54675,0.59592 0.79582,1.04748 0.048,0.0836 0.0837,0.14199 0.12919,0.18397 0.0437,0.0416 0.10041,0.0607 0.15968,0.0599 0.27269,-0.008 0.5041,-0.32419 0.50797,-0.64027 0,-0.20638 -0.15275,-0.36056 -0.43356,-0.47698 -0.24694,-0.10936 -0.47076,-0.18856 -0.70642,-0.24959 h 1.39268 c 0.0589,-0.002 0.12193,-0.0185 0.13074,-0.0971 -0.003,-0.043 -0.0181,-0.0498 -0.0315,-0.0703 -0.0138,-0.0162 -0.0304,-0.0348 -0.0481,-0.0506 l -0.004,-0.004 -0.004,-0.003 c -0.2801,-0.17851 -0.3964,-0.25136 -0.62218,-0.38964 0.0222,-10e-4 0.0448,-0.007 0.0656,-0.0181 0.0247,-0.0116 0.0491,-0.0448 0.0481,-0.0811 -0.006,-0.0593 -0.0406,-0.0699 -0.0703,-0.0946 -0.21802,-0.14923 -0.31439,-0.21254 -0.46044,-0.30179 0.007,-0.002 0.0123,-0.002 0.0243,-0.01 0.0547,-0.0257 0.0872,-0.0911 0.0837,-0.15606 -0.024,-0.50836 -0.0238,-0.62932 -0.0238,-0.86145 v -0.18087 c 0.097,-0.0451 0.15128,-0.071 0.18655,-0.0971 0.0437,-0.0247 0.0615,-0.0831 0.0558,-0.11162 0,-0.0677 -0.045,-0.11042 -0.10955,-0.15451 -0.24342,-0.16581 -0.32358,-0.21865 -0.59169,-0.37776 l -0.031,-0.0185 -0.0289,0.0233 c -0.2212,0.18415 -0.22675,0.18723 -0.41548,0.3421 h -3.5233 c -0.37571,-0.16933 -0.49663,-0.22071 -0.87799,-0.36535 z m -13.60692,0.57568 h 3.28197 v 1.29242 h -3.28197 z m 14.56552,0.0791 h 0.15503 l -0.0744,0.078 0.0264,0.0372 c 0.15522,0.21484 0.26229,0.41052 0.33072,0.61443 0.0399,0.12312 0.0632,0.19346 0.10129,0.24391 0.003,0.006 0.007,0.0118 0.0124,0.016 h -0.5514 z m 0.29765,0 h 0.97617 v 0.9896 h -0.41341 c 0.13264,-0.078 0.23383,-0.23184 0.23771,-0.38706 0.002,-0.12559 -0.0528,-0.23701 -0.18759,-0.32556 -0.12276,-0.085 -0.31372,-0.16727 -0.61288,-0.27698 z m 1.85157,0 h 0.48007 l -0.004,0.0155 c -0.11289,0.37959 -0.25405,0.75996 -0.37258,0.9741 h -0.10336 z m 0.59996,0 h 0.79065 v 0.9896 h -0.92242 c 0.19685,-0.13723 0.4201,-0.30566 0.61236,-0.46406 0.0575,-0.006 0.10387,-0.0124 0.14056,-0.0202 0.0346,-0.008 0.0556,-0.009 0.0806,-0.0263 0.0416,-0.0162 0.0695,-0.054 0.0713,-0.10025 0.001,-0.0187 -0.008,-0.0596 -0.0341,-0.0832 -0.0684,-0.0614 -0.21227,-0.10897 -0.73897,-0.29559 z m -10.55078,0.99838 h 1.53945 v 2.03709 h -1.53945 z m 2.53318,0 h 1.65675 v 2.03709 h -1.65675 z m 7.41764,0.2527 h 1.39061 v 0.0238 l 0.002,0.008 c 0.0102,0.0448 0.0464,0.0834 0.0894,0.0982 0.0445,0.0173 0.0969,0.0222 0.1664,0.0222 0.0212,0 0.0435,-7.9e-4 0.0693,-0.003 -0.0543,0.048 -0.10686,0.0956 -0.19224,0.17467 h -1.52552 z m -16.71474,0.22324 h 3.28197 v 1.46709 h -3.28197 z m 16.71474,0.36225 h 2.35128 c -0.16016,0.12876 -0.24135,0.19632 -0.41703,0.35295 h -1.93425 z m -8.78189,3.02669 c -0.0265,0 -0.0413,0.029 -0.0734,0.10697 l -0.663,1.67793 c -0.0353,0.0905 -0.0715,0.15932 -0.12816,0.20051 -0.0501,-0.0253 -0.1134,-0.0679 -0.18655,-0.14418 -0.15593,-0.16545 -0.33711,-0.40399 -0.57206,-0.7028 0.2667,-0.22013 0.3483,-0.40086 0.3483,-0.59841 0,-0.17956 -0.10613,-0.317 -0.1788,-0.36639 -0.14288,-0.0988 -0.31941,-0.11472 -0.48628,-0.11472 -0.0811,0 -0.2823,0.007 -0.37155,0.007 -0.055,0 -0.22117,-0.007 -0.36122,-0.007 -0.0395,0 -0.0579,0.006 -0.0579,0.0238 0,0.019 0.0159,0.0243 0.0444,0.0243 0.0367,0 0.0813,0.002 0.10284,0.007 0.0868,0.0194 0.10837,0.0619 0.11472,0.15297 0.005,0.0854 0.005,0.16048 0.005,0.56688 v 0.46974 c 0,0.24554 3.2e-4,0.45713 -0.0134,0.56896 -0.01,0.078 -0.0236,0.13564 -0.0765,0.14728 -0.024,0.005 -0.0557,0.01 -0.0956,0.01 -0.0318,0 -0.0419,0.009 -0.0419,0.0227 0,0.0177 0.0188,0.0264 0.0537,0.0264 0.10513,0 0.27133,-0.009 0.32143,-0.009 0.0392,0 0.23395,0.009 0.38705,0.009 0.0346,0 0.0532,-0.009 0.0532,-0.0264 0,-0.0141 -0.01,-0.0227 -0.0315,-0.0227 -0.0325,0 -0.0902,-0.005 -0.12868,-0.01 -0.0801,-0.0116 -0.0961,-0.0693 -0.10283,-0.14728 -0.0138,-0.11183 -0.0139,-0.32335 -0.0139,-0.57206 v -0.0377 c 0,-0.0155 0.008,-0.0202 0.0207,-0.0202 l 0.22944,0.005 c 0.0187,0 0.035,0.003 0.047,0.0181 0.0349,0.0409 0.15616,0.22255 0.262,0.37001 0.14746,0.20567 0.24746,0.33032 0.3607,0.3917 0.0464,0.0256 0.10118,0.0372 0.17053,0.0439 0.008,0.005 0.0206,0.008 0.0393,0.008 0.0229,0 0.0294,-0.001 0.0522,-0.002 0.009,1.1e-4 0.012,0.002 0.0212,0.002 h 0.25011 c 0.0171,0 0.0292,-0.002 0.0377,-0.007 0.0746,0.002 0.15954,0.007 0.22945,0.007 0.0289,0 0.0444,-0.006 0.0444,-0.0264 0,-0.0162 -0.008,-0.0227 -0.0388,-0.0227 h -0.0403 c -0.0822,0 -0.10542,-0.034 -0.10542,-0.0816 0,-0.0328 0.0135,-0.0966 0.0403,-0.16329 l 0.14211,-0.38241 c 0.005,-0.0162 0.01,-0.0217 0.0233,-0.0217 h 0.58756 c 0.0138,0 0.0228,0.006 0.0274,0.0191 l 0.21032,0.56586 c 0.0141,0.0324 -0.004,0.0569 -0.0227,0.0615 -0.0265,0.002 -0.0377,0.009 -0.0377,0.0253 0,0.0177 0.0327,0.0172 0.0796,0.0196 0.21131,0.006 0.40307,0.007 0.49868,0.007 0.0974,0 0.12092,-0.006 0.12092,-0.0264 0,-0.0187 -0.0128,-0.0227 -0.0336,-0.0227 -0.0317,0 -0.071,-0.003 -0.11162,-0.01 -0.055,-0.0134 -0.13078,-0.0505 -0.23203,-0.29146 -0.16863,-0.40604 -0.59056,-1.49585 -0.65371,-1.64331 -0.0257,-0.0617 -0.0421,-0.0853 -0.0661,-0.0853 z m 5.49527,0 c -0.0254,0 -0.0411,0.029 -0.0729,0.10697 l -0.66249,1.67792 c -0.0529,0.133 -0.10311,0.22355 -0.22376,0.23978 -0.0219,0.002 -0.0587,0.005 -0.0827,0.005 -0.0208,0 -0.0315,0.007 -0.0315,0.0227 0,0.0201 0.0161,0.0263 0.0506,0.0263 0.13723,0 0.28146,-0.009 0.31109,-0.009 0.0818,0 0.19509,0.009 0.27905,0.009 0.0296,0 0.045,-0.006 0.045,-0.0263 0,-0.0162 -0.007,-0.0227 -0.0388,-0.0227 h -0.0398 c -0.0822,0 -0.10593,-0.034 -0.10593,-0.0816 0,-0.0328 0.0137,-0.0966 0.0398,-0.1633 l 0.14262,-0.3824 c 0.005,-0.0162 0.0113,-0.0217 0.0232,-0.0217 h 0.5886 c 0.0123,0 0.0219,0.006 0.0269,0.0191 l 0.2098,0.56586 c 0.0134,0.0324 -0.005,0.0569 -0.0238,0.0615 -0.0254,0.002 -0.0367,0.009 -0.0367,0.0253 0,0.0177 0.0312,0.0172 0.0796,0.0196 0.21096,0.006 0.40343,0.007 0.49868,0.007 0.0977,0 0.11989,-0.006 0.11989,-0.0263 0,-0.0187 -0.0115,-0.0227 -0.0331,-0.0227 -0.0321,0 -0.0718,-0.003 -0.11059,-0.01 -0.0554,-0.0134 -0.13306,-0.0505 -0.23254,-0.29146 -0.16863,-0.40605 -0.59075,-1.49585 -0.65319,-1.64331 -0.0268,-0.0617 -0.0421,-0.0853 -0.0672,-0.0853 z m 2.95899,0.0217 c -0.0152,0 -0.0239,0.0156 -0.031,0.0501 -0.007,0.0215 -0.0558,0.26479 -0.0558,0.30748 0,0.0289 0.006,0.0424 0.0232,0.0424 0.0166,0 0.0233,-0.01 0.0289,-0.032 0.006,-0.0204 0.0194,-0.0533 0.0455,-0.0935 0.0395,-0.0582 0.10305,-0.0726 0.2558,-0.0775 l 0.39326,-0.0103 v 1.09605 c 0,0.24518 -2e-4,0.45626 -0.014,0.56844 -0.008,0.078 -0.0234,0.13599 -0.076,0.14728 -0.0233,0.005 -0.0554,0.01 -0.0956,0.01 -0.0317,0 -0.0419,0.009 -0.0419,0.0227 0,0.0177 0.0183,0.0259 0.0532,0.0259 0.10442,0 0.27162,-0.008 0.33124,-0.008 0.0744,0 0.24034,0.008 0.41496,0.008 0.0296,0 0.0496,-0.008 0.0496,-0.0259 0,-0.0138 -0.0133,-0.0227 -0.0419,-0.0227 -0.0395,0 -0.0973,-0.005 -0.13435,-0.01 -0.0794,-0.0113 -0.0947,-0.0694 -0.10284,-0.14521 -0.0138,-0.1143 -0.0139,-0.32533 -0.0139,-0.57051 v -1.09605 l 0.3328,0.008 c 0.23459,0.006 0.30612,0.0802 0.31212,0.14934 l 0.002,0.03 c 0.002,0.0402 0.007,0.0543 0.0289,0.0543 0.0155,0 0.0202,-0.0169 0.0238,-0.0444 0,-0.0655 0.007,-0.22964 0.007,-0.29404 0.0287,0.005 0.0615,0.0157 0.0884,0.0305 0.0501,0.0286 0.11683,0.0969 0.18139,0.19534 0.0924,0.13934 0.44622,0.72623 0.46457,0.76997 0.0342,0.0769 0.0605,0.13599 0.0605,0.27957 v 0.2186 c 0,0.0434 1e-5,0.15585 -0.008,0.26768 -0.005,0.078 -0.0287,0.13564 -0.0816,0.14728 -0.0236,0.005 -0.0548,0.01 -0.0915,0.01 -0.0289,0 -0.0439,0.009 -0.0439,0.0227 0,0.0198 0.0219,0.0264 0.0589,0.0264 0.0974,0 0.26372,-0.009 0.32969,-0.009 0.0709,0 0.23814,0.009 0.40359,0.009 0.0342,0 0.0558,-0.009 0.0558,-0.0264 0,-0.0141 -0.0131,-0.0227 -0.0424,-0.0227 -0.037,0 -0.0942,-0.005 -0.13229,-0.01 -0.0787,-0.0116 -0.10184,-0.0693 -0.10748,-0.14728 -0.008,-0.11183 -0.009,-0.22429 -0.009,-0.26768 v -0.2186 c 0,-0.0878 2.9e-4,-0.17032 0.0398,-0.26768 0.0483,-0.11395 0.4167,-0.7418 0.50384,-0.84904 0.0579,-0.0716 0.0878,-0.10464 0.14314,-0.13075 0.0384,-0.0215 0.0893,-0.032 0.11576,-0.032 0.0286,0 0.0501,-0.008 0.0501,-0.0269 0,-0.0155 -0.0184,-0.0212 -0.0481,-0.0212 -0.0494,0 -0.22343,0.007 -0.28164,0.007 -0.0765,0 -0.16037,-0.007 -0.24856,-0.007 -0.0317,0 -0.0444,0.006 -0.0444,0.0238 0,0.0162 0.0232,0.0218 0.0475,0.0264 0.0452,0.0102 0.0553,0.04 0.0553,0.0672 0,0.0353 -0.01,0.0798 -0.0372,0.13902 -0.0363,0.0829 -0.36903,0.67011 -0.39584,0.73432 -0.042,-0.0748 -0.41032,-0.71849 -0.447,-0.79892 -0.019,-0.037 -0.032,-0.0688 -0.032,-0.0899 0,-0.0215 0.0129,-0.0433 0.0372,-0.0486 0.0392,-0.0106 0.0574,-0.0132 0.0574,-0.0295 0,-0.0166 -0.0137,-0.0238 -0.0398,-0.0238 -0.11924,0 -0.22623,0.007 -0.28268,0.007 -0.0845,0 -0.2698,-0.007 -0.32246,-0.007 -0.002,-0.0119 -0.007,-0.0191 -0.0176,-0.0191 -0.0109,0 -0.0322,0.005 -0.0713,0.0134 -0.0392,0.006 -0.0974,0.0129 -0.18241,0.0129 h -1.04439 c -0.0871,0 -0.18805,-0.005 -0.26354,-0.0129 -0.0663,-0.005 -0.0918,-0.0315 -0.11369,-0.0315 z m -11.60033,0.0155 c -0.013,0 -0.0279,0.008 -0.0413,0.0108 -0.0205,0.005 -0.0636,0.0105 -0.11368,0.0165 -0.0504,10e-4 -0.57614,0.002 -0.6594,0.002 -0.0374,0 -0.0978,-0.002 -0.16588,-0.005 -0.0663,0 -0.14303,-0.003 -0.21394,-0.003 -0.0395,0 -0.0574,0.006 -0.0574,0.0238 0,0.0191 0.0148,0.0243 0.0434,0.0243 0.0374,0 0.0829,0.002 0.10335,0.007 0.0875,0.0194 0.10805,0.0619 0.11369,0.15296 0.005,0.0854 0.005,0.16049 0.005,0.56689 v 0.46974 c 0,0.24553 -2.2e-4,0.45713 -0.0129,0.56896 -0.0106,0.078 -0.0234,0.13564 -0.076,0.14728 -0.0243,0.005 -0.0563,0.01 -0.0961,0.01 -0.0317,0 -0.0429,0.009 -0.0429,0.0227 0,0.0177 0.0197,0.0263 0.0543,0.0263 0.0522,0 0.1207,-0.007 0.18138,-0.007 0.0635,-0.002 0.12197,-0.002 0.1509,-0.002 0.0794,0 0.16064,0.002 0.27388,0.009 0.1136,0.003 0.2591,0.008 0.4563,0.008 0.10055,0 0.12342,-2.7e-4 0.14212,-0.0698 0.0127,-0.0529 0.0346,-0.23472 0.0346,-0.29611 0,-0.0268 1.7e-4,-0.0475 -0.0217,-0.0475 -0.0176,0 -0.0228,0.0105 -0.0284,0.0398 -0.0187,0.10936 -0.0506,0.1646 -0.11834,0.19741 -0.0695,0.0325 -0.17942,0.0326 -0.24856,0.0326 -0.26988,0 -0.31116,-0.041 -0.31574,-0.2248 -0.004,-0.078 0,-0.32343 0,-0.41444 v -0.21197 c 0,-0.0155 0.002,-0.0258 0.0155,-0.0258 0.0631,0 0.32475,0.003 0.37414,0.008 0.0981,0.0102 0.13438,0.0506 0.14779,0.10491 0.008,0.0339 0.008,0.0691 0.0108,0.0966 0,0.0127 0.006,0.0233 0.0233,0.0233 0.0243,0 0.0243,-0.03 0.0243,-0.0512 0,-0.0198 0.008,-0.12502 0.0109,-0.17829 0.0102,-0.13687 0.0212,-0.17962 0.0212,-0.19585 0,-0.0162 -0.009,-0.0217 -0.0191,-0.0217 -0.0131,0 -0.0242,0.0134 -0.0429,0.0357 -0.0233,0.0261 -0.0622,0.0345 -0.12609,0.0398 -0.0614,0.005 -0.36382,0.005 -0.42168,0.005 -0.0166,0 -0.0181,-0.0104 -0.0181,-0.0295 v -0.67498 c 0,-0.0198 0.005,-0.0279 0.0181,-0.0279 0.0533,0 0.32899,0.006 0.37414,0.0114 0.13159,0.0162 0.1582,0.0481 0.17725,0.0961 0.0123,0.0318 0.015,0.0769 0.015,0.0956 0,0.0247 0.007,0.0377 0.0243,0.0377 0.0187,0 0.0235,-0.0162 0.0264,-0.0289 0.005,-0.0325 0.0103,-0.15009 0.0124,-0.17725 0.009,-0.12241 0.0222,-0.15442 0.0222,-0.17311 0,-0.0134 -0.003,-0.0243 -0.0165,-0.0243 z m -5.78,0.0217 c -0.0406,0 -0.0589,0.005 -0.0589,0.0238 0,0.0187 0.0145,0.0248 0.0445,0.0248 0.0342,0 0.0667,0.001 0.0878,0.007 0.0875,0.0194 0.10804,0.0623 0.11368,0.15296 0.005,0.0857 0.005,0.16065 0.005,0.56741 v 0.46974 c 0,0.24517 -3e-5,0.45625 -0.0134,0.56843 -0.0102,0.078 -0.0236,0.13599 -0.0765,0.14728 -0.024,0.005 -0.0554,0.01 -0.0956,0.01 -0.0314,0 -0.0419,0.009 -0.0419,0.0227 0,0.0177 0.0187,0.0258 0.0532,0.0258 0.0522,0 0.12071,-0.006 0.18139,-0.006 0.0635,-0.002 0.12199,-0.003 0.14986,-0.003 0.10936,0 0.20393,0.002 0.32246,0.008 0.11853,0.003 0.25636,0.008 0.44545,0.008 0.13758,0 0.15104,-0.0135 0.16691,-0.0713 0.0205,-0.078 0.0393,-0.27835 0.0393,-0.30799 0,-0.0314 -0.003,-0.0455 -0.0217,-0.0455 -0.0212,0 -0.0259,0.0167 -0.0284,0.0403 -0.005,0.0511 -0.0368,0.12582 -0.0682,0.15969 -0.0663,0.0727 -0.17038,0.0755 -0.30903,0.0755 -0.20637,0 -0.2742,-0.0192 -0.31936,-0.0594 -0.0554,-0.0473 -0.0553,-0.23161 -0.0553,-0.57309 v -0.46974 c 0,-0.40676 4e-5,-0.48169 0.006,-0.56741 0.005,-0.0931 0.0263,-0.13956 0.0972,-0.15296 0.0318,-0.005 0.0744,-0.007 0.10335,-0.007 0.0318,0 0.047,-0.006 0.047,-0.0248 0,-0.0183 -0.0184,-0.0238 -0.0558,-0.0238 -0.10266,0 -0.29443,0.007 -0.35863,0.007 -0.0702,0 -0.23636,-0.007 -0.36019,-0.007 z m 1.61902,0 c -0.0409,0 -0.0631,0.006 -0.0631,0.0212 0,0.0215 0.0166,0.0269 0.0424,0.0269 0.0307,0 0.066,0.002 0.0946,0.0109 0.0586,0.0127 0.0843,0.0583 0.0899,0.14935 0.005,0.0854 0.005,0.16049 0.005,0.56689 v 0.46973 c 0,0.25859 -2.2e-4,0.47038 -0.0129,0.58292 -0.007,0.0773 -0.0236,0.12168 -0.0754,0.13332 -0.025,0.005 -0.057,0.01 -0.0961,0.01 -0.031,0 -0.0424,0.009 -0.0424,0.0227 0,0.0176 0.0187,0.0263 0.0532,0.0263 0.10478,0 0.2716,-0.009 0.33228,-0.009 0.0713,0 0.23707,0.009 0.41134,0.009 0.0293,0 0.0501,-0.009 0.0501,-0.0263 0,-0.0141 -0.0133,-0.0227 -0.0419,-0.0227 -0.0399,0 -0.0976,-0.005 -0.13539,-0.01 -0.0783,-0.0116 -0.097,-0.0591 -0.10542,-0.13074 -0.0102,-0.11501 -0.0103,-0.32691 -0.0103,-0.5855 v -0.46973 c 0,-0.4064 4e-5,-0.48152 0.006,-0.56689 0.005,-0.0935 0.026,-0.13921 0.0977,-0.15297 0.031,-0.005 0.0517,-0.007 0.0786,-0.007 0.0265,0 0.0424,-0.005 0.0424,-0.0269 0,-0.0155 -0.0214,-0.0212 -0.0553,-0.0212 -0.10054,0 -0.25564,0.007 -0.32091,0.007 -0.0773,0 -0.24397,-0.007 -0.34416,-0.007 z m 1.15342,0 c -0.0395,0 -0.0579,0.006 -0.0579,0.0238 0,0.0191 0.0157,0.0243 0.045,0.0243 0.0363,0 0.0819,0.002 0.10232,0.007 0.0871,0.0194 0.10926,0.0619 0.1142,0.15296 0.006,0.0854 0.006,0.16049 0.006,0.56689 v 0.46974 c 0,0.24553 -1.9e-4,0.45713 -0.0139,0.56896 -0.01,0.078 -0.0234,0.13564 -0.076,0.14728 -0.0236,0.005 -0.055,0.01 -0.0956,0.01 -0.031,0 -0.0429,0.009 -0.0429,0.0227 0,0.0176 0.0192,0.0263 0.0527,0.0263 0.054,0 0.12278,-0.007 0.18345,-0.007 0.0635,-0.002 0.12129,-0.002 0.14987,-0.002 0.0392,0 0.11854,0.002 0.19792,0.009 0.0758,0.003 0.15273,0.008 0.18448,0.008 0.48472,0 0.70435,-0.29559 0.70435,-0.58239 0,-0.31327 -0.26363,-0.50209 -0.48059,-0.57723 0.1457,-0.11818 0.26923,-0.24879 0.26923,-0.46716 0,-0.14216 -0.0844,-0.401 -0.56172,-0.401 -0.0889,0 -0.19196,0.007 -0.32143,0.007 -0.0529,0 -0.2198,-0.007 -0.35915,-0.007 z m 7.3365,0 c -0.0402,0 -0.0574,0.005 -0.0574,0.0238 0,0.0187 0.0152,0.0248 0.0444,0.0248 0.0339,0 0.0655,0.001 0.0873,0.007 0.0861,0.0194 0.10772,0.0623 0.11265,0.15296 0.005,0.0857 0.005,0.16066 0.005,0.56741 v 0.46974 c 0,0.24518 1.4e-4,0.45625 -0.0129,0.56844 -0.0109,0.078 -0.0239,0.13599 -0.0765,0.14728 -0.0233,0.005 -0.0549,0.01 -0.0951,0.01 -0.031,0 -0.0429,0.009 -0.0429,0.0227 0,0.0176 0.0197,0.0258 0.0543,0.0258 0.0526,0 0.12052,-0.006 0.18191,-0.006 0.0632,-0.002 0.12077,-0.003 0.14934,-0.003 0.10901,0 0.20358,0.002 0.32246,0.008 0.11783,0.003 0.25601,0.008 0.44545,0.008 0.13688,0 0.15036,-0.0135 0.16588,-0.0713 0.0215,-0.078 0.0388,-0.27836 0.0388,-0.30799 0,-0.0314 -0.002,-0.0455 -0.0191,-0.0455 -0.0219,0 -0.0266,0.0167 -0.0305,0.0403 -0.005,0.0511 -0.0367,0.12581 -0.0677,0.15968 -0.066,0.0727 -0.16894,0.0755 -0.31005,0.0755 -0.20462,0 -0.27353,-0.0192 -0.31833,-0.0594 -0.0554,-0.0473 -0.0553,-0.2316 -0.0553,-0.57309 v -0.46974 c 0,-0.40675 2.3e-4,-0.48168 0.005,-0.5674 0.006,-0.0931 0.0268,-0.13956 0.0977,-0.15297 0.0314,-0.005 0.0741,-0.007 0.10335,-0.007 0.0321,0 0.0475,-0.006 0.0475,-0.0248 0,-0.0183 -0.0184,-0.0238 -0.0558,-0.0238 -0.10266,0 -0.29549,0.007 -0.35863,0.007 -0.0709,0 -0.23775,-0.007 -0.36122,-0.007 z m 2.03605,0 c -0.0395,0 -0.0589,0.006 -0.0589,0.0238 0,0.0191 0.016,0.0243 0.045,0.0243 0.0374,0 0.0822,0.002 0.10335,0.007 0.0878,0.0194 0.10753,0.0619 0.11317,0.15296 0.005,0.0854 0.005,0.16049 0.005,0.56689 v 0.46974 c 0,0.24553 -2.1e-4,0.45713 -0.0129,0.56896 -0.0106,0.078 -0.0238,0.13564 -0.076,0.14728 -0.0247,0.005 -0.0564,0.01 -0.0956,0.01 -0.0321,0 -0.0424,0.009 -0.0424,0.0227 0,0.0176 0.019,0.0263 0.0522,0.0263 0.10549,0 0.27248,-0.009 0.3328,-0.009 0.0681,0 0.23446,0.009 0.4098,0.009 0.0279,0 0.0501,-0.009 0.0501,-0.0263 0,-0.0141 -0.0135,-0.0227 -0.0424,-0.0227 -0.0406,0 -0.0984,-0.005 -0.1354,-0.01 -0.0794,-0.0116 -0.0939,-0.0692 -0.10232,-0.1447 -0.013,-0.11427 -0.0134,-0.32598 -0.0134,-0.57151 v -1.06919 c 0,-0.0289 0.009,-0.0452 0.0217,-0.0501 0.0236,-0.008 0.0632,-0.0109 0.10232,-0.0109 0.0607,0 0.16953,0.0157 0.26407,0.10387 0.14711,0.13441 0.15555,0.31265 0.15555,0.4005 0,0.27269 -0.20601,0.44079 -0.35347,0.44079 -0.0557,0 -0.0744,0.008 -0.0744,0.0295 0,0.019 0.0188,0.0218 0.0315,0.0253 0.0141,0.002 0.0433,0.002 0.0553,0.002 0.37536,0 0.64957,-0.26688 0.64957,-0.64647 0,-0.14252 -0.0736,-0.26207 -0.13177,-0.31781 -0.0423,-0.0413 -0.1616,-0.15244 -0.49145,-0.15244 -0.121,0 -0.27393,0.007 -0.38188,0.007 -0.0737,0 -0.24067,-0.007 -0.37931,-0.007 z m 3.4432,0 c -0.0399,0 -0.0574,0.006 -0.0574,0.0238 0,0.0191 0.0153,0.0243 0.045,0.0243 0.0363,0 0.0806,0.002 0.10284,0.007 0.0868,0.0194 0.10701,0.0619 0.11265,0.15296 0.006,0.0854 0.006,0.16049 0.006,0.56689 v 0.46974 c 0,0.24553 -1.9e-4,0.45713 -0.0139,0.56896 -0.0109,0.078 -0.0244,0.13564 -0.077,0.14728 -0.0229,0.005 -0.0558,0.01 -0.0946,0.01 -0.0314,0 -0.0424,0.009 -0.0424,0.0227 0,0.0176 0.0187,0.0263 0.0532,0.0263 0.10583,0 0.27133,-0.009 0.32143,-0.009 0.0395,0 0.23534,0.009 0.38809,0.009 0.0349,0 0.0527,-0.009 0.0527,-0.0263 0,-0.0141 -0.0109,-0.0227 -0.032,-0.0227 -0.031,0 -0.0885,-0.005 -0.12868,-0.01 -0.0794,-0.0116 -0.0945,-0.0693 -0.10335,-0.14728 -0.0123,-0.11183 -0.0124,-0.32335 -0.0124,-0.57206 v -0.0377 c 0,-0.0155 0.007,-0.0202 0.0212,-0.0202 l 0.22893,0.005 c 0.0187,0 0.0345,0.003 0.0475,0.0181 0.0346,0.0409 0.15529,0.22254 0.26148,0.37 0.14711,0.20567 0.24708,0.33033 0.36173,0.39171 0.0674,0.0381 0.13402,0.0517 0.28112,0.0517 h 0.25011 c 0.0321,0 0.0501,-0.007 0.0501,-0.0263 0,-0.0141 -0.0105,-0.0227 -0.032,-0.0227 -0.0208,0 -0.0438,-0.003 -0.0724,-0.007 -0.0402,-0.008 -0.14723,-0.0265 -0.2961,-0.18138 -0.15522,-0.16546 -0.33817,-0.404 -0.57206,-0.7028 0.26635,-0.22014 0.34882,-0.40086 0.34882,-0.59842 0,-0.17956 -0.10698,-0.31699 -0.18035,-0.36638 -0.14253,-0.0988 -0.31892,-0.11472 -0.48473,-0.11472 -0.0822,0 -0.28228,0.007 -0.37259,0.007 -0.055,0 -0.22081,-0.007 -0.36121,-0.007 z m -12.17962,0.10903 c 0.22754,0 0.32918,0.23526 0.32918,0.41342 0,0.13228 -0.0391,0.22796 -0.10748,0.2837 -0.0444,0.0409 -0.10355,0.0512 -0.19069,0.0512 -0.0607,0 -0.0999,-0.003 -0.12351,-0.008 -0.0106,-0.003 -0.0186,-0.008 -0.0186,-0.03 v -0.65991 c 0,-0.0293 0.005,-0.0393 0.0232,-0.045 0.0268,-0.006 0.0505,-0.006 0.0879,-0.006 z m 3.52795,0.0165 c 0.15558,0 0.40256,0.10963 0.40256,0.48886 0,0.21873 -0.0751,0.34158 -0.15554,0.40049 -0.0473,0.0346 -0.0807,0.045 -0.18656,0.045 -0.0653,0 -0.14476,-0.007 -0.2005,-0.0269 -0.0187,-0.008 -0.0232,-0.0181 -0.0232,-0.0481 v -0.81131 c 0,-0.0212 0.005,-0.0324 0.0232,-0.0377 0.0268,-0.008 0.0737,-0.0104 0.14004,-0.0104 z m 9.33483,0 c 0.15558,0 0.4036,0.10963 0.4036,0.48886 0,0.21873 -0.0767,0.34158 -0.15607,0.40049 -0.0466,0.0346 -0.0807,0.045 -0.18655,0.045 -0.066,0 -0.14441,-0.007 -0.2005,-0.0269 -0.0187,-0.008 -0.0233,-0.0181 -0.0233,-0.0481 v -0.81131 c 0,-0.0212 0.005,-0.0324 0.0233,-0.0377 0.0265,-0.008 0.0736,-0.0104 0.13952,-0.0104 z m -7.41143,0.36277 c 0.008,0 0.011,0.0127 0.0134,0.0243 l 0.23719,0.65939 c 0.003,0.009 -5e-5,0.0165 -0.0124,0.0165 h -0.48576 c -0.0106,0 -0.013,-0.007 -0.0109,-0.0196 l 0.24236,-0.6563 c 0.003,-0.0116 0.009,-0.0243 0.016,-0.0243 z m 5.49527,0 c 0.009,0 0.0115,0.0127 0.0139,0.0243 l 0.2372,0.65939 c 0.003,0.009 -3e-5,0.0165 -0.0134,0.0165 h -0.48576 c -0.009,0 -0.0125,-0.007 -0.009,-0.0196 l 0.24185,-0.65629 c 0.003,-0.0116 0.009,-0.0243 0.0155,-0.0243 z m -11.04118,0.478 c 0.0395,0 0.0652,2.7e-4 0.11317,0.003 0.10265,0.006 0.16304,0.0244 0.21807,0.0636 0.20038,0.14182 0.25528,0.36682 0.25528,0.53227 0,0.27764 -0.19998,0.34158 -0.31781,0.34158 -0.0607,0 -0.12201,-0.002 -0.19327,-0.0315 -0.0843,-0.0346 -0.092,-0.0803 -0.092,-0.25631 v -0.63408 c 0,-0.0134 0.005,-0.0186 0.0165,-0.0186 z"
       id="path2421" />
    <path
       inkscape:connector-curvature="0"
       id="path2483"
       d="m 144.93769,86.339912 c -3.55257,0 -6.4369,2.883027 -6.4369,6.435594 0,3.552568 2.88433,6.435595 6.4369,6.435595 3.55257,0 6.43559,-2.883027 6.43559,-6.435595 0,-3.552567 -2.88302,-6.435595 -6.43559,-6.435594 z m 0,2.635578 c 2.0973,1e-6 3.79871,1.702717 3.79871,3.800016 0,2.097299 -1.70141,3.798716 -3.79871,3.798716 -2.0973,0 -3.80002,-1.701417 -3.80002,-3.798716 0,-2.097299 1.70272,-3.800016 3.80002,-3.800016 z"
       style="fill:#008cd2;fill-opacity:1;stroke:none;stroke-width:0.08317407;stroke-linecap:round;stroke-linejoin:miter;stroke-miterlimit:4;stroke-dasharray:none;stroke-opacity:1" />
    <circle
       r="2.4037364"
       cy="83.137589"
       cx="144.93704"
       style="opacity:1;fill:#61bc46;fill-opacity:1;stroke:none;stroke-width:0.1145954;stroke-linecap:round;stroke-linejoin:miter;stroke-miterlimit:4;stroke-dasharray:none;stroke-opacity:1"
       id="path2474" />
    <path
       inkscape:connector-curvature="0"
       style="opacity:1;fill:#61bc46;fill-opacity:1;stroke:none;stroke-width:0.08317407;stroke-linecap:round;stroke-linejoin:miter;stroke-miterlimit:4;stroke-dasharray:none;stroke-opacity:1"
       d="m 144.93769,91.224925 c -3.55257,0 -6.4369,2.883027 -6.4369,6.435594 0,3.552571 2.88433,6.435591 6.4369,6.435591 3.55257,0 6.43559,-2.88302 6.43559,-6.435591 0,-3.552567 -2.88302,-6.435594 -6.43559,-6.435594 z m 0,2.635579 c 2.0973,0 3.79871,1.702716 3.79871,3.800015 0,2.097299 -1.70141,3.798711 -3.79871,3.798711 -2.0973,0 -3.80002,-1.701412 -3.80002,-3.798711 0,-2.097299 1.70272,-3.800015 3.80002,-3.800015 z"
       id="path2485-3" />
    <path
       inkscape:connector-curvature="0"
       style="fill:#008cd2;fill-opacity:1;stroke:none;stroke-width:0.08317407;stroke-linecap:round;stroke-linejoin:miter;stroke-miterlimit:4;stroke-dasharray:none;stroke-opacity:1"
       d="m 139.18308,89.889758 c -0.43678,0.868144 -0.68229,1.847624 -0.68229,2.885101 0,3.552568 2.88433,6.435595 6.4369,6.435594 1.163,0 2.25387,-0.308344 3.1957,-0.848635 l -2.06765,-1.95849 c -0.35646,0.110789 -0.73524,0.170247 -1.12805,0.170247 -2.0973,0 -3.80002,-1.701417 -3.80002,-3.798716 0,-0.319787 0.0398,-0.629809 0.11437,-0.926611 z"
       id="path2487" />
  </g>
</svg>
