<?xml version="1.0" encoding="UTF-8" standalone="no"?>
<!-- Created with Inkscape (http://www.inkscape.org/) -->

<svg
   xmlns:dc="http://purl.org/dc/elements/1.1/"
   xmlns:cc="http://creativecommons.org/ns#"
   xmlns:rdf="http://www.w3.org/1999/02/22-rdf-syntax-ns#"
   xmlns:svg="http://www.w3.org/2000/svg"
   xmlns="http://www.w3.org/2000/svg"
   xmlns:sodipodi="http://sodipodi.sourceforge.net/DTD/sodipodi-0.dtd"
   xmlns:inkscape="http://www.inkscape.org/namespaces/inkscape"
   version="1.1"
   id="svg4314"
   width="294.22852"
   height="300.25781"
   viewBox="0 0 294.22852 300.25781"
   sodipodi:docname="Logo of NWSC.svg"
   inkscape:version="0.92.3 (2405546, 2018-03-11)">
  <metadata
     id="metadata4320">
    <rdf:RDF>
      <cc:Work
         rdf:about="">
        <dc:format>image/svg+xml</dc:format>
        <dc:type
           rdf:resource="http://purl.org/dc/dcmitype/StillImage" />
        <dc:title></dc:title>
      </cc:Work>
    </rdf:RDF>
  </metadata>
  <defs
     id="defs4318" />
  <sodipodi:namedview
     pagecolor="#ffffff"
     bordercolor="#666666"
     borderopacity="1"
     objecttolerance="10"
     gridtolerance="10"
     guidetolerance="10"
     inkscape:pageopacity="0"
     inkscape:pageshadow="2"
     inkscape:window-width="1920"
     inkscape:window-height="1018"
     id="namedview4316"
     showgrid="false"
     fit-margin-top="0"
     fit-margin-left="0"
     fit-margin-right="0"
     fit-margin-bottom="0"
     inkscape:zoom="3.1466667"
     inkscape:cx="73.473396"
     inkscape:cy="10.750417"
     inkscape:window-x="-8"
     inkscape:window-y="-8"
     inkscape:window-maximized="1"
     inkscape:current-layer="svg4314" />
  <path
     style="color:#000000;font-style:normal;font-variant:normal;font-weight:normal;font-stretch:normal;font-size:medium;line-height:normal;font-family:sans-serif;font-variant-ligatures:normal;font-variant-position:normal;font-variant-caps:normal;font-variant-numeric:normal;font-variant-alternates:normal;font-feature-settings:normal;text-indent:0;text-align:start;text-decoration:none;text-decoration-line:none;text-decoration-style:solid;text-decoration-color:#000000;letter-spacing:normal;word-spacing:normal;text-transform:none;writing-mode:lr-tb;direction:ltr;text-orientation:mixed;dominant-baseline:auto;baseline-shift:baseline;text-anchor:start;white-space:normal;shape-padding:0;clip-rule:nonzero;display:inline;overflow:visible;visibility:visible;opacity:1;isolation:auto;mix-blend-mode:normal;color-interpolation:sRGB;color-interpolation-filters:linearRGB;solid-color:#000000;solid-opacity:1;vector-effect:none;fill:#000000;fill-opacity:1;fill-rule:nonzero;stroke:none;stroke-width:8;stroke-linecap:round;stroke-linejoin:miter;stroke-miterlimit:4;stroke-dasharray:none;stroke-dashoffset:0;stroke-opacity:1;paint-order:stroke fill markers;color-rendering:auto;image-rendering:auto;shape-rendering:auto;text-rendering:auto;enable-background:accumulate"
     d="M 0,0 V 4 300.25781 H 294.22851 V 0 Z M 8,8 H 286.22851 V 292.25781 H 8 Z m 140.16015,12.103516 c -2.7785,0 -5.27914,0.962699 -7.50195,2.890625 -1.6671,1.592634 -2.5,2.97687 -2.5,4.15039 0,0.922052 0.74079,2.263158 2.22266,4.023438 1.1114,1.508811 1.66797,3.100886 1.66797,4.777344 0,2.430863 -2.13025,4.022937 -6.39063,4.777343 -3.51944,0.58676 -4.9089,0.965167 -4.16797,1.132813 -0.74093,0.08382 -2.03828,0.375969 -3.89062,0.878906 -1.48187,0.502938 -2.59305,0.755859 -3.33399,0.755859 -1.85234,-0.08382 -3.89047,-0.503406 -6.11328,-1.257812 -1.85234,-0.670583 -4.72337,-1.005859 -8.61328,-1.005859 -5.00131,0 -8.05656,0.460761 -9.16797,1.382812 -2.593269,1.424989 -3.890621,2.346511 -3.890621,2.765625 0,2.263218 2.314465,3.394531 6.945311,3.394531 5.55702,0 10.00368,-0.292146 13.33789,-0.878906 4.26038,-1.089697 6.66891,-1.634767 7.22461,-1.634765 l 2.5,1.005859 c 1.6671,0.502937 3.70524,0.797036 6.11328,0.880859 5.55702,0.335292 8.61227,2.34695 9.16797,6.035156 0.37047,2.598509 0.18625,4.484684 -0.55469,5.658204 -1.6671,2.849977 -5.64931,4.147952 -11.94726,3.896484 -1.11141,0 -2.13047,0.125485 -3.05665,0.376953 -0.74092,0.419115 -1.48172,0.672037 -2.22265,0.755859 -0.37047,0 -0.83492,0.166662 -1.39063,0.501954 -0.74093,0.419114 -1.76,0.628906 -3.05664,0.628906 -6.66842,-1.508811 -12.50259,-2.263672 -17.5039,-2.263672 -2.222811,0 -4.260943,0.586246 -6.113282,1.759766 -1.852339,1.257341 -2.777344,2.39061 -2.777344,3.396484 0,1.844107 4.260493,2.765625 12.781246,2.765625 4.44562,0 7.40876,-0.209792 8.89063,-0.628906 1.6671,-0.335292 2.87038,-0.839183 3.61133,-1.509766 1.1114,-0.586764 1.85414,-0.878906 2.2246,-0.878906 0.37047,0 1.38759,0.166662 3.05469,0.501953 1.66711,0.419119 2.68617,0.628906 3.05664,0.628906 7.96506,-0.251473 13.80118,-0.46126 17.50586,-0.628906 0.18524,0 1.85102,0.08431 5,0.251953 2.77851,0.08383 4.26008,0.125 4.44531,0.125 0.74094,0.08382 3.33564,0.04265 7.78125,-0.125 l 6.94532,-0.251953 c 0.74093,0 3.61197,0.08431 8.61328,0.251953 5.37178,0.251473 9.26188,0.376953 11.66992,0.376953 3.33421,0 6.39141,-0.292142 9.16992,-0.878906 3.70469,-0.754405 5.55664,-1.844544 5.55664,-3.269531 -0.18523,-2.34704 -6.20557,-3.521485 -18.06054,-3.521485 -0.18524,0 -2.77799,0.08431 -7.7793,0.251954 -4.44561,0.08382 -6.85414,0.125 -7.22461,0.125 -4.07515,-0.08382 -7.13235,-0.585761 -9.16992,-1.507813 -1.29664,-0.419115 -2.96243,-1.299459 -5,-2.640625 -0.92617,-0.838229 -1.39063,-2.598918 -1.39063,-5.28125 0,-1.005874 0.83485,-1.968573 2.50196,-2.890625 1.85233,-0.922052 5.18587,-1.384766 10.00195,-1.384766 4.44562,0 9.90939,-0.250968 16.39258,-0.753906 5.74224,-0.335291 10.0968,-0.501953 13.06054,-0.501953 3.14899,-0.335292 5.00094,-1.090152 5.55664,-2.263672 0.18524,-2.011749 -3.79696,-3.437163 -11.94726,-4.27539 -2.59327,-0.167646 -6.76166,-0.251954 -12.50391,-0.251954 -8.706,0 -13.61516,-0.166661 -14.72656,-0.501953 -3.14897,-0.58676 -5.37133,-1.467105 -6.66797,-2.640625 -0.18523,-0.251469 9.4e-4,-0.922021 0.55664,-2.011718 0.5557,-1.508812 0.83203,-2.555819 0.83203,-3.142579 0.92617,-1.17352 2.22352,-1.844073 3.89063,-2.011718 0.74093,-0.167646 1.11133,-0.63036 1.11133,-1.384766 0,-1.592635 -1.48158,-3.476856 -4.44532,-5.65625 -3.3342,-2.179394 -6.7618,-3.269531 -10.28125,-3.269531 z m -56.958978,1.884765 c -2.963741,0 -4.815704,0.629376 -5.55664,1.886719 -2.037573,1.927927 -3.613207,3.353339 -4.72461,4.275391 -1.852339,2.514685 -3.147736,4.40086 -3.888671,5.658203 -1.111404,0.251468 -6.761355,2.263127 -16.949219,6.035156 -9.261695,3.269092 -16.855719,5.447412 -22.783203,6.53711 -6.112719,1.005873 -9.169922,2.472464 -9.169922,4.40039 0,2.430863 3.890098,3.646484 11.669922,3.646484 5.742251,10e-7 13.706667,-1.801866 23.894531,-5.40625 10.187864,-3.688206 16.023988,-6.872355 17.505859,-9.554687 0.740935,-1.844103 4.631034,-3.730277 11.669922,-5.658203 6.112719,-1.676458 9.167969,-3.562632 9.167969,-5.658203 0,-1.844103 -1.01907,-3.353824 -3.056641,-4.527344 -2.222806,-1.089697 -4.815554,-1.634766 -7.779297,-1.634766 z m 115.029298,6.916016 c -2.03758,0 -4.53822,0.503891 -7.50196,1.509766 -2.40805,0.922051 -3.61132,1.843573 -3.61132,2.765625 -1e-5,2.9338 3.89009,4.40039 11.66992,4.40039 3.88991,0 7.03922,-0.335276 9.44726,-1.005859 3.70468,-1.341166 6.29743,-2.011719 7.7793,-2.011719 0.18523,0 2.03719,0.419584 5.55664,1.257813 3.14897,0.670583 6.66868,1.088213 10.55859,1.255859 1.66711,0.08382 5.4651,0.126953 11.39258,0.126953 8.89123,0 13.33594,-1.592075 13.33594,-4.777344 0,-2.263217 -7.22363,-3.396484 -21.67188,-3.396484 -4.26037,0 -8.52087,0.378407 -12.78125,1.132813 -4.44562,0.670583 -7.31664,1.005859 -8.61328,1.005859 l -5.27929,-1.005859 c -3.33421,-0.838229 -6.76181,-1.257813 -10.28125,-1.257813 z m 47.44336,21.091797 c -3.10267,-0.02096 -7.24705,-0.01066 -12.4336,0.03125 -6.85365,-0.08382 -13.61477,0.461245 -20.2832,1.634766 -3.33421,0.838228 -5.37039,1.508781 -6.11133,2.011718 -1.29664,0.167646 -2.78015,0.04216 -4.44727,-0.376953 -2.2228,-0.251468 -3.61226,-0.376953 -4.16796,-0.376953 -0.55571,-0.08382 -2.31361,-0.16813 -5.27735,-0.251953 -2.59328,-0.251469 -4.16891,-0.376953 -4.72461,-0.376953 -7.03888,0 -10.83686,0.796037 -11.39258,2.388672 -0.18523,1.341166 0.37134,2.556787 1.66797,3.646484 1.66711,1.089697 3.70525,1.593588 6.11329,1.509766 7.59459,-0.419115 11.2064,-0.628907 10.83593,-0.628907 2.22281,0 4.16688,-0.378407 5.83399,-1.132812 1.6671,-0.838229 3.05656,-1.255859 4.16797,-1.255859 1.48187,0 5.00158,1.131314 10.55859,3.394531 2.77852,1.424989 4.72453,2.64061 5.83594,3.646484 0.37046,4.107323 0.2764,7.501263 -0.2793,10.183594 0.18523,0.502937 0.7418,1.214668 1.66797,2.136719 1.48187,0.922051 2.22266,2.012188 2.22265,3.269531 0,0.922051 -0.55656,2.388638 -1.66796,4.400391 -1.11141,1.927925 -1.66602,2.976885 -1.66602,3.144531 -0.5557,6.873476 -0.5557,11.692834 0,14.458979 l 1.66602,7.92188 c 0,3.93968 -1.11118,6.83168 -3.33399,8.67578 -2.40805,2.17939 -6.48236,3.26758 -12.22461,3.26758 1.85234,0 -3.24105,-0.54312 -15.28125,-1.63282 -1.85234,-0.25145 -3.79836,-0.0436 -5.83593,0.62696 -1.85234,0.58676 -2.7793,1.34162 -2.7793,2.26367 0,2.9338 4.90916,4.94546 14.72656,6.03516 4.07514,0.50293 9.17049,0.7539 15.2832,0.7539 5.55703,0 11.29908,-1.34111 17.22657,-4.02343 5.92748,-2.5147 8.61234,-4.98711 8.05664,-7.41797 0.18523,0.83822 0.27734,-2.09494 0.27734,-8.80079 0,-0.41911 -0.4625,-2.93466 -1.38867,-7.54492 -0.92617,-4.777898 -1.48078,-8.297325 -1.66602,-10.560542 0,-2.598507 0.18422,-4.192537 0.55469,-4.779297 -0.18523,-0.922051 -1.11219,-2.178846 -2.7793,-3.771484 -1.6671,-1.676457 -2.5,-2.639157 -2.5,-2.890625 0,-0.670583 0.92696,-2.346966 2.7793,-5.029297 2.03757,-2.68233 2.96258,-4.94691 2.77734,-6.791015 -0.74093,-3.101445 1.94588,-5.783657 8.0586,-8.046876 6.48319,-1.089697 11.66868,-1.760249 15.55859,-2.011718 2.96374,-0.419114 4.44727,-1.550427 4.44727,-3.394532 -0.18524,-1.508811 -2.13126,-2.640125 -5.83594,-3.394531 -1.48187,-0.335291 -4.16673,-0.58626 -8.05664,-0.753906 -1.01879,-0.08382 -3.08093,-0.137247 -6.18359,-0.158203 z M 88.144531,50.279297 c -2.593273,0 -5.372195,0.545068 -8.335938,1.634766 -2.593273,1.005874 -4.074844,2.262672 -4.445312,3.771484 -1.111403,3.520561 -5.650177,6.957632 -13.615235,10.310547 -7.965057,3.101448 -16.021583,5.028798 -24.171875,5.783203 -9.446928,0.838228 -14.169921,2.640097 -14.169921,5.40625 -1e-6,1.005874 1.295397,2.221496 3.888671,3.646484 2.037573,1.17352 3.983599,1.761719 5.835938,1.761719 1.667105,0 5.463141,-0.839168 11.390625,-2.515625 5.927485,-1.760279 9.725474,-2.724932 11.392578,-2.892578 2.037574,-0.08382 4.167817,0.378892 6.390625,1.384766 2.40804,0.838228 3.427109,1.759751 3.056641,2.765625 0.555701,3.604386 1.296487,5.867011 2.222656,6.789062 -1.852339,1.424988 -2.779297,3.185679 -2.779297,5.28125 0,3.017626 -0.27633,7.71149 -0.832031,14.08203 -0.370468,6.11907 -0.556641,10.81294 -0.556641,14.08203 v 5.7832 c 0,3.18527 2.316419,4.7793 6.947266,4.7793 4.816082,0 7.871331,-1.21562 9.167969,-3.64648 0.926169,-1.25735 1.482734,-3.31213 1.667968,-6.16211 v -7.66992 c -0.185233,-3.77205 -0.279297,-5.69939 -0.279297,-5.78321 V 96.298828 c 0,-2.179393 -0.925004,-4.108699 -2.777343,-5.785156 l -2.222657,-2.640625 c 0,-0.167646 0.832895,-1.004861 2.5,-2.513672 1.85234,-1.676461 2.779297,-3.521455 2.779297,-5.533203 l -0.279297,-1.005859 c -0.185232,-0.754406 -0.277343,-1.550444 -0.277343,-2.388672 0,-1.089697 0.09211,-2.305319 0.277343,-3.646485 0.370469,-3.855853 0.834925,-5.992995 1.390625,-6.412109 3.148978,-2.598509 6.574619,-5.112105 10.279297,-7.542969 2.593274,-1.424988 3.890625,-2.558255 3.890625,-3.396484 0,-3.436738 -2.77892,-5.154297 -8.335937,-5.154297 z m 59.181639,20.244141 c -1.85234,0 -3.98259,0.627423 -6.39063,1.884765 -1.85233,1.424988 -2.77734,2.515126 -2.77734,3.269531 0,1.927926 0.37039,3.520002 1.11133,4.777344 1.1114,1.424988 1.76008,2.430814 1.94531,3.017578 0.18524,0.58676 -0.46344,1.467106 -1.94531,2.640625 -1.29664,1.005874 -2.49993,1.550943 -3.61133,1.634766 -3.88991,0.251468 -5.37344,0.376953 -4.44727,0.376953 -1.85233,0 -3.51812,0.335276 -5,1.00586 l -2.50195,0.628906 c -6.66842,-0.838229 -12.04009,-1.467605 -16.11523,-1.886719 h -3.88867 C 102.22321,87.956867 101.01796,88 100.09179,88 c -5.371772,0 -8.056634,1.297977 -8.056634,3.896484 0,1.17352 1.389461,2.306788 4.167968,3.396485 2.408041,1.005878 5.555406,1.507812 9.445306,1.507812 5.3718,0 10.00267,-0.545064 13.89258,-1.634765 3.2416,-0.953485 4.85229,-1.49019 4.83203,-1.609375 0.26739,0.03279 1.20693,0.303568 2.94922,0.855469 2.03758,0.33529 3.42704,0.501953 4.16797,0.501953 5.55702,0 8.14977,1.341102 7.7793,4.023437 -0.18524,2.43086 -0.27734,4.65231 -0.27734,6.66406 -1e-5,1.8441 -0.27829,3.22834 -0.83399,4.15039 -2.40804,3.01763 -5.46524,5.02928 -9.16992,6.03516 -2.22281,0.7544 -3.98266,1.42496 -5.2793,2.01172 -0.92617,0.50293 -2.77813,0.6696 -5.55664,0.50195 -4.07514,-0.25147 -5.74093,-0.37695 -5,-0.37695 -13.336837,0 -20.005856,1.59403 -20.005856,4.77929 0,2.1794 2.963137,3.5205 8.890626,4.02344 1.6671,0 4.63024,-0.2941 8.89062,-0.88086 2.03757,-0.25147 3.5211,-0.75536 4.44727,-1.50976 1.1114,-0.67059 2.4068,-1.17253 3.88867,-1.50782 2.22281,-0.67058 3.98266,-1.00586 5.2793,-1.00586 -0.37047,0 0.92688,0.0843 3.89062,0.25196 2.22281,0 3.8886,-0.0431 5,-0.12696 7.22412,-1.17352 12.50368,-1.92641 15.83789,-2.26172 6.85365,-1.08969 12.68978,-1.84455 17.50586,-2.26367 6.29796,-0.50293 12.68869,-1.048 19.17188,-1.63476 10.00263,-1.00588 15.0039,-2.18032 15.0039,-3.52149 0,-2.17939 -3.79798,-3.26757 -11.39258,-3.26758 h -1.94531 l -1.66601,0.125 h -6.66993 c -1.85233,0 -5.46415,0.2098 -10.83593,0.62891 -5.00133,0.50294 -7.40985,0.75391 -7.22461,0.75391 -2.59328,0 -4.25907,-0.83721 -5,-2.51367 -0.92617,-1.67646 -1.39063,-4.65277 -1.39063,-8.927737 0,-0.838228 1.38946,-1.969538 4.16797,-3.394531 1.85234,-0.838228 3.79837,-1.257813 5.83594,-1.257812 h 15.55859 c 0.18524,0 1.66681,0.125484 4.44531,0.376953 2.77851,0.08382 4.26204,0.125 4.44727,0.125 1.48187,0 3.33384,-0.376454 5.55664,-1.13086 2.03757,-0.58676 3.05664,-1.216136 3.05664,-1.886719 0,-1.005873 -2.03814,-1.884266 -6.11328,-2.638671 -3.51944,-0.754406 -6.39047,-1.17399 -8.61328,-1.257813 -6.29795,-0.251468 -11.29922,-0.376953 -15.00391,-0.376953 -8.33552,-0.335291 -12.68812,-2.054801 -13.05859,-5.15625 0,-0.419114 1.01907,-1.424944 3.05664,-3.017578 2.03757,-1.844102 3.05469,-3.100901 3.05469,-3.771485 0,-0.754405 -1.85197,-1.719058 -5.55664,-2.892578 -3.88991,-1.508811 -6.66883,-2.261718 -8.33594,-2.261718 z m 92.23437,72.638672 c -2.42364,0 -6.80575,0.0668 -13.14453,0.19922 -6.5252,0.19862 -9.97283,0.29687 -10.3457,0.29687 l -45.02539,0.19922 -63.20117,-0.19922 c -7.08451,-0.13241 -13.61027,0.13284 -19.576172,0.79492 -1.118607,0.19863 -2.888852,0.43048 -5.3125,0.69532 -2.423649,0.39725 -4.193893,0.5957 -5.3125,0.5957 -0.372868,0 -2.982783,-0.29866 -7.830078,-0.89453 -4.47443,-0.7283 -7.550606,-1.0918 -9.228516,-1.0918 -14.728325,0 -22.09375,1.48936 -22.09375,4.46875 0,0.7945 1.491657,1.49006 4.474609,2.08594 3.169387,0.59588 5.779299,0.89453 7.830078,0.89453 4.474428,0 10.160519,-0.53051 17.058594,-1.58984 6.711642,-1.12555 9.975498,-1.6875 9.789063,-1.6875 3.915125,0 6.617899,0.3635 8.109375,1.09179 1.118605,0.66209 6.524158,0.99414 16.218747,0.99414 11.74537,0 21.53303,0.2633 29.36328,0.79297 6.1797,0.49556 10.58203,3.56198 10.58203,7.41602 v 36.00586 c -0.59989,10.03226 -9.95162,11.54027 -17.85156,11.59765 h -11.1875 -16.498044 c -12.491111,0 -19.761721,0.23185 -21.8125,0.69532 l -6.152344,1.39062 c -3.728689,-1.12555 -7.363995,-1.8211 -10.90625,-2.08594 -0.559304,0 -2.890628,-0.0334 -6.992188,-0.0996 -12.11824,-0.13242 -20.414243,0.52974 -24.888671,1.98633 -0.745738,0.13242 -1.119141,0.59612 -1.119141,1.39063 -0.186434,0.99313 0.372693,1.88713 1.677734,2.68164 2.050779,1.25796 6.899155,1.88672 14.542969,1.88672 3.915125,-0.19863 6.337359,-0.36368 7.269531,-0.4961 0.186434,0 2.796348,-0.3635 7.830078,-1.09179 3.169388,-0.39725 5.781253,-0.92776 7.832032,-1.58985 2.423649,-0.66208 4.474433,-0.89394 6.152344,-0.69531 3.169385,0.66208 5.125355,1.19259 5.871093,1.58984 1.864345,0.52967 8.482965,0.79493 19.855469,0.79492 -1.491476,2e-5 3.169226,-0.0668 13.982418,-0.19921 8.38955,-0.13242 14.54191,-0.13242 18.45703,0 11.74538,0.46346 22.65324,0.66191 32.72071,0.5957 11.9318,-0.26484 20.59926,-0.39648 26.00586,-0.39649 10.8132,-0.19862 21.81393,-0.23202 33,-0.0996 13.79614,0.13241 24.88974,0.36427 33.27929,0.69531 8.76243,-0.33104 14.81997,-0.89495 18.17578,-1.68945 1.49148,-0.33106 2.23828,-0.72795 2.23828,-1.19141 10e-6,-0.26484 -1.0254,-0.99379 -3.07617,-2.18555 -0.74573,-0.59588 -3.4485,-1.19123 -8.10937,-1.78711 -4.66086,-0.52967 -8.57671,-0.69472 -11.7461,-0.49609 -20.32135,0.52967 -35.79511,0.76152 -46.42187,0.69531 -14.35547,0.0662 -23.77167,-5.9e-4 -28.24609,-0.19922 -4.28799,-0.0662 -8.10902,-0.59476 -11.46485,-1.58789 -1.80357,-0.7686 -3.54101,-2.59761 -3.54101,-5.84375 v -27.33008 c 0.11829,-0.58936 0.18554,-1.21488 0.18554,-1.88476 0,-0.87311 -0.0734,-1.74603 -0.18554,-2.61914 v -9.57227 c 0,-2.91924 2.01614,-4.60671 3.82031,-5.38672 4.10156,-1.52279 9.22852,-2.3166 15.38086,-2.38281 5.9659,-0.0662 15.00871,-0.0348 27.12695,0.0977 3.54226,0 10.16088,0.10018 19.85547,0.29883 8.57598,0.19862 15.1946,0.29882 19.85547,0.29882 1.86434,0 4.10085,-0.4303 6.71094,-1.29101 2.61007,-0.79451 3.91406,-1.3918 3.91406,-1.78907 0,-0.99312 -2.5151,-1.91858 -7.54883,-2.77929 -4.28798,-0.66209 -7.73757,-0.99414 -10.34766,-0.99414 z m 18.64454,93.58398 c -0.63217,0.0486 -0.94922,0.41296 -0.94922,1.09375 0,0.0243 0.0492,0.43788 0.14648,1.24024 0.12157,0.80236 0.18164,1.26319 0.18164,1.38476 -0.0243,1.06982 -0.365,1.78764 -1.02148,2.15235 -0.48629,0.24312 -1.32424,0.37605 -2.51563,0.40039 -0.24314,0 -0.6439,0.0985 -1.20312,0.29296 -0.53493,0.17021 -0.79191,0.25586 -0.76758,0.25586 -0.0486,0 -0.2308,-0.0984 -0.54688,-0.29296 -0.38902,-0.21883 -0.68048,-0.32813 -0.875,-0.32813 -2.57729,-0.0729 -4.08383,0.17125 -4.52148,0.73047 -0.38901,0.77805 -0.59676,1.28811 -0.62109,1.53125 -0.0243,0.0729 -0.0352,0.1586 -0.0352,0.25586 0,0.12157 0.0601,0.27814 0.18164,0.47265 0.14589,0.24312 0.21875,0.37802 0.21875,0.40235 0.0729,0.41334 0.12215,0.86333 0.14648,1.34961 0.0729,0.48628 0.24232,0.98355 0.50977,1.49414 v 1.13086 c -0.0243,-0.0243 -0.13361,0.3656 -0.32812,1.16797 -0.21884,0.92393 -0.31535,1.68902 -0.29102,2.29687 0.0973,1.8965 -0.1105,3.7073 -0.62109,5.4336 -0.65648,2.09101 -1.76226,3.75803 -3.31836,4.99804 -0.12158,0.14589 -0.25451,0.41176 -0.40039,0.80078 -0.12158,0.34042 -0.1836,0.53539 -0.1836,0.58399 0.0243,0.21882 0.19563,0.47385 0.51172,0.76562 0.34039,0.29177 0.61907,0.4375 0.83789,0.4375 0.99688,0 2.18832,-1.19144 3.57422,-3.57422 1.16707,-1.96944 1.75,-4.74028 1.75,-8.31445 v -1.24023 c 0,-0.19451 0.0256,-0.68093 0.0742,-1.45899 0.0243,-0.24314 -0.0486,-0.65669 -0.21875,-1.24023 -0.21883,-0.65648 -0.32813,-1.14291 -0.32813,-1.45899 0,-0.0973 0.0601,-0.24299 0.18164,-0.4375 0.14589,-0.1702 0.25519,-0.40159 0.32813,-0.69336 0.0243,-0.55922 0.0479,-1.10571 0.0723,-1.64062 0.14588,-1.02119 0.49936,-1.53125 1.05859,-1.53125 0.0486,0 0.15792,0.0128 0.32812,0.0371 0.12155,0.0243 0.19442,0.0351 0.21875,0.0352 0.19452,-10e-6 0.58443,-0.12015 1.16797,-0.36329 0.63217,-0.29176 1.00734,-0.43945 1.12891,-0.43945 0.1702,0 0.45082,0.0985 0.83984,0.29297 0.41337,0.12157 0.64476,0.18164 0.69336,0.18164 0.14588,0 0.33889,-0.0128 0.58203,-0.0371 0.26746,-0.0486 0.43878,-0.0723 0.51172,-0.0723 0.0729,0 0.0857,0.0492 0.0371,0.14648 -0.0243,0.12157 -0.0863,0.64443 -0.18359,1.56836 -0.12158,0.55923 -0.49869,0.91076 -1.13086,1.05664 -0.21883,0.0486 -0.57036,0.0742 -1.05664,0.0742 h -0.36524 c -1.31296,0 -2.07804,0.40076 -2.29687,1.20312 -0.0243,0.14589 0.0594,0.35169 0.2539,0.61914 0.21883,0.2188 0.49946,0.30446 0.83985,0.25586 0.99688,-0.24314 1.60539,-0.36523 1.82422,-0.36523 0.72927,0 1.1235,-0.003 1.25781,-0.0117 0.31235,0.0411 0.55723,0.15737 0.71094,0.37695 0.0729,0.31608 0.14581,0.60755 0.21875,0.875 0.26746,0.72943 0.66822,1.28872 1.20312,1.67774 0.58354,0.46196 1.61646,0.69336 3.09961,0.69336 h 3.83008 0.94922 0.83789 1.13086 1.16601 c 0.14589,0 0.41371,-0.1093 0.80274,-0.32813 0.38902,-0.21882 0.58398,-0.42659 0.58398,-0.62109 0,-0.75374 -0.72866,-1.12891 -2.1875,-1.12891 -0.21882,0 -0.47581,0.0108 -0.76758,0.0352 l -0.50976,0.0371 -5.25195,0.0723 c -1.5561,0.0243 -2.44329,-0.27994 -2.66211,-0.91211 -0.0243,-0.19451 -0.0371,-0.37667 -0.0371,-0.54687 0,-0.31606 0.14573,-0.48543 0.4375,-0.50977 0.36471,-0.0243 0.73099,-0.0479 1.0957,-0.0723 0.0729,-0.0243 0.20588,-0.10998 0.40039,-0.25586 0.21883,-0.0973 0.3882,-0.14649 0.50977,-0.14649 0.12157,0 0.23087,0.0128 0.32812,0.0371 0.24314,0.0973 0.47453,0.21936 0.69336,0.36524 h 1.3125 l 3.9043,0.0723 c 1.75061,0.0486 2.625,-0.32849 2.625,-1.13086 0,-0.38902 -0.59572,-0.64405 -1.78711,-0.76562 h -2.29688 c -0.0486,0 -0.42574,-0.0128 -1.13086,-0.0371 h -1.24023 c -0.1702,0 -0.40159,0.0364 -0.69336,0.10937 -0.34038,0.0729 -0.52254,0.10938 -0.54687,0.10938 -0.0243,0 -0.19368,0.0492 -0.50977,0.14648 -0.31608,0.0972 -0.57306,0.15731 -0.76758,0.18164 l -0.32812,-0.10937 c -0.12157,-0.0729 -0.2673,-0.10938 -0.4375,-0.10938 -0.5106,-0.0486 -0.9478,-0.0486 -1.3125,0 -0.34043,0 -0.53539,-0.27866 -0.58399,-0.83789 -0.0243,-0.43765 -0.0479,-0.83841 -0.0723,-1.20312 -0.12158,-0.29177 -0.23087,-0.47589 -0.32813,-0.54883 -0.24314,-0.21883 -0.14664,-0.32812 0.29102,-0.32812 1.02118,-0.0972 1.71536,-0.15731 2.08008,-0.18164 0.0486,0 0.58232,0.0364 1.60351,0.10937 1.02117,0.0486 1.54403,0.0723 1.56836,0.0723 0.38902,-0.14589 0.97195,-0.21875 1.75,-0.21875 l 2.95508,0.0742 c 1.79924,0.0486 3.00347,0.46219 3.61133,1.24024 0.24314,0.31609 0.42531,1.03194 0.54687,2.15039 0.19452,1.45884 0.61891,2.18945 1.27539,2.18945 0.70509,0 1.07137,-0.82711 1.09571,-2.48047 0,-0.21882 -0.0985,-0.71804 -0.29297,-1.49609 -0.19451,-0.77805 -0.35304,-1.22804 -0.47461,-1.34961 -0.75374,-0.72945 -1.251,-1.11742 -1.49414,-1.16601 -0.24315,-0.19452 -0.96096,-0.40227 -2.15235,-0.6211 -1.19138,-0.19451 -2.15143,-0.29101 -2.88086,-0.29101 l -4.66797,0.10937 c -0.97255,-0.19451 -1.45898,-0.49877 -1.45898,-0.91211 0,-0.29177 0.26783,-0.47393 0.80274,-0.54687 0.38902,-0.0487 0.78978,-0.0979 1.20312,-0.14649 0.29177,-0.0729 0.49757,-0.16945 0.61914,-0.29101 0.19451,-0.1216 0.42591,-0.17082 0.69336,-0.14649 l 0.58398,0.21875 c 0.38902,0.14589 0.66769,0.21875 0.8379,0.21875 h 3.32031 c 0.24314,0 0.54544,-0.0729 0.91015,-0.21875 0.3404,-0.14588 0.51172,-0.33889 0.51172,-0.58203 0,-0.26745 -0.12209,-0.49885 -0.36523,-0.69336 -0.24314,-0.19451 -0.48538,-0.29297 -0.72852,-0.29297 l -3.10156,0.0742 c -0.36471,0 -0.78911,0.0857 -1.27539,0.25586 -0.46197,0.14589 -0.72979,0.21875 -0.80274,0.21875 -0.21881,0 -0.45021,-0.0729 -0.69335,-0.21875 -0.24315,-0.14587 -0.43811,-0.23153 -0.58399,-0.25586 h -1.05664 c -0.43769,-0.0243 -0.68187,-0.20648 -0.73047,-0.54687 0,-0.41334 0.0128,-0.7304 0.0371,-0.94922 -0.12157,-0.87531 -0.65527,-1.26327 -1.60351,-1.16602 z m -113.90039,0.2461 c -0.18236,-0.0182 -0.36452,-0.0165 -0.54688,0.008 -0.82668,0.0729 -1.24023,0.39 -1.24023,0.94922 0,0.14588 0.0492,0.38812 0.14648,0.72851 0.17019,0.29178 0.25391,0.53596 0.25391,0.73047 0.0243,0.3404 -0.023,0.85046 -0.14454,1.53125 -0.0729,0.70511 -0.10937,1.1551 -0.10937,1.34961 0,0.85099 -0.53565,1.39749 -1.60547,1.64063 -0.85099,0.12157 -1.72538,0.25646 -2.625,0.40234 -0.3404,0.0729 -0.64465,0.22952 -0.91211,0.47266 -0.19454,0.12158 -0.31663,0.17081 -0.36523,0.14648 -0.77806,-0.53491 -1.41021,-0.80273 -1.89649,-0.80273 -1.11844,0.0973 -2.11492,0.17015 -2.99023,0.21875 -0.55922,0.24314 -0.83985,0.64585 -0.83984,1.20507 0,0.38903 0.13489,0.71693 0.40234,0.98438 0.38903,0.36471 1.6169,0.32828 3.68359,-0.10938 0.63217,-0.0973 1.05657,-0.26857 1.27539,-0.51172 0.073,-0.0243 0.135,-0.0352 0.1836,-0.0352 0.0729,0 0.2679,0.12014 0.58398,0.36328 0.36471,0.17017 0.75268,0.23219 1.16602,0.18359 0.31608,-0.0729 0.64397,-0.12215 0.98437,-0.14648 0.36471,-0.12155 0.65618,-0.10877 0.875,0.0371 0.41334,0.24317 0.7176,0.3889 0.91211,0.4375 0.14589,0.21883 0.21875,0.4975 0.21875,0.83789 0,0.5106 -0.37712,2.17762 -1.13086,4.99805 -0.12156,0.75374 -0.18164,1.33666 -0.18164,1.75 -0.38903,0.48628 -0.76614,0.8634 -1.13086,1.13086 l -0.80273,1.45898 c -0.38903,0.75374 -0.86266,1.50603 -1.42188,2.25977 -1.3859,1.82355 -3.78158,3.62351 -7.18554,5.39843 -0.24314,0.12158 -0.36329,0.32738 -0.36329,0.61914 0,0.36472 0.19496,0.73099 0.58399,1.09571 0.31608,0.3647 0.65482,0.54687 1.01953,0.54687 0.12157,0 0.23086,-0.0256 0.32813,-0.0742 2.04237,-0.85099 4.06093,-2.38117 6.05468,-4.59375 0.55923,-0.65648 1.11852,-1.49638 1.67774,-2.51758 0.58354,-1.02118 1.15562,-2.04129 1.71484,-3.0625 0.21881,-0.80235 0.34089,-1.4601 0.36524,-1.9707 0.26745,-0.34039 0.46046,-0.5462 0.58203,-0.61914 0.24314,-0.12157 0.48732,-0.22003 0.73047,-0.29297 0.29177,-0.14588 0.60687,0.13474 0.94726,0.83985 0.72941,1.26436 1.10653,1.92015 1.13086,1.96875 0.0243,0.0243 0.18284,0.1592 0.47461,0.40234 0.29179,0.26746 0.42472,0.46046 0.40039,0.58203 -0.0486,0.38903 0.0134,0.80258 0.18359,1.24024 0.0729,0.29176 0.36441,0.80378 0.875,1.5332 0.43766,0.63217 0.65625,1.0802 0.65625,1.34766 0,0.31607 -1.00927,1.16878 -3.02734,2.55468 -0.99687,0.65648 -1.60539,1.03165 -1.82422,1.12891 -2.72318,1.14276 -4.20608,1.71484 -4.44922,1.71484 -0.31608,0.12157 -0.47265,0.3894 -0.47265,0.80274 0,0.38902 0.14573,0.74056 0.4375,1.05664 0.26745,0.3404 0.61898,0.51172 1.05664,0.51172 0.68079,0 1.9323,-0.53565 3.75586,-1.60547 1.58041,-0.97256 2.74822,-1.76129 3.50195,-2.36914 0.85099,-0.94825 1.71454,-1.4711 2.58984,-1.56836 0.41334,-0.0729 1.05829,0.21852 1.9336,0.875 1.65335,1.28864 2.62424,2.0173 2.91601,2.1875 0.6808,0.41334 1.58077,0.91255 2.69922,1.49609 1.41021,0.68079 2.34663,1.02149 2.80859,1.02149 0.43766,0 0.85121,-0.24419 1.24024,-0.73047 0.41334,-0.46197 0.61914,-0.91196 0.61914,-1.34961 0,-0.462 -0.3023,-0.71703 -0.91016,-0.76563 -0.7051,-0.0486 -1.73997,-0.34009 -3.10156,-0.875 -1.02119,-0.38902 -2.04131,-0.78978 -3.0625,-1.20312 -0.48629,-0.14588 -1.0948,-0.57223 -1.82422,-1.27735 -0.7051,-0.63216 -1.10586,-1.19145 -1.20312,-1.67773 -0.0486,-0.51059 0.10989,-1.14275 0.47461,-1.89649 0.41334,-0.58354 0.79046,-1.17925 1.13086,-1.7871 0.21882,-0.58354 0.38819,-1.03353 0.50976,-1.34961 0.1702,-0.29177 0.6074,-0.71617 1.3125,-1.27539 0.58354,-0.46197 0.9843,-0.9484 1.20313,-1.45899 0.0243,-0.0486 0.0371,-0.14708 0.0371,-0.29297 0,-0.36471 -0.13294,-0.8019 -0.40039,-1.3125 -0.29177,-0.51059 -0.58324,-0.81485 -0.875,-0.91211 -0.5106,-0.31608 -0.87688,-0.55831 -1.09571,-0.72851 -0.5349,-0.26748 -1.03217,-0.24382 -1.49414,0.0723 -0.24314,0.21883 -0.51096,0.32813 -0.80273,0.32813 -0.36471,0 -0.76547,-0.0108 -1.20313,-0.0352 -0.26745,0 -0.7066,0.0108 -1.31445,0.0352 -0.58354,0.0243 -1.03158,0.0371 -1.34766,0.0371 -1.53178,0 -2.60308,-0.34069 -3.21093,-1.02149 -0.14589,-0.14588 -0.21875,-0.32805 -0.21875,-0.54687 0,-0.21883 0.062,-0.47385 0.18359,-0.76563 0.0729,-0.26745 0.10937,-0.46241 0.10937,-0.58398 0.14589,-1.4102 0.72881,-2.128 1.75,-2.15235 4.64399,0.0243 8.54621,0.0608 11.70704,0.10938 0.1702,0 0.59655,0.0857 1.27734,0.25586 0.60785,0.0729 1.10511,0.10937 1.49414,0.10937 1.09413,0 1.64258,-0.48641 1.64258,-1.45898 0,-0.38903 -0.43915,-0.6677 -1.31446,-0.83789 -0.63215,-0.0973 -1.22788,-0.14648 -1.7871,-0.14648 h -4.19336 c -2.09101,0.0243 -3.73244,0.0371 -4.92383,0.0371 -1.77493,-0.0243 -3.03924,-0.0863 -3.79297,-0.18359 -0.51059,-0.0486 -0.80205,-0.36373 -0.875,-0.94727 -0.0973,-0.34039 -0.0116,-1.03457 0.25586,-2.08007 0.26745,-1.16708 0.40039,-1.9686 0.40039,-2.40625 0,-0.21883 -0.0364,-0.45022 -0.10938,-0.69336 -0.0486,-0.24314 -0.24358,-0.43811 -0.58398,-0.58399 -0.18235,-0.0608 -0.36452,-0.099 -0.54687,-0.11718 z m -110.033206,0.22656 c -0.364711,0 -0.692606,0.28062 -0.984375,0.83984 -0.218827,0.46198 -0.328125,0.86273 -0.328125,1.20313 0,0.26745 0.0965,0.65737 0.291016,1.16797 0.145882,0.43765 0.21875,0.89848 0.21875,1.38476 0,0.70511 -0.278668,1.16789 -0.837891,1.38672 -0.461967,0.17023 -0.644132,0.27953 -0.546875,0.32813 -0.09726,0.0243 -0.268578,0.10997 -0.511719,0.25585 -0.194512,0.14588 -0.340243,0.21875 -0.4375,0.21875 -0.243141,-0.0243 -0.510966,-0.1464 -0.802734,-0.36523 -0.243141,-0.19451 -0.620264,-0.29102 -1.13086,-0.29102 -0.65648,0 -1.057241,0.13294 -1.203125,0.40039 -0.340397,0.41334 -0.509765,0.68117 -0.509765,0.80274 0,0.65648 0.304257,0.98437 0.912109,0.98437 0.729422,0 1.312347,-0.0856 1.75,-0.25585 0.559224,-0.31609 0.874324,-0.47461 0.947266,-0.47461 l 0.330078,0.29296 c 0.218827,0.14586 0.484698,0.23153 0.800781,0.25586 0.729422,0.0973 1.132136,0.68018 1.205078,1.75 0.04863,0.75374 0.02304,1.30023 -0.07422,1.64063 -0.218825,0.82667 -0.741681,1.2038 -1.568359,1.13086 -0.145885,0 -0.27882,0.0364 -0.400391,0.10937 -0.09726,0.12156 -0.195712,0.19442 -0.292968,0.21875 -0.04863,0 -0.108699,0.0492 -0.181641,0.14649 -0.09726,0.12157 -0.230191,0.18164 -0.400391,0.18164 -0.875305,-0.43766 -1.642348,-0.65625 -2.298828,-0.65625 -0.291768,0 -0.559593,0.16936 -0.802734,0.50976 -0.243141,0.36471 -0.363281,0.69456 -0.363281,0.98633 0,0.53491 0.559287,0.80078 1.677734,0.80078 0.583537,0 0.971503,-0.0601 1.166016,-0.18164 0.218826,-0.0973 0.377353,-0.24298 0.474609,-0.4375 0.145886,-0.1702 0.242389,-0.25586 0.291016,-0.25586 0.04863,0 0.183516,0.0492 0.402344,0.14649 0.218828,0.12156 0.351763,0.18164 0.40039,0.18164 1.045505,-0.073 1.812547,-0.13304 2.298828,-0.18164 0.02431,0 0.242911,0.0237 0.65625,0.0723 0.364712,0.0243 0.559671,0.0371 0.583985,0.0371 0.09726,0.0243 0.435994,0.0115 1.019531,-0.0371 l 0.912109,-0.0723 c 0.09726,0 0.47438,0.0237 1.13086,0.0723 0.705108,0.0729 1.215167,0.10938 1.53125,0.10938 0.437653,0 0.840367,-0.0837 1.205078,-0.25391 0.486281,-0.21882 0.728515,-0.53588 0.728515,-0.94922 -0.02431,-0.68079 -0.814993,-1.02148 -2.371093,-1.02148 -0.02431,0 -0.365005,0.0256 -1.021485,0.0742 -0.583538,0.0243 -0.898639,0.0352 -0.947265,0.0352 -0.53491,-0.0243 -0.935671,-0.17004 -1.203125,-0.4375 -0.170198,-0.12157 -0.388795,-0.37659 -0.65625,-0.76562 -0.12157,-0.24314 -0.183594,-0.7532 -0.183594,-1.53125 0,-0.29177 0.109298,-0.57239 0.328125,-0.83985 0.243141,-0.26745 0.680335,-0.40039 1.3125,-0.40039 0.583538,0 1.301352,-0.0729 2.152344,-0.21875 0.753736,-0.0973 1.325818,-0.14648 1.714843,-0.14648 0.41334,-0.0973 0.655574,-0.31586 0.728516,-0.65625 0.02431,-0.58354 -0.498541,-0.99709 -1.568359,-1.24023 -0.340398,-0.0486 -0.886889,-0.0723 -1.640625,-0.0723 -1.142761,0 -1.787709,-0.0492 -1.933594,-0.14648 -0.413339,-0.1702 -0.704802,-0.42523 -0.875,-0.76563 -0.02432,-0.0729 0.0013,-0.2679 0.07422,-0.58398 0.07294,-0.43766 0.109375,-0.74192 0.109375,-0.91211 0.12157,-0.34043 0.290939,-0.53343 0.509765,-0.58203 0.09726,-0.0486 0.146485,-0.18352 0.146485,-0.40235 0,-0.46196 -0.194959,-1.00846 -0.583985,-1.64062 -0.437653,-0.63217 -0.887642,-0.94922 -1.349609,-0.94922 z M 224.6875,237.4375 c -0.55923,0 -0.88712,0.51201 -0.98438,1.5332 -0.0729,1.16707 -0.75433,2.36936 -2.04297,3.60938 -1.24002,1.24002 -2.41866,1.89776 -3.53711,1.9707 -0.51059,0.0243 -0.76562,0.40144 -0.76562,1.13086 0,0.70511 0.25503,1.05664 0.76562,1.05664 0.3404,0 1.08185,-0.25503 2.22461,-0.76563 1.09414,-0.51059 1.7135,-0.76562 1.85938,-0.76562 0.21883,0 0.52308,0.12209 0.91211,0.36523 0.38902,0.24317 0.81342,0.3889 1.27539,0.4375 0.43767,0.0243 0.64543,0.46151 0.62109,1.3125 0,0.70512 -1.13136,1.47021 -3.39258,2.29688 -2.2612,0.80237 -3.39062,1.41088 -3.39062,1.82422 0,0.43765 0.0601,0.70548 0.18164,0.80273 0.12157,0.24314 0.41303,0.36524 0.875,0.36524 1.02119,0 2.46766,-0.51202 4.33984,-1.53321 1.84788,-1.02119 3.11218,-1.53125 3.79297,-1.53125 1.2157,0 2.8335,0.51006 4.85156,1.53125 2.0667,0.99688 3.29457,1.4961 3.6836,1.4961 0.31608,0 0.62034,-0.17133 0.91211,-0.51172 0.31608,-0.3404 0.47265,-0.6427 0.47265,-0.91016 0,-0.58354 -0.61935,-1.04632 -1.85937,-1.38672 -1.14276,-0.36471 -2.27218,-0.7054 -3.39063,-1.02148 -1.24002,-0.43765 -1.86132,-1.04617 -1.86132,-1.82422 -0.0243,-0.12157 0.001,-0.44946 0.0742,-0.98438 0.0973,-0.51059 0.19376,-0.81484 0.29101,-0.9121 0.43765,-0.41334 0.86205,-0.82495 1.27539,-1.23829 0.5106,-0.38902 1.04625,-0.58398 1.60547,-0.58398 h 0.36523 0.36524 c 1.14277,0 1.71289,-0.34069 1.71289,-1.02148 0,-0.75374 -0.49726,-1.13086 -1.49414,-1.13086 -0.0243,0 -0.4743,0.0128 -1.34961,0.0371 -0.87533,0.0243 -1.33812,0.0351 -1.38672,0.0351 h -5.65234 c -0.51058,-0.0973 -0.7784,-0.39956 -0.80274,-0.91015 0,-0.0486 0.0965,-0.23079 0.29102,-0.54688 0.1702,-0.26745 0.25586,-0.53528 0.25586,-0.80273 0,-0.94825 -0.36433,-1.42383 -1.09375,-1.42383 z m -162.587891,0.0742 c -0.899621,0.0486 -1.349609,0.55869 -1.349609,1.53125 -10e-7,0.43765 0.0965,0.90043 0.291015,1.38672 0.121569,0.3647 0.170797,0.61973 0.146485,0.76562 0.04863,0.29177 0.194358,0.52316 0.4375,0.69336 0.09726,0.14589 0.146484,0.33889 0.146484,0.58203 0,0.21883 -0.09846,0.51225 -0.292969,0.87695 -0.194514,0.46197 -0.314654,0.72784 -0.363281,0.80079 -0.09725,0.68079 -0.122846,1.16721 -0.07422,1.45898 -0.04863,0.63217 -0.28002,1.22788 -0.693359,1.78711 -0.41334,0.55922 -0.814101,0.83984 -1.203125,0.83984 -0.705108,-0.7051 -1.568653,-1.05859 -2.589844,-1.05859 -0.77805,0 -1.166016,0.55929 -1.166016,1.67773 0,0.43766 0.19496,0.79114 0.583985,1.0586 0.364711,0.24314 0.703448,0.36328 1.019531,0.36328 0.389025,0 0.755306,-0.19301 1.095703,-0.58203 0.316083,-0.38902 0.59475,-0.58399 0.837891,-0.58399 0.632166,0.26746 1.09495,0.49885 1.386719,0.69336 0.48628,0.29177 0.728515,1.11693 0.728515,2.47852 0,0.43765 -0.02364,0.94966 -0.07227,1.5332 -0.04863,0.65648 -0.07422,1.03361 -0.07422,1.13086 v 3.82813 c 0,1.67766 -0.497264,2.89469 -1.494141,3.64843 -0.340397,0.24312 -0.681088,0.37606 -1.021484,0.40039 -0.632166,0.1216 -1.045722,0.20726 -1.240235,0.25586 -0.826678,0.21883 -1.251077,0.80176 -1.27539,1.75 -0.02431,0.5106 0.09583,0.93695 0.363281,1.27735 0.291769,0.36471 0.681687,0.54687 1.167969,0.54687 0.389025,0 0.886289,-0.35348 1.49414,-1.05859 0.534912,-0.75374 0.828328,-1.13086 0.876953,-1.13086 0.705108,0 1.116711,-0.0108 1.238282,-0.0352 1.167075,-0.53491 1.994187,-0.97406 2.480468,-1.31445 l 2.080079,-1.01953 c 1.5561,-0.41334 2.333984,-0.94899 2.333984,-1.60547 0,-0.26745 -0.182164,-0.51164 -0.546875,-0.73047 -0.316083,-0.1702 -0.609498,-0.25391 -0.876953,-0.25391 -0.340397,0 -0.788433,0.14574 -1.347656,0.4375 -0.632168,0.29178 -0.972858,0.4375 -1.021485,0.4375 -0.802364,0 -1.203125,-0.36432 -1.203125,-1.09375 0,-0.65648 -0.02559,-1.20492 -0.07422,-1.64257 v -0.98438 c 0,-0.0729 0.02559,-0.76516 0.07422,-2.07812 0.07294,-1.53179 0.120219,-2.45541 0.144531,-2.77149 0.07294,-0.53491 0.207832,-1.04692 0.402344,-1.5332 0.316083,-0.53491 0.704049,-0.80078 1.166016,-0.80078 0.12157,0 0.425828,0.0237 0.912109,0.0723 0.340398,0.0729 0.730316,0.0857 1.167969,0.0371 0.243141,-0.0243 0.49817,-0.1592 0.765625,-0.40234 0.315086,-0.24237 0.471662,-0.4363 0.472656,-0.58203 v -0.002 c -8.59e-4,-0.75246 -0.461691,-1.2019 -1.384765,-1.34765 -0.65648,-0.0729 -1.301429,-0.12215 -1.933594,-0.14649 -0.291769,-0.14588 -0.583231,-0.28077 -0.875,-0.40234 -0.194512,-0.17019 -0.291016,-0.53452 -0.291016,-1.09375 v -0.83789 c -0.02431,-0.38901 -0.03711,-0.59676 -0.03711,-0.62109 0,-0.12158 -0.169369,-0.40024 -0.509766,-0.8379 -0.316082,-0.46193 -0.474609,-0.70613 -0.474609,-0.73046 0,-0.26746 0.132937,-0.4969 0.40039,-0.69141 0.340397,-0.29177 0.595427,-0.55959 0.765626,-0.80273 0.267454,-0.5106 0.402343,-1.17918 0.402343,-2.00586 0,-0.38902 -0.194959,-0.75335 -0.583984,-1.09375 -0.389025,-0.34042 -0.826219,-0.49895 -1.3125,-0.47461 z m 13.748047,0.21875 c -0.267455,0 -0.522485,0.13293 -0.765625,0.40039 -0.243141,0.26745 -0.363281,0.53528 -0.363281,0.80273 0,0.21883 0.132935,0.58316 0.40039,1.09375 0.267455,0.43766 0.436824,0.82757 0.509766,1.16797 0,0.63217 -0.169369,1.16586 -0.509766,1.60352 -0.340397,0.60784 -0.899684,0.91211 -1.677734,0.91211 -0.972563,0 -1.664786,0.0364 -2.078125,0.10937 -0.510596,0.14588 -0.936947,0.26798 -1.277344,0.36523 -0.12157,0.0243 -0.290939,-0.0121 -0.509766,-0.10937 -0.218826,-0.0729 -0.400991,-0.15861 -0.546875,-0.25586 -0.65648,-0.19451 -1.155697,-0.29103 -1.496093,-0.29101 -0.194513,0.0243 -0.485975,0.17004 -0.875,0.4375 -0.461968,0.29177 -0.69336,0.57043 -0.69336,0.83789 0,0.3647 0.231392,0.66897 0.69336,0.91211 0.316083,0.19451 0.643978,0.29296 0.984375,0.29296 0.316082,0.0486 0.862575,-0.0735 1.640625,-0.36523 0.65648,-0.29177 1.070035,-0.49952 1.240234,-0.62109 0.89962,0.3404 1.422475,0.51171 1.568359,0.51171 0.486282,0.0973 0.803335,0.18292 0.949219,0.25586 0.680795,0.0486 1.032327,0.41296 1.056641,1.09375 0,0.29177 0.0128,0.7654 0.03711,1.42188 l 0.07227,0.91211 c 0,0.41334 -0.25503,1.9819 -0.765625,4.70508 0,0.14588 0.03643,0.4137 0.109375,0.80273 0.09726,0.36471 0.07362,0.66702 -0.07227,0.91016 -0.316083,0.43765 -0.583908,0.7547 -0.802734,0.94922 -0.02432,0.1702 -0.06075,0.32872 -0.109375,0.4746 -0.170198,0.36472 -0.534526,1.02049 -1.09375,1.96876 -0.461968,0.7051 -0.875524,1.41012 -1.240235,2.11523 -0.534909,0.85099 -1.229085,1.62888 -2.080078,2.33398 -0.680793,0.46197 -1.360221,0.91196 -2.041015,1.34961 -0.53491,0.41334 -0.802735,0.86333 -0.802735,1.34961 0.02431,0.851 0.365005,1.27735 1.021485,1.27735 0.680794,0 1.531543,-0.42635 2.552734,-1.27735 2.188266,-1.77492 3.694806,-4.18144 4.521484,-7.2207 0.02432,-0.17019 0.170046,-0.50004 0.4375,-0.98633 0.291769,-0.46197 0.439454,-0.8135 0.439454,-1.05664 -10e-7,-0.0729 -0.0128,-0.27874 -0.03711,-0.61914 -0.04863,-0.21883 -0.04863,-0.41379 0,-0.58398 0.02431,-0.21883 0.120817,-0.41379 0.291016,-0.58399 0.145884,-0.1702 0.267977,-0.40159 0.365234,-0.69336 0.07294,-0.36471 0.195036,-0.63253 0.365234,-0.80273 0.170199,-0.19452 0.363205,-0.40032 0.582032,-0.61914 0.753736,-0.77805 1.799446,-1.16797 3.136718,-1.16797 1.48316,0 2.565301,0.18216 3.246094,0.54687 0.680794,0.41334 1.083508,0.99822 1.205078,1.75196 0.04863,0.38902 0.168769,0.78979 0.363282,1.20312 0.194512,0.41334 0.292968,0.75403 0.292968,1.02149 0,0.12156 -0.07287,0.42582 -0.21875,0.91211 -0.170199,0.41333 -0.268655,0.8013 -0.292968,1.16601 -0.02431,0.87531 -0.133613,1.77529 -0.328125,2.69922 -0.02431,0.1702 -0.170046,0.92444 -0.4375,2.26172 -0.07294,0.29176 -0.231469,0.63246 -0.47461,1.02148 -0.705108,0.87531 -1.482991,1.3125 -2.333984,1.3125 -0.972563,0 -1.688424,-0.17132 -2.150391,-0.51172 -0.413339,-0.31608 -0.730392,-0.47265 -0.949218,-0.47265 -0.218828,0 -0.473856,0.15657 -0.765626,0.47265 -0.267454,0.3404 -0.402343,0.64466 -0.402343,0.91211 0,0.48628 0.522854,0.96186 1.568359,1.42383 0.753736,0.36471 1.398685,0.58331 1.933594,0.65625 0.899621,0.14589 1.726733,0.10945 2.480469,-0.10937 0.729422,-0.21883 1.447235,-0.81455 2.152343,-1.78711 0.607852,-0.851 0.97218,-1.64167 1.09375,-2.3711 0.02431,-0.21882 0.120817,-0.72889 0.291016,-1.53125 0.145883,-0.55922 0.207907,-1.10768 0.183594,-1.64257 -0.12157,-1.31296 -0.220026,-2.30945 -0.292969,-2.99024 -0.09726,-0.55923 -0.206554,-0.95998 -0.328125,-1.20312 0,-0.29177 0.134889,-0.5468 0.402344,-0.76563 0.267455,-0.24314 0.40039,-0.52376 0.40039,-0.83984 v -1.56836 c -0.145884,-0.1702 -0.21875,-0.41243 -0.21875,-0.72852 0.04863,-0.46199 0.06142,-0.71702 0.03711,-0.76562 -0.07294,-0.31608 -0.486499,-0.64398 -1.240235,-0.98438 -0.89962,-0.43765 -2.262382,-0.70548 -4.085937,-0.80273 h -2.84375 c -0.389025,-0.19452 -0.669646,-0.38947 -0.839844,-0.58399 -0.389024,-0.29176 -0.558391,-0.77819 -0.509766,-1.45898 0.04863,-0.5106 0.145131,-0.89856 0.291016,-1.16602 0.510595,-1.06982 1.350503,-1.60547 2.517578,-1.60547 1.337274,0.14589 1.943836,0.21875 1.822266,0.21875 h 3.464844 l 0.802734,0.0371 c 0.510595,0.0486 0.83849,0.0486 0.984375,0 0.680794,-0.0729 1.057917,-0.10937 1.130859,-0.10937 0.437654,-0.1702 0.65625,-0.40159 0.65625,-0.69336 0,-0.14589 -0.08371,-0.35364 -0.253906,-0.62109 -0.170199,-0.26746 -0.341521,-0.4004 -0.511719,-0.4004 -1.361588,-0.0973 -2.407296,-0.20655 -3.136718,-0.32812 -0.53491,-0.0243 -1.44573,-0.0115 -2.734375,0.0371 -1.31296,0.0729 -2.176505,0.0237 -2.589844,-0.14649 -0.77805,-0.31607 -1.167969,-0.82614 -1.167969,-1.53124 0,-0.26746 0.194959,-0.80311 0.583985,-1.60547 0.267454,-0.60788 0.402343,-0.89934 0.402343,-0.875 -0.02431,-0.41334 -0.341367,-0.79047 -0.949219,-1.13086 -0.534908,-0.29178 -0.997693,-0.4375 -1.386718,-0.4375 z m -49.052735,0.0371 c -0.389024,0 -0.631259,0.18216 -0.728515,0.54687 -0.267455,0.55923 -0.47521,0.97278 -0.621094,1.24024 -0.243141,0.72942 -0.412509,1.27591 -0.509766,1.64062 -0.145884,0.0729 -0.887335,0.65587 -2.224609,1.75 -1.215703,0.94825 -2.214137,1.58039 -2.992187,1.89649 -0.802365,0.29176 -1.203126,0.71811 -1.203126,1.27734 0,0.70511 0.51006,1.05664 1.53125,1.05664 0.753736,0 1.799445,-0.52285 3.136719,-1.56836 1.337274,-1.06982 2.104316,-1.99344 2.298828,-2.77148 0.09726,-0.53492 0.607316,-1.08141 1.53125,-1.64063 0.802364,-0.48628 1.203125,-1.03277 1.203125,-1.64062 0,-0.53491 -0.132936,-0.97406 -0.40039,-1.31446 -0.291769,-0.31608 -0.632459,-0.47265 -1.021485,-0.47265 z m 146.906249,0.10937 c -0.53491,0 -1.19265,0.15658 -1.9707,0.47266 -0.92394,0.41334 -1.50686,0.92535 -1.75,1.5332 -0.38903,0.94825 -0.46189,1.94473 -0.21875,2.99023 0.0243,0.26746 0.1464,0.54613 0.36523,0.8379 0.1702,0.29177 0.25391,0.49952 0.25391,0.62109 0,0.0243 -0.0108,0.0607 -0.0352,0.10937 -0.29177,0.89962 -0.4375,1.39689 -0.4375,1.49414 v 5.54493 c 0,0.0243 0.0237,0.44871 0.0723,1.27539 0.0973,0.77804 0.14648,1.21524 0.14648,1.3125 v 1.34961 c 0,0.75373 -0.0729,1.93433 -0.21875,3.53906 -0.0973,1.5561 -0.19571,2.45411 -0.29297,2.69727 -0.63216,1.9451 -1.33718,3.57571 -2.11523,4.88867 -0.43766,0.65648 -0.65625,1.25219 -0.65625,1.78711 0,0.72942 0.46278,1.09375 1.38672,1.09375 0.63216,0 1.21508,-0.63215 1.75,-1.89649 0.29176,-0.82668 0.58322,-1.641 0.875,-2.44336 0.55922,-1.58041 0.83984,-3.09974 0.83984,-4.55859 V 258.957 c 0,-0.80236 0.4244,-1.52018 1.27539,-2.15234 0.89962,-0.6808 1.83603,-1.02149 2.80859,-1.02149 1.75062,0 2.625,0.71782 2.625,2.15234 0,0.53492 -0.0601,1.6279 -0.18164,3.28126 -0.0729,1.62904 -0.10937,2.55461 -0.10937,2.77343 v 3.75586 c 0,1.04549 0.35348,1.58114 1.05859,1.60547 0.92394,0.0486 1.38477,-0.81492 1.38477,-2.58984 0,-0.55923 -0.0492,-1.24061 -0.14649,-2.04297 -0.0729,-0.89962 -0.10937,-1.38604 -0.10937,-1.45899 -0.0729,-0.85099 -0.0729,-2.02964 0,-3.53711 0.0486,-1.87218 0.0742,-3.06362 0.0742,-3.57421 v -1.64063 c 0,-0.29177 0.0108,-0.75455 0.0352,-1.38672 v -1.3125 c 0,-0.24314 0.0256,-0.72956 0.0742,-1.45898 0.0487,-0.53491 0.0615,-0.9721 0.0371,-1.3125 -0.26746,-1.33728 -0.46242,-2.11711 -0.58398,-2.33594 0,-0.24314 0.13293,-0.55825 0.40039,-0.94727 0.29176,-0.3404 0.4375,-0.87604 0.4375,-1.60546 v -1.3125 c 0,-0.53492 0.0255,-1.107 0.0742,-1.71485 l 0.10937,-0.65625 c 0,-0.82668 -0.44999,-1.48247 -1.34961,-1.96875 -0.68079,-0.38902 -1.4114,-0.58398 -2.18945,-0.58398 z m 38.6582,0.0352 c -0.29177,0 -0.6433,0.1093 -1.05664,0.32812 -0.41335,0.21883 -0.60832,0.32813 -0.58398,0.32813 -0.0486,0 -0.218,-0.0837 -0.50977,-0.25391 -0.36471,-0.24314 -0.96043,-0.36523 -1.78711,-0.36523 -1.58041,0 -2.37109,0.38796 -2.37109,1.16601 0,0.87531 0.44999,1.31446 1.34961,1.31446 0.58353,0 1.27576,-0.13489 2.07812,-0.40235 0.77808,-0.31608 1.19164,-0.47461 1.24024,-0.47461 0.43765,0.0973 0.71632,0.18292 0.83789,0.25586 0.94824,0.14586 1.62963,0.23153 2.04297,0.25586 0.12157,0 0.32932,0.12209 0.62109,0.36524 0.31609,0.1945 0.47266,0.37667 0.47266,0.54687 0,0.46197 -0.26587,0.87552 -0.80078,1.24024 -0.5106,0.36471 -1.04625,0.54687 -1.60547,0.54687 -0.80236,0 -1.42172,-0.24418 -1.85938,-0.73047 -0.36471,-0.55922 -0.76742,-0.83789 -1.20508,-0.83789 -0.7051,0 -1.05664,0.3151 -1.05664,0.94727 0,0.17019 0.3279,0.66941 0.98438,1.49609 0.7051,0.85099 1.05859,1.54322 1.05859,2.07813 0,0.63215 -0.38992,1.10774 -1.16797,1.42382 -0.58354,0.29177 -1.13003,0.4375 -1.64062,0.4375 -0.19452,-0.0486 -0.52241,-0.0742 -0.98438,-0.0742 -0.48628,0 -0.91263,0.1221 -1.27734,0.36524 -0.46197,0.24314 -0.69336,0.57103 -0.69336,0.98437 0,0.63217 0.41356,0.94922 1.24023,0.94922 0.26746,0 0.63179,-0.0492 1.09375,-0.14648 0.462,-0.0729 0.71703,-0.10938 0.76563,-0.10938 0.14589,0 0.39007,-0.0237 0.73047,-0.0723 0.26745,-0.0729 0.46241,-0.10938 0.58398,-0.10938 0.5106,0 1.00786,0.14573 1.49414,0.4375 0.60786,0.31608 0.91211,0.74048 0.91211,1.27539 0,0.0729 -0.18217,0.46287 -0.54687,1.16797 l -0.61914,1.27539 c -0.41334,1.41022 -0.69396,2.35942 -0.83985,2.84571 -0.0486,0.1945 -0.24358,0.38947 -0.58398,0.58398 -0.24314,0.1702 -0.48538,0.30313 -0.72852,0.40039 -0.77804,0.72942 -1.42299,1.33794 -1.93359,1.82422 -0.43765,0.29177 -0.88764,0.58323 -1.34961,0.875 -0.43763,0.29177 -0.66903,0.5468 -0.69336,0.76562 v 0.47461 c 0,0.75374 0.28062,1.13086 0.83984,1.13086 0.43766,0 0.97331,-0.23139 1.60547,-0.69336 0.63216,-0.41334 1.32439,-1.03269 2.07813,-1.85937 0.36471,-0.41334 0.67981,-0.99822 0.94726,-1.75195 0.19452,-0.77808 0.35305,-1.19164 0.47461,-1.24024 0.19452,-0.21883 0.35304,-0.41183 0.47461,-0.58203 0.1702,-0.17019 0.38879,-0.25586 0.65625,-0.25586 0.34042,0 0.49895,0.5337 0.47461,1.60352 0,1.8965 -0.0256,3.0643 -0.0742,3.50195 -0.24314,1.50747 -0.65474,2.99038 -1.23828,4.44922 -0.51059,1.31296 -0.76758,2.09084 -0.76758,2.33398 0,0.94826 0.40272,1.42383 1.20508,1.42383 0.80237,0 1.45816,-0.80347 1.96875,-2.4082 0.31609,-1.09414 0.47461,-2.12705 0.47461,-3.09961 0,-0.63217 0.0364,-1.16782 0.10938,-1.60547 0.12157,-0.51059 0.18164,-1.42142 0.18164,-2.73438 v -2.44336 l -0.36524,-5.10742 c -0.0243,-0.58353 0.0978,-1.13002 0.36524,-1.64062 0.26745,-0.48628 0.70464,-0.72852 1.3125,-0.72852 0.97256,0 1.38612,0.22944 1.24023,0.69141 -0.12157,0.55923 -0.49869,1.11851 -1.13086,1.67773 -0.60785,0.55923 -0.91015,0.96194 -0.91015,1.20508 0,0.0973 0.0108,0.18096 0.0351,0.25391 0.1702,0.41334 0.43802,0.62109 0.80274,0.62109 0.72942,0 1.4945,-0.46278 2.29687,-1.38672 0.82667,-0.97256 1.24024,-1.85974 1.24024,-2.66211 0,-0.82667 -0.26588,-1.38596 -0.80079,-1.67773 -0.36471,-0.19451 -0.7054,-0.38948 -1.02148,-0.58399 -0.72942,-0.0973 -1.44723,-0.18096 -2.15234,-0.2539 -1.3859,-0.24314 -2.07813,-0.74236 -2.07813,-1.4961 0,-0.51059 0.44804,-1.03345 1.34766,-1.56835 1.41022,-0.77806 2.26292,-1.31371 2.55469,-1.60547 0.85099,-0.77806 1.27539,-1.81097 1.27539,-3.09961 0,-0.63216 -0.66859,-1.11859 -2.00586,-1.45899 -0.80237,-0.19451 -1.53102,-0.29101 -2.1875,-0.29101 -0.0973,0 -0.24299,-0.0128 -0.4375,-0.0371 z m -27.27148,0.54101 c -0.13373,0.005 -0.25756,0.0187 -0.37305,0.043 -0.48628,0 -0.91263,0.26783 -1.27734,0.80274 -0.43769,0.55922 -0.6307,1.00921 -0.58203,1.34961 0.38904,1.02119 0.5712,1.99403 0.54687,2.91796 0,0.0243 -0.062,0.46151 -0.18359,1.3125 -0.0486,0.82666 -0.0723,1.25105 -0.0723,1.2754 0,0.65647 0.20581,1.83708 0.61914,3.53906 0.0729,0.12157 0.12215,0.23087 0.14649,0.32812 0.14588,0.19452 0.21875,0.41311 0.21875,0.65625 0,0.0486 -0.13293,0.30366 -0.40039,0.76563 -0.29177,0.46199 -0.4375,0.71702 -0.4375,0.76562 -0.1702,0.63217 -0.25586,1.24068 -0.25586,1.82422 v 2.55274 c 0,1.31296 -0.0729,3.26948 -0.21875,5.87109 -0.073,2.52866 -0.10938,3.74569 -0.10938,3.64844 -0.0486,0.51059 -0.025,1.05708 0.0723,1.64062 0.24314,0.92394 0.62026,1.38477 1.13086,1.38477 0.14588,0 0.26798,-0.0237 0.36523,-0.0723 0.38903,-0.12157 0.63126,-0.75372 0.72852,-1.89648 0.0243,-0.87531 0.0371,-1.77529 0.0371,-2.69922 l 0.18164,-7.11133 c 0.0973,-2.33415 0.57283,-3.50195 1.42382,-3.50195 0.80237,0 1.40893,0.7306 1.82227,2.18945 0.41333,1.50747 1.04549,2.95394 1.89649,4.33984 0.12157,0.21883 0.2673,0.43743 0.4375,0.65625 0.17021,0.31608 0.24309,0.65678 0.21874,1.02149 -0.0243,0.48628 -0.69289,1.05836 -2.00585,1.71484 -1.75062,0.89962 -2.72151,1.43332 -2.91602,1.60352 -0.21883,0.14588 -0.32813,0.4265 -0.32813,0.83984 0,0.6808 0.37517,1.01953 1.12891,1.01953 0.1702,0 0.51089,-0.1093 1.02149,-0.32812 0.0243,0 0.19563,-0.0364 0.51171,-0.10938 0.29178,-0.0729 0.60688,-0.21867 0.94727,-0.4375 0.24314,-0.14588 0.66949,-0.53385 1.27734,-1.16601 0.6808,-0.65648 1.17806,-1.07004 1.49414,-1.24024 0.0486,-0.0486 0.20716,-0.085 0.47461,-0.10937 0.24314,-0.0243 0.40167,-0.0243 0.47461,0 0.29177,0.0486 1.02043,0.80287 2.1875,2.26172 1.1914,1.45884 2.21347,2.1875 3.06446,2.1875 0.38902,0 0.75335,-0.19497 1.09375,-0.58399 0.3647,-0.36471 0.54687,-0.69261 0.54687,-0.98437 0,-0.12158 -0.0237,-0.24367 -0.0723,-0.36524 -1.04551,-0.68079 -2.00556,-1.25092 -2.88086,-1.71289 -1.89652,-1.31296 -2.86937,-2.42069 -2.91797,-3.32031 0,-0.0243 0.18217,-0.30298 0.54687,-0.83789 0.36472,-0.53491 0.58331,-0.96126 0.65625,-1.27734 0.12158,-0.72942 0.12158,-1.21585 0,-1.45899 0.26746,-0.3404 0.49885,-0.61906 0.69336,-0.83789 0.1702,-0.43765 0.32677,-0.85121 0.47266,-1.24023 0.2188,-0.46197 0.3409,-0.9356 0.36523,-1.42188 0.0243,-0.14588 0.17005,-0.40091 0.4375,-0.76562 0.24314,-0.31607 0.36524,-0.48739 0.36524,-0.51172 0,-0.29177 -0.16938,-0.6689 -0.50977,-1.13086 -0.36471,-0.46197 -0.75463,-0.69141 -1.16797,-0.69141 -0.1702,0 -0.51089,0.0473 -1.02148,0.14453 l -0.65625,0.10938 c -1.06982,-0.0486 -2.10274,-0.0358 -3.09961,0.0371 -1.19139,0.0486 -2.04214,0.0723 -2.55274,0.0723 -2.47885,0 -3.73438,-0.37534 -3.7832,-1.12304 0.0228,-0.041 0.0807,-0.33575 0.17188,-0.88282 0.17017,-1.33727 0.23024,-2.26089 0.18164,-2.77148 0,-0.0486 0.0364,-0.70442 0.10937,-1.96875 0.0729,-1.28863 0.12215,-1.94637 0.14649,-1.9707 0.14588,-0.29178 0.26797,-0.60688 0.36523,-0.94727 0.24314,-0.43765 0.46174,-0.69268 0.65625,-0.76562 0.43765,-0.0973 0.91128,-0.18292 1.42188,-0.25586 0.68079,-0.19452 1.38581,-0.44954 2.11523,-0.76563 0.073,-0.0243 0.13499,-0.0371 0.18359,-0.0371 0.0973,0 0.33949,0.13489 0.72852,0.40235 0.38903,0.24316 0.86265,0.3889 1.42187,0.4375 0.0486,0 0.36569,-0.0128 0.94922,-0.0371 h 0.98438 c 0.48628,0 0.94906,0.12209 1.38672,0.36523 0.41334,0.29177 0.61914,0.63245 0.61914,1.02149 -0.0243,2.48006 -1.73861,3.74436 -5.14258,3.79296 -1.11845,-0.26743 -1.9692,-0.41316 -2.55273,-0.4375 -0.851,-0.0243 -1.27735,0.34002 -1.27735,1.09375 0,0.82668 0.7178,1.3131 2.15235,1.45899 0.46196,0.0729 1.09412,0.10937 1.89648,0.10937 1.24002,0 2.33496,-0.24419 3.2832,-0.73047 0.87531,-0.36471 1.4218,-0.64337 1.64063,-0.83789 l 1.42187,-1.53125 c 0.36472,-0.55922 0.58331,-1.26619 0.65625,-2.11718 0.24318,-1.2157 0.34164,-2.06646 0.29297,-2.55274 -0.17019,-1.16708 -1.338,-1.75 -3.50195,-1.75 -1.41022,0 -2.71096,0.1221 -3.90235,0.36524 -1.2157,0.24314 -1.70212,0.36328 -1.45898,0.36328 -0.24314,0 -0.51096,-0.1093 -0.80273,-0.32813 -0.26746,-0.24314 -0.55892,-0.32684 -0.875,-0.2539 -0.31609,0.0486 -0.84979,-0.0134 -1.60352,-0.1836 -0.5653,-0.16412 -1.04999,-0.23829 -1.45117,-0.22461 z m -143.193359,1.32032 c -0.267455,0 -0.595351,0.14573 -0.984375,0.4375 -0.316084,0.26745 -0.47461,0.53332 -0.47461,0.80078 0,0.85099 0.51006,1.27734 1.53125,1.27734 0.510596,0 0.924152,-0.0965 1.240235,-0.29102 0.486281,-0.38902 0.826971,-0.58398 1.021484,-0.58398 0.02431,0 0.266548,0.12209 0.728516,0.36524 0.413338,0.19453 0.876122,0.31468 1.386719,0.36328 0.218825,0.0243 0.71609,0.0371 1.49414,0.0371 1.167075,0 1.751953,-0.46279 1.751953,-1.38672 0,-0.65648 -0.949206,-0.98438 -2.845703,-0.98438 -0.559223,0 -1.118511,0.1093 -1.677734,0.32813 -0.583538,0.19451 -0.960662,0.29297 -1.13086,0.29297 l -0.691406,-0.29297 c -0.437653,-0.24314 -0.887642,-0.36328 -1.349609,-0.36328 z m 133.046869,0.0723 c 1.14276,0 2.00435,0.14573 2.58789,0.4375 0.77805,0.36471 1.16797,1.06974 1.16797,2.11524 v 2.55273 c 0,0.19451 0.0601,0.46233 0.18164,0.80273 0.19452,0.36471 0.29297,0.65618 0.29297,0.875 0,0.0243 -0.062,0.10998 -0.18359,0.25586 -0.0972,0.14589 -0.15731,0.25519 -0.18164,0.32813 -0.12157,0.85099 -0.18164,1.49594 -0.18164,1.93359 0,0.60786 -0.0128,1.09233 -0.0371,1.45703 0.0973,0.99688 -0.3163,1.83679 -1.24024,2.51758 -0.0973,0.1702 -0.42514,0.31594 -0.98437,0.4375 -0.51059,0.14589 -0.93695,0.21875 -1.27735,0.21875 h -0.98437 c -0.63217,0 -1.17865,-0.18216 -1.64063,-0.54687 -0.51059,-0.38903 -0.76562,-0.85182 -0.76562,-1.38672 0,-1.0212 0.51006,-1.67699 1.53125,-1.96875 0.0973,-0.0486 1.05731,-0.18157 2.88086,-0.40039 1.02119,-0.19452 1.53125,-0.548 1.53125,-1.0586 0,-0.63216 -0.78873,-0.94726 -2.36914,-0.94726 h -0.4375 c -0.26745,0.0243 -0.43878,0.0351 -0.51172,0.0351 -0.85099,0 -1.42308,-0.0364 -1.71484,-0.10937 -0.60786,-0.19451 -0.95939,-0.60807 -1.05664,-1.24023 -0.24315,-0.94825 -0.42531,-1.53118 -0.54688,-1.75 -0.0243,-0.12158 0.0358,-0.2801 0.18164,-0.47461 0.14589,-0.21886 0.21875,-0.3518 0.21875,-0.40039 0.14589,-0.75375 0.31721,-1.3859 0.51172,-1.89649 0.43765,-1.19139 1.44693,-1.78711 3.02734,-1.78711 z M 121,241.01177 c -0.31608,0 -0.88817,0.0256 -1.71485,0.0742 -0.85102,0.0729 -1.30101,0.10937 -1.34961,0.10937 l -5.87109,0.0723 -8.24219,-0.0723 c -0.92394,-0.0486 -1.77468,0.0479 -2.55273,0.29102 -0.14589,0.0729 -0.37728,0.1586 -0.69336,0.25586 -0.31609,0.14588 -0.54748,0.21875 -0.693358,0.21875 -0.04863,0 -0.389318,-0.1093 -1.021484,-0.32813 -0.583538,-0.26745 -0.984299,-0.40039 -1.203125,-0.40039 -1.920812,0 -2.88086,0.54649 -2.88086,1.64062 0,0.29177 0.194959,0.5468 0.583985,0.76563 0.413339,0.21883 0.75403,0.32812 1.021484,0.32813 0.583538,0 1.32499,-0.19496 2.224609,-0.58399 0.875306,-0.41333 1.299705,-0.61914 1.275391,-0.61914 0.510598,0 0.864078,0.13294 1.058588,0.40039 0.14589,0.24314 0.85091,0.36524 2.11524,0.36524 1.53178,-10e-6 2.80693,0.0965 3.82812,0.29101 0.75374,0.1702 1.22932,0.74228 1.42383,1.71484 0.0729,1.70199 0.0966,3.08839 0.0723,4.15821 0.0487,0.63216 0.0614,1.21508 0.0371,1.75 -0.0243,0.26745 0.085,0.6938 0.32812,1.27734 0.26746,0.53491 0.40039,0.87365 0.40039,1.01953 0,0.0973 -0.14572,0.51082 -0.4375,1.24024 -0.26745,0.68079 -0.40039,1.26566 -0.40039,1.75195 0,2.72317 -0.0492,4.42468 -0.14648,5.10547 -0.0973,1.45885 -0.83871,2.1875 -2.22461,2.1875 h -1.45899 -2.15234 c -1.62904,0 -2.576294,0.0857 -2.843749,0.25586 l -0.802734,0.50976 c -0.486281,-0.41334 -0.959908,-0.66837 -1.421875,-0.76562 -0.07294,0 -0.3772,-0.0108 -0.912109,-0.0352 -1.580415,-0.0486 -2.662557,0.1936 -3.246094,0.72852 -0.09726,0.0486 -0.146485,0.218 -0.146485,0.50976 -0.02431,0.36472 0.04855,0.69457 0.21875,0.98633 0.267455,0.46197 0.899608,0.69141 1.896485,0.69141 0.510595,-0.073 0.827648,-0.13304 0.949219,-0.18164 0.02431,0 0.365005,-0.13294 1.021484,-0.40039 0.413339,-0.14589 0.752077,-0.34085 1.019531,-0.58399 0.316083,-0.24314 0.583908,-0.3288 0.802735,-0.25586 0.413339,0.24314 0.668369,0.4381 0.765625,0.58399 0.24314,0.19451 1.106677,0.29101 2.589837,0.29101 -0.19451,0 0.41401,-0.0237 1.82422,-0.0723 1.09414,-0.0486 1.89566,-0.0486 2.40625,0 1.53179,0.17022 2.95462,0.24308 4.26758,0.21875 1.5561,-0.0973 2.68747,-0.14649 3.39258,-0.14649 1.41021,-0.0729 2.84389,-0.0838 4.30273,-0.0352 1.79924,0.0486 3.24571,0.13234 4.33985,0.2539 1.14276,-0.12156 1.93344,-0.32736 2.37109,-0.61914 0.19451,-0.12156 0.29102,-0.2673 0.29102,-0.4375 0,-0.0973 -0.13293,-0.36508 -0.40039,-0.80273 -0.0973,-0.21883 -0.45074,-0.43743 -1.0586,-0.65625 -0.60785,-0.19452 -1.11791,-0.25458 -1.53125,-0.18164 -2.65023,0.19453 -4.66879,0.27824 -6.05468,0.2539 -1.8722,0.0243 -3.10006,6.8e-4 -3.6836,-0.0723 -0.55922,-0.0243 -1.05649,-0.21927 -1.49414,-0.58399 -0.36473,-0.43765 -0.53605,-0.92407 -0.51172,-1.45898 v -2.44336 c 0,-0.14588 -0.0237,-0.61951 -0.0723,-1.42187 -0.0729,-0.58354 -0.0729,-1.08276 0,-1.4961 0.0486,-0.34039 -0.0971,-0.80122 -0.4375,-1.38476 -0.31609,-0.55922 -0.42539,-1.13131 -0.32813,-1.71485 0.14588,-0.19451 0.30441,-0.38947 0.47461,-0.58398 0.29177,-0.5106 0.4375,-1.29932 0.4375,-2.36914 0,-0.41334 -0.0128,-0.8269 -0.0371,-1.24024 -0.21883,-2.79611 -0.0475,-4.536 0.51172,-5.21679 0.53491,-0.55921 1.20349,-0.85067 2.00586,-0.875 0.77805,-0.0243 1.95669,-0.0115 3.53711,0.0371 0.46197,0 1.32552,0.0364 2.58984,0.10938 1.11845,0.0729 1.98004,0.10938 2.58789,0.10938 0.24314,-1e-5 0.53656,-0.15853 0.87696,-0.47461 0.34039,-0.29177 0.50976,-0.51037 0.50976,-0.65625 0,-0.36471 -0.32789,-0.7054 -0.98437,-1.02149 -0.55922,-0.24314 -1.00921,-0.36523 -1.34961,-0.36523 z m 106.55859,2.02734 c 0.13981,-0.008 0.27643,-0.003 0.41016,0.0156 0.48628,0.0973 0.8634,0.35228 1.13086,0.76562 0.26745,0.34039 0.40234,0.59543 0.40234,0.76563 0,0.29176 -0.28062,0.63245 -0.83984,1.02148 -0.55923,0.36471 -0.94719,0.54688 -1.16602,0.54688 -0.46197,0 -0.94839,-0.0729 -1.45898,-0.21876 -0.63217,-0.21882 -0.94922,-0.4847 -0.94922,-0.80078 0,-0.75374 0.37712,-1.31302 1.13086,-1.67773 0.47412,-0.2553 0.92042,-0.39517 1.33984,-0.41797 z m -179.437497,2.85151 c -0.40726,-0.006 -0.950065,-0.002 -1.630859,0.01 -0.899621,-0.0243 -1.788756,0.13227 -2.664063,0.47265 -0.437652,0.24315 -0.703524,0.43811 -0.800781,0.58399 -0.170198,0.0486 -0.365158,0.0122 -0.583984,-0.10938 -0.291769,-0.0729 -0.473933,-0.10937 -0.546875,-0.10937 -0.07294,-0.0243 -0.304333,-0.0479 -0.69336,-0.0723 -0.340395,-0.0729 -0.546197,-0.10937 -0.61914,-0.10937 -0.923935,0 -1.423152,0.23139 -1.496094,0.69336 -0.02431,0.38902 0.04855,0.74056 0.21875,1.05664 0.218827,0.31611 0.486652,0.46183 0.802734,0.4375 0.996877,-0.12157 1.470503,-0.18164 1.421875,-0.18164 0.29177,0 0.546799,-0.1093 0.765625,-0.32813 0.218827,-0.24314 0.400991,-0.36523 0.546875,-0.36523 0.194514,0 0.657297,0.32789 1.386719,0.98437 0.364711,0.41334 0.61974,0.76683 0.765625,1.0586 0.04863,1.19139 0.03583,2.17508 -0.03711,2.95312 0.02431,0.14589 0.09718,0.35364 0.21875,0.6211 0.194512,0.26745 0.292969,0.58255 0.292969,0.94726 -10e-7,0.26746 -0.07287,0.69381 -0.21875,1.27735 -0.145885,0.55924 -0.21875,0.86352 -0.21875,0.9121 -0.07294,1.99377 -0.07294,3.391 0,4.19336 l 0.21875,2.29688 c 0,1.14276 -0.145733,1.98267 -0.4375,2.51758 -0.308706,0.61741 -0.830476,0.92699 -1.556641,0.9414 0.0133,-0.0346 -0.671825,-0.19022 -2.054688,-0.46679 -0.24314,-0.0729 -0.49817,-0.0129 -0.765625,0.18164 -0.24314,0.1702 -0.365234,0.38879 -0.365234,0.65625 0,0.85099 0.644948,1.43391 1.933594,1.75 0.534908,0.14588 1.203494,0.21875 2.005859,0.21875 0.729422,0 1.483669,-0.38797 2.261719,-1.16602 0.77805,-0.72942 1.129584,-1.44723 1.05664,-2.15234 0.02431,0.24314 0.03711,-0.60762 0.03711,-2.55274 0,-0.12157 -0.06202,-0.85022 -0.183594,-2.1875 -0.121572,-1.3859 -0.194437,-2.40797 -0.21875,-3.06445 0,-0.75374 0.02559,-1.21458 0.07422,-1.38476 -0.02431,-0.26748 -0.146407,-0.63374 -0.365234,-1.09571 -0.218826,-0.48628 -0.328125,-0.76495 -0.328125,-0.83789 0,-0.19451 0.122093,-0.68093 0.365234,-1.45898 0.267454,-0.77805 0.387594,-1.43385 0.363281,-1.96875 -0.09726,-0.89963 0.256231,-1.67751 1.058594,-2.33399 0.850994,-0.31608 1.532373,-0.51104 2.042969,-0.58398 0.389024,-0.12158 0.582031,-0.44947 0.582031,-0.98438 -0.02431,-0.43765 -0.279344,-0.76751 -0.765625,-0.98632 -0.194513,-0.0973 -0.546045,-0.17016 -1.056641,-0.21876 -0.133727,-0.0243 -0.405239,-0.0388 -0.8125,-0.0449 z m -21.726562,0.082 c -0.340397,0 -0.706678,0.15853 -1.095703,0.47461 -0.340398,0.29177 -0.533405,0.6561 -0.582032,1.09375 -0.145884,1.0212 -0.741604,2.01768 -1.787109,2.99024 -1.045505,0.89962 -2.104009,1.45891 -3.173828,1.67773 -1.240017,0.24314 -1.859375,0.766 -1.859375,1.56836 0,0.29177 0.169367,0.64526 0.509766,1.0586 0.267454,0.34039 0.522484,0.50976 0.765624,0.50976 0.218827,0 0.718044,-0.24223 1.496094,-0.72851 0.77805,-0.51062 1.277267,-0.79125 1.496094,-0.83985 0.267455,-0.0243 0.546122,0.10863 0.837891,0.40039 0.316081,0.24314 0.449017,0.51097 0.40039,0.80274 0.07294,1.0455 0.171399,1.70325 0.292969,1.9707 -0.243141,0.41334 -0.365234,0.9234 -0.365234,1.53125 0,0.87531 -0.03643,2.23612 -0.109375,4.08398 -0.04863,1.77493 -0.07227,3.13769 -0.07227,4.08594 v 1.67774 c 0,0.92393 0.304258,1.38476 0.912109,1.38476 0.632166,0 1.032927,-0.35153 1.203125,-1.05664 0.121572,-0.36471 0.194437,-0.96043 0.21875,-1.78711 v -2.22461 c -0.02431,-1.09412 -0.03711,-1.6534 -0.03711,-1.67773 v -3.64844 c 0,-0.63216 -0.122094,-1.19145 -0.365234,-1.67773 l -0.291016,-0.76563 c 0,-0.0486 0.109298,-0.29086 0.328125,-0.72851 0.243141,-0.48628 0.365234,-1.02193 0.365234,-1.60547 l -0.03711,-0.29102 c -0.02431,-0.21883 -0.03711,-0.45022 -0.03711,-0.69336 0,-0.31608 0.0128,-0.66761 0.03711,-1.05664 0.04863,-1.11845 0.108699,-1.73975 0.181641,-1.86133 0.413339,-0.75373 0.863328,-1.48239 1.349609,-2.1875 0.340397,-0.41334 0.511719,-0.74123 0.511719,-0.98437 0,-0.99688 -0.364328,-1.4961 -1.09375,-1.4961 z m 200.626949,5.03321 c -0.46196,0 -0.81545,0.26782 -1.05859,0.80273 -0.0973,0.48628 -0.2174,0.93627 -0.36328,1.34961 -0.24314,0.60785 -0.64586,0.94659 -1.20508,1.01953 -0.82668,0.24314 -1.37317,0.4509 -1.64063,0.6211 l -0.58398,-0.29102 c -0.36471,-0.19451 -0.96044,-0.29297 -1.78711,-0.29297 -0.41334,0 -0.77766,0.0985 -1.09375,0.29297 -0.51059,0.24314 -0.76561,0.55824 -0.76563,0.94727 1e-5,0.29176 0.14575,0.52316 0.4375,0.69336 0.26747,0.19451 0.52249,0.29101 0.76563,0.29101 h 1.16797 c 0.99688,-0.36471 1.62903,-0.63253 1.89648,-0.80273 0.48628,0.0973 0.87425,0.18292 1.16602,0.25586 0.31609,-0.0243 0.53664,0.0613 0.6582,0.25586 0.0243,0.14588 0.0479,0.27882 0.0723,0.40039 0.0243,0.0243 6.8e-4,0.42507 -0.0723,1.20312 0,0.0486 0.0237,0.19631 0.0723,0.43945 0.0729,0.21883 0.10937,0.42463 0.10937,0.61914 0.0243,0.19453 -0.35281,0.80304 -1.13086,1.82422 -0.8753,1.11845 -1.65319,1.87074 -2.33398,2.25977 -1.28865,0.85099 -2.56575,1.55601 -3.83008,2.11523 -0.72942,0.31608 -1.16661,0.59671 -1.3125,0.83985 -0.0729,0.24314 -0.10937,0.48537 -0.10937,0.72851 0,0.851 0.37712,1.27735 1.13085,1.27735 0.92394,0 2.37041,-0.75425 4.33985,-2.26172 1.94513,-1.48316 3.12377,-2.69823 3.53711,-3.64649 0.34039,-0.97256 0.47528,-1.92177 0.40234,-2.8457 -0.0243,-0.19451 0.085,-0.40031 0.32813,-0.61914 0.24314,-0.21883 0.39971,-0.36456 0.47265,-0.4375 0.26746,-0.43765 0.52444,-0.87485 0.76758,-1.3125 0.31608,-0.46195 0.63118,-0.70614 0.94727,-0.73047 1.11844,-0.0729 2.03122,0.0619 2.73633,0.40235 1.0455,0.41334 1.51913,1.17842 1.42187,2.29687 0,0.0729 0.0364,0.24231 0.10937,0.50977 0.14588,0.26745 0.21876,0.43877 0.21876,0.51171 -1e-5,0.0487 -0.0128,0.0979 -0.0371,0.14649 -0.38901,0.41334 -0.59481,0.86137 -0.61915,1.34766 -0.0973,1.02118 -0.21934,1.82466 -0.36523,2.4082 -0.14589,0.53491 -0.66874,1.00853 -1.56836,1.42187 -0.75373,0.29177 -1.44596,0.4375 -2.07812,0.4375 -0.19452,0 -0.548,-0.0601 -1.0586,-0.18164 -0.51059,-0.14588 -0.88772,-0.21875 -1.13086,-0.21875 -0.63216,0 -0.94726,0.40077 -0.94726,1.20313 0,0.41334 0.42439,0.8141 1.27539,1.20312 0.77804,0.36472 1.4102,0.54688 1.89648,0.54688 0.87531,0.0243 2.01947,-0.20513 3.42969,-0.69141 0.68079,-0.24314 1.22728,-0.95011 1.64063,-2.11719 0.1945,-0.65648 0.36387,-1.60373 0.50976,-2.84375 -0.0486,-1.26433 -0.16877,-2.09145 -0.36328,-2.48046 0,-0.0243 0.18216,-0.29215 0.54687,-0.80274 0.34042,-0.58354 0.53539,-1.22653 0.58399,-1.93164 0.14589,-1.14276 -0.23124,-1.88421 -1.13086,-2.22461 -0.31608,-0.14588 -1.37458,-0.34084 -3.17383,-0.58398 -1.36159,0 -2.04297,-0.3279 -2.04297,-0.98438 0,-0.19451 0.0985,-0.56079 0.29297,-1.0957 0,-0.24314 -0.12209,-0.52181 -0.36523,-0.83789 -0.21883,-0.29178 -0.47386,-0.4375 -0.76563,-0.4375 z m -192.859371,0.83789 c -0.243141,0 -0.521808,0.18411 -0.837891,0.54883 -0.24314,0.41333 -0.365234,0.72844 -0.365234,0.94726 0,0.55923 0.04727,1.02201 0.144531,1.38672 0.145885,0.41333 0.231547,0.7048 0.255859,0.875 0.02431,0.1702 -0.06135,0.42523 -0.255859,0.76563 -0.170198,0.29174 -0.326771,0.45026 -0.472656,0.47461 -0.510595,0.0729 -0.705555,0.10937 -0.583985,0.10937 -0.24314,0 -0.461736,0.0965 -0.65625,0.29102 L 31.0625,257.4238 c -0.875307,-0.24314 -1.580326,-0.42531 -2.115235,-0.54688 h -0.511719 c -0.194512,0.0243 -0.351086,0.0371 -0.472656,0.0371 -0.705108,0 -1.058594,0.37712 -1.058594,1.13086 0,0.34039 0.182165,0.66829 0.546875,0.98438 0.316083,0.29176 0.729639,0.4375 1.240235,0.4375 0.705107,0 1.313624,-0.15853 1.824218,-0.47461 0.486282,-0.31608 0.692083,-0.47266 0.619141,-0.47266 0.02431,0 0.159203,0.0837 0.402344,0.25391 0.267455,0.0972 0.449618,0.14648 0.546875,0.14648 0.72942,0 1.068158,0.38992 1.019531,1.16797 -0.02431,0.70511 -0.03516,1.3481 -0.03516,1.93164 0,0.53491 -0.03643,0.93567 -0.109375,1.20312 -0.316083,0.87531 -0.716844,1.46018 -1.203125,1.75196 -0.291769,0.21882 -0.523162,0.41378 -0.693359,0.58398 -0.121571,0.14586 -0.365759,0.19313 -0.730469,0.14453 -0.53491,-0.0729 -0.753506,-0.10937 -0.65625,-0.10937 -1.750613,0 -2.625,0.46278 -2.625,1.38672 0,0.63216 0.387965,1.02013 1.166015,1.16601 0.218827,0 0.608746,-0.0837 1.167969,-0.2539 0.267455,-0.0729 0.462414,-0.21868 0.583985,-0.4375 0.145884,-0.19452 0.315253,-0.3422 0.509765,-0.43946 0.291769,-0.19451 0.523162,-0.29101 0.693359,-0.29101 -0.04863,0 0.120741,0.0237 0.509766,0.0723 0.291769,0 0.510366,-0.0108 0.65625,-0.0352 0.948249,-0.3404 1.642425,-0.559 2.080078,-0.65625 0.899621,-0.31609 1.66471,-0.53469 2.296875,-0.65625 0.826679,-0.14589 1.666586,-0.30442 2.517578,-0.47461 1.31296,-0.29178 1.96875,-0.63246 1.96875,-1.02149 0,-0.63216 -0.499217,-0.94922 -1.496093,-0.94922 h -0.253907 l -0.21875,0.0371 h -0.876953 c -0.24314,0 -0.716767,0.0601 -1.421875,0.18164 -0.656479,0.14589 -0.971579,0.21875 -0.947265,0.21875 -0.340397,0 -0.558994,-0.24223 -0.65625,-0.72851 -0.12157,-0.48629 -0.183594,-1.34982 -0.183594,-2.58985 0,-0.24314 0.182164,-0.57103 0.546875,-0.98437 0.243141,-0.24314 0.49817,-0.36523 0.765625,-0.36523 h 2.042969 c 0.02431,0 0.219273,0.0364 0.583984,0.10937 0.364711,0.0243 0.559671,0.0371 0.583984,0.0371 0.194513,0 0.436747,-0.10931 0.728516,-0.32812 0.267455,-0.1702 0.402344,-0.35237 0.402344,-0.54688 0,-0.29177 -0.267825,-0.54681 -0.802735,-0.76562 -0.461967,-0.21881 -0.83909,-0.34091 -1.130859,-0.36524 -0.826678,-0.0729 -1.482469,-0.10937 -1.96875,-0.10937 -1.094135,-0.0973 -1.666217,-0.59648 -1.714844,-1.4961 0,-0.12156 0.132936,-0.41303 0.400391,-0.875 0.267455,-0.53491 0.402344,-0.89923 0.402344,-1.09375 0,-0.21882 -0.244188,-0.4975 -0.730469,-0.83789 -0.510595,-0.43765 -0.874923,-0.6582 -1.09375,-0.6582 z m 114.000001,0.80273 c 0.44373,0 0.92104,0.0128 1.43164,0.0371 1.11845,0.073 1.77424,0.19504 1.96875,0.36524 0.31608,0.29176 0.47461,0.71617 0.47461,1.27539 0,0.5106 -0.15853,1.22841 -0.47461,2.15234 -0.1702,0.38903 -0.41243,0.81342 -0.72852,1.27539 -0.75373,0.89962 -1.44791,1.34961 -2.08008,1.34961 -0.31608,0 -0.72963,-0.25503 -1.24023,-0.76562 -0.48628,-0.48629 -0.94711,-0.77775 -1.38477,-0.875 -0.12157,-0.0243 -0.18359,-0.0608 -0.18359,-0.10938 l 0.21875,-0.4375 c 0.14589,-0.29177 0.21875,-0.58323 0.21875,-0.875 0,-0.24315 -0.0837,-0.63306 -0.25391,-1.16797 -0.1702,-0.51059 -0.25586,-0.91135 -0.25586,-1.20312 0,-0.60788 0.35349,-0.93578 1.0586,-0.98438 0.37687,-0.0243 0.78674,-0.0371 1.23047,-0.0371 z m 43.99218,0.6211 c 1.26433,-0.0243 2.05501,0.23071 2.3711,0.76562 0.21882,0.34039 0.32812,1.09465 0.32812,2.26172 0,0.43765 -0.0965,0.80198 -0.29101,1.09375 -0.26746,0.38902 -0.49885,0.95915 -0.69336,1.71289 -0.1702,0.38901 -0.47446,0.59676 -0.91211,0.62109 -0.99687,0.0973 -1.78754,-0.58412 -2.3711,-2.04296 -0.36471,-1.06982 -0.54687,-2.15196 -0.54687,-3.2461 0.0486,-0.36471 0.32925,-0.66897 0.83984,-0.91211 0.38903,-0.1702 0.81343,-0.2539 1.27539,-0.2539 z m 62.6211,0.54687 c -0.5106,0 -0.82569,0.2058 -0.94727,0.61914 -0.5349,1.21568 -0.80273,1.837 -0.80273,1.86133 -0.38903,0.65648 -0.75336,1.28863 -1.09375,1.89648 -0.48628,0.70511 -1.30059,1.56669 -2.44336,2.5879 -0.0973,0.0729 -0.43795,0.2551 -1.02149,0.54687 -0.46199,0.24314 -0.71702,0.48733 -0.76562,0.73047 -0.0486,0.17019 -0.0742,0.31593 -0.0742,0.4375 0,0.72942 0.3279,1.09375 0.98438,1.09375 0.3647,0 0.92399,-0.30426 1.67773,-0.91211 0.70511,-0.65648 1.30083,-0.98438 1.78711,-0.98438 0.1702,0.0243 0.52369,0.25571 1.05859,0.69336 0.53492,0.3404 0.80274,0.61907 0.80274,0.83789 0,0.70511 -0.54845,1.32642 -1.64258,1.86133 -0.24314,0.0973 -1.26326,0.47438 -3.0625,1.13086 -1.09413,0.43766 -1.67705,0.81282 -1.75,1.12891 -0.12157,1.0455 0.18074,1.56836 0.91016,1.56836 1.0455,0 2.1168,-0.36433 3.21093,-1.09375 0.21883,-0.12157 1.08042,-0.77736 2.58789,-1.96875 0.87531,-0.72942 1.58228,-1.09375 2.11719,-1.09375 0.26745,0 1.12905,0.38797 2.58789,1.16601 0.851,0.48629 1.71454,0.94907 2.58985,1.38672 1.43452,0.63216 4.0616,1.19145 7.8789,1.67774 1.58042,0.19452 2.68619,0.20535 3.31836,0.0351 0.29177,-0.0729 0.60687,-0.29154 0.94727,-0.65625 0.29176,-0.38902 0.4375,-0.76614 0.4375,-1.13086 0,-0.68079 -0.58293,-1.01953 -1.75,-1.01953 -0.55922,0 -1.06929,0.0364 -1.53125,0.10938 l -2.55274,0.0352 c -1.19139,0.0243 -2.73632,-0.18148 -4.63281,-0.61914 -1.45885,-0.36471 -2.45533,-0.68176 -2.99023,-0.94922 -1.92082,-0.82668 -2.88086,-1.641 -2.88086,-2.44336 0,-0.21882 0.15852,-0.76531 0.47461,-1.64062 0.3647,-1.04551 0.5833,-1.65402 0.65625,-1.82422 0.0486,-0.21883 0.30365,-0.64322 0.76562,-1.27539 0.38903,-0.63217 0.58399,-1.08216 0.58398,-1.34961 10e-6,-0.31608 -0.19495,-0.706 -0.58398,-1.16797 -0.43765,-0.38902 -0.82757,-0.58203 -1.16797,-0.58203 -0.24314,0.0729 -0.48537,0.1458 -0.72851,0.21875 -0.5106,0.17019 -0.94779,0.25391 -1.3125,0.25391 -0.3404,0 -0.57179,-0.16938 -0.69336,-0.50977 -0.14588,-0.43765 -0.46294,-0.65625 -0.94922,-0.65625 z m 12.03515,1.13086 -1.85937,0.25391 c -0.58354,-0.14589 -0.93507,-0.21875 -1.05664,-0.21875 -0.89962,0 -1.34961,0.53565 -1.34961,1.60547 0,0.26745 0.0237,0.59534 0.0723,0.98437 0.12155,0.3404 0.18164,0.75396 0.18164,1.24023 0,1.5318 -0.38797,2.5903 -1.16602,3.17383 -0.29177,0.14589 -0.63246,0.30246 -1.02148,0.47266 -0.29177,0.19451 -0.4375,0.46234 -0.4375,0.80273 0,0.63217 0.27867,0.98565 0.83789,1.0586 0.60785,0.0729 1.2528,-0.15845 1.93359,-0.69336 0.68079,-0.55922 1.09435,-1.19138 1.24023,-1.89649 0.0973,-0.26745 0.14649,-0.66821 0.14649,-1.20312 0.0243,-1.06982 0.0479,-1.99539 0.0723,-2.77344 0.0729,-0.53489 0.51014,-0.81356 1.3125,-0.83789 0.60786,-0.0243 0.99777,0.14505 1.16797,0.50977 0.0973,0.12156 0.18096,0.43863 0.25391,0.94921 0.0486,0.36472 0.11065,0.61974 0.18359,0.76563 0.14589,0.0972 0.21875,0.21935 0.21875,0.36523 0,0.12158 -0.0985,0.31654 -0.29297,0.58399 -0.12157,0.31611 -0.18164,0.49827 -0.18164,0.54687 -0.12156,0.21883 -0.18164,0.75253 -0.18164,1.60352 0,0.89962 0.47363,1.53177 1.42188,1.89648 0.63216,0.26746 1.26432,0.36591 1.89648,0.29297 0.5106,-0.0729 1.05709,-0.23146 1.64063,-0.47461 0.85099,-0.46196 1.27734,-0.98482 1.27734,-1.56836 -0.0973,-0.58354 -0.37788,-0.91143 -0.83984,-0.98437 -0.0729,0 -0.35161,0.14573 -0.83789,0.4375 -0.53492,0.29177 -0.91204,0.47393 -1.13086,0.54687 -0.12157,0.0486 -0.29094,0.0723 -0.50977,0.0723 -0.75374,0 -1.13086,-0.27866 -1.13086,-0.83789 0,-0.46197 -0.0729,-0.8263 -0.21875,-1.09375 -0.24314,-0.51062 -0.36523,-0.79124 -0.36523,-0.83985 0,-0.12157 0.0857,-0.24366 0.25586,-0.36523 0.19454,-0.0729 0.31468,-0.26595 0.36328,-0.58203 0,-0.46197 0.0256,-0.77902 0.0742,-0.94922 0.0243,-0.0486 0.12082,-0.19436 0.29101,-0.4375 0.12158,-0.12157 0.1836,-0.2673 0.1836,-0.4375 -0.0243,-1.09413 -0.84059,-1.74992 -2.44532,-1.96875 z m -10.2832,1.85938 c 0.17019,-0.0243 0.36321,0.13421 0.58203,0.47461 0.21885,0.31607 0.3173,0.59475 0.29297,0.83789 -0.51059,1.53178 -0.92415,2.4554 -1.24023,2.77148 -0.26746,0.24312 -0.53528,0.37801 -0.80274,0.40234 0.0973,0 -0.14497,-0.0128 -0.72851,-0.0371 -0.46197,0 -0.82825,-0.18216 -1.09571,-0.54687 -0.24314,-0.41334 -0.31601,-0.79046 -0.21875,-1.13086 0.0486,-0.14588 0.19436,-0.40091 0.4375,-0.76563 0.26749,-0.43765 0.42601,-0.7419 0.47461,-0.9121 0.0729,-0.58354 0.39,-0.93507 0.94922,-1.05664 0.1702,-0.0243 0.62018,-0.0371 1.34961,-0.0371 z"
     id="rect4905"
     inkscape:connector-curvature="0" />
  <g
     aria-label=""
     style="font-style:normal;font-variant:normal;font-weight:normal;font-stretch:normal;font-size:37.34640503px;line-height:1.25;font-family:'Courier New';-inkscape-font-specification:'Courier New';letter-spacing:0px;word-spacing:0px;fill:#ff0000;fill-opacity:1;stroke:none;stroke-width:0.93366009"
     id="text4869"
     transform="translate(0.0078125,0.04492187)" />
  <g
     aria-label=""
     transform="matrix(1.4865481,0,0,0.67269938,0.0078125,0.04492187)"
     style="font-style:normal;font-variant:normal;font-weight:normal;font-stretch:normal;font-size:191.39593506px;line-height:1.25;font-family:'Courier New';-inkscape-font-specification:'Courier New';letter-spacing:0px;word-spacing:0px;fill:#ff0000;fill-opacity:1;stroke:none;stroke-width:4.78489876"
     id="text4873" />
  <g
     aria-label=""
     transform="matrix(1.6780531,0,0,0.59592871,0.0078125,0.04492187)"
     style="font-style:normal;font-variant:normal;font-weight:normal;font-stretch:normal;font-size:170.65214539px;line-height:1.25;font-family:'Courier New';-inkscape-font-specification:'Courier New';letter-spacing:0px;word-spacing:0px;opacity:1;fill:#ff51c9;fill-opacity:1;stroke:none;stroke-width:4.26630306"
     id="text4877" />
</svg>
