<?xml version="1.0" encoding="UTF-8"?>
<svg xmlns="http://www.w3.org/2000/svg" xmlns:xlink="http://www.w3.org/1999/xlink" width="498pt" height="128pt" viewBox="0 0 498 128" version="1.1">
<g id="surface1">
<path style=" stroke:none;fill-rule:nonzero;fill:rgb(5.882353%,3.921569%,3.921569%);fill-opacity:1;" d="M 310.945312 99.664062 C 310.945312 99.363281 311.246094 99.0625 311.605469 99.0625 C 311.90625 99.0625 312.027344 99.363281 311.847656 99.664062 C 311.667969 100.023438 311.367188 100.265625 311.1875 100.265625 C 311.066406 100.265625 310.945312 100.023438 310.945312 99.664062 Z M 310.945312 99.664062 "/>
<path style=" stroke:none;fill-rule:nonzero;fill:rgb(5.882353%,3.921569%,3.921569%);fill-opacity:1;" d="M 312.75 97.320312 C 312.75 96.960938 313.046875 96.539062 313.347656 96.359375 C 313.710938 96.179688 313.949219 96.417969 313.949219 96.902344 C 313.949219 97.441406 313.710938 97.863281 313.347656 97.863281 C 313.046875 97.863281 312.75 97.621094 312.75 97.320312 Z M 312.75 97.320312 "/>
<path style=" stroke:none;fill-rule:nonzero;fill:rgb(5.882353%,3.921569%,3.921569%);fill-opacity:1;" d="M 313.949219 95.21875 C 313.949219 95.097656 314.371094 94.855469 314.851562 94.617188 C 315.332031 94.4375 315.753906 94.558594 315.753906 94.855469 C 315.753906 95.21875 315.332031 95.457031 314.851562 95.457031 C 314.371094 95.457031 313.949219 95.339844 313.949219 95.21875 Z M 313.949219 95.21875 "/>
<path style=" stroke:none;fill-rule:nonzero;fill:rgb(5.882353%,3.921569%,3.921569%);fill-opacity:1;" d="M 321.757812 93.113281 C 321.757812 92.8125 322.179688 92.214844 322.78125 91.792969 C 323.679688 91.011719 323.679688 91.070312 323.019531 92.332031 C 322.300781 93.714844 321.757812 94.015625 321.757812 93.113281 Z M 321.757812 93.113281 "/>
<path style=" stroke:none;fill-rule:nonzero;fill:rgb(5.882353%,3.921569%,3.921569%);fill-opacity:1;" d="M 317.554688 91.851562 C 317.554688 91.433594 317.734375 91.25 317.976562 91.433594 C 318.15625 91.671875 318.15625 92.03125 317.976562 92.273438 C 317.734375 92.453125 317.554688 92.273438 317.554688 91.851562 Z M 317.554688 91.851562 "/>
<path style=" stroke:none;fill-rule:nonzero;fill:rgb(5.882353%,3.921569%,3.921569%);fill-opacity:1;" d="M 320.257812 90.832031 C 320.796875 89.871094 322.058594 88.367188 323.019531 87.464844 C 325.183594 85.363281 325.304688 84.101562 323.199219 85.78125 C 320.496094 87.945312 318.695312 87.164062 321.160156 84.941406 C 321.878906 84.339844 322.300781 83.5 322.121094 83.078125 C 322 82.71875 322.480469 81.757812 323.261719 81.035156 C 325.722656 78.753906 326.683594 74.847656 326.984375 65.890625 C 327.285156 57.960938 326.984375 54.714844 326.085938 56.21875 C 325.84375 56.578125 324.941406 57.058594 324.101562 57.296875 C 322.78125 57.597656 322.179688 57.296875 320.378906 55.195312 C 317.914062 52.3125 317.253906 50.085938 318.09375 47.804688 C 318.457031 46.902344 318.574219 46.179688 318.394531 46.179688 C 317.734375 46.179688 310.707031 51.46875 308.003906 53.992188 C 305.78125 56.097656 305.480469 56.699219 305.839844 58.078125 C 306.019531 58.980469 306.378906 62.285156 306.5 65.410156 C 306.863281 71.601562 305.960938 75.746094 304.15625 76.109375 C 303.617188 76.226562 301.933594 75.445312 300.492188 74.425781 C 296.589844 71.78125 292.082031 69.617188 290.339844 69.617188 C 289.5 69.617188 288.058594 70.039062 287.15625 70.519531 C 284.695312 71.78125 283.734375 71.660156 281.871094 69.679688 C 280.488281 68.234375 280.308594 67.753906 280.851562 66.734375 C 281.871094 64.871094 285.476562 62.285156 292.023438 58.859375 C 298.570312 55.4375 299.894531 54.414062 299.292969 53.511719 C 299.050781 53.09375 298.210938 53.152344 296.828125 53.753906 C 293.945312 54.953125 290.941406 54.835938 289.742188 53.511719 C 287.878906 51.46875 288.480469 48.523438 291.78125 43.476562 C 293.40625 40.953125 294.667969 38.730469 294.546875 38.550781 C 294.367188 38.429688 293.226562 38.789062 291.902344 39.449219 C 288.359375 41.253906 282.171875 43.175781 279.769531 43.175781 C 276.523438 43.175781 273.402344 41.433594 273.402344 39.570312 C 273.402344 38.25 273.761719 38.007812 276.703125 37.40625 C 281.992188 36.324219 298.8125 29.894531 303.496094 27.191406 C 306.019531 25.6875 306.140625 25.6875 308.183594 26.652344 C 311.546875 28.273438 311.90625 28.996094 310.585938 31.820312 C 309.804688 33.621094 307.824219 35.664062 303.558594 39.089844 C 298.269531 43.417969 294.90625 47.144531 295.628906 47.925781 C 295.808594 48.042969 297.488281 46.660156 299.472656 44.800781 C 303.136719 41.253906 305.601562 40.171875 306.980469 41.3125 C 307.941406 42.09375 307.34375 45.640625 305.78125 48.707031 C 304.398438 51.347656 305.238281 51.53125 307.824219 49.066406 C 309.023438 47.863281 312.6875 45.398438 315.933594 43.476562 C 321.398438 40.292969 322.179688 39.632812 326.023438 34.402344 C 330.769531 28.03125 332.03125 26.949219 334.796875 26.949219 C 336.476562 26.949219 336.898438 27.25 337.617188 29.054688 C 338.160156 30.257812 338.339844 31.636719 338.160156 32.238281 C 337.980469 32.78125 335.695312 35.484375 333.054688 38.128906 C 329.089844 42.273438 328.367188 43.355469 328.367188 45.039062 C 328.367188 46.78125 328.726562 47.261719 330.589844 48.285156 C 332.089844 49.066406 333.292969 50.449219 334.375 52.492188 C 335.757812 55.195312 335.875 56.097656 335.816406 62.105469 C 335.695312 72.261719 332.332031 82.777344 327.464844 88.1875 C 325.003906 90.890625 323.5625 91.492188 325.125 89.148438 L 326.085938 87.644531 L 324.222656 88.308594 C 323.199219 88.667969 322.359375 89.207031 322.359375 89.570312 C 322.359375 89.871094 322.660156 89.929688 323.082031 89.6875 C 323.5 89.449219 323.5625 89.507812 323.320312 89.929688 C 323.082031 90.351562 322.539062 90.652344 322.058594 90.652344 C 321.640625 90.652344 321.160156 91.070312 320.917969 91.550781 C 320.738281 92.03125 320.257812 92.453125 319.898438 92.453125 C 319.476562 92.453125 319.597656 91.851562 320.257812 90.832031 Z M 299.414062 63.789062 L 299.59375 60.664062 L 296.347656 62.464844 C 292.503906 64.511719 291.121094 65.832031 292.382812 66.253906 C 292.863281 66.371094 293.644531 66.671875 294.125 66.851562 C 294.605469 67.035156 295.988281 67.09375 297.128906 67.035156 C 299.230469 66.914062 299.230469 66.914062 299.414062 63.789062 Z M 299.414062 63.789062 "/>
<path style=" stroke:none;fill-rule:nonzero;fill:rgb(5.882353%,3.921569%,3.921569%);fill-opacity:1;" d="M 433.554688 90.832031 C 434.335938 89.871094 435.296875 88.90625 435.65625 88.546875 C 435.957031 88.246094 437.039062 86.625 437.9375 84.941406 C 438.839844 83.320312 442.023438 79.171875 445.085938 75.808594 C 450.015625 70.339844 451.335938 68.414062 457.34375 57.179688 C 461.007812 50.328125 464.128906 44.136719 464.25 43.476562 C 464.371094 42.574219 464.070312 42.214844 462.808594 42.09375 C 459.503906 41.734375 456.621094 36.988281 458.90625 35.542969 C 459.265625 35.304688 461.488281 34.945312 463.769531 34.761719 L 467.914062 34.464844 L 468.757812 32.058594 C 469.476562 29.894531 469.476562 29.535156 468.335938 28.03125 C 466.835938 25.988281 466.835938 24.066406 468.277344 22.203125 C 469.238281 21 469.71875 20.820312 471.640625 21.121094 C 474.644531 21.601562 477.949219 23.40625 479.390625 25.328125 C 480.050781 26.289062 480.652344 28.214844 480.832031 30.195312 C 481.070312 33.441406 481.132812 33.5625 482.691406 33.140625 C 483.535156 32.960938 484.855469 32.539062 485.636719 32.300781 C 488.640625 31.15625 491.523438 31.699219 495.007812 33.980469 C 499.09375 36.6875 499.214844 37.585938 496.269531 43.835938 C 495.128906 46.300781 493.207031 51.53125 492.066406 55.496094 C 490.863281 59.460938 488.941406 64.511719 487.800781 66.792969 C 484.914062 72.621094 479.269531 79.894531 476.566406 81.335938 L 474.28125 82.539062 L 473.261719 81.15625 C 472.601562 80.316406 471.820312 79.894531 471.21875 80.132812 C 470.136719 80.554688 467.734375 77.191406 467.734375 75.207031 C 467.734375 74.066406 464.792969 70.878906 462.628906 69.738281 C 461.667969 69.195312 461.246094 69.4375 460.046875 71.179688 C 458.785156 73.101562 456.980469 74.125 457.824219 72.503906 C 458.0625 72.082031 457.34375 72.742188 456.320312 74.003906 C 455.238281 75.207031 454.160156 76.226562 453.796875 76.226562 C 453.496094 76.226562 454.039062 75.207031 455.058594 74.003906 C 457.824219 70.640625 457.28125 70.21875 454.460938 73.464844 C 453.078125 75.027344 451.214844 76.648438 450.253906 77.191406 C 449.292969 77.671875 448.511719 78.453125 448.511719 78.992188 C 448.511719 79.535156 448.089844 79.832031 447.492188 79.714844 C 446.769531 79.59375 446.46875 79.894531 446.589844 80.613281 C 446.710938 81.15625 446.46875 81.636719 446.109375 81.636719 C 445.75 81.636719 445.628906 81.335938 445.867188 80.914062 C 446.167969 80.433594 445.988281 80.375 445.269531 80.613281 C 444.667969 80.855469 444.007812 81.035156 443.707031 81.035156 C 443.464844 81.035156 443.105469 81.636719 442.863281 82.417969 C 442.683594 83.140625 440.402344 85.722656 437.757812 88.125 C 432.894531 92.511719 430.910156 93.777344 433.554688 90.832031 Z M 466.535156 68.65625 C 465.8125 67.875 466.054688 67.816406 468.757812 68.175781 L 471.820312 68.535156 L 473.984375 65.652344 C 480.652344 56.578125 486.539062 39.269531 482.273438 41.074219 C 481.730469 41.375 480.289062 41.675781 479.148438 41.855469 C 478.007812 41.976562 476.6875 42.394531 476.324219 42.695312 C 475.484375 43.355469 469.355469 54.355469 465.390625 62.226562 L 462.988281 67.09375 L 464.910156 68.296875 C 467.316406 69.796875 467.496094 69.859375 466.535156 68.65625 Z M 466.535156 68.65625 "/>
<path style=" stroke:none;fill-rule:nonzero;fill:rgb(5.882353%,3.921569%,3.921569%);fill-opacity:1;" d="M 318.273438 89.148438 C 318.996094 87.527344 319.65625 87.285156 320.257812 88.308594 C 320.496094 88.667969 320.199219 89.328125 319.597656 89.75 C 317.914062 91.011719 317.496094 90.832031 318.273438 89.148438 Z M 318.273438 89.148438 "/>
<path style=" stroke:none;fill-rule:nonzero;fill:rgb(5.882353%,3.921569%,3.921569%);fill-opacity:1;" d="M 370.417969 78.332031 C 370.417969 76.167969 371.738281 73.765625 374.921875 70.21875 C 376.425781 68.535156 377.625 66.792969 377.625 66.3125 C 377.625 65.832031 376.84375 65.050781 375.824219 64.511719 C 374.863281 63.96875 374.023438 63.308594 374.023438 63.007812 C 374.023438 61.984375 377.925781 59.523438 380.929688 58.621094 C 384.535156 57.597656 385.195312 56.097656 382.3125 55.554688 C 381.230469 55.375 379.429688 55.4375 378.289062 55.796875 C 376.726562 56.21875 376.003906 56.15625 374.804688 55.375 C 371.078125 52.910156 369.757812 45.28125 372.398438 41.3125 C 374.140625 38.730469 377.144531 37.046875 384.234375 34.703125 C 394.867188 31.15625 397.871094 28.933594 391.082031 29.59375 C 380.871094 30.675781 376.304688 32 364.890625 37.289062 C 356.960938 40.953125 355.398438 41.3125 354.257812 39.929688 C 353.71875 39.269531 353.957031 38.789062 355.460938 37.527344 C 358.164062 35.242188 361.765625 33.5 370.597656 30.316406 C 378.40625 27.492188 383.273438 25.328125 386.21875 23.226562 C 387.597656 22.265625 387.839844 21.664062 387.839844 19.199219 C 387.839844 17.636719 388.199219 15.894531 388.621094 15.292969 C 389.339844 14.269531 389.519531 14.269531 391.625 15.292969 C 393.183594 16.015625 393.90625 16.855469 394.207031 18.175781 C 394.566406 19.738281 394.328125 20.21875 392.644531 21.601562 C 391.5625 22.503906 390 23.40625 389.101562 23.644531 C 386.636719 24.246094 381.832031 26.46875 381.832031 26.949219 C 381.832031 27.191406 382.972656 27.191406 384.414062 26.890625 C 388.378906 26.109375 399.371094 26.289062 400.996094 27.132812 C 401.777344 27.492188 402.4375 28.152344 402.375 28.453125 C 402.375 28.8125 400.332031 29.835938 397.8125 30.796875 C 395.289062 31.757812 393.304688 32.839844 393.425781 33.199219 C 393.546875 33.5625 394.867188 33.980469 396.371094 34.164062 C 403.816406 35.0625 402.4375 39.992188 391.503906 51.710938 C 389.160156 54.234375 387.238281 56.699219 387.238281 57.238281 C 387.238281 57.78125 387.898438 58.5 388.679688 58.921875 C 390.960938 59.941406 390.960938 60.964844 388.800781 62.648438 C 386.996094 63.96875 385.554688 66.613281 386.578125 66.613281 C 386.757812 66.613281 388.140625 65.351562 389.640625 63.847656 C 391.082031 62.347656 392.824219 60.84375 393.484375 60.484375 C 394.628906 59.882812 394.6875 59.882812 393.847656 61.023438 C 393.367188 61.683594 391.503906 63.910156 389.820312 65.953125 C 387.296875 68.957031 386.636719 70.097656 386.636719 71.839844 C 386.636719 73.765625 386.515625 73.945312 385.195312 73.585938 C 384.113281 73.34375 383.03125 73.765625 380.808594 75.566406 C 376.90625 78.632812 374.503906 79.832031 372.21875 79.832031 C 370.65625 79.832031 370.417969 79.59375 370.417969 78.332031 Z M 380.628906 71.539062 C 381.890625 70.460938 382.492188 69.558594 382.191406 69.078125 C 381.832031 68.535156 381.351562 68.65625 380.210938 69.738281 C 378.527344 71.300781 377.328125 73.222656 378.105469 73.222656 C 378.347656 73.222656 379.488281 72.441406 380.628906 71.539062 Z M 378.226562 52.492188 C 378.226562 52.3125 377.808594 51.167969 377.328125 49.96875 C 376.246094 47.441406 376.246094 47.382812 377.027344 47.382812 C 377.386719 47.382812 378.105469 48.34375 378.648438 49.488281 C 379.1875 50.628906 379.847656 51.589844 380.03125 51.589844 C 380.269531 51.589844 380.808594 50.507812 381.230469 49.1875 C 381.953125 46.902344 381.953125 46.660156 380.628906 45.28125 C 379.667969 44.257812 379.367188 43.417969 379.667969 42.335938 L 380.03125 40.894531 L 376.964844 42.335938 L 373.902344 43.835938 L 374.324219 46.660156 C 374.863281 50.085938 376.183594 52.792969 377.328125 52.792969 C 377.808594 52.792969 378.226562 52.671875 378.226562 52.492188 Z M 383.996094 50.566406 C 383.332031 49.90625 382.851562 50.929688 383.332031 52.011719 C 383.8125 53.03125 383.8125 53.03125 384.054688 52.011719 C 384.234375 51.410156 384.175781 50.75 383.996094 50.566406 Z M 389.640625 47.984375 C 391.023438 45.339844 391.203125 43.535156 390.121094 43.898438 C 389.21875 44.199219 388.140625 46.300781 387.539062 48.765625 C 386.878906 51.230469 388.199219 50.75 389.640625 47.984375 Z M 384.535156 44.980469 C 385.375 44.078125 385.4375 43.777344 384.773438 43.777344 C 383.453125 43.777344 382.253906 44.800781 382.671875 45.519531 C 383.214844 46.363281 383.273438 46.363281 384.535156 44.980469 Z M 395.347656 41.375 C 397.332031 37.46875 397.332031 36.445312 395.289062 36.6875 C 393.066406 36.925781 392.40625 38.25 392.886719 41.554688 C 393.125 43.117188 393.425781 44.378906 393.546875 44.378906 C 393.726562 44.378906 394.507812 43.054688 395.347656 41.375 Z M 390.242188 39.449219 C 390.242188 38.488281 390.0625 38.308594 389.582031 38.789062 C 389.21875 39.148438 389.101562 39.75 389.28125 40.113281 C 389.941406 41.132812 390.242188 40.894531 390.242188 39.449219 Z M 386.335938 38.96875 C 386.757812 38.25 385.617188 38.25 383.933594 38.96875 C 382.851562 39.449219 382.914062 39.511719 384.355469 39.511719 C 385.253906 39.570312 386.15625 39.332031 386.335938 38.96875 Z M 386.335938 38.96875 "/>
<path style=" stroke:none;fill-rule:nonzero;fill:rgb(5.882353%,3.921569%,3.921569%);fill-opacity:1;" d="M 133.3125 75.808594 C 130.367188 72.984375 130.25 72.804688 129.949219 68.777344 C 129.707031 66.433594 128.566406 61.625 127.363281 58.078125 C 124.363281 48.945312 124.960938 48.105469 131.808594 52.011719 L 135.773438 54.171875 L 139.019531 52.492188 C 142.863281 50.449219 144.304688 48.40625 144.847656 44.136719 C 145.085938 42.457031 145.386719 40.894531 145.507812 40.652344 C 146.046875 39.8125 149.230469 41.492188 151.933594 44.078125 C 153.4375 45.582031 154.9375 46.78125 155.179688 46.78125 C 155.417969 46.722656 157.160156 46.363281 158.964844 45.941406 C 162.207031 45.21875 162.265625 45.160156 162.449219 42.9375 C 162.746094 39.390625 161.605469 37.167969 159.503906 37.167969 C 158.363281 37.167969 157.761719 36.867188 157.761719 36.324219 C 157.761719 35.605469 156.921875 35.785156 153.554688 36.988281 C 149.472656 38.488281 147.371094 38.429688 149.53125 36.925781 C 150.074219 36.507812 150.554688 36.023438 150.554688 35.90625 C 150.554688 35.785156 147.789062 35.726562 144.484375 35.84375 C 136.316406 36.085938 133.132812 34.761719 133.972656 31.457031 C 134.574219 28.996094 139.257812 27.671875 152.054688 26.351562 C 155.359375 25.988281 159.984375 25.449219 162.265625 25.027344 C 167.554688 24.1875 170.4375 24.726562 173.082031 27.011719 C 174.820312 28.511719 175.0625 29.054688 174.582031 30.015625 C 173.742188 31.519531 171.457031 32.601562 167.191406 33.5 L 163.648438 34.28125 L 164.851562 35.542969 C 166.59375 37.46875 168.574219 41.433594 168.574219 43.117188 C 168.574219 44.257812 168.816406 44.4375 169.957031 44.136719 C 177.644531 41.914062 182.03125 42.574219 183.894531 46.242188 C 185.035156 48.40625 184.734375 49.003906 180.769531 52.128906 C 177.644531 54.59375 177.34375 55.136719 176.746094 59.523438 C 176.625 60.722656 175.542969 63.96875 174.460938 66.734375 L 172.417969 71.722656 L 166.472656 71.902344 C 158.902344 72.140625 157.703125 71.660156 161.667969 70.097656 C 165.511719 68.597656 166.171875 67.996094 166.171875 66.191406 C 166.171875 65.351562 167.375 61.625 168.875 57.839844 C 170.375 54.113281 171.578125 50.75 171.578125 50.386719 C 171.578125 50.027344 170.859375 49.785156 169.957031 49.90625 C 168.636719 50.027344 168.214844 50.566406 167.433594 53.09375 C 166.894531 54.773438 165.632812 57.179688 164.730469 58.378906 C 163.289062 60.304688 163.109375 60.722656 163.828125 61.566406 C 164.550781 62.464844 164.308594 62.828125 162.085938 64.871094 C 158.421875 68.117188 154.578125 68.835938 147.070312 67.695312 L 141.421875 66.851562 L 141.902344 70.160156 C 142.625 75.566406 142.5625 75.746094 140.640625 76.890625 C 137.035156 78.933594 136.496094 78.871094 133.3125 75.808594 Z M 144.003906 64.027344 C 145.328125 63.847656 147.128906 63.246094 147.96875 62.648438 C 149.53125 61.683594 149.53125 61.625 148.390625 61.144531 C 147.667969 60.902344 146.527344 59.761719 145.867188 58.5625 C 144.304688 55.976562 143.585938 55.855469 140.941406 58.140625 L 138.898438 59.824219 L 139.738281 62.464844 C 140.820312 65.890625 141.183594 66.554688 141.421875 65.351562 C 141.542969 64.691406 142.441406 64.269531 144.003906 64.027344 Z M 158.902344 57.71875 C 161.066406 55.675781 162.746094 51.589844 161.785156 50.628906 C 161.605469 50.449219 159.863281 51.046875 157.941406 52.011719 C 154.277344 53.8125 153.554688 55.136719 154.398438 58.5625 C 154.9375 60.605469 156.140625 60.363281 158.902344 57.71875 Z M 158.902344 57.71875 "/>
<path style=" stroke:none;fill-rule:nonzero;fill:rgb(5.882353%,3.921569%,3.921569%);fill-opacity:1;" d="M 202.273438 75.988281 C 201.554688 74.90625 200.832031 73.101562 200.59375 71.960938 L 200.234375 69.917969 L 201.734375 70.941406 L 203.238281 71.960938 L 206 67.035156 C 209.722656 60.363281 215.492188 48.585938 215.128906 48.585938 C 214.410156 48.585938 204.015625 52.792969 201.132812 54.234375 C 199.453125 55.074219 197.828125 56.21875 197.53125 56.757812 C 197.050781 57.539062 196.75 57.480469 195.125 56.097656 C 194.046875 55.195312 193.203125 53.992188 193.203125 53.453125 C 193.203125 52.011719 197.53125 49.003906 204.199219 45.878906 C 210.085938 43.117188 212.847656 42.214844 217.351562 41.675781 L 220.175781 41.3125 L 225.703125 33.382812 C 232.191406 24.125 236.394531 19.140625 237.71875 19.140625 C 238.738281 19.140625 240.660156 20.941406 240.660156 21.964844 C 240.660156 22.265625 239.582031 23.40625 238.257812 24.488281 C 235.316406 26.890625 224.921875 40.292969 225.523438 40.894531 C 225.824219 41.195312 227.207031 41.976562 228.707031 42.753906 C 231.832031 44.316406 232.492188 46.421875 230.449219 48.285156 C 228.527344 50.027344 228.765625 55.796875 230.929688 60.0625 C 232.3125 62.886719 233.03125 63.546875 236.15625 65.109375 C 239.21875 66.613281 240.480469 66.914062 244.265625 66.914062 C 251.714844 66.914062 253.878906 65.050781 255.378906 57.296875 C 256.460938 51.949219 257.363281 49.1875 258.082031 49.1875 C 258.921875 49.1875 259.402344 56.21875 259.164062 64.328125 C 258.984375 71.121094 258.863281 72.082031 257.78125 72.863281 C 255.621094 74.484375 250.8125 75.144531 242.464844 74.964844 C 235.015625 74.726562 234.054688 74.605469 230.929688 73.042969 C 224.023438 69.679688 221.078125 63.246094 221.558594 52.730469 C 221.738281 49.488281 221.679688 46.78125 221.378906 46.78125 C 221.136719 46.78125 219.875 47.984375 218.554688 49.488281 C 214.289062 54.355469 207.921875 66.074219 206.179688 72.320312 C 205.578125 74.304688 205.039062 76.410156 204.859375 77.007812 C 204.378906 78.511719 203.65625 78.269531 202.273438 75.988281 Z M 202.273438 75.988281 "/>
<path style=" stroke:none;fill-rule:nonzero;fill:rgb(5.882353%,3.921569%,3.921569%);fill-opacity:1;" d="M 409.707031 75.445312 C 407.183594 72.5625 404.660156 68.597656 405.800781 69.257812 C 406.160156 69.496094 406.460938 69.378906 406.460938 69.078125 C 406.460938 67.515625 403.277344 68.535156 400.753906 70.878906 C 399.253906 72.261719 397.929688 73.285156 397.8125 73.164062 C 397.628906 73.042969 398.773438 71.359375 400.214844 69.4375 C 403.21875 65.472656 403.335938 64.570312 401.65625 61.203125 C 400.332031 58.5625 400.214844 58.199219 400.933594 58.199219 C 401.234375 58.199219 401.894531 59.160156 402.4375 60.304688 C 402.976562 61.445312 403.636719 62.40625 403.878906 62.40625 C 404.359375 62.347656 408.984375 53.453125 408.925781 52.730469 C 408.863281 52.492188 407.78125 52.609375 406.402344 52.910156 C 404.238281 53.511719 403.816406 53.390625 402.675781 52.25 C 401.535156 51.109375 401.476562 50.867188 402.257812 50.386719 C 402.738281 50.085938 404 49.785156 404.960938 49.785156 C 407.601562 49.785156 409.464844 48.285156 409.464844 46.121094 C 409.464844 45.097656 409.765625 43.117188 410.125 41.613281 C 410.726562 39.390625 411.027344 38.96875 412.226562 38.96875 C 414.269531 38.96875 416.011719 40.953125 416.433594 43.777344 C 416.734375 45.699219 417.035156 46.179688 417.753906 45.878906 C 419.859375 45.097656 423.703125 44.917969 425.265625 45.519531 C 426.945312 46.179688 427.007812 46.300781 426.585938 49.367188 C 426.40625 51.046875 425.265625 54.414062 424.121094 56.757812 C 421.359375 62.527344 413.730469 76.347656 412.828125 77.308594 C 412.167969 77.972656 411.628906 77.609375 409.707031 75.445312 Z M 416.191406 67.09375 C 420.21875 60.183594 421.898438 56.277344 422.742188 52.25 C 423.101562 50.207031 423.28125 48.40625 423.160156 48.222656 C 422.980469 48.042969 421.238281 48.707031 419.316406 49.605469 C 416.433594 50.988281 415.832031 51.53125 415.953125 52.609375 C 416.253906 54.894531 414.390625 58.199219 410.367188 62.347656 C 406.582031 66.253906 406.519531 66.433594 407.421875 67.753906 C 408.503906 69.257812 411.746094 71.421875 412.890625 71.421875 C 413.308594 71.421875 414.75 69.4375 416.191406 67.09375 Z M 416.191406 67.09375 "/>
<path style=" stroke:none;fill-rule:nonzero;fill:rgb(5.882353%,3.921569%,3.921569%);fill-opacity:1;" d="M 302.714844 22.144531 C 301.933594 21.84375 301.335938 21.363281 301.335938 21.0625 C 301.335938 20.761719 300.492188 19.4375 299.472656 18.175781 C 295.746094 13.488281 295.6875 10.546875 299.292969 9.945312 C 302.054688 9.464844 306.140625 11.445312 309.203125 14.753906 C 312.027344 17.636719 312.507812 19.378906 311.308594 21.242188 C 310.464844 22.5625 309.863281 22.746094 307.160156 22.683594 C 305.480469 22.683594 303.4375 22.445312 302.714844 22.144531 Z M 302.714844 22.144531 "/>
<path style=" stroke:none;fill-rule:nonzero;fill:rgb(100%,100%,99.607843%);fill-opacity:1;" d="M 294.125 66.851562 C 293.644531 66.671875 292.863281 66.371094 292.382812 66.253906 C 291.121094 65.832031 292.503906 64.511719 296.347656 62.464844 L 299.59375 60.664062 L 299.414062 63.789062 C 299.230469 66.914062 299.230469 66.914062 297.128906 67.035156 C 295.988281 67.09375 294.605469 67.035156 294.125 66.851562 Z M 294.125 66.851562 "/>
<path style=" stroke:none;fill-rule:nonzero;fill:rgb(100%,100%,99.607843%);fill-opacity:1;" d="M 464.910156 68.296875 L 462.988281 67.09375 L 465.390625 62.226562 C 469.355469 54.355469 475.484375 43.355469 476.324219 42.695312 C 476.6875 42.394531 478.007812 41.976562 479.148438 41.855469 C 480.289062 41.675781 481.730469 41.375 482.273438 41.074219 C 486.539062 39.269531 480.652344 56.578125 473.984375 65.652344 L 471.820312 68.535156 L 468.757812 68.175781 C 466.054688 67.816406 465.8125 67.875 466.535156 68.65625 C 467.496094 69.859375 467.316406 69.796875 464.910156 68.296875 Z M 464.910156 68.296875 "/>
<path style=" stroke:none;fill-rule:nonzero;fill:rgb(100%,100%,99.607843%);fill-opacity:1;" d="M 378.167969 72.203125 C 378.46875 71.601562 379.367188 70.519531 380.210938 69.738281 C 381.351562 68.65625 381.832031 68.535156 382.191406 69.078125 C 382.492188 69.558594 381.890625 70.460938 380.628906 71.539062 C 378.289062 73.464844 377.328125 73.703125 378.167969 72.203125 Z M 378.167969 72.203125 "/>
<path style=" stroke:none;fill-rule:nonzero;fill:rgb(100%,100%,99.607843%);fill-opacity:1;" d="M 375.585938 51.109375 C 375.105469 50.207031 374.5625 48.222656 374.324219 46.660156 L 373.902344 43.835938 L 376.964844 42.335938 L 380.03125 40.894531 L 379.667969 42.335938 C 379.367188 43.417969 379.667969 44.257812 380.628906 45.28125 C 381.953125 46.660156 381.953125 46.902344 381.230469 49.1875 C 380.808594 50.507812 380.269531 51.589844 380.03125 51.589844 C 379.847656 51.589844 379.1875 50.628906 378.648438 49.488281 C 378.105469 48.34375 377.386719 47.382812 377.027344 47.382812 C 376.246094 47.382812 376.246094 47.441406 377.328125 49.96875 C 378.46875 52.671875 378.46875 52.792969 377.328125 52.792969 C 376.84375 52.792969 376.066406 52.070312 375.585938 51.109375 Z M 375.585938 51.109375 "/>
<path style=" stroke:none;fill-rule:nonzero;fill:rgb(100%,100%,99.607843%);fill-opacity:1;" d="M 383.332031 52.011719 C 383.09375 51.410156 383.03125 50.75 383.273438 50.566406 C 383.875 49.96875 384.355469 50.808594 384.054688 52.011719 C 383.8125 53.03125 383.8125 53.03125 383.332031 52.011719 Z M 383.332031 52.011719 "/>
<path style=" stroke:none;fill-rule:nonzero;fill:rgb(100%,100%,99.607843%);fill-opacity:1;" d="M 387.539062 48.765625 C 388.140625 46.300781 389.21875 44.199219 390.121094 43.898438 C 391.203125 43.535156 391.023438 45.339844 389.640625 47.984375 C 388.199219 50.75 386.878906 51.230469 387.539062 48.765625 Z M 387.539062 48.765625 "/>
<path style=" stroke:none;fill-rule:nonzero;fill:rgb(100%,100%,99.607843%);fill-opacity:1;" d="M 382.671875 45.519531 C 382.253906 44.800781 383.453125 43.777344 384.773438 43.777344 C 385.4375 43.777344 385.375 44.078125 384.535156 44.980469 C 383.273438 46.363281 383.214844 46.363281 382.671875 45.519531 Z M 382.671875 45.519531 "/>
<path style=" stroke:none;fill-rule:nonzero;fill:rgb(100%,100%,99.607843%);fill-opacity:1;" d="M 392.886719 41.554688 C 392.40625 38.25 393.066406 36.925781 395.289062 36.6875 C 396.371094 36.566406 396.851562 36.746094 396.851562 37.46875 C 396.851562 38.429688 394.027344 44.378906 393.546875 44.378906 C 393.425781 44.378906 393.125 43.117188 392.886719 41.554688 Z M 392.886719 41.554688 "/>
<path style=" stroke:none;fill-rule:nonzero;fill:rgb(100%,100%,99.607843%);fill-opacity:1;" d="M 389.28125 40.113281 C 389.101562 39.75 389.21875 39.148438 389.582031 38.789062 C 390.0625 38.308594 390.242188 38.488281 390.242188 39.449219 C 390.242188 40.894531 389.941406 41.132812 389.28125 40.113281 Z M 389.28125 40.113281 "/>
<path style=" stroke:none;fill-rule:nonzero;fill:rgb(100%,100%,99.607843%);fill-opacity:1;" d="M 383.933594 38.96875 C 385.617188 38.25 386.757812 38.25 386.335938 38.96875 C 386.15625 39.332031 385.253906 39.570312 384.355469 39.511719 C 382.914062 39.511719 382.851562 39.449219 383.933594 38.96875 Z M 383.933594 38.96875 "/>
<path style=" stroke:none;fill-rule:nonzero;fill:rgb(100%,100%,99.607843%);fill-opacity:1;" d="M 140.882812 65.710938 C 140.699219 65.410156 140.160156 63.910156 139.738281 62.464844 L 138.898438 59.824219 L 140.941406 58.140625 C 143.585938 55.855469 144.304688 55.976562 145.867188 58.5625 C 146.527344 59.761719 147.667969 60.902344 148.390625 61.144531 C 149.53125 61.625 149.53125 61.683594 147.96875 62.648438 C 147.128906 63.246094 145.328125 63.847656 144.003906 64.027344 C 142.441406 64.269531 141.542969 64.691406 141.421875 65.351562 C 141.300781 65.890625 141.0625 66.074219 140.882812 65.710938 Z M 140.882812 65.710938 "/>
<path style=" stroke:none;fill-rule:nonzero;fill:rgb(100%,100%,99.607843%);fill-opacity:1;" d="M 154.398438 58.5625 C 153.554688 55.136719 154.277344 53.8125 157.941406 52.011719 C 159.863281 51.046875 161.605469 50.449219 161.785156 50.628906 C 162.746094 51.589844 161.066406 55.675781 158.902344 57.71875 C 156.140625 60.363281 154.9375 60.605469 154.398438 58.5625 Z M 154.398438 58.5625 "/>
<path style=" stroke:none;fill-rule:nonzero;fill:rgb(100%,100%,99.607843%);fill-opacity:1;" d="M 410.304688 70.277344 C 409.226562 69.617188 407.964844 68.476562 407.421875 67.753906 C 406.519531 66.433594 406.582031 66.253906 410.367188 62.347656 C 414.390625 58.199219 416.253906 54.894531 415.953125 52.609375 C 415.832031 51.53125 416.433594 50.988281 419.316406 49.605469 C 421.238281 48.707031 422.980469 48.042969 423.160156 48.222656 C 423.761719 48.886719 421.960938 56.035156 420.339844 59.339844 C 417.574219 65.109375 413.671875 71.421875 412.890625 71.421875 C 412.46875 71.421875 411.328125 70.878906 410.304688 70.277344 Z M 410.304688 70.277344 "/>
<path style="fill-rule:evenodd;fill:rgb(59.607843%,78.039216%,10.980392%);fill-opacity:1;stroke-width:0.1;stroke-linecap:butt;stroke-linejoin:miter;stroke:rgb(59.607843%,78.039216%,10.980392%);stroke-opacity:1;stroke-miterlimit:4;" d="M 113.118757 25.448456 C 113.118757 25.448456 -78.648619 73.595765 37.298758 149.232606 C 37.298758 149.232606 -57.619298 80.934541 113.118757 25.448456 Z M 113.118757 25.448456 " transform="matrix(0.600724,0,0,0.600939,0,0.00000000000001708)"/>
<path style="fill-rule:evenodd;fill:rgb(59.607843%,78.039216%,10.980392%);fill-opacity:1;stroke-width:0.1;stroke-linecap:butt;stroke-linejoin:miter;stroke:rgb(59.607843%,78.039216%,10.980392%);stroke-opacity:1;stroke-miterlimit:4;" d="M 188.620131 0.0455017 C 188.620131 0.0455017 6.944748 41.829071 2.256393 213.019503 C 50.921648 39.918 188.620131 0.0455017 188.620131 0.0455017 Z M 188.620131 0.0455017 " transform="matrix(0.600724,0,0,0.600939,0,0.00000000000001708)"/>
<path style="fill-rule:evenodd;fill:rgb(59.607843%,78.039216%,10.980392%);fill-opacity:1;stroke-width:0.1;stroke-linecap:butt;stroke-linejoin:miter;stroke:rgb(59.607843%,78.039216%,10.980392%);stroke-opacity:1;stroke-miterlimit:4;" d="M 120.102521 83.372132 C 154.845767 118.700959 44.750706 135.881105 44.750706 135.881105 C 44.750706 135.881105 77.055488 137.051149 108.657992 127.515291 C 125.88981 122.315095 146.301387 102.437348 139.818322 82.982118 C 139.818322 82.982118 171.78497 76.514375 186.136148 18.818207 C 186.136148 18.818207 157.862961 83.879151 120.102521 83.372132 Z M 120.102521 83.372132 " transform="matrix(0.600724,0,0,0.600939,0,0.00000000000001708)"/>
<path style="fill-rule:evenodd;fill:rgb(59.607843%,78.039216%,10.980392%);fill-opacity:1;stroke-width:0.1;stroke-linecap:butt;stroke-linejoin:miter;stroke:rgb(59.607843%,78.039216%,10.980392%);stroke-opacity:1;stroke-miterlimit:4;" d="M 116.155459 101.085298 C 116.155459 101.085298 72.698765 88.38382 73.687156 82.033082 C 74.688552 75.617341 116.155459 101.085298 116.155459 101.085298 Z M 116.155459 101.085298 " transform="matrix(0.600724,0,0,0.600939,0,0.00000000000001708)"/>
<path style="fill-rule:evenodd;fill:rgb(59.607843%,78.039216%,10.980392%);fill-opacity:1;stroke-width:0.1;stroke-linecap:butt;stroke-linejoin:miter;stroke:rgb(59.607843%,78.039216%,10.980392%);stroke-opacity:1;stroke-miterlimit:4;" d="M 162.46028 44.72168 C 162.46028 44.72168 80.378303 65.704468 80.57338 74.395295 C 80.57338 74.395295 76.398728 83.807649 129.921406 60.185761 C 137.854545 56.68863 155.775635 49.096344 162.46028 44.72168 Z M 162.46028 44.72168 " transform="matrix(0.600724,0,0,0.600939,0,0.00000000000001708)"/>
</g>
</svg>
